<svg
xmlns="http://www.w3.org/2000/svg"
width="1200"
height="800"
viewBox="0 0 1200 800">
<g transform="matrix(1 0 0 1 0 0)"
style="stroke:rgb(255,0,0);
stroke-width:1.0">
<line x1="139.276" y1="683.261" x2="241.739" y2="597.961"/>
<line x1="241.739" y1="597.961" x2="301.676" y2="548.063"/>
<line x1="301.676" y1="548.063" x2="344.202" y2="512.660"/>
<line x1="344.202" y1="512.660" x2="377.187" y2="485.200"/>
<line x1="377.187" y1="485.200" x2="404.138" y2="462.763"/>
<line x1="404.138" y1="462.763" x2="426.925" y2="443.793"/>
<line x1="426.925" y1="443.793" x2="446.664" y2="427.360"/>
<line x1="446.664" y1="427.360" x2="464.075" y2="412.865"/>
<line x1="464.075" y1="412.865" x2="479.650" y2="399.900"/>
<line x1="479.650" y1="399.900" x2="582.113" y2="314.599"/>
<line x1="582.113" y1="314.599" x2="642.050" y2="264.702"/>
<line x1="642.050" y1="264.702" x2="684.576" y2="229.299"/>
<line x1="684.576" y1="229.299" x2="717.561" y2="201.838"/>
<line x1="717.561" y1="201.838" x2="744.513" y2="179.402"/>
<line x1="744.513" y1="179.402" x2="767.300" y2="160.431"/>
<line x1="767.300" y1="160.431" x2="787.038" y2="143.999"/>
<line x1="787.038" y1="143.999" x2="804.449" y2="129.504"/>
<line x1="804.449" y1="129.504" x2="820.024" y2="116.538"/>
</g>
<g transform="matrix(1 0 0 1 0 0)"
style="stroke:rgb(2,2,255);
stroke-width:1.0">
<line x1="388.409" y1="51.941" x2="390.582" y2="57.010"/>
<line x1="392.754" y1="51.941" x2="390.582" y2="57.010"/>
<line x1="390.582" y1="57.010" x2="389.858" y2="58.459"/>
<line x1="389.858" y1="58.459" x2="389.133" y2="59.183"/>
<line x1="389.133" y1="59.183" x2="388.409" y2="59.545"/>
<line x1="388.409" y1="59.545" x2="388.047" y2="59.545"/>
<line x1="394.927" y1="52.666" x2="401.444" y2="52.666"/>
<line x1="394.927" y1="54.838" x2="401.444" y2="54.838"/>
<line x1="406.875" y1="47.959" x2="406.151" y2="48.683"/>
<line x1="406.151" y1="48.683" x2="405.426" y2="49.769"/>
<line x1="405.426" y1="49.769" x2="404.702" y2="51.217"/>
<line x1="404.702" y1="51.217" x2="404.340" y2="53.028"/>
<line x1="404.340" y1="53.028" x2="404.340" y2="54.476"/>
<line x1="404.340" y1="54.476" x2="404.702" y2="56.286"/>
<line x1="404.702" y1="56.286" x2="405.426" y2="57.735"/>
<line x1="405.426" y1="57.735" x2="406.151" y2="58.821"/>
<line x1="406.151" y1="58.821" x2="406.875" y2="59.545"/>
<line x1="414.659" y1="47.177" x2="418.642" y2="52.246"/>
<line x1="418.642" y1="47.177" x2="414.659" y2="52.246"/>
<line x1="407.961" y1="53.390" x2="425.340" y2="53.390"/>
<line x1="410.133" y1="61.051" x2="410.857" y2="60.689"/>
<line x1="410.857" y1="60.689" x2="411.944" y2="59.603"/>
<line x1="411.944" y1="59.603" x2="411.944" y2="67.206"/>
<line x1="418.461" y1="59.603" x2="417.375" y2="59.965"/>
<line x1="417.375" y1="59.965" x2="416.651" y2="61.051"/>
<line x1="416.651" y1="61.051" x2="416.288" y2="62.861"/>
<line x1="416.288" y1="62.861" x2="416.288" y2="63.948"/>
<line x1="416.288" y1="63.948" x2="416.651" y2="65.758"/>
<line x1="416.651" y1="65.758" x2="417.375" y2="66.844"/>
<line x1="417.375" y1="66.844" x2="418.461" y2="67.206"/>
<line x1="418.461" y1="67.206" x2="419.185" y2="67.206"/>
<line x1="419.185" y1="67.206" x2="420.271" y2="66.844"/>
<line x1="420.271" y1="66.844" x2="420.995" y2="65.758"/>
<line x1="420.995" y1="65.758" x2="421.357" y2="63.948"/>
<line x1="421.357" y1="63.948" x2="421.357" y2="62.861"/>
<line x1="421.357" y1="62.861" x2="420.995" y2="61.051"/>
<line x1="420.995" y1="61.051" x2="420.271" y2="59.965"/>
<line x1="420.271" y1="59.965" x2="419.185" y2="59.603"/>
<line x1="419.185" y1="59.603" x2="418.461" y2="59.603"/>
<line x1="424.906" y1="58.516" x2="423.457" y2="61.558"/>
<line x1="422.878" y1="58.516" x2="424.906" y2="58.516"/>
<line x1="426.426" y1="47.959" x2="427.150" y2="48.683"/>
<line x1="427.150" y1="48.683" x2="427.875" y2="49.769"/>
<line x1="427.875" y1="49.769" x2="428.599" y2="51.217"/>
<line x1="428.599" y1="51.217" x2="428.961" y2="53.028"/>
<line x1="428.961" y1="53.028" x2="428.961" y2="54.476"/>
<line x1="428.961" y1="54.476" x2="428.599" y2="56.286"/>
<line x1="428.599" y1="56.286" x2="427.875" y2="57.735"/>
<line x1="427.875" y1="57.735" x2="427.150" y2="58.821"/>
<line x1="427.150" y1="58.821" x2="426.426" y2="59.545"/>
<line x1="430.988" y1="43.252" x2="430.988" y2="43.107"/>
<line x1="430.988" y1="43.107" x2="431.133" y2="42.817"/>
<line x1="431.133" y1="42.817" x2="431.278" y2="42.672"/>
<line x1="431.278" y1="42.672" x2="431.568" y2="42.528"/>
<line x1="431.568" y1="42.528" x2="432.147" y2="42.528"/>
<line x1="432.147" y1="42.528" x2="432.437" y2="42.672"/>
<line x1="432.437" y1="42.672" x2="432.581" y2="42.817"/>
<line x1="432.581" y1="42.817" x2="432.726" y2="43.107"/>
<line x1="432.726" y1="43.107" x2="432.726" y2="43.397"/>
<line x1="432.726" y1="43.397" x2="432.581" y2="43.686"/>
<line x1="432.581" y1="43.686" x2="432.292" y2="44.121"/>
<line x1="432.292" y1="44.121" x2="430.844" y2="45.569"/>
<line x1="430.844" y1="45.569" x2="432.871" y2="45.569"/>
<line x1="441.271" y1="51.941" x2="442.719" y2="57.010"/>
<line x1="444.168" y1="51.941" x2="442.719" y2="57.010"/>
<line x1="444.168" y1="51.941" x2="445.616" y2="57.010"/>
<line x1="447.064" y1="51.941" x2="445.616" y2="57.010"/>
<line x1="449.236" y1="49.407" x2="449.599" y2="49.769"/>
<line x1="449.599" y1="49.769" x2="449.961" y2="49.407"/>
<line x1="449.961" y1="49.407" x2="449.599" y2="49.045"/>
<line x1="449.599" y1="49.045" x2="449.236" y2="49.407"/>
<line x1="449.599" y1="51.941" x2="449.599" y2="57.010"/>
<line x1="452.857" y1="49.407" x2="452.857" y2="55.562"/>
<line x1="452.857" y1="55.562" x2="453.219" y2="56.648"/>
<line x1="453.219" y1="56.648" x2="453.943" y2="57.010"/>
<line x1="453.943" y1="57.010" x2="454.667" y2="57.010"/>
<line x1="451.771" y1="51.941" x2="454.305" y2="51.941"/>
<line x1="456.840" y1="49.407" x2="456.840" y2="57.010"/>
<line x1="456.840" y1="53.390" x2="457.926" y2="52.303"/>
<line x1="457.926" y1="52.303" x2="458.650" y2="51.941"/>
<line x1="458.650" y1="51.941" x2="459.736" y2="51.941"/>
<line x1="459.736" y1="51.941" x2="460.460" y2="52.303"/>
<line x1="460.460" y1="52.303" x2="460.823" y2="53.390"/>
<line x1="460.823" y1="53.390" x2="460.823" y2="57.010"/>
<line x1="470.598" y1="49.407" x2="470.598" y2="57.010"/>
<line x1="474.943" y1="51.941" x2="474.219" y2="52.303"/>
<line x1="474.219" y1="52.303" x2="473.495" y2="53.028"/>
<line x1="473.495" y1="53.028" x2="473.133" y2="54.114"/>
<line x1="473.133" y1="54.114" x2="473.133" y2="54.838"/>
<line x1="473.133" y1="54.838" x2="473.495" y2="55.924"/>
<line x1="473.495" y1="55.924" x2="474.219" y2="56.648"/>
<line x1="474.219" y1="56.648" x2="474.943" y2="57.010"/>
<line x1="474.943" y1="57.010" x2="476.029" y2="57.010"/>
<line x1="476.029" y1="57.010" x2="476.754" y2="56.648"/>
<line x1="476.754" y1="56.648" x2="477.478" y2="55.924"/>
<line x1="477.478" y1="55.924" x2="477.840" y2="54.838"/>
<line x1="477.840" y1="54.838" x2="477.840" y2="54.114"/>
<line x1="477.840" y1="54.114" x2="477.478" y2="53.028"/>
<line x1="477.478" y1="53.028" x2="476.754" y2="52.303"/>
<line x1="476.754" y1="52.303" x2="476.029" y2="51.941"/>
<line x1="476.029" y1="51.941" x2="474.943" y2="51.941"/>
<line x1="484.357" y1="51.941" x2="484.357" y2="57.735"/>
<line x1="484.357" y1="57.735" x2="483.995" y2="58.821"/>
<line x1="483.995" y1="58.821" x2="483.633" y2="59.183"/>
<line x1="483.633" y1="59.183" x2="482.909" y2="59.545"/>
<line x1="482.909" y1="59.545" x2="481.822" y2="59.545"/>
<line x1="481.822" y1="59.545" x2="481.098" y2="59.183"/>
<line x1="484.357" y1="53.028" x2="483.633" y2="52.303"/>
<line x1="483.633" y1="52.303" x2="482.909" y2="51.941"/>
<line x1="482.909" y1="51.941" x2="481.822" y2="51.941"/>
<line x1="481.822" y1="51.941" x2="481.098" y2="52.303"/>
<line x1="481.098" y1="52.303" x2="480.374" y2="53.028"/>
<line x1="480.374" y1="53.028" x2="480.012" y2="54.114"/>
<line x1="480.012" y1="54.114" x2="480.012" y2="54.838"/>
<line x1="480.012" y1="54.838" x2="480.374" y2="55.924"/>
<line x1="480.374" y1="55.924" x2="481.098" y2="56.648"/>
<line x1="481.098" y1="56.648" x2="481.822" y2="57.010"/>
<line x1="481.822" y1="57.010" x2="482.909" y2="57.010"/>
<line x1="482.909" y1="57.010" x2="483.633" y2="56.648"/>
<line x1="483.633" y1="56.648" x2="484.357" y2="55.924"/>
<line x1="493.771" y1="51.941" x2="497.753" y2="57.010"/>
<line x1="497.753" y1="51.941" x2="493.771" y2="57.010"/>
<line x1="511.150" y1="51.941" x2="511.150" y2="57.010"/>
<line x1="511.150" y1="53.028" x2="510.426" y2="52.303"/>
<line x1="510.426" y1="52.303" x2="509.702" y2="51.941"/>
<line x1="509.702" y1="51.941" x2="508.615" y2="51.941"/>
<line x1="508.615" y1="51.941" x2="507.891" y2="52.303"/>
<line x1="507.891" y1="52.303" x2="507.167" y2="53.028"/>
<line x1="507.167" y1="53.028" x2="506.805" y2="54.114"/>
<line x1="506.805" y1="54.114" x2="506.805" y2="54.838"/>
<line x1="506.805" y1="54.838" x2="507.167" y2="55.924"/>
<line x1="507.167" y1="55.924" x2="507.891" y2="56.648"/>
<line x1="507.891" y1="56.648" x2="508.615" y2="57.010"/>
<line x1="508.615" y1="57.010" x2="509.702" y2="57.010"/>
<line x1="509.702" y1="57.010" x2="510.426" y2="56.648"/>
<line x1="510.426" y1="56.648" x2="511.150" y2="55.924"/>
<line x1="514.046" y1="51.941" x2="514.046" y2="57.010"/>
<line x1="514.046" y1="53.390" x2="515.133" y2="52.303"/>
<line x1="515.133" y1="52.303" x2="515.857" y2="51.941"/>
<line x1="515.857" y1="51.941" x2="516.943" y2="51.941"/>
<line x1="516.943" y1="51.941" x2="517.667" y2="52.303"/>
<line x1="517.667" y1="52.303" x2="518.029" y2="53.390"/>
<line x1="518.029" y1="53.390" x2="518.029" y2="57.010"/>
<line x1="524.908" y1="49.407" x2="524.908" y2="57.010"/>
<line x1="524.908" y1="53.028" x2="524.184" y2="52.303"/>
<line x1="524.184" y1="52.303" x2="523.460" y2="51.941"/>
<line x1="523.460" y1="51.941" x2="522.374" y2="51.941"/>
<line x1="522.374" y1="51.941" x2="521.650" y2="52.303"/>
<line x1="521.650" y1="52.303" x2="520.926" y2="53.028"/>
<line x1="520.926" y1="53.028" x2="520.564" y2="54.114"/>
<line x1="520.564" y1="54.114" x2="520.564" y2="54.838"/>
<line x1="520.564" y1="54.838" x2="520.926" y2="55.924"/>
<line x1="520.926" y1="55.924" x2="521.650" y2="56.648"/>
<line x1="521.650" y1="56.648" x2="522.374" y2="57.010"/>
<line x1="522.374" y1="57.010" x2="523.460" y2="57.010"/>
<line x1="523.460" y1="57.010" x2="524.184" y2="56.648"/>
<line x1="524.184" y1="56.648" x2="524.908" y2="55.924"/>
<line x1="533.960" y1="51.941" x2="536.132" y2="57.010"/>
<line x1="538.305" y1="51.941" x2="536.132" y2="57.010"/>
<line x1="536.132" y1="57.010" x2="535.408" y2="58.459"/>
<line x1="535.408" y1="58.459" x2="534.684" y2="59.183"/>
<line x1="534.684" y1="59.183" x2="533.960" y2="59.545"/>
<line x1="533.960" y1="59.545" x2="533.598" y2="59.545"/>
<line x1="551.339" y1="51.941" x2="551.339" y2="57.010"/>
<line x1="551.339" y1="53.028" x2="550.615" y2="52.303"/>
<line x1="550.615" y1="52.303" x2="549.891" y2="51.941"/>
<line x1="549.891" y1="51.941" x2="548.805" y2="51.941"/>
<line x1="548.805" y1="51.941" x2="548.081" y2="52.303"/>
<line x1="548.081" y1="52.303" x2="547.356" y2="53.028"/>
<line x1="547.356" y1="53.028" x2="546.994" y2="54.114"/>
<line x1="546.994" y1="54.114" x2="546.994" y2="54.838"/>
<line x1="546.994" y1="54.838" x2="547.356" y2="55.924"/>
<line x1="547.356" y1="55.924" x2="548.081" y2="56.648"/>
<line x1="548.081" y1="56.648" x2="548.805" y2="57.010"/>
<line x1="548.805" y1="57.010" x2="549.891" y2="57.010"/>
<line x1="549.891" y1="57.010" x2="550.615" y2="56.648"/>
<line x1="550.615" y1="56.648" x2="551.339" y2="55.924"/>
<line x1="553.874" y1="51.941" x2="557.856" y2="57.010"/>
<line x1="557.856" y1="51.941" x2="553.874" y2="57.010"/>
<line x1="560.029" y1="54.114" x2="564.374" y2="54.114"/>
<line x1="564.374" y1="54.114" x2="564.374" y2="53.390"/>
<line x1="564.374" y1="53.390" x2="564.011" y2="52.666"/>
<line x1="564.011" y1="52.666" x2="563.649" y2="52.303"/>
<line x1="563.649" y1="52.303" x2="562.925" y2="51.941"/>
<line x1="562.925" y1="51.941" x2="561.839" y2="51.941"/>
<line x1="561.839" y1="51.941" x2="561.115" y2="52.303"/>
<line x1="561.115" y1="52.303" x2="560.391" y2="53.028"/>
<line x1="560.391" y1="53.028" x2="560.029" y2="54.114"/>
<line x1="560.029" y1="54.114" x2="560.029" y2="54.838"/>
<line x1="560.029" y1="54.838" x2="560.391" y2="55.924"/>
<line x1="560.391" y1="55.924" x2="561.115" y2="56.648"/>
<line x1="561.115" y1="56.648" x2="561.839" y2="57.010"/>
<line x1="561.839" y1="57.010" x2="562.925" y2="57.010"/>
<line x1="562.925" y1="57.010" x2="563.649" y2="56.648"/>
<line x1="563.649" y1="56.648" x2="564.374" y2="55.924"/>
<line x1="570.529" y1="53.028" x2="570.167" y2="52.303"/>
<line x1="570.167" y1="52.303" x2="569.080" y2="51.941"/>
<line x1="569.080" y1="51.941" x2="567.994" y2="51.941"/>
<line x1="567.994" y1="51.941" x2="566.908" y2="52.303"/>
<line x1="566.908" y1="52.303" x2="566.546" y2="53.028"/>
<line x1="566.546" y1="53.028" x2="566.908" y2="53.752"/>
<line x1="566.908" y1="53.752" x2="567.632" y2="54.114"/>
<line x1="567.632" y1="54.114" x2="569.443" y2="54.476"/>
<line x1="569.443" y1="54.476" x2="570.167" y2="54.838"/>
<line x1="570.167" y1="54.838" x2="570.529" y2="55.562"/>
<line x1="570.529" y1="55.562" x2="570.529" y2="55.924"/>
<line x1="570.529" y1="55.924" x2="570.167" y2="56.648"/>
<line x1="570.167" y1="56.648" x2="569.080" y2="57.010"/>
<line x1="569.080" y1="57.010" x2="567.994" y2="57.010"/>
<line x1="567.994" y1="57.010" x2="566.908" y2="56.648"/>
<line x1="566.908" y1="56.648" x2="566.546" y2="55.924"/>
</g>
<g transform="matrix(1 0 0 1 0 0)"
style="stroke:rgb(2,2,255);
stroke-width:1.0">
<line x1="453.771" y1="720.302" x2="453.771" y2="733.398"/>
<line x1="461.254" y1="724.668" x2="460.007" y2="725.291"/>
<line x1="460.007" y1="725.291" x2="458.760" y2="726.538"/>
<line x1="458.760" y1="726.538" x2="458.136" y2="728.409"/>
<line x1="458.136" y1="728.409" x2="458.136" y2="729.656"/>
<line x1="458.136" y1="729.656" x2="458.760" y2="731.527"/>
<line x1="458.760" y1="731.527" x2="460.007" y2="732.774"/>
<line x1="460.007" y1="732.774" x2="461.254" y2="733.398"/>
<line x1="461.254" y1="733.398" x2="463.125" y2="733.398"/>
<line x1="463.125" y1="733.398" x2="464.372" y2="732.774"/>
<line x1="464.372" y1="732.774" x2="465.619" y2="731.527"/>
<line x1="465.619" y1="731.527" x2="466.243" y2="729.656"/>
<line x1="466.243" y1="729.656" x2="466.243" y2="728.409"/>
<line x1="466.243" y1="728.409" x2="465.619" y2="726.538"/>
<line x1="465.619" y1="726.538" x2="464.372" y2="725.291"/>
<line x1="464.372" y1="725.291" x2="463.125" y2="724.668"/>
<line x1="463.125" y1="724.668" x2="461.254" y2="724.668"/>
<line x1="477.467" y1="724.668" x2="477.467" y2="734.645"/>
<line x1="477.467" y1="734.645" x2="476.844" y2="736.516"/>
<line x1="476.844" y1="736.516" x2="476.220" y2="737.139"/>
<line x1="476.220" y1="737.139" x2="474.973" y2="737.763"/>
<line x1="474.973" y1="737.763" x2="473.102" y2="737.763"/>
<line x1="473.102" y1="737.763" x2="471.855" y2="737.139"/>
<line x1="477.467" y1="726.538" x2="476.220" y2="725.291"/>
<line x1="476.220" y1="725.291" x2="474.973" y2="724.668"/>
<line x1="474.973" y1="724.668" x2="473.102" y2="724.668"/>
<line x1="473.102" y1="724.668" x2="471.855" y2="725.291"/>
<line x1="471.855" y1="725.291" x2="470.608" y2="726.538"/>
<line x1="470.608" y1="726.538" x2="469.984" y2="728.409"/>
<line x1="469.984" y1="728.409" x2="469.984" y2="729.656"/>
<line x1="469.984" y1="729.656" x2="470.608" y2="731.527"/>
<line x1="470.608" y1="731.527" x2="471.855" y2="732.774"/>
<line x1="471.855" y1="732.774" x2="473.102" y2="733.398"/>
<line x1="473.102" y1="733.398" x2="474.973" y2="733.398"/>
<line x1="474.973" y1="733.398" x2="476.220" y2="732.774"/>
<line x1="476.220" y1="732.774" x2="477.467" y2="731.527"/>
<line x1="486.821" y1="717.808" x2="485.574" y2="719.055"/>
<line x1="485.574" y1="719.055" x2="484.327" y2="720.926"/>
<line x1="484.327" y1="720.926" x2="483.080" y2="723.420"/>
<line x1="483.080" y1="723.420" x2="482.456" y2="726.538"/>
<line x1="482.456" y1="726.538" x2="482.456" y2="729.033"/>
<line x1="482.456" y1="729.033" x2="483.080" y2="732.151"/>
<line x1="483.080" y1="732.151" x2="484.327" y2="734.645"/>
<line x1="484.327" y1="734.645" x2="485.574" y2="736.516"/>
<line x1="485.574" y1="736.516" x2="486.821" y2="737.763"/>
<line x1="490.563" y1="724.668" x2="497.422" y2="733.398"/>
<line x1="497.422" y1="724.668" x2="490.563" y2="733.398"/>
<line x1="501.164" y1="717.808" x2="502.411" y2="719.055"/>
<line x1="502.411" y1="719.055" x2="503.658" y2="720.926"/>
<line x1="503.658" y1="720.926" x2="504.906" y2="723.420"/>
<line x1="504.906" y1="723.420" x2="505.529" y2="726.538"/>
<line x1="505.529" y1="726.538" x2="505.529" y2="729.033"/>
<line x1="505.529" y1="729.033" x2="504.906" y2="732.151"/>
<line x1="504.906" y1="732.151" x2="503.658" y2="734.645"/>
<line x1="503.658" y1="734.645" x2="502.411" y2="736.516"/>
<line x1="502.411" y1="736.516" x2="501.164" y2="737.763"/>
</g>
<g transform="matrix(1 0 0 1 0 0)"
style="stroke:rgb(2,2,255);
stroke-width:1.0">
<line x1="13.583" y1="430.611" x2="29.314" y2="430.611"/>
<line x1="18.827" y1="421.622" x2="19.576" y2="423.120"/>
<line x1="19.576" y1="423.120" x2="21.074" y2="424.619"/>
<line x1="21.074" y1="424.619" x2="23.321" y2="425.368"/>
<line x1="23.321" y1="425.368" x2="24.819" y2="425.368"/>
<line x1="24.819" y1="425.368" x2="27.066" y2="424.619"/>
<line x1="27.066" y1="424.619" x2="28.565" y2="423.120"/>
<line x1="28.565" y1="423.120" x2="29.314" y2="421.622"/>
<line x1="29.314" y1="421.622" x2="29.314" y2="419.375"/>
<line x1="29.314" y1="419.375" x2="28.565" y2="417.877"/>
<line x1="28.565" y1="417.877" x2="27.066" y2="416.379"/>
<line x1="27.066" y1="416.379" x2="24.819" y2="415.630"/>
<line x1="24.819" y1="415.630" x2="23.321" y2="415.630"/>
<line x1="23.321" y1="415.630" x2="21.074" y2="416.379"/>
<line x1="21.074" y1="416.379" x2="19.576" y2="417.877"/>
<line x1="19.576" y1="417.877" x2="18.827" y2="419.375"/>
<line x1="18.827" y1="419.375" x2="18.827" y2="421.622"/>
<line x1="18.827" y1="402.147" x2="30.812" y2="402.147"/>
<line x1="30.812" y1="402.147" x2="33.059" y2="402.896"/>
<line x1="33.059" y1="402.896" x2="33.808" y2="403.645"/>
<line x1="33.808" y1="403.645" x2="34.557" y2="405.143"/>
<line x1="34.557" y1="405.143" x2="34.557" y2="407.390"/>
<line x1="34.557" y1="407.390" x2="33.808" y2="408.888"/>
<line x1="21.074" y1="402.147" x2="19.576" y2="403.645"/>
<line x1="19.576" y1="403.645" x2="18.827" y2="405.143"/>
<line x1="18.827" y1="405.143" x2="18.827" y2="407.390"/>
<line x1="18.827" y1="407.390" x2="19.576" y2="408.888"/>
<line x1="19.576" y1="408.888" x2="21.074" y2="410.386"/>
<line x1="21.074" y1="410.386" x2="23.321" y2="411.135"/>
<line x1="23.321" y1="411.135" x2="24.819" y2="411.135"/>
<line x1="24.819" y1="411.135" x2="27.066" y2="410.386"/>
<line x1="27.066" y1="410.386" x2="28.565" y2="408.888"/>
<line x1="28.565" y1="408.888" x2="29.314" y2="407.390"/>
<line x1="29.314" y1="407.390" x2="29.314" y2="405.143"/>
<line x1="29.314" y1="405.143" x2="28.565" y2="403.645"/>
<line x1="28.565" y1="403.645" x2="27.066" y2="402.147"/>
<line x1="10.587" y1="390.911" x2="12.085" y2="392.409"/>
<line x1="12.085" y1="392.409" x2="14.332" y2="393.907"/>
<line x1="14.332" y1="393.907" x2="17.329" y2="395.405"/>
<line x1="17.329" y1="395.405" x2="21.074" y2="396.154"/>
<line x1="21.074" y1="396.154" x2="24.070" y2="396.154"/>
<line x1="24.070" y1="396.154" x2="27.816" y2="395.405"/>
<line x1="27.816" y1="395.405" x2="30.812" y2="393.907"/>
<line x1="30.812" y1="393.907" x2="33.059" y2="392.409"/>
<line x1="33.059" y1="392.409" x2="34.557" y2="390.911"/>
<line x1="18.827" y1="387.165" x2="29.314" y2="382.671"/>
<line x1="18.827" y1="378.177" x2="29.314" y2="382.671"/>
<line x1="29.314" y1="382.671" x2="32.310" y2="384.169"/>
<line x1="32.310" y1="384.169" x2="33.808" y2="385.667"/>
<line x1="33.808" y1="385.667" x2="34.557" y2="387.165"/>
<line x1="34.557" y1="387.165" x2="34.557" y2="387.914"/>
<line x1="10.587" y1="374.431" x2="12.085" y2="372.933"/>
<line x1="12.085" y1="372.933" x2="14.332" y2="371.435"/>
<line x1="14.332" y1="371.435" x2="17.329" y2="369.937"/>
<line x1="17.329" y1="369.937" x2="21.074" y2="369.188"/>
<line x1="21.074" y1="369.188" x2="24.070" y2="369.188"/>
<line x1="24.070" y1="369.188" x2="27.816" y2="369.937"/>
<line x1="27.816" y1="369.937" x2="30.812" y2="371.435"/>
<line x1="30.812" y1="371.435" x2="33.059" y2="372.933"/>
<line x1="33.059" y1="372.933" x2="34.557" y2="374.431"/>
</g>
<g transform="matrix(1 0 0 1 0 0)"
style="stroke:rgb(2,2,255);
stroke-width:1.0">
<line x1="241.739" y1="683.261" x2="241.739" y2="679.270"/>
</g>
<g transform="matrix(1 0 0 1 0 0)"
style="stroke:rgb(2,2,255);
stroke-width:1.0">
<line x1="301.676" y1="683.261" x2="301.676" y2="679.270"/>
</g>
<g transform="matrix(1 0 0 1 0 0)"
style="stroke:rgb(2,2,255);
stroke-width:1.0">
<line x1="344.202" y1="683.261" x2="344.202" y2="679.270"/>
</g>
<g transform="matrix(1 0 0 1 0 0)"
style="stroke:rgb(2,2,255);
stroke-width:1.0">
<line x1="377.187" y1="683.261" x2="377.187" y2="679.270"/>
</g>
<g transform="matrix(1 0 0 1 0 0)"
style="stroke:rgb(2,2,255);
stroke-width:1.0">
<line x1="404.139" y1="683.261" x2="404.139" y2="679.270"/>
</g>
<g transform="matrix(1 0 0 1 0 0)"
style="stroke:rgb(2,2,255);
stroke-width:1.0">
<line x1="426.926" y1="683.261" x2="426.926" y2="679.270"/>
</g>
<g transform="matrix(1 0 0 1 0 0)"
style="stroke:rgb(2,2,255);
stroke-width:1.0">
<line x1="446.665" y1="683.261" x2="446.665" y2="679.270"/>
</g>
<g transform="matrix(1 0 0 1 0 0)"
style="stroke:rgb(2,2,255);
stroke-width:1.0">
<line x1="464.076" y1="683.261" x2="464.076" y2="679.270"/>
</g>
<g transform="matrix(1 0 0 1 0 0)"
style="stroke:rgb(2,2,255);
stroke-width:1.0">
<line x1="479.650" y1="683.261" x2="479.650" y2="675.279"/>
</g>
<g transform="matrix(1 0 0 1 0 0)"
style="stroke:rgb(2,2,255);
stroke-width:1.0">
<line x1="582.113" y1="683.261" x2="582.113" y2="679.270"/>
</g>
<g transform="matrix(1 0 0 1 0 0)"
style="stroke:rgb(2,2,255);
stroke-width:1.0">
<line x1="642.050" y1="683.261" x2="642.050" y2="679.270"/>
</g>
<g transform="matrix(1 0 0 1 0 0)"
style="stroke:rgb(2,2,255);
stroke-width:1.0">
<line x1="684.576" y1="683.261" x2="684.576" y2="679.270"/>
</g>
<g transform="matrix(1 0 0 1 0 0)"
style="stroke:rgb(2,2,255);
stroke-width:1.0">
<line x1="717.562" y1="683.261" x2="717.562" y2="679.270"/>
</g>
<g transform="matrix(1 0 0 1 0 0)"
style="stroke:rgb(2,2,255);
stroke-width:1.0">
<line x1="744.513" y1="683.261" x2="744.513" y2="679.270"/>
</g>
<g transform="matrix(1 0 0 1 0 0)"
style="stroke:rgb(2,2,255);
stroke-width:1.0">
<line x1="767.300" y1="683.261" x2="767.300" y2="679.270"/>
</g>
<g transform="matrix(1 0 0 1 0 0)"
style="stroke:rgb(2,2,255);
stroke-width:1.0">
<line x1="787.039" y1="683.261" x2="787.039" y2="679.270"/>
</g>
<g transform="matrix(1 0 0 1 0 0)"
style="stroke:rgb(2,2,255);
stroke-width:1.0">
<line x1="804.450" y1="683.261" x2="804.450" y2="679.270"/>
</g>
<g transform="matrix(1 0 0 1 0 0)"
style="stroke:rgb(2,2,255);
stroke-width:1.0">
<line x1="241.739" y1="116.538" x2="241.739" y2="120.529"/>
</g>
<g transform="matrix(1 0 0 1 0 0)"
style="stroke:rgb(2,2,255);
stroke-width:1.0">
<line x1="301.676" y1="116.538" x2="301.676" y2="120.529"/>
</g>
<g transform="matrix(1 0 0 1 0 0)"
style="stroke:rgb(2,2,255);
stroke-width:1.0">
<line x1="344.202" y1="116.538" x2="344.202" y2="120.529"/>
</g>
<g transform="matrix(1 0 0 1 0 0)"
style="stroke:rgb(2,2,255);
stroke-width:1.0">
<line x1="377.187" y1="116.538" x2="377.187" y2="120.529"/>
</g>
<g transform="matrix(1 0 0 1 0 0)"
style="stroke:rgb(2,2,255);
stroke-width:1.0">
<line x1="404.139" y1="116.538" x2="404.139" y2="120.529"/>
</g>
<g transform="matrix(1 0 0 1 0 0)"
style="stroke:rgb(2,2,255);
stroke-width:1.0">
<line x1="426.926" y1="116.538" x2="426.926" y2="120.529"/>
</g>
<g transform="matrix(1 0 0 1 0 0)"
style="stroke:rgb(2,2,255);
stroke-width:1.0">
<line x1="446.665" y1="116.538" x2="446.665" y2="120.529"/>
</g>
<g transform="matrix(1 0 0 1 0 0)"
style="stroke:rgb(2,2,255);
stroke-width:1.0">
<line x1="464.076" y1="116.538" x2="464.076" y2="120.529"/>
</g>
<g transform="matrix(1 0 0 1 0 0)"
style="stroke:rgb(2,2,255);
stroke-width:1.0">
<line x1="479.650" y1="116.538" x2="479.650" y2="124.520"/>
</g>
<g transform="matrix(1 0 0 1 0 0)"
style="stroke:rgb(2,2,255);
stroke-width:1.0">
<line x1="582.113" y1="116.538" x2="582.113" y2="120.529"/>
</g>
<g transform="matrix(1 0 0 1 0 0)"
style="stroke:rgb(2,2,255);
stroke-width:1.0">
<line x1="642.050" y1="116.538" x2="642.050" y2="120.529"/>
</g>
<g transform="matrix(1 0 0 1 0 0)"
style="stroke:rgb(2,2,255);
stroke-width:1.0">
<line x1="684.576" y1="116.538" x2="684.576" y2="120.529"/>
</g>
<g transform="matrix(1 0 0 1 0 0)"
style="stroke:rgb(2,2,255);
stroke-width:1.0">
<line x1="717.562" y1="116.538" x2="717.562" y2="120.529"/>
</g>
<g transform="matrix(1 0 0 1 0 0)"
style="stroke:rgb(2,2,255);
stroke-width:1.0">
<line x1="744.513" y1="116.538" x2="744.513" y2="120.529"/>
</g>
<g transform="matrix(1 0 0 1 0 0)"
style="stroke:rgb(2,2,255);
stroke-width:1.0">
<line x1="767.300" y1="116.538" x2="767.300" y2="120.529"/>
</g>
<g transform="matrix(1 0 0 1 0 0)"
style="stroke:rgb(2,2,255);
stroke-width:1.0">
<line x1="787.039" y1="116.538" x2="787.039" y2="120.529"/>
</g>
<g transform="matrix(1 0 0 1 0 0)"
style="stroke:rgb(2,2,255);
stroke-width:1.0">
<line x1="804.450" y1="116.538" x2="804.450" y2="120.529"/>
</g>
<g transform="matrix(1 0 0 1 0 0)"
style="stroke:rgb(2,2,255);
stroke-width:1.0">
<line x1="139.276" y1="640.611" x2="143.267" y2="640.611"/>
</g>
<g transform="matrix(1 0 0 1 0 0)"
style="stroke:rgb(2,2,255);
stroke-width:1.0">
<line x1="139.276" y1="615.662" x2="143.267" y2="615.662"/>
</g>
<g transform="matrix(1 0 0 1 0 0)"
style="stroke:rgb(2,2,255);
stroke-width:1.0">
<line x1="139.276" y1="597.961" x2="143.267" y2="597.961"/>
</g>
<g transform="matrix(1 0 0 1 0 0)"
style="stroke:rgb(2,2,255);
stroke-width:1.0">
<line x1="139.276" y1="584.230" x2="143.267" y2="584.230"/>
</g>
<g transform="matrix(1 0 0 1 0 0)"
style="stroke:rgb(2,2,255);
stroke-width:1.0">
<line x1="139.276" y1="573.012" x2="143.267" y2="573.012"/>
</g>
<g transform="matrix(1 0 0 1 0 0)"
style="stroke:rgb(2,2,255);
stroke-width:1.0">
<line x1="139.276" y1="563.527" x2="143.267" y2="563.527"/>
</g>
<g transform="matrix(1 0 0 1 0 0)"
style="stroke:rgb(2,2,255);
stroke-width:1.0">
<line x1="139.276" y1="555.310" x2="143.267" y2="555.310"/>
</g>
<g transform="matrix(1 0 0 1 0 0)"
style="stroke:rgb(2,2,255);
stroke-width:1.0">
<line x1="139.276" y1="548.063" x2="143.267" y2="548.063"/>
</g>
<g transform="matrix(1 0 0 1 0 0)"
style="stroke:rgb(2,2,255);
stroke-width:1.0">
<line x1="139.276" y1="541.580" x2="147.258" y2="541.580"/>
</g>
<g transform="matrix(1 0 0 1 0 0)"
style="stroke:rgb(2,2,255);
stroke-width:1.0">
<line x1="139.276" y1="498.930" x2="143.267" y2="498.930"/>
</g>
<g transform="matrix(1 0 0 1 0 0)"
style="stroke:rgb(2,2,255);
stroke-width:1.0">
<line x1="139.276" y1="473.981" x2="143.267" y2="473.981"/>
</g>
<g transform="matrix(1 0 0 1 0 0)"
style="stroke:rgb(2,2,255);
stroke-width:1.0">
<line x1="139.276" y1="456.280" x2="143.267" y2="456.280"/>
</g>
<g transform="matrix(1 0 0 1 0 0)"
style="stroke:rgb(2,2,255);
stroke-width:1.0">
<line x1="139.276" y1="442.550" x2="143.267" y2="442.550"/>
</g>
<g transform="matrix(1 0 0 1 0 0)"
style="stroke:rgb(2,2,255);
stroke-width:1.0">
<line x1="139.276" y1="431.331" x2="143.267" y2="431.331"/>
</g>
<g transform="matrix(1 0 0 1 0 0)"
style="stroke:rgb(2,2,255);
stroke-width:1.0">
<line x1="139.276" y1="421.846" x2="143.267" y2="421.846"/>
</g>
<g transform="matrix(1 0 0 1 0 0)"
style="stroke:rgb(2,2,255);
stroke-width:1.0">
<line x1="139.276" y1="413.630" x2="143.267" y2="413.630"/>
</g>
<g transform="matrix(1 0 0 1 0 0)"
style="stroke:rgb(2,2,255);
stroke-width:1.0">
<line x1="139.276" y1="406.382" x2="143.267" y2="406.382"/>
</g>
<g transform="matrix(1 0 0 1 0 0)"
style="stroke:rgb(2,2,255);
stroke-width:1.0">
<line x1="139.276" y1="399.900" x2="147.258" y2="399.900"/>
</g>
<g transform="matrix(1 0 0 1 0 0)"
style="stroke:rgb(2,2,255);
stroke-width:1.0">
<line x1="139.276" y1="357.249" x2="143.267" y2="357.249"/>
</g>
<g transform="matrix(1 0 0 1 0 0)"
style="stroke:rgb(2,2,255);
stroke-width:1.0">
<line x1="139.276" y1="332.301" x2="143.267" y2="332.301"/>
</g>
<g transform="matrix(1 0 0 1 0 0)"
style="stroke:rgb(2,2,255);
stroke-width:1.0">
<line x1="139.276" y1="314.599" x2="143.267" y2="314.599"/>
</g>
<g transform="matrix(1 0 0 1 0 0)"
style="stroke:rgb(2,2,255);
stroke-width:1.0">
<line x1="139.276" y1="300.869" x2="143.267" y2="300.869"/>
</g>
<g transform="matrix(1 0 0 1 0 0)"
style="stroke:rgb(2,2,255);
stroke-width:1.0">
<line x1="139.276" y1="289.651" x2="143.267" y2="289.651"/>
</g>
<g transform="matrix(1 0 0 1 0 0)"
style="stroke:rgb(2,2,255);
stroke-width:1.0">
<line x1="139.276" y1="280.165" x2="143.267" y2="280.165"/>
</g>
<g transform="matrix(1 0 0 1 0 0)"
style="stroke:rgb(2,2,255);
stroke-width:1.0">
<line x1="139.276" y1="271.949" x2="143.267" y2="271.949"/>
</g>
<g transform="matrix(1 0 0 1 0 0)"
style="stroke:rgb(2,2,255);
stroke-width:1.0">
<line x1="139.276" y1="264.702" x2="143.267" y2="264.702"/>
</g>
<g transform="matrix(1 0 0 1 0 0)"
style="stroke:rgb(2,2,255);
stroke-width:1.0">
<line x1="139.276" y1="258.219" x2="147.258" y2="258.219"/>
</g>
<g transform="matrix(1 0 0 1 0 0)"
style="stroke:rgb(2,2,255);
stroke-width:1.0">
<line x1="139.276" y1="215.569" x2="143.267" y2="215.569"/>
</g>
<g transform="matrix(1 0 0 1 0 0)"
style="stroke:rgb(2,2,255);
stroke-width:1.0">
<line x1="139.276" y1="190.620" x2="143.267" y2="190.620"/>
</g>
<g transform="matrix(1 0 0 1 0 0)"
style="stroke:rgb(2,2,255);
stroke-width:1.0">
<line x1="139.276" y1="172.919" x2="143.267" y2="172.919"/>
</g>
<g transform="matrix(1 0 0 1 0 0)"
style="stroke:rgb(2,2,255);
stroke-width:1.0">
<line x1="139.276" y1="159.188" x2="143.267" y2="159.188"/>
</g>
<g transform="matrix(1 0 0 1 0 0)"
style="stroke:rgb(2,2,255);
stroke-width:1.0">
<line x1="139.276" y1="147.970" x2="143.267" y2="147.970"/>
</g>
<g transform="matrix(1 0 0 1 0 0)"
style="stroke:rgb(2,2,255);
stroke-width:1.0">
<line x1="139.276" y1="138.485" x2="143.267" y2="138.485"/>
</g>
<g transform="matrix(1 0 0 1 0 0)"
style="stroke:rgb(2,2,255);
stroke-width:1.0">
<line x1="139.276" y1="130.269" x2="143.267" y2="130.269"/>
</g>
<g transform="matrix(1 0 0 1 0 0)"
style="stroke:rgb(2,2,255);
stroke-width:1.0">
<line x1="139.276" y1="123.021" x2="143.267" y2="123.021"/>
</g>
<g transform="matrix(1 0 0 1 0 0)"
style="stroke:rgb(2,2,255);
stroke-width:1.0">
<line x1="820.024" y1="640.611" x2="816.033" y2="640.611"/>
</g>
<g transform="matrix(1 0 0 1 0 0)"
style="stroke:rgb(2,2,255);
stroke-width:1.0">
<line x1="820.024" y1="615.662" x2="816.033" y2="615.662"/>
</g>
<g transform="matrix(1 0 0 1 0 0)"
style="stroke:rgb(2,2,255);
stroke-width:1.0">
<line x1="820.024" y1="597.961" x2="816.033" y2="597.961"/>
</g>
<g transform="matrix(1 0 0 1 0 0)"
style="stroke:rgb(2,2,255);
stroke-width:1.0">
<line x1="820.024" y1="584.230" x2="816.033" y2="584.230"/>
</g>
<g transform="matrix(1 0 0 1 0 0)"
style="stroke:rgb(2,2,255);
stroke-width:1.0">
<line x1="820.024" y1="573.012" x2="816.033" y2="573.012"/>
</g>
<g transform="matrix(1 0 0 1 0 0)"
style="stroke:rgb(2,2,255);
stroke-width:1.0">
<line x1="820.024" y1="563.527" x2="816.033" y2="563.527"/>
</g>
<g transform="matrix(1 0 0 1 0 0)"
style="stroke:rgb(2,2,255);
stroke-width:1.0">
<line x1="820.024" y1="555.310" x2="816.033" y2="555.310"/>
</g>
<g transform="matrix(1 0 0 1 0 0)"
style="stroke:rgb(2,2,255);
stroke-width:1.0">
<line x1="820.024" y1="548.063" x2="816.033" y2="548.063"/>
</g>
<g transform="matrix(1 0 0 1 0 0)"
style="stroke:rgb(2,2,255);
stroke-width:1.0">
<line x1="820.024" y1="541.580" x2="812.042" y2="541.580"/>
</g>
<g transform="matrix(1 0 0 1 0 0)"
style="stroke:rgb(2,2,255);
stroke-width:1.0">
<line x1="820.024" y1="498.930" x2="816.033" y2="498.930"/>
</g>
<g transform="matrix(1 0 0 1 0 0)"
style="stroke:rgb(2,2,255);
stroke-width:1.0">
<line x1="820.024" y1="473.981" x2="816.033" y2="473.981"/>
</g>
<g transform="matrix(1 0 0 1 0 0)"
style="stroke:rgb(2,2,255);
stroke-width:1.0">
<line x1="820.024" y1="456.280" x2="816.033" y2="456.280"/>
</g>
<g transform="matrix(1 0 0 1 0 0)"
style="stroke:rgb(2,2,255);
stroke-width:1.0">
<line x1="820.024" y1="442.550" x2="816.033" y2="442.550"/>
</g>
<g transform="matrix(1 0 0 1 0 0)"
style="stroke:rgb(2,2,255);
stroke-width:1.0">
<line x1="820.024" y1="431.331" x2="816.033" y2="431.331"/>
</g>
<g transform="matrix(1 0 0 1 0 0)"
style="stroke:rgb(2,2,255);
stroke-width:1.0">
<line x1="820.024" y1="421.846" x2="816.033" y2="421.846"/>
</g>
<g transform="matrix(1 0 0 1 0 0)"
style="stroke:rgb(2,2,255);
stroke-width:1.0">
<line x1="820.024" y1="413.630" x2="816.033" y2="413.630"/>
</g>
<g transform="matrix(1 0 0 1 0 0)"
style="stroke:rgb(2,2,255);
stroke-width:1.0">
<line x1="820.024" y1="406.382" x2="816.033" y2="406.382"/>
</g>
<g transform="matrix(1 0 0 1 0 0)"
style="stroke:rgb(2,2,255);
stroke-width:1.0">
<line x1="820.024" y1="399.900" x2="812.042" y2="399.900"/>
</g>
<g transform="matrix(1 0 0 1 0 0)"
style="stroke:rgb(2,2,255);
stroke-width:1.0">
<line x1="820.024" y1="357.249" x2="816.033" y2="357.249"/>
</g>
<g transform="matrix(1 0 0 1 0 0)"
style="stroke:rgb(2,2,255);
stroke-width:1.0">
<line x1="820.024" y1="332.301" x2="816.033" y2="332.301"/>
</g>
<g transform="matrix(1 0 0 1 0 0)"
style="stroke:rgb(2,2,255);
stroke-width:1.0">
<line x1="820.024" y1="314.599" x2="816.033" y2="314.599"/>
</g>
<g transform="matrix(1 0 0 1 0 0)"
style="stroke:rgb(2,2,255);
stroke-width:1.0">
<line x1="820.024" y1="300.869" x2="816.033" y2="300.869"/>
</g>
<g transform="matrix(1 0 0 1 0 0)"
style="stroke:rgb(2,2,255);
stroke-width:1.0">
<line x1="820.024" y1="289.651" x2="816.033" y2="289.651"/>
</g>
<g transform="matrix(1 0 0 1 0 0)"
style="stroke:rgb(2,2,255);
stroke-width:1.0">
<line x1="820.024" y1="280.165" x2="816.033" y2="280.165"/>
</g>
<g transform="matrix(1 0 0 1 0 0)"
style="stroke:rgb(2,2,255);
stroke-width:1.0">
<line x1="820.024" y1="271.949" x2="816.033" y2="271.949"/>
</g>
<g transform="matrix(1 0 0 1 0 0)"
style="stroke:rgb(2,2,255);
stroke-width:1.0">
<line x1="820.024" y1="264.702" x2="816.033" y2="264.702"/>
</g>
<g transform="matrix(1 0 0 1 0 0)"
style="stroke:rgb(2,2,255);
stroke-width:1.0">
<line x1="820.024" y1="258.219" x2="812.042" y2="258.219"/>
</g>
<g transform="matrix(1 0 0 1 0 0)"
style="stroke:rgb(2,2,255);
stroke-width:1.0">
<line x1="820.024" y1="215.569" x2="816.033" y2="215.569"/>
</g>
<g transform="matrix(1 0 0 1 0 0)"
style="stroke:rgb(2,2,255);
stroke-width:1.0">
<line x1="820.024" y1="190.620" x2="816.033" y2="190.620"/>
</g>
<g transform="matrix(1 0 0 1 0 0)"
style="stroke:rgb(2,2,255);
stroke-width:1.0">
<line x1="820.024" y1="172.919" x2="816.033" y2="172.919"/>
</g>
<g transform="matrix(1 0 0 1 0 0)"
style="stroke:rgb(2,2,255);
stroke-width:1.0">
<line x1="820.024" y1="159.188" x2="816.033" y2="159.188"/>
</g>
<g transform="matrix(1 0 0 1 0 0)"
style="stroke:rgb(2,2,255);
stroke-width:1.0">
<line x1="820.024" y1="147.970" x2="816.033" y2="147.970"/>
</g>
<g transform="matrix(1 0 0 1 0 0)"
style="stroke:rgb(2,2,255);
stroke-width:1.0">
<line x1="820.024" y1="138.485" x2="816.033" y2="138.485"/>
</g>
<g transform="matrix(1 0 0 1 0 0)"
style="stroke:rgb(2,2,255);
stroke-width:1.0">
<line x1="820.024" y1="130.269" x2="816.033" y2="130.269"/>
</g>
<g transform="matrix(1 0 0 1 0 0)"
style="stroke:rgb(2,2,255);
stroke-width:1.0">
<line x1="820.024" y1="123.021" x2="816.033" y2="123.021"/>
</g>
<g transform="matrix(1 0 0 1 0 0)"
style="stroke:rgb(2,2,255);
stroke-width:1.0">
<line x1="120.818" y1="699.724" x2="121.815" y2="699.225"/>
<line x1="121.815" y1="699.225" x2="123.312" y2="697.728"/>
<line x1="123.312" y1="697.728" x2="123.312" y2="708.205"/>
<line x1="137.281" y1="697.728" x2="135.784" y2="698.227"/>
<line x1="135.784" y1="698.227" x2="134.786" y2="699.724"/>
<line x1="134.786" y1="699.724" x2="134.287" y2="702.218"/>
<line x1="134.287" y1="702.218" x2="134.287" y2="703.715"/>
<line x1="134.287" y1="703.715" x2="134.786" y2="706.209"/>
<line x1="134.786" y1="706.209" x2="135.784" y2="707.706"/>
<line x1="135.784" y1="707.706" x2="137.281" y2="708.205"/>
<line x1="137.281" y1="708.205" x2="138.278" y2="708.205"/>
<line x1="138.278" y1="708.205" x2="139.775" y2="707.706"/>
<line x1="139.775" y1="707.706" x2="140.773" y2="706.209"/>
<line x1="140.773" y1="706.209" x2="141.272" y2="703.715"/>
<line x1="141.272" y1="703.715" x2="141.272" y2="702.218"/>
<line x1="141.272" y1="702.218" x2="140.773" y2="699.724"/>
<line x1="140.773" y1="699.724" x2="139.775" y2="698.227"/>
<line x1="139.775" y1="698.227" x2="138.278" y2="697.728"/>
<line x1="138.278" y1="697.728" x2="137.281" y2="697.728"/>
<line x1="161.626" y1="696.232" x2="159.630" y2="700.422"/>
<line x1="158.832" y1="696.232" x2="161.626" y2="696.232"/>
</g>
<g transform="matrix(1 0 0 1 0 0)"
style="stroke:rgb(2,2,255);
stroke-width:1.0">
<line x1="461.192" y1="699.724" x2="462.189" y2="699.225"/>
<line x1="462.189" y1="699.225" x2="463.686" y2="697.728"/>
<line x1="463.686" y1="697.728" x2="463.686" y2="708.205"/>
<line x1="477.655" y1="697.728" x2="476.158" y2="698.227"/>
<line x1="476.158" y1="698.227" x2="475.160" y2="699.724"/>
<line x1="475.160" y1="699.724" x2="474.661" y2="702.218"/>
<line x1="474.661" y1="702.218" x2="474.661" y2="703.715"/>
<line x1="474.661" y1="703.715" x2="475.160" y2="706.209"/>
<line x1="475.160" y1="706.209" x2="476.158" y2="707.706"/>
<line x1="476.158" y1="707.706" x2="477.655" y2="708.205"/>
<line x1="477.655" y1="708.205" x2="478.652" y2="708.205"/>
<line x1="478.652" y1="708.205" x2="480.149" y2="707.706"/>
<line x1="480.149" y1="707.706" x2="481.147" y2="706.209"/>
<line x1="481.147" y1="706.209" x2="481.646" y2="703.715"/>
<line x1="481.646" y1="703.715" x2="481.646" y2="702.218"/>
<line x1="481.646" y1="702.218" x2="481.147" y2="699.724"/>
<line x1="481.147" y1="699.724" x2="480.149" y2="698.227"/>
<line x1="480.149" y1="698.227" x2="478.652" y2="697.728"/>
<line x1="478.652" y1="697.728" x2="477.655" y2="697.728"/>
<line x1="500.204" y1="696.232" x2="499.605" y2="696.431"/>
<line x1="499.605" y1="696.431" x2="499.406" y2="696.830"/>
<line x1="499.406" y1="696.830" x2="499.406" y2="697.229"/>
<line x1="499.406" y1="697.229" x2="499.605" y2="697.628"/>
<line x1="499.605" y1="697.628" x2="500.004" y2="697.828"/>
<line x1="500.004" y1="697.828" x2="500.802" y2="698.028"/>
<line x1="500.802" y1="698.028" x2="501.401" y2="698.227"/>
<line x1="501.401" y1="698.227" x2="501.800" y2="698.626"/>
<line x1="501.800" y1="698.626" x2="502.000" y2="699.025"/>
<line x1="502.000" y1="699.025" x2="502.000" y2="699.624"/>
<line x1="502.000" y1="699.624" x2="501.800" y2="700.023"/>
<line x1="501.800" y1="700.023" x2="501.601" y2="700.223"/>
<line x1="501.601" y1="700.223" x2="501.002" y2="700.422"/>
<line x1="501.002" y1="700.422" x2="500.204" y2="700.422"/>
<line x1="500.204" y1="700.422" x2="499.605" y2="700.223"/>
<line x1="499.605" y1="700.223" x2="499.406" y2="700.023"/>
<line x1="499.406" y1="700.023" x2="499.206" y2="699.624"/>
<line x1="499.206" y1="699.624" x2="499.206" y2="699.025"/>
<line x1="499.206" y1="699.025" x2="499.406" y2="698.626"/>
<line x1="499.406" y1="698.626" x2="499.805" y2="698.227"/>
<line x1="499.805" y1="698.227" x2="500.403" y2="698.028"/>
<line x1="500.403" y1="698.028" x2="501.201" y2="697.828"/>
<line x1="501.201" y1="697.828" x2="501.601" y2="697.628"/>
<line x1="501.601" y1="697.628" x2="501.800" y2="697.229"/>
<line x1="501.800" y1="697.229" x2="501.800" y2="696.830"/>
<line x1="501.800" y1="696.830" x2="501.601" y2="696.431"/>
<line x1="501.601" y1="696.431" x2="501.002" y2="696.232"/>
<line x1="501.002" y1="696.232" x2="500.204" y2="696.232"/>
</g>
<g transform="matrix(1 0 0 1 0 0)"
style="stroke:rgb(2,2,255);
stroke-width:1.0">
<line x1="801.566" y1="699.724" x2="802.563" y2="699.225"/>
<line x1="802.563" y1="699.225" x2="804.060" y2="697.728"/>
<line x1="804.060" y1="697.728" x2="804.060" y2="708.205"/>
<line x1="818.029" y1="697.728" x2="816.532" y2="698.227"/>
<line x1="816.532" y1="698.227" x2="815.534" y2="699.724"/>
<line x1="815.534" y1="699.724" x2="815.035" y2="702.218"/>
<line x1="815.035" y1="702.218" x2="815.035" y2="703.715"/>
<line x1="815.035" y1="703.715" x2="815.534" y2="706.209"/>
<line x1="815.534" y1="706.209" x2="816.532" y2="707.706"/>
<line x1="816.532" y1="707.706" x2="818.029" y2="708.205"/>
<line x1="818.029" y1="708.205" x2="819.026" y2="708.205"/>
<line x1="819.026" y1="708.205" x2="820.523" y2="707.706"/>
<line x1="820.523" y1="707.706" x2="821.521" y2="706.209"/>
<line x1="821.521" y1="706.209" x2="822.020" y2="703.715"/>
<line x1="822.020" y1="703.715" x2="822.020" y2="702.218"/>
<line x1="822.020" y1="702.218" x2="821.521" y2="699.724"/>
<line x1="821.521" y1="699.724" x2="820.523" y2="698.227"/>
<line x1="820.523" y1="698.227" x2="819.026" y2="697.728"/>
<line x1="819.026" y1="697.728" x2="818.029" y2="697.728"/>
<line x1="842.174" y1="697.628" x2="841.975" y2="698.227"/>
<line x1="841.975" y1="698.227" x2="841.575" y2="698.626"/>
<line x1="841.575" y1="698.626" x2="840.977" y2="698.826"/>
<line x1="840.977" y1="698.826" x2="840.777" y2="698.826"/>
<line x1="840.777" y1="698.826" x2="840.179" y2="698.626"/>
<line x1="840.179" y1="698.626" x2="839.780" y2="698.227"/>
<line x1="839.780" y1="698.227" x2="839.580" y2="697.628"/>
<line x1="839.580" y1="697.628" x2="839.580" y2="697.429"/>
<line x1="839.580" y1="697.429" x2="839.780" y2="696.830"/>
<line x1="839.780" y1="696.830" x2="840.179" y2="696.431"/>
<line x1="840.179" y1="696.431" x2="840.777" y2="696.232"/>
<line x1="840.777" y1="696.232" x2="840.977" y2="696.232"/>
<line x1="840.977" y1="696.232" x2="841.575" y2="696.431"/>
<line x1="841.575" y1="696.431" x2="841.975" y2="696.830"/>
<line x1="841.975" y1="696.830" x2="842.174" y2="697.628"/>
<line x1="842.174" y1="697.628" x2="842.174" y2="698.626"/>
<line x1="842.174" y1="698.626" x2="841.975" y2="699.624"/>
<line x1="841.975" y1="699.624" x2="841.575" y2="700.223"/>
<line x1="841.575" y1="700.223" x2="840.977" y2="700.422"/>
<line x1="840.977" y1="700.422" x2="840.578" y2="700.422"/>
<line x1="840.578" y1="700.422" x2="839.979" y2="700.223"/>
<line x1="839.979" y1="700.223" x2="839.780" y2="699.824"/>
</g>
<g transform="matrix(1 0 0 1 0 0)"
style="stroke:rgb(2,2,255);
stroke-width:1.0">
<line x1="82.490" y1="679.769" x2="83.487" y2="679.270"/>
<line x1="83.487" y1="679.270" x2="84.984" y2="677.773"/>
<line x1="84.984" y1="677.773" x2="84.984" y2="688.250"/>
<line x1="98.952" y1="677.773" x2="97.456" y2="678.272"/>
<line x1="97.456" y1="678.272" x2="96.458" y2="679.769"/>
<line x1="96.458" y1="679.769" x2="95.959" y2="682.263"/>
<line x1="95.959" y1="682.263" x2="95.959" y2="683.760"/>
<line x1="95.959" y1="683.760" x2="96.458" y2="686.254"/>
<line x1="96.458" y1="686.254" x2="97.456" y2="687.751"/>
<line x1="97.456" y1="687.751" x2="98.952" y2="688.250"/>
<line x1="98.952" y1="688.250" x2="99.950" y2="688.250"/>
<line x1="99.950" y1="688.250" x2="101.447" y2="687.751"/>
<line x1="101.447" y1="687.751" x2="102.445" y2="686.254"/>
<line x1="102.445" y1="686.254" x2="102.943" y2="683.760"/>
<line x1="102.943" y1="683.760" x2="102.943" y2="682.263"/>
<line x1="102.943" y1="682.263" x2="102.445" y2="679.769"/>
<line x1="102.445" y1="679.769" x2="101.447" y2="678.272"/>
<line x1="101.447" y1="678.272" x2="99.950" y2="677.773"/>
<line x1="99.950" y1="677.773" x2="98.952" y2="677.773"/>
<line x1="121.701" y1="676.277" x2="121.103" y2="676.476"/>
<line x1="121.103" y1="676.476" x2="120.703" y2="677.075"/>
<line x1="120.703" y1="677.075" x2="120.504" y2="678.073"/>
<line x1="120.504" y1="678.073" x2="120.504" y2="678.671"/>
<line x1="120.504" y1="678.671" x2="120.703" y2="679.669"/>
<line x1="120.703" y1="679.669" x2="121.103" y2="680.268"/>
<line x1="121.103" y1="680.268" x2="121.701" y2="680.467"/>
<line x1="121.701" y1="680.467" x2="122.100" y2="680.467"/>
<line x1="122.100" y1="680.467" x2="122.699" y2="680.268"/>
<line x1="122.699" y1="680.268" x2="123.098" y2="679.669"/>
<line x1="123.098" y1="679.669" x2="123.298" y2="678.671"/>
<line x1="123.298" y1="678.671" x2="123.298" y2="678.073"/>
<line x1="123.298" y1="678.073" x2="123.098" y2="677.075"/>
<line x1="123.098" y1="677.075" x2="122.699" y2="676.476"/>
<line x1="122.699" y1="676.476" x2="122.100" y2="676.277"/>
<line x1="122.100" y1="676.277" x2="121.701" y2="676.277"/>
</g>
<g transform="matrix(1 0 0 1 0 0)"
style="stroke:rgb(2,2,255);
stroke-width:1.0">
<line x1="82.490" y1="538.088" x2="83.487" y2="537.589"/>
<line x1="83.487" y1="537.589" x2="84.984" y2="536.093"/>
<line x1="84.984" y1="536.093" x2="84.984" y2="546.569"/>
<line x1="98.952" y1="536.093" x2="97.456" y2="536.591"/>
<line x1="97.456" y1="536.591" x2="96.458" y2="538.088"/>
<line x1="96.458" y1="538.088" x2="95.959" y2="540.582"/>
<line x1="95.959" y1="540.582" x2="95.959" y2="542.079"/>
<line x1="95.959" y1="542.079" x2="96.458" y2="544.573"/>
<line x1="96.458" y1="544.573" x2="97.456" y2="546.070"/>
<line x1="97.456" y1="546.070" x2="98.952" y2="546.569"/>
<line x1="98.952" y1="546.569" x2="99.950" y2="546.569"/>
<line x1="99.950" y1="546.569" x2="101.447" y2="546.070"/>
<line x1="101.447" y1="546.070" x2="102.445" y2="544.573"/>
<line x1="102.445" y1="544.573" x2="102.943" y2="542.079"/>
<line x1="102.943" y1="542.079" x2="102.943" y2="540.582"/>
<line x1="102.943" y1="540.582" x2="102.445" y2="538.088"/>
<line x1="102.445" y1="538.088" x2="101.447" y2="536.591"/>
<line x1="101.447" y1="536.591" x2="99.950" y2="536.093"/>
<line x1="99.950" y1="536.093" x2="98.952" y2="536.093"/>
<line x1="121.103" y1="535.394" x2="121.502" y2="535.195"/>
<line x1="121.502" y1="535.195" x2="122.100" y2="534.596"/>
<line x1="122.100" y1="534.596" x2="122.100" y2="538.786"/>
</g>
<g transform="matrix(1 0 0 1 0 0)"
style="stroke:rgb(2,2,255);
stroke-width:1.0">
<line x1="82.490" y1="396.407" x2="83.487" y2="395.909"/>
<line x1="83.487" y1="395.909" x2="84.984" y2="394.412"/>
<line x1="84.984" y1="394.412" x2="84.984" y2="404.888"/>
<line x1="98.952" y1="394.412" x2="97.456" y2="394.911"/>
<line x1="97.456" y1="394.911" x2="96.458" y2="396.407"/>
<line x1="96.458" y1="396.407" x2="95.959" y2="398.902"/>
<line x1="95.959" y1="398.902" x2="95.959" y2="400.398"/>
<line x1="95.959" y1="400.398" x2="96.458" y2="402.893"/>
<line x1="96.458" y1="402.893" x2="97.456" y2="404.389"/>
<line x1="97.456" y1="404.389" x2="98.952" y2="404.888"/>
<line x1="98.952" y1="404.888" x2="99.950" y2="404.888"/>
<line x1="99.950" y1="404.888" x2="101.447" y2="404.389"/>
<line x1="101.447" y1="404.389" x2="102.445" y2="402.893"/>
<line x1="102.445" y1="402.893" x2="102.943" y2="400.398"/>
<line x1="102.943" y1="400.398" x2="102.943" y2="398.902"/>
<line x1="102.943" y1="398.902" x2="102.445" y2="396.407"/>
<line x1="102.445" y1="396.407" x2="101.447" y2="394.911"/>
<line x1="101.447" y1="394.911" x2="99.950" y2="394.412"/>
<line x1="99.950" y1="394.412" x2="98.952" y2="394.412"/>
<line x1="120.703" y1="393.913" x2="120.703" y2="393.714"/>
<line x1="120.703" y1="393.714" x2="120.903" y2="393.314"/>
<line x1="120.903" y1="393.314" x2="121.103" y2="393.115"/>
<line x1="121.103" y1="393.115" x2="121.502" y2="392.915"/>
<line x1="121.502" y1="392.915" x2="122.300" y2="392.915"/>
<line x1="122.300" y1="392.915" x2="122.699" y2="393.115"/>
<line x1="122.699" y1="393.115" x2="122.899" y2="393.314"/>
<line x1="122.899" y1="393.314" x2="123.098" y2="393.714"/>
<line x1="123.098" y1="393.714" x2="123.098" y2="394.113"/>
<line x1="123.098" y1="394.113" x2="122.899" y2="394.512"/>
<line x1="122.899" y1="394.512" x2="122.499" y2="395.110"/>
<line x1="122.499" y1="395.110" x2="120.504" y2="397.106"/>
<line x1="120.504" y1="397.106" x2="123.298" y2="397.106"/>
</g>
<g transform="matrix(1 0 0 1 0 0)"
style="stroke:rgb(2,2,255);
stroke-width:1.0">
<line x1="82.490" y1="254.727" x2="83.487" y2="254.228"/>
<line x1="83.487" y1="254.228" x2="84.984" y2="252.731"/>
<line x1="84.984" y1="252.731" x2="84.984" y2="263.208"/>
<line x1="98.952" y1="252.731" x2="97.456" y2="253.230"/>
<line x1="97.456" y1="253.230" x2="96.458" y2="254.727"/>
<line x1="96.458" y1="254.727" x2="95.959" y2="257.221"/>
<line x1="95.959" y1="257.221" x2="95.959" y2="258.718"/>
<line x1="95.959" y1="258.718" x2="96.458" y2="261.212"/>
<line x1="96.458" y1="261.212" x2="97.456" y2="262.709"/>
<line x1="97.456" y1="262.709" x2="98.952" y2="263.208"/>
<line x1="98.952" y1="263.208" x2="99.950" y2="263.208"/>
<line x1="99.950" y1="263.208" x2="101.447" y2="262.709"/>
<line x1="101.447" y1="262.709" x2="102.445" y2="261.212"/>
<line x1="102.445" y1="261.212" x2="102.943" y2="258.718"/>
<line x1="102.943" y1="258.718" x2="102.943" y2="257.221"/>
<line x1="102.943" y1="257.221" x2="102.445" y2="254.727"/>
<line x1="102.445" y1="254.727" x2="101.447" y2="253.230"/>
<line x1="101.447" y1="253.230" x2="99.950" y2="252.731"/>
<line x1="99.950" y1="252.731" x2="98.952" y2="252.731"/>
<line x1="120.903" y1="251.235" x2="123.098" y2="251.235"/>
<line x1="123.098" y1="251.235" x2="121.901" y2="252.831"/>
<line x1="121.901" y1="252.831" x2="122.499" y2="252.831"/>
<line x1="122.499" y1="252.831" x2="122.899" y2="253.031"/>
<line x1="122.899" y1="253.031" x2="123.098" y2="253.230"/>
<line x1="123.098" y1="253.230" x2="123.298" y2="253.829"/>
<line x1="123.298" y1="253.829" x2="123.298" y2="254.228"/>
<line x1="123.298" y1="254.228" x2="123.098" y2="254.826"/>
<line x1="123.098" y1="254.826" x2="122.699" y2="255.226"/>
<line x1="122.699" y1="255.226" x2="122.100" y2="255.425"/>
<line x1="122.100" y1="255.425" x2="121.502" y2="255.425"/>
<line x1="121.502" y1="255.425" x2="120.903" y2="255.226"/>
<line x1="120.903" y1="255.226" x2="120.703" y2="255.026"/>
<line x1="120.703" y1="255.026" x2="120.504" y2="254.627"/>
</g>
<g transform="matrix(1 0 0 1 0 0)"
style="stroke:rgb(2,2,255);
stroke-width:1.0">
<line x1="82.490" y1="113.046" x2="83.487" y2="112.547"/>
<line x1="83.487" y1="112.547" x2="84.984" y2="111.051"/>
<line x1="84.984" y1="111.051" x2="84.984" y2="121.527"/>
<line x1="98.952" y1="111.051" x2="97.456" y2="111.549"/>
<line x1="97.456" y1="111.549" x2="96.458" y2="113.046"/>
<line x1="96.458" y1="113.046" x2="95.959" y2="115.540"/>
<line x1="95.959" y1="115.540" x2="95.959" y2="117.037"/>
<line x1="95.959" y1="117.037" x2="96.458" y2="119.531"/>
<line x1="96.458" y1="119.531" x2="97.456" y2="121.028"/>
<line x1="97.456" y1="121.028" x2="98.952" y2="121.527"/>
<line x1="98.952" y1="121.527" x2="99.950" y2="121.527"/>
<line x1="99.950" y1="121.527" x2="101.447" y2="121.028"/>
<line x1="101.447" y1="121.028" x2="102.445" y2="119.531"/>
<line x1="102.445" y1="119.531" x2="102.943" y2="117.037"/>
<line x1="102.943" y1="117.037" x2="102.943" y2="115.540"/>
<line x1="102.943" y1="115.540" x2="102.445" y2="113.046"/>
<line x1="102.445" y1="113.046" x2="101.447" y2="111.549"/>
<line x1="101.447" y1="111.549" x2="99.950" y2="111.051"/>
<line x1="99.950" y1="111.051" x2="98.952" y2="111.051"/>
<line x1="122.499" y1="109.554" x2="120.504" y2="112.348"/>
<line x1="120.504" y1="112.348" x2="123.497" y2="112.348"/>
<line x1="122.499" y1="109.554" x2="122.499" y2="113.745"/>
</g>
<g transform="matrix(1 0 0 1 0 0)"
style="stroke:rgb(2,2,255);
stroke-width:1.0">
<line x1="139.276" y1="640.611" x2="820.024" y2="640.611"/>
</g>
<g transform="matrix(1 0 0 1 0 0)"
style="stroke:rgb(2,2,255);
stroke-width:1.0">
<line x1="139.276" y1="615.662" x2="820.024" y2="615.662"/>
</g>
<g transform="matrix(1 0 0 1 0 0)"
style="stroke:rgb(2,2,255);
stroke-width:1.0">
<line x1="139.276" y1="597.961" x2="820.024" y2="597.961"/>
</g>
<g transform="matrix(1 0 0 1 0 0)"
style="stroke:rgb(2,2,255);
stroke-width:1.0">
<line x1="139.276" y1="584.230" x2="820.024" y2="584.230"/>
</g>
<g transform="matrix(1 0 0 1 0 0)"
style="stroke:rgb(2,2,255);
stroke-width:1.0">
<line x1="139.276" y1="573.012" x2="820.024" y2="573.012"/>
</g>
<g transform="matrix(1 0 0 1 0 0)"
style="stroke:rgb(2,2,255);
stroke-width:1.0">
<line x1="139.276" y1="563.527" x2="820.024" y2="563.527"/>
</g>
<g transform="matrix(1 0 0 1 0 0)"
style="stroke:rgb(2,2,255);
stroke-width:1.0">
<line x1="139.276" y1="555.310" x2="820.024" y2="555.310"/>
</g>
<g transform="matrix(1 0 0 1 0 0)"
style="stroke:rgb(2,2,255);
stroke-width:1.0">
<line x1="139.276" y1="548.063" x2="820.024" y2="548.063"/>
</g>
<g transform="matrix(1 0 0 1 0 0)"
style="stroke:rgb(2,2,255);
stroke-width:1.0">
<line x1="139.276" y1="541.580" x2="820.024" y2="541.580"/>
</g>
<g transform="matrix(1 0 0 1 0 0)"
style="stroke:rgb(2,2,255);
stroke-width:1.0">
<line x1="139.276" y1="498.930" x2="820.024" y2="498.930"/>
</g>
<g transform="matrix(1 0 0 1 0 0)"
style="stroke:rgb(2,2,255);
stroke-width:1.0">
<line x1="139.276" y1="473.981" x2="820.024" y2="473.981"/>
</g>
<g transform="matrix(1 0 0 1 0 0)"
style="stroke:rgb(2,2,255);
stroke-width:1.0">
<line x1="139.276" y1="456.280" x2="820.024" y2="456.280"/>
</g>
<g transform="matrix(1 0 0 1 0 0)"
style="stroke:rgb(2,2,255);
stroke-width:1.0">
<line x1="139.276" y1="442.550" x2="820.024" y2="442.550"/>
</g>
<g transform="matrix(1 0 0 1 0 0)"
style="stroke:rgb(2,2,255);
stroke-width:1.0">
<line x1="139.276" y1="431.331" x2="820.024" y2="431.331"/>
</g>
<g transform="matrix(1 0 0 1 0 0)"
style="stroke:rgb(2,2,255);
stroke-width:1.0">
<line x1="139.276" y1="421.846" x2="820.024" y2="421.846"/>
</g>
<g transform="matrix(1 0 0 1 0 0)"
style="stroke:rgb(2,2,255);
stroke-width:1.0">
<line x1="139.276" y1="413.630" x2="820.024" y2="413.630"/>
</g>
<g transform="matrix(1 0 0 1 0 0)"
style="stroke:rgb(2,2,255);
stroke-width:1.0">
<line x1="139.276" y1="406.382" x2="820.024" y2="406.382"/>
</g>
<g transform="matrix(1 0 0 1 0 0)"
style="stroke:rgb(2,2,255);
stroke-width:1.0">
<line x1="139.276" y1="399.900" x2="820.024" y2="399.900"/>
</g>
<g transform="matrix(1 0 0 1 0 0)"
style="stroke:rgb(2,2,255);
stroke-width:1.0">
<line x1="139.276" y1="357.249" x2="820.024" y2="357.249"/>
</g>
<g transform="matrix(1 0 0 1 0 0)"
style="stroke:rgb(2,2,255);
stroke-width:1.0">
<line x1="139.276" y1="332.301" x2="820.024" y2="332.301"/>
</g>
<g transform="matrix(1 0 0 1 0 0)"
style="stroke:rgb(2,2,255);
stroke-width:1.0">
<line x1="139.276" y1="314.599" x2="820.024" y2="314.599"/>
</g>
<g transform="matrix(1 0 0 1 0 0)"
style="stroke:rgb(2,2,255);
stroke-width:1.0">
<line x1="139.276" y1="300.869" x2="820.024" y2="300.869"/>
</g>
<g transform="matrix(1 0 0 1 0 0)"
style="stroke:rgb(2,2,255);
stroke-width:1.0">
<line x1="139.276" y1="289.651" x2="820.024" y2="289.651"/>
</g>
<g transform="matrix(1 0 0 1 0 0)"
style="stroke:rgb(2,2,255);
stroke-width:1.0">
<line x1="139.276" y1="280.165" x2="820.024" y2="280.165"/>
</g>
<g transform="matrix(1 0 0 1 0 0)"
style="stroke:rgb(2,2,255);
stroke-width:1.0">
<line x1="139.276" y1="271.949" x2="820.024" y2="271.949"/>
</g>
<g transform="matrix(1 0 0 1 0 0)"
style="stroke:rgb(2,2,255);
stroke-width:1.0">
<line x1="139.276" y1="264.702" x2="820.024" y2="264.702"/>
</g>
<g transform="matrix(1 0 0 1 0 0)"
style="stroke:rgb(2,2,255);
stroke-width:1.0">
<line x1="139.276" y1="258.219" x2="820.024" y2="258.219"/>
</g>
<g transform="matrix(1 0 0 1 0 0)"
style="stroke:rgb(2,2,255);
stroke-width:1.0">
<line x1="139.276" y1="215.569" x2="820.024" y2="215.569"/>
</g>
<g transform="matrix(1 0 0 1 0 0)"
style="stroke:rgb(2,2,255);
stroke-width:1.0">
<line x1="139.276" y1="190.620" x2="820.024" y2="190.620"/>
</g>
<g transform="matrix(1 0 0 1 0 0)"
style="stroke:rgb(2,2,255);
stroke-width:1.0">
<line x1="139.276" y1="172.919" x2="820.024" y2="172.919"/>
</g>
<g transform="matrix(1 0 0 1 0 0)"
style="stroke:rgb(2,2,255);
stroke-width:1.0">
<line x1="139.276" y1="159.188" x2="820.024" y2="159.188"/>
</g>
<g transform="matrix(1 0 0 1 0 0)"
style="stroke:rgb(2,2,255);
stroke-width:1.0">
<line x1="139.276" y1="147.970" x2="820.024" y2="147.970"/>
</g>
<g transform="matrix(1 0 0 1 0 0)"
style="stroke:rgb(2,2,255);
stroke-width:1.0">
<line x1="139.276" y1="138.485" x2="820.024" y2="138.485"/>
</g>
<g transform="matrix(1 0 0 1 0 0)"
style="stroke:rgb(2,2,255);
stroke-width:1.0">
<line x1="139.276" y1="130.269" x2="820.024" y2="130.269"/>
</g>
<g transform="matrix(1 0 0 1 0 0)"
style="stroke:rgb(2,2,255);
stroke-width:1.0">
<line x1="139.276" y1="123.021" x2="820.024" y2="123.021"/>
</g>
<g transform="matrix(1 0 0 1 0 0)"
style="stroke:rgb(2,2,255);
stroke-width:1.0">
<line x1="241.739" y1="683.261" x2="241.739" y2="116.538"/>
</g>
<g transform="matrix(1 0 0 1 0 0)"
style="stroke:rgb(2,2,255);
stroke-width:1.0">
<line x1="301.676" y1="683.261" x2="301.676" y2="116.538"/>
</g>
<g transform="matrix(1 0 0 1 0 0)"
style="stroke:rgb(2,2,255);
stroke-width:1.0">
<line x1="344.202" y1="683.261" x2="344.202" y2="116.538"/>
</g>
<g transform="matrix(1 0 0 1 0 0)"
style="stroke:rgb(2,2,255);
stroke-width:1.0">
<line x1="377.187" y1="683.261" x2="377.187" y2="116.538"/>
</g>
<g transform="matrix(1 0 0 1 0 0)"
style="stroke:rgb(2,2,255);
stroke-width:1.0">
<line x1="404.139" y1="683.261" x2="404.139" y2="116.538"/>
</g>
<g transform="matrix(1 0 0 1 0 0)"
style="stroke:rgb(2,2,255);
stroke-width:1.0">
<line x1="426.926" y1="683.261" x2="426.926" y2="116.538"/>
</g>
<g transform="matrix(1 0 0 1 0 0)"
style="stroke:rgb(2,2,255);
stroke-width:1.0">
<line x1="446.665" y1="683.261" x2="446.665" y2="116.538"/>
</g>
<g transform="matrix(1 0 0 1 0 0)"
style="stroke:rgb(2,2,255);
stroke-width:1.0">
<line x1="464.076" y1="683.261" x2="464.076" y2="116.538"/>
</g>
<g transform="matrix(1 0 0 1 0 0)"
style="stroke:rgb(2,2,255);
stroke-width:1.0">
<line x1="479.650" y1="683.261" x2="479.650" y2="116.538"/>
</g>
<g transform="matrix(1 0 0 1 0 0)"
style="stroke:rgb(2,2,255);
stroke-width:1.0">
<line x1="582.113" y1="683.261" x2="582.113" y2="116.538"/>
</g>
<g transform="matrix(1 0 0 1 0 0)"
style="stroke:rgb(2,2,255);
stroke-width:1.0">
<line x1="642.050" y1="683.261" x2="642.050" y2="116.538"/>
</g>
<g transform="matrix(1 0 0 1 0 0)"
style="stroke:rgb(2,2,255);
stroke-width:1.0">
<line x1="684.576" y1="683.261" x2="684.576" y2="116.538"/>
</g>
<g transform="matrix(1 0 0 1 0 0)"
style="stroke:rgb(2,2,255);
stroke-width:1.0">
<line x1="717.562" y1="683.261" x2="717.562" y2="116.538"/>
</g>
<g transform="matrix(1 0 0 1 0 0)"
style="stroke:rgb(2,2,255);
stroke-width:1.0">
<line x1="744.513" y1="683.261" x2="744.513" y2="116.538"/>
</g>
<g transform="matrix(1 0 0 1 0 0)"
style="stroke:rgb(2,2,255);
stroke-width:1.0">
<line x1="767.300" y1="683.261" x2="767.300" y2="116.538"/>
</g>
<g transform="matrix(1 0 0 1 0 0)"
style="stroke:rgb(2,2,255);
stroke-width:1.0">
<line x1="787.039" y1="683.261" x2="787.039" y2="116.538"/>
</g>
<g transform="matrix(1 0 0 1 0 0)"
style="stroke:rgb(2,2,255);
stroke-width:1.0">
<line x1="804.450" y1="683.261" x2="804.450" y2="116.538"/>
</g>
<g transform="matrix(1 0 0 1 0 0)"
style="stroke:rgb(2,2,255);
stroke-width:1.0">
<line x1="139.276" y1="683.261" x2="820.024" y2="683.261"/>
<line x1="820.024" y1="683.261" x2="820.024" y2="116.538"/>
<line x1="820.024" y1="116.538" x2="139.276" y2="116.538"/>
<line x1="139.276" y1="116.538" x2="139.276" y2="683.261"/>
</g>
<g transform="matrix(1 0 0 1 0 0)"
style="stroke:rgb(2,2,2);
stroke-width:1.0">
<line x1="139.276" y1="683.261" x2="241.739" y2="683.091"/>
<line x1="241.739" y1="683.091" x2="301.676" y2="682.807"/>
<line x1="301.676" y1="682.807" x2="344.202" y2="682.411"/>
<line x1="344.202" y1="682.411" x2="377.187" y2="681.901"/>
<line x1="377.187" y1="681.901" x2="404.138" y2="681.277"/>
<line x1="404.138" y1="681.277" x2="426.925" y2="680.540"/>
<line x1="426.925" y1="680.540" x2="446.664" y2="679.690"/>
<line x1="446.664" y1="679.690" x2="464.075" y2="678.727"/>
<line x1="464.075" y1="678.727" x2="479.650" y2="677.650"/>
<line x1="479.650" y1="677.650" x2="582.113" y2="660.646"/>
<line x1="582.113" y1="660.646" x2="642.050" y2="632.307"/>
<line x1="642.050" y1="632.307" x2="684.576" y2="592.633"/>
<line x1="684.576" y1="592.633" x2="717.561" y2="541.623"/>
<line x1="717.561" y1="541.623" x2="744.513" y2="479.277"/>
<line x1="744.513" y1="479.277" x2="767.300" y2="405.596"/>
<line x1="767.300" y1="405.596" x2="787.038" y2="320.579"/>
<line x1="787.038" y1="320.579" x2="804.449" y2="224.226"/>
<line x1="804.449" y1="224.226" x2="820.024" y2="116.538"/>
</g>
<g transform="matrix(1 0 0 1 0 0)"
style="stroke:rgb(2,2,2);
stroke-width:1.0">
<line x1="934.846" y1="458.701" x2="942.337" y2="452.708"/>
<line x1="942.337" y1="452.708" x2="950.577" y2="452.708"/>
<line x1="934.846" y1="446.716" x2="942.337" y2="452.708"/>
<line x1="931.850" y1="423.495" x2="933.348" y2="424.993"/>
<line x1="933.348" y1="424.993" x2="935.595" y2="426.491"/>
<line x1="935.595" y1="426.491" x2="938.592" y2="427.989"/>
<line x1="938.592" y1="427.989" x2="942.337" y2="428.738"/>
<line x1="942.337" y1="428.738" x2="945.333" y2="428.738"/>
<line x1="945.333" y1="428.738" x2="949.078" y2="427.989"/>
<line x1="949.078" y1="427.989" x2="952.075" y2="426.491"/>
<line x1="952.075" y1="426.491" x2="954.322" y2="424.993"/>
<line x1="954.322" y1="424.993" x2="955.820" y2="423.495"/>
<line x1="934.846" y1="418.252" x2="950.577" y2="418.252"/>
<line x1="950.577" y1="418.252" x2="950.577" y2="409.263"/>
<line x1="934.846" y1="406.267" x2="935.595" y2="405.517"/>
<line x1="935.595" y1="405.517" x2="934.846" y2="404.768"/>
<line x1="934.846" y1="404.768" x2="934.097" y2="405.517"/>
<line x1="934.097" y1="405.517" x2="934.846" y2="406.267"/>
<line x1="940.090" y1="405.517" x2="950.577" y2="405.517"/>
<line x1="940.090" y1="399.525" x2="950.577" y2="399.525"/>
<line x1="943.086" y1="399.525" x2="940.839" y2="397.278"/>
<line x1="940.839" y1="397.278" x2="940.090" y2="395.780"/>
<line x1="940.090" y1="395.780" x2="940.090" y2="393.532"/>
<line x1="940.090" y1="393.532" x2="940.839" y2="392.034"/>
<line x1="940.839" y1="392.034" x2="943.086" y2="391.285"/>
<line x1="943.086" y1="391.285" x2="950.577" y2="391.285"/>
<line x1="944.584" y1="386.042" x2="944.584" y2="377.053"/>
<line x1="944.584" y1="377.053" x2="943.086" y2="377.053"/>
<line x1="943.086" y1="377.053" x2="941.588" y2="377.802"/>
<line x1="941.588" y1="377.802" x2="940.839" y2="378.551"/>
<line x1="940.839" y1="378.551" x2="940.090" y2="380.049"/>
<line x1="940.090" y1="380.049" x2="940.090" y2="382.297"/>
<line x1="940.090" y1="382.297" x2="940.839" y2="383.795"/>
<line x1="940.839" y1="383.795" x2="942.337" y2="385.293"/>
<line x1="942.337" y1="385.293" x2="944.584" y2="386.042"/>
<line x1="944.584" y1="386.042" x2="946.082" y2="386.042"/>
<line x1="946.082" y1="386.042" x2="948.329" y2="385.293"/>
<line x1="948.329" y1="385.293" x2="949.828" y2="383.795"/>
<line x1="949.828" y1="383.795" x2="950.577" y2="382.297"/>
<line x1="950.577" y1="382.297" x2="950.577" y2="380.049"/>
<line x1="950.577" y1="380.049" x2="949.828" y2="378.551"/>
<line x1="949.828" y1="378.551" x2="948.329" y2="377.053"/>
<line x1="940.090" y1="363.570" x2="950.577" y2="363.570"/>
<line x1="942.337" y1="363.570" x2="940.839" y2="365.068"/>
<line x1="940.839" y1="365.068" x2="940.090" y2="366.566"/>
<line x1="940.090" y1="366.566" x2="940.090" y2="368.813"/>
<line x1="940.090" y1="368.813" x2="940.839" y2="370.312"/>
<line x1="940.839" y1="370.312" x2="942.337" y2="371.810"/>
<line x1="942.337" y1="371.810" x2="944.584" y2="372.559"/>
<line x1="944.584" y1="372.559" x2="946.082" y2="372.559"/>
<line x1="946.082" y1="372.559" x2="948.329" y2="371.810"/>
<line x1="948.329" y1="371.810" x2="949.828" y2="370.312"/>
<line x1="949.828" y1="370.312" x2="950.577" y2="368.813"/>
<line x1="950.577" y1="368.813" x2="950.577" y2="366.566"/>
<line x1="950.577" y1="366.566" x2="949.828" y2="365.068"/>
<line x1="949.828" y1="365.068" x2="948.329" y2="363.570"/>
<line x1="940.090" y1="357.577" x2="950.577" y2="357.577"/>
<line x1="944.584" y1="357.577" x2="942.337" y2="356.828"/>
<line x1="942.337" y1="356.828" x2="940.839" y2="355.330"/>
<line x1="940.839" y1="355.330" x2="940.090" y2="353.832"/>
<line x1="940.090" y1="353.832" x2="940.090" y2="351.585"/>
<line x1="931.850" y1="348.589" x2="933.348" y2="347.091"/>
<line x1="933.348" y1="347.091" x2="935.595" y2="345.592"/>
<line x1="935.595" y1="345.592" x2="938.592" y2="344.094"/>
<line x1="938.592" y1="344.094" x2="942.337" y2="343.345"/>
<line x1="942.337" y1="343.345" x2="945.333" y2="343.345"/>
<line x1="945.333" y1="343.345" x2="949.078" y2="344.094"/>
<line x1="949.078" y1="344.094" x2="952.075" y2="345.592"/>
<line x1="952.075" y1="345.592" x2="954.322" y2="347.091"/>
<line x1="954.322" y1="347.091" x2="955.820" y2="348.589"/>
</g>
<g transform="matrix(1 0 0 1 0 0)"
style="stroke:rgb(2,2,2);
stroke-width:1.0">
<line x1="820.024" y1="569.962" x2="828.006" y2="569.962"/>
<line x1="820.024" y1="456.606" x2="828.006" y2="456.606"/>
<line x1="820.024" y1="343.250" x2="828.006" y2="343.250"/>
<line x1="820.024" y1="229.894" x2="828.006" y2="229.894"/>
</g>
<g transform="matrix(1 0 0 1 0 0)"
style="stroke:rgb(2,2,2);
stroke-width:1.0">
<line x1="856.357" y1="677.830" x2="854.860" y2="678.329"/>
<line x1="854.860" y1="678.329" x2="853.862" y2="679.825"/>
<line x1="853.862" y1="679.825" x2="853.363" y2="682.320"/>
<line x1="853.363" y1="682.320" x2="853.363" y2="683.816"/>
<line x1="853.363" y1="683.816" x2="853.862" y2="686.311"/>
<line x1="853.862" y1="686.311" x2="854.860" y2="687.807"/>
<line x1="854.860" y1="687.807" x2="856.357" y2="688.306"/>
<line x1="856.357" y1="688.306" x2="857.354" y2="688.306"/>
<line x1="857.354" y1="688.306" x2="858.851" y2="687.807"/>
<line x1="858.851" y1="687.807" x2="859.849" y2="686.311"/>
<line x1="859.849" y1="686.311" x2="860.348" y2="683.816"/>
<line x1="860.348" y1="683.816" x2="860.348" y2="682.320"/>
<line x1="860.348" y1="682.320" x2="859.849" y2="679.825"/>
<line x1="859.849" y1="679.825" x2="858.851" y2="678.329"/>
<line x1="858.851" y1="678.329" x2="857.354" y2="677.830"/>
<line x1="857.354" y1="677.830" x2="856.357" y2="677.830"/>
<line x1="871.822" y1="687.309" x2="871.323" y2="687.807"/>
<line x1="871.323" y1="687.807" x2="871.822" y2="688.306"/>
<line x1="871.822" y1="688.306" x2="872.321" y2="687.807"/>
<line x1="872.321" y1="687.807" x2="871.822" y2="687.309"/>
<line x1="886.289" y1="677.830" x2="884.792" y2="678.329"/>
<line x1="884.792" y1="678.329" x2="883.795" y2="679.825"/>
<line x1="883.795" y1="679.825" x2="883.296" y2="682.320"/>
<line x1="883.296" y1="682.320" x2="883.296" y2="683.816"/>
<line x1="883.296" y1="683.816" x2="883.795" y2="686.311"/>
<line x1="883.795" y1="686.311" x2="884.792" y2="687.807"/>
<line x1="884.792" y1="687.807" x2="886.289" y2="688.306"/>
<line x1="886.289" y1="688.306" x2="887.287" y2="688.306"/>
<line x1="887.287" y1="688.306" x2="888.784" y2="687.807"/>
<line x1="888.784" y1="687.807" x2="889.781" y2="686.311"/>
<line x1="889.781" y1="686.311" x2="890.280" y2="683.816"/>
<line x1="890.280" y1="683.816" x2="890.280" y2="682.320"/>
<line x1="890.280" y1="682.320" x2="889.781" y2="679.825"/>
<line x1="889.781" y1="679.825" x2="888.784" y2="678.329"/>
<line x1="888.784" y1="678.329" x2="887.287" y2="677.830"/>
<line x1="887.287" y1="677.830" x2="886.289" y2="677.830"/>
<line x1="901.255" y1="677.830" x2="899.759" y2="678.329"/>
<line x1="899.759" y1="678.329" x2="898.761" y2="679.825"/>
<line x1="898.761" y1="679.825" x2="898.262" y2="682.320"/>
<line x1="898.262" y1="682.320" x2="898.262" y2="683.816"/>
<line x1="898.262" y1="683.816" x2="898.761" y2="686.311"/>
<line x1="898.761" y1="686.311" x2="899.759" y2="687.807"/>
<line x1="899.759" y1="687.807" x2="901.255" y2="688.306"/>
<line x1="901.255" y1="688.306" x2="902.253" y2="688.306"/>
<line x1="902.253" y1="688.306" x2="903.750" y2="687.807"/>
<line x1="903.750" y1="687.807" x2="904.747" y2="686.311"/>
<line x1="904.747" y1="686.311" x2="905.246" y2="683.816"/>
<line x1="905.246" y1="683.816" x2="905.246" y2="682.320"/>
<line x1="905.246" y1="682.320" x2="904.747" y2="679.825"/>
<line x1="904.747" y1="679.825" x2="903.750" y2="678.329"/>
<line x1="903.750" y1="678.329" x2="902.253" y2="677.830"/>
<line x1="902.253" y1="677.830" x2="901.255" y2="677.830"/>
</g>
<g transform="matrix(1 0 0 1 0 0)"
style="stroke:rgb(2,2,2);
stroke-width:1.0">
<line x1="853.862" y1="566.968" x2="853.862" y2="566.470"/>
<line x1="853.862" y1="566.470" x2="854.361" y2="565.472"/>
<line x1="854.361" y1="565.472" x2="854.860" y2="564.973"/>
<line x1="854.860" y1="564.973" x2="855.858" y2="564.474"/>
<line x1="855.858" y1="564.474" x2="857.853" y2="564.474"/>
<line x1="857.853" y1="564.474" x2="858.851" y2="564.973"/>
<line x1="858.851" y1="564.973" x2="859.350" y2="565.472"/>
<line x1="859.350" y1="565.472" x2="859.849" y2="566.470"/>
<line x1="859.849" y1="566.470" x2="859.849" y2="567.467"/>
<line x1="859.849" y1="567.467" x2="859.350" y2="568.465"/>
<line x1="859.350" y1="568.465" x2="858.352" y2="569.962"/>
<line x1="858.352" y1="569.962" x2="853.363" y2="574.950"/>
<line x1="853.363" y1="574.950" x2="860.348" y2="574.950"/>
<line x1="871.822" y1="573.953" x2="871.323" y2="574.452"/>
<line x1="871.323" y1="574.452" x2="871.822" y2="574.950"/>
<line x1="871.822" y1="574.950" x2="872.321" y2="574.452"/>
<line x1="872.321" y1="574.452" x2="871.822" y2="573.953"/>
<line x1="886.289" y1="564.474" x2="884.792" y2="564.973"/>
<line x1="884.792" y1="564.973" x2="883.795" y2="566.470"/>
<line x1="883.795" y1="566.470" x2="883.296" y2="568.964"/>
<line x1="883.296" y1="568.964" x2="883.296" y2="570.461"/>
<line x1="883.296" y1="570.461" x2="883.795" y2="572.955"/>
<line x1="883.795" y1="572.955" x2="884.792" y2="574.452"/>
<line x1="884.792" y1="574.452" x2="886.289" y2="574.950"/>
<line x1="886.289" y1="574.950" x2="887.287" y2="574.950"/>
<line x1="887.287" y1="574.950" x2="888.784" y2="574.452"/>
<line x1="888.784" y1="574.452" x2="889.781" y2="572.955"/>
<line x1="889.781" y1="572.955" x2="890.280" y2="570.461"/>
<line x1="890.280" y1="570.461" x2="890.280" y2="568.964"/>
<line x1="890.280" y1="568.964" x2="889.781" y2="566.470"/>
<line x1="889.781" y1="566.470" x2="888.784" y2="564.973"/>
<line x1="888.784" y1="564.973" x2="887.287" y2="564.474"/>
<line x1="887.287" y1="564.474" x2="886.289" y2="564.474"/>
<line x1="901.255" y1="564.474" x2="899.759" y2="564.973"/>
<line x1="899.759" y1="564.973" x2="898.761" y2="566.470"/>
<line x1="898.761" y1="566.470" x2="898.262" y2="568.964"/>
<line x1="898.262" y1="568.964" x2="898.262" y2="570.461"/>
<line x1="898.262" y1="570.461" x2="898.761" y2="572.955"/>
<line x1="898.761" y1="572.955" x2="899.759" y2="574.452"/>
<line x1="899.759" y1="574.452" x2="901.255" y2="574.950"/>
<line x1="901.255" y1="574.950" x2="902.253" y2="574.950"/>
<line x1="902.253" y1="574.950" x2="903.750" y2="574.452"/>
<line x1="903.750" y1="574.452" x2="904.747" y2="572.955"/>
<line x1="904.747" y1="572.955" x2="905.246" y2="570.461"/>
<line x1="905.246" y1="570.461" x2="905.246" y2="568.964"/>
<line x1="905.246" y1="568.964" x2="904.747" y2="566.470"/>
<line x1="904.747" y1="566.470" x2="903.750" y2="564.973"/>
<line x1="903.750" y1="564.973" x2="902.253" y2="564.474"/>
<line x1="902.253" y1="564.474" x2="901.255" y2="564.474"/>
</g>
<g transform="matrix(1 0 0 1 0 0)"
style="stroke:rgb(2,2,2);
stroke-width:1.0">
<line x1="858.352" y1="451.118" x2="853.363" y2="458.102"/>
<line x1="853.363" y1="458.102" x2="860.846" y2="458.102"/>
<line x1="858.352" y1="451.118" x2="858.352" y2="461.595"/>
<line x1="871.822" y1="460.597" x2="871.323" y2="461.096"/>
<line x1="871.323" y1="461.096" x2="871.822" y2="461.595"/>
<line x1="871.822" y1="461.595" x2="872.321" y2="461.096"/>
<line x1="872.321" y1="461.096" x2="871.822" y2="460.597"/>
<line x1="886.289" y1="451.118" x2="884.792" y2="451.617"/>
<line x1="884.792" y1="451.617" x2="883.795" y2="453.114"/>
<line x1="883.795" y1="453.114" x2="883.296" y2="455.608"/>
<line x1="883.296" y1="455.608" x2="883.296" y2="457.105"/>
<line x1="883.296" y1="457.105" x2="883.795" y2="459.599"/>
<line x1="883.795" y1="459.599" x2="884.792" y2="461.096"/>
<line x1="884.792" y1="461.096" x2="886.289" y2="461.595"/>
<line x1="886.289" y1="461.595" x2="887.287" y2="461.595"/>
<line x1="887.287" y1="461.595" x2="888.784" y2="461.096"/>
<line x1="888.784" y1="461.096" x2="889.781" y2="459.599"/>
<line x1="889.781" y1="459.599" x2="890.280" y2="457.105"/>
<line x1="890.280" y1="457.105" x2="890.280" y2="455.608"/>
<line x1="890.280" y1="455.608" x2="889.781" y2="453.114"/>
<line x1="889.781" y1="453.114" x2="888.784" y2="451.617"/>
<line x1="888.784" y1="451.617" x2="887.287" y2="451.118"/>
<line x1="887.287" y1="451.118" x2="886.289" y2="451.118"/>
<line x1="901.255" y1="451.118" x2="899.759" y2="451.617"/>
<line x1="899.759" y1="451.617" x2="898.761" y2="453.114"/>
<line x1="898.761" y1="453.114" x2="898.262" y2="455.608"/>
<line x1="898.262" y1="455.608" x2="898.262" y2="457.105"/>
<line x1="898.262" y1="457.105" x2="898.761" y2="459.599"/>
<line x1="898.761" y1="459.599" x2="899.759" y2="461.096"/>
<line x1="899.759" y1="461.096" x2="901.255" y2="461.595"/>
<line x1="901.255" y1="461.595" x2="902.253" y2="461.595"/>
<line x1="902.253" y1="461.595" x2="903.750" y2="461.096"/>
<line x1="903.750" y1="461.096" x2="904.747" y2="459.599"/>
<line x1="904.747" y1="459.599" x2="905.246" y2="457.105"/>
<line x1="905.246" y1="457.105" x2="905.246" y2="455.608"/>
<line x1="905.246" y1="455.608" x2="904.747" y2="453.114"/>
<line x1="904.747" y1="453.114" x2="903.750" y2="451.617"/>
<line x1="903.750" y1="451.617" x2="902.253" y2="451.118"/>
<line x1="902.253" y1="451.118" x2="901.255" y2="451.118"/>
</g>
<g transform="matrix(1 0 0 1 0 0)"
style="stroke:rgb(2,2,2);
stroke-width:1.0">
<line x1="859.849" y1="339.259" x2="859.350" y2="338.261"/>
<line x1="859.350" y1="338.261" x2="857.853" y2="337.762"/>
<line x1="857.853" y1="337.762" x2="856.855" y2="337.762"/>
<line x1="856.855" y1="337.762" x2="855.359" y2="338.261"/>
<line x1="855.359" y1="338.261" x2="854.361" y2="339.758"/>
<line x1="854.361" y1="339.758" x2="853.862" y2="342.252"/>
<line x1="853.862" y1="342.252" x2="853.862" y2="344.747"/>
<line x1="853.862" y1="344.747" x2="854.361" y2="346.742"/>
<line x1="854.361" y1="346.742" x2="855.359" y2="347.740"/>
<line x1="855.359" y1="347.740" x2="856.855" y2="348.239"/>
<line x1="856.855" y1="348.239" x2="857.354" y2="348.239"/>
<line x1="857.354" y1="348.239" x2="858.851" y2="347.740"/>
<line x1="858.851" y1="347.740" x2="859.849" y2="346.742"/>
<line x1="859.849" y1="346.742" x2="860.348" y2="345.245"/>
<line x1="860.348" y1="345.245" x2="860.348" y2="344.747"/>
<line x1="860.348" y1="344.747" x2="859.849" y2="343.250"/>
<line x1="859.849" y1="343.250" x2="858.851" y2="342.252"/>
<line x1="858.851" y1="342.252" x2="857.354" y2="341.753"/>
<line x1="857.354" y1="341.753" x2="856.855" y2="341.753"/>
<line x1="856.855" y1="341.753" x2="855.359" y2="342.252"/>
<line x1="855.359" y1="342.252" x2="854.361" y2="343.250"/>
<line x1="854.361" y1="343.250" x2="853.862" y2="344.747"/>
<line x1="871.822" y1="347.241" x2="871.323" y2="347.740"/>
<line x1="871.323" y1="347.740" x2="871.822" y2="348.239"/>
<line x1="871.822" y1="348.239" x2="872.321" y2="347.740"/>
<line x1="872.321" y1="347.740" x2="871.822" y2="347.241"/>
<line x1="886.289" y1="337.762" x2="884.792" y2="338.261"/>
<line x1="884.792" y1="338.261" x2="883.795" y2="339.758"/>
<line x1="883.795" y1="339.758" x2="883.296" y2="342.252"/>
<line x1="883.296" y1="342.252" x2="883.296" y2="343.749"/>
<line x1="883.296" y1="343.749" x2="883.795" y2="346.243"/>
<line x1="883.795" y1="346.243" x2="884.792" y2="347.740"/>
<line x1="884.792" y1="347.740" x2="886.289" y2="348.239"/>
<line x1="886.289" y1="348.239" x2="887.287" y2="348.239"/>
<line x1="887.287" y1="348.239" x2="888.784" y2="347.740"/>
<line x1="888.784" y1="347.740" x2="889.781" y2="346.243"/>
<line x1="889.781" y1="346.243" x2="890.280" y2="343.749"/>
<line x1="890.280" y1="343.749" x2="890.280" y2="342.252"/>
<line x1="890.280" y1="342.252" x2="889.781" y2="339.758"/>
<line x1="889.781" y1="339.758" x2="888.784" y2="338.261"/>
<line x1="888.784" y1="338.261" x2="887.287" y2="337.762"/>
<line x1="887.287" y1="337.762" x2="886.289" y2="337.762"/>
<line x1="901.255" y1="337.762" x2="899.759" y2="338.261"/>
<line x1="899.759" y1="338.261" x2="898.761" y2="339.758"/>
<line x1="898.761" y1="339.758" x2="898.262" y2="342.252"/>
<line x1="898.262" y1="342.252" x2="898.262" y2="343.749"/>
<line x1="898.262" y1="343.749" x2="898.761" y2="346.243"/>
<line x1="898.761" y1="346.243" x2="899.759" y2="347.740"/>
<line x1="899.759" y1="347.740" x2="901.255" y2="348.239"/>
<line x1="901.255" y1="348.239" x2="902.253" y2="348.239"/>
<line x1="902.253" y1="348.239" x2="903.750" y2="347.740"/>
<line x1="903.750" y1="347.740" x2="904.747" y2="346.243"/>
<line x1="904.747" y1="346.243" x2="905.246" y2="343.749"/>
<line x1="905.246" y1="343.749" x2="905.246" y2="342.252"/>
<line x1="905.246" y1="342.252" x2="904.747" y2="339.758"/>
<line x1="904.747" y1="339.758" x2="903.750" y2="338.261"/>
<line x1="903.750" y1="338.261" x2="902.253" y2="337.762"/>
<line x1="902.253" y1="337.762" x2="901.255" y2="337.762"/>
</g>
<g transform="matrix(1 0 0 1 0 0)"
style="stroke:rgb(2,2,2);
stroke-width:1.0">
<line x1="855.858" y1="224.406" x2="854.361" y2="224.905"/>
<line x1="854.361" y1="224.905" x2="853.862" y2="225.903"/>
<line x1="853.862" y1="225.903" x2="853.862" y2="226.901"/>
<line x1="853.862" y1="226.901" x2="854.361" y2="227.899"/>
<line x1="854.361" y1="227.899" x2="855.359" y2="228.397"/>
<line x1="855.359" y1="228.397" x2="857.354" y2="228.896"/>
<line x1="857.354" y1="228.896" x2="858.851" y2="229.395"/>
<line x1="858.851" y1="229.395" x2="859.849" y2="230.393"/>
<line x1="859.849" y1="230.393" x2="860.348" y2="231.391"/>
<line x1="860.348" y1="231.391" x2="860.348" y2="232.887"/>
<line x1="860.348" y1="232.887" x2="859.849" y2="233.885"/>
<line x1="859.849" y1="233.885" x2="859.350" y2="234.384"/>
<line x1="859.350" y1="234.384" x2="857.853" y2="234.883"/>
<line x1="857.853" y1="234.883" x2="855.858" y2="234.883"/>
<line x1="855.858" y1="234.883" x2="854.361" y2="234.384"/>
<line x1="854.361" y1="234.384" x2="853.862" y2="233.885"/>
<line x1="853.862" y1="233.885" x2="853.363" y2="232.887"/>
<line x1="853.363" y1="232.887" x2="853.363" y2="231.391"/>
<line x1="853.363" y1="231.391" x2="853.862" y2="230.393"/>
<line x1="853.862" y1="230.393" x2="854.860" y2="229.395"/>
<line x1="854.860" y1="229.395" x2="856.357" y2="228.896"/>
<line x1="856.357" y1="228.896" x2="858.352" y2="228.397"/>
<line x1="858.352" y1="228.397" x2="859.350" y2="227.899"/>
<line x1="859.350" y1="227.899" x2="859.849" y2="226.901"/>
<line x1="859.849" y1="226.901" x2="859.849" y2="225.903"/>
<line x1="859.849" y1="225.903" x2="859.350" y2="224.905"/>
<line x1="859.350" y1="224.905" x2="857.853" y2="224.406"/>
<line x1="857.853" y1="224.406" x2="855.858" y2="224.406"/>
<line x1="871.822" y1="233.885" x2="871.323" y2="234.384"/>
<line x1="871.323" y1="234.384" x2="871.822" y2="234.883"/>
<line x1="871.822" y1="234.883" x2="872.321" y2="234.384"/>
<line x1="872.321" y1="234.384" x2="871.822" y2="233.885"/>
<line x1="886.289" y1="224.406" x2="884.792" y2="224.905"/>
<line x1="884.792" y1="224.905" x2="883.795" y2="226.402"/>
<line x1="883.795" y1="226.402" x2="883.296" y2="228.896"/>
<line x1="883.296" y1="228.896" x2="883.296" y2="230.393"/>
<line x1="883.296" y1="230.393" x2="883.795" y2="232.887"/>
<line x1="883.795" y1="232.887" x2="884.792" y2="234.384"/>
<line x1="884.792" y1="234.384" x2="886.289" y2="234.883"/>
<line x1="886.289" y1="234.883" x2="887.287" y2="234.883"/>
<line x1="887.287" y1="234.883" x2="888.784" y2="234.384"/>
<line x1="888.784" y1="234.384" x2="889.781" y2="232.887"/>
<line x1="889.781" y1="232.887" x2="890.280" y2="230.393"/>
<line x1="890.280" y1="230.393" x2="890.280" y2="228.896"/>
<line x1="890.280" y1="228.896" x2="889.781" y2="226.402"/>
<line x1="889.781" y1="226.402" x2="888.784" y2="224.905"/>
<line x1="888.784" y1="224.905" x2="887.287" y2="224.406"/>
<line x1="887.287" y1="224.406" x2="886.289" y2="224.406"/>
<line x1="901.255" y1="224.406" x2="899.759" y2="224.905"/>
<line x1="899.759" y1="224.905" x2="898.761" y2="226.402"/>
<line x1="898.761" y1="226.402" x2="898.262" y2="228.896"/>
<line x1="898.262" y1="228.896" x2="898.262" y2="230.393"/>
<line x1="898.262" y1="230.393" x2="898.761" y2="232.887"/>
<line x1="898.761" y1="232.887" x2="899.759" y2="234.384"/>
<line x1="899.759" y1="234.384" x2="901.255" y2="234.883"/>
<line x1="901.255" y1="234.883" x2="902.253" y2="234.883"/>
<line x1="902.253" y1="234.883" x2="903.750" y2="234.384"/>
<line x1="903.750" y1="234.384" x2="904.747" y2="232.887"/>
<line x1="904.747" y1="232.887" x2="905.246" y2="230.393"/>
<line x1="905.246" y1="230.393" x2="905.246" y2="228.896"/>
<line x1="905.246" y1="228.896" x2="904.747" y2="226.402"/>
<line x1="904.747" y1="226.402" x2="903.750" y2="224.905"/>
<line x1="903.750" y1="224.905" x2="902.253" y2="224.406"/>
<line x1="902.253" y1="224.406" x2="901.255" y2="224.406"/>
</g>
<g transform="matrix(1 0 0 1 0 0)"
style="stroke:rgb(2,2,2);
stroke-width:1.0">
<line x1="839.894" y1="113.046" x2="840.891" y2="112.547"/>
<line x1="840.891" y1="112.547" x2="842.388" y2="111.051"/>
<line x1="842.388" y1="111.051" x2="842.388" y2="121.527"/>
<line x1="856.357" y1="111.051" x2="854.860" y2="111.549"/>
<line x1="854.860" y1="111.549" x2="853.862" y2="113.046"/>
<line x1="853.862" y1="113.046" x2="853.363" y2="115.540"/>
<line x1="853.363" y1="115.540" x2="853.363" y2="117.037"/>
<line x1="853.363" y1="117.037" x2="853.862" y2="119.531"/>
<line x1="853.862" y1="119.531" x2="854.860" y2="121.028"/>
<line x1="854.860" y1="121.028" x2="856.357" y2="121.527"/>
<line x1="856.357" y1="121.527" x2="857.354" y2="121.527"/>
<line x1="857.354" y1="121.527" x2="858.851" y2="121.028"/>
<line x1="858.851" y1="121.028" x2="859.849" y2="119.531"/>
<line x1="859.849" y1="119.531" x2="860.348" y2="117.037"/>
<line x1="860.348" y1="117.037" x2="860.348" y2="115.540"/>
<line x1="860.348" y1="115.540" x2="859.849" y2="113.046"/>
<line x1="859.849" y1="113.046" x2="858.851" y2="111.549"/>
<line x1="858.851" y1="111.549" x2="857.354" y2="111.051"/>
<line x1="857.354" y1="111.051" x2="856.357" y2="111.051"/>
<line x1="871.822" y1="120.529" x2="871.323" y2="121.028"/>
<line x1="871.323" y1="121.028" x2="871.822" y2="121.527"/>
<line x1="871.822" y1="121.527" x2="872.321" y2="121.028"/>
<line x1="872.321" y1="121.028" x2="871.822" y2="120.529"/>
<line x1="886.289" y1="111.051" x2="884.792" y2="111.549"/>
<line x1="884.792" y1="111.549" x2="883.795" y2="113.046"/>
<line x1="883.795" y1="113.046" x2="883.296" y2="115.540"/>
<line x1="883.296" y1="115.540" x2="883.296" y2="117.037"/>
<line x1="883.296" y1="117.037" x2="883.795" y2="119.531"/>
<line x1="883.795" y1="119.531" x2="884.792" y2="121.028"/>
<line x1="884.792" y1="121.028" x2="886.289" y2="121.527"/>
<line x1="886.289" y1="121.527" x2="887.287" y2="121.527"/>
<line x1="887.287" y1="121.527" x2="888.784" y2="121.028"/>
<line x1="888.784" y1="121.028" x2="889.781" y2="119.531"/>
<line x1="889.781" y1="119.531" x2="890.280" y2="117.037"/>
<line x1="890.280" y1="117.037" x2="890.280" y2="115.540"/>
<line x1="890.280" y1="115.540" x2="889.781" y2="113.046"/>
<line x1="889.781" y1="113.046" x2="888.784" y2="111.549"/>
<line x1="888.784" y1="111.549" x2="887.287" y2="111.051"/>
<line x1="887.287" y1="111.051" x2="886.289" y2="111.051"/>
<line x1="901.255" y1="111.051" x2="899.759" y2="111.549"/>
<line x1="899.759" y1="111.549" x2="898.761" y2="113.046"/>
<line x1="898.761" y1="113.046" x2="898.262" y2="115.540"/>
<line x1="898.262" y1="115.540" x2="898.262" y2="117.037"/>
<line x1="898.262" y1="117.037" x2="898.761" y2="119.531"/>
<line x1="898.761" y1="119.531" x2="899.759" y2="121.028"/>
<line x1="899.759" y1="121.028" x2="901.255" y2="121.527"/>
<line x1="901.255" y1="121.527" x2="902.253" y2="121.527"/>
<line x1="902.253" y1="121.527" x2="903.750" y2="121.028"/>
<line x1="903.750" y1="121.028" x2="904.747" y2="119.531"/>
<line x1="904.747" y1="119.531" x2="905.246" y2="117.037"/>
<line x1="905.246" y1="117.037" x2="905.246" y2="115.540"/>
<line x1="905.246" y1="115.540" x2="904.747" y2="113.046"/>
<line x1="904.747" y1="113.046" x2="903.750" y2="111.549"/>
<line x1="903.750" y1="111.549" x2="902.253" y2="111.051"/>
<line x1="902.253" y1="111.051" x2="901.255" y2="111.051"/>
</g>
<g transform="matrix(1 0 0 1 0 0)"
style="stroke:rgb(2,2,2);
stroke-width:1.0">
<line x1="949.462" y1="176.403" x2="940.833" y2="168.313"/>
<line x1="940.833" y1="176.403" x2="949.462" y2="168.313"/>
</g>
<g transform="matrix(1 0 0 1 0 0)"
style="stroke:rgb(2,2,2);
stroke-width:1.0">
<line x1="937.058" y1="162.381" x2="936.518" y2="161.302"/>
<line x1="936.518" y1="161.302" x2="934.900" y2="159.684"/>
<line x1="934.900" y1="159.684" x2="946.226" y2="159.684"/>
<line x1="934.900" y1="144.583" x2="935.440" y2="146.201"/>
<line x1="935.440" y1="146.201" x2="937.058" y2="147.280"/>
<line x1="937.058" y1="147.280" x2="939.754" y2="147.819"/>
<line x1="939.754" y1="147.819" x2="941.372" y2="147.819"/>
<line x1="941.372" y1="147.819" x2="944.069" y2="147.280"/>
<line x1="944.069" y1="147.280" x2="945.687" y2="146.201"/>
<line x1="945.687" y1="146.201" x2="946.226" y2="144.583"/>
<line x1="946.226" y1="144.583" x2="946.226" y2="143.504"/>
<line x1="946.226" y1="143.504" x2="945.687" y2="141.886"/>
<line x1="945.687" y1="141.886" x2="944.069" y2="140.808"/>
<line x1="944.069" y1="140.808" x2="941.372" y2="140.268"/>
<line x1="941.372" y1="140.268" x2="939.754" y2="140.268"/>
<line x1="939.754" y1="140.268" x2="937.058" y2="140.808"/>
<line x1="937.058" y1="140.808" x2="935.440" y2="141.886"/>
<line x1="935.440" y1="141.886" x2="934.900" y2="143.504"/>
<line x1="934.900" y1="143.504" x2="934.900" y2="144.583"/>
<line x1="933.282" y1="120.853" x2="933.282" y2="118.480"/>
<line x1="933.282" y1="118.480" x2="935.008" y2="119.774"/>
<line x1="935.008" y1="119.774" x2="935.008" y2="119.127"/>
<line x1="935.008" y1="119.127" x2="935.224" y2="118.695"/>
<line x1="935.224" y1="118.695" x2="935.440" y2="118.480"/>
<line x1="935.440" y1="118.480" x2="936.087" y2="118.264"/>
<line x1="936.087" y1="118.264" x2="936.518" y2="118.264"/>
<line x1="936.518" y1="118.264" x2="937.165" y2="118.480"/>
<line x1="937.165" y1="118.480" x2="937.597" y2="118.911"/>
<line x1="937.597" y1="118.911" x2="937.813" y2="119.558"/>
<line x1="937.813" y1="119.558" x2="937.813" y2="120.206"/>
<line x1="937.813" y1="120.206" x2="937.597" y2="120.853"/>
<line x1="937.597" y1="120.853" x2="937.381" y2="121.069"/>
<line x1="937.381" y1="121.069" x2="936.950" y2="121.284"/>
</g>
<g transform="matrix(1 0 0 1 0 0)"
style="stroke:rgb(2,2,2);
stroke-width:1.0">
<line x1="0.250" y1="799.000" x2="959.050" y2="799.000"/>
<line x1="959.050" y1="799.000" x2="959.050" y2="0.799"/>
<line x1="959.050" y1="0.799" x2="0.250" y2="0.799"/>
<line x1="0.250" y1="0.799" x2="0.250" y2="799.000"/>
</g>
<g transform="matrix(1 0 0 1 0 0)"
style="stroke:rgb(2,2,2);
stroke-width:1.0">
<line x1="1055.880" y1="27.497" x2="1055.880" y2="56.398"/>
<line x1="1075.147" y1="27.497" x2="1055.880" y2="46.764"/>
<line x1="1062.762" y1="39.883" x2="1075.147" y2="56.398"/>
<line x1="1084.781" y1="27.497" x2="1084.781" y2="56.398"/>
<line x1="1084.781" y1="27.497" x2="1102.672" y2="27.497"/>
<line x1="1084.781" y1="41.260" x2="1095.791" y2="41.260"/>
<line x1="1084.781" y1="56.398" x2="1102.672" y2="56.398"/>
<line x1="1106.800" y1="27.497" x2="1117.810" y2="41.260"/>
<line x1="1117.810" y1="41.260" x2="1117.810" y2="56.398"/>
<line x1="1128.820" y1="27.497" x2="1117.810" y2="41.260"/>
</g>
<g transform="matrix(1 0 0 1 0 0)"
style="stroke:rgb(255,0,0);
stroke-width:1.0">
<line x1="1018.975" y1="87.890" x2="1162.795" y2="87.890"/>
</g>
<g transform="matrix(1 0 0 1 0 0)"
style="stroke:rgb(2,2,2);
stroke-width:1.0">
<line x1="1020.971" y1="90.400" x2="1020.971" y2="100.877"/>
<line x1="1020.971" y1="100.877" x2="1026.957" y2="100.877"/>
<line x1="1031.447" y1="93.893" x2="1030.449" y2="94.391"/>
<line x1="1030.449" y1="94.391" x2="1029.451" y2="95.389"/>
<line x1="1029.451" y1="95.389" x2="1028.953" y2="96.886"/>
<line x1="1028.953" y1="96.886" x2="1028.953" y2="97.884"/>
<line x1="1028.953" y1="97.884" x2="1029.451" y2="99.380"/>
<line x1="1029.451" y1="99.380" x2="1030.449" y2="100.378"/>
<line x1="1030.449" y1="100.378" x2="1031.447" y2="100.877"/>
<line x1="1031.447" y1="100.877" x2="1032.944" y2="100.877"/>
<line x1="1032.944" y1="100.877" x2="1033.941" y2="100.378"/>
<line x1="1033.941" y1="100.378" x2="1034.939" y2="99.380"/>
<line x1="1034.939" y1="99.380" x2="1035.438" y2="97.884"/>
<line x1="1035.438" y1="97.884" x2="1035.438" y2="96.886"/>
<line x1="1035.438" y1="96.886" x2="1034.939" y2="95.389"/>
<line x1="1034.939" y1="95.389" x2="1033.941" y2="94.391"/>
<line x1="1033.941" y1="94.391" x2="1032.944" y2="93.893"/>
<line x1="1032.944" y1="93.893" x2="1031.447" y2="93.893"/>
<line x1="1044.418" y1="93.893" x2="1044.418" y2="101.875"/>
<line x1="1044.418" y1="101.875" x2="1043.919" y2="103.371"/>
<line x1="1043.919" y1="103.371" x2="1043.420" y2="103.870"/>
<line x1="1043.420" y1="103.870" x2="1042.422" y2="104.369"/>
<line x1="1042.422" y1="104.369" x2="1040.926" y2="104.369"/>
<line x1="1040.926" y1="104.369" x2="1039.928" y2="103.870"/>
<line x1="1044.418" y1="95.389" x2="1043.420" y2="94.391"/>
<line x1="1043.420" y1="94.391" x2="1042.422" y2="93.893"/>
<line x1="1042.422" y1="93.893" x2="1040.926" y2="93.893"/>
<line x1="1040.926" y1="93.893" x2="1039.928" y2="94.391"/>
<line x1="1039.928" y1="94.391" x2="1038.930" y2="95.389"/>
<line x1="1038.930" y1="95.389" x2="1038.431" y2="96.886"/>
<line x1="1038.431" y1="96.886" x2="1038.431" y2="97.884"/>
<line x1="1038.431" y1="97.884" x2="1038.930" y2="99.380"/>
<line x1="1038.930" y1="99.380" x2="1039.928" y2="100.378"/>
<line x1="1039.928" y1="100.378" x2="1040.926" y2="100.877"/>
<line x1="1040.926" y1="100.877" x2="1042.422" y2="100.877"/>
<line x1="1042.422" y1="100.877" x2="1043.420" y2="100.378"/>
<line x1="1043.420" y1="100.378" x2="1044.418" y2="99.380"/>
</g>
<g transform="matrix(1 0 0 1 0 0)"
style="stroke:rgb(2,2,2);
stroke-width:1.0">
<line x1="1018.975" y1="127.840" x2="1162.795" y2="127.840"/>
</g>
<g transform="matrix(1 0 0 1 0 0)"
style="stroke:rgb(2,2,2);
stroke-width:1.0">
<line x1="1020.971" y1="130.350" x2="1020.971" y2="140.827"/>
<line x1="1020.971" y1="140.827" x2="1026.957" y2="140.827"/>
<line x1="1028.953" y1="130.350" x2="1029.451" y2="130.849"/>
<line x1="1029.451" y1="130.849" x2="1029.950" y2="130.350"/>
<line x1="1029.950" y1="130.350" x2="1029.451" y2="129.852"/>
<line x1="1029.451" y1="129.852" x2="1028.953" y2="130.350"/>
<line x1="1029.451" y1="133.843" x2="1029.451" y2="140.827"/>
<line x1="1033.442" y1="133.843" x2="1033.442" y2="140.827"/>
<line x1="1033.442" y1="135.838" x2="1034.939" y2="134.341"/>
<line x1="1034.939" y1="134.341" x2="1035.937" y2="133.843"/>
<line x1="1035.937" y1="133.843" x2="1037.433" y2="133.843"/>
<line x1="1037.433" y1="133.843" x2="1038.431" y2="134.341"/>
<line x1="1038.431" y1="134.341" x2="1038.930" y2="135.838"/>
<line x1="1038.930" y1="135.838" x2="1038.930" y2="140.827"/>
<line x1="1042.422" y1="136.836" x2="1048.409" y2="136.836"/>
<line x1="1048.409" y1="136.836" x2="1048.409" y2="135.838"/>
<line x1="1048.409" y1="135.838" x2="1047.910" y2="134.840"/>
<line x1="1047.910" y1="134.840" x2="1047.411" y2="134.341"/>
<line x1="1047.411" y1="134.341" x2="1046.413" y2="133.843"/>
<line x1="1046.413" y1="133.843" x2="1044.917" y2="133.843"/>
<line x1="1044.917" y1="133.843" x2="1043.919" y2="134.341"/>
<line x1="1043.919" y1="134.341" x2="1042.921" y2="135.339"/>
<line x1="1042.921" y1="135.339" x2="1042.422" y2="136.836"/>
<line x1="1042.422" y1="136.836" x2="1042.422" y2="137.833"/>
<line x1="1042.422" y1="137.833" x2="1042.921" y2="139.330"/>
<line x1="1042.921" y1="139.330" x2="1043.919" y2="140.328"/>
<line x1="1043.919" y1="140.328" x2="1044.917" y2="140.827"/>
<line x1="1044.917" y1="140.827" x2="1046.413" y2="140.827"/>
<line x1="1046.413" y1="140.827" x2="1047.411" y2="140.328"/>
<line x1="1047.411" y1="140.328" x2="1048.409" y2="139.330"/>
<line x1="1057.389" y1="133.843" x2="1057.389" y2="140.827"/>
<line x1="1057.389" y1="135.339" x2="1056.391" y2="134.341"/>
<line x1="1056.391" y1="134.341" x2="1055.393" y2="133.843"/>
<line x1="1055.393" y1="133.843" x2="1053.896" y2="133.843"/>
<line x1="1053.896" y1="133.843" x2="1052.899" y2="134.341"/>
<line x1="1052.899" y1="134.341" x2="1051.901" y2="135.339"/>
<line x1="1051.901" y1="135.339" x2="1051.402" y2="136.836"/>
<line x1="1051.402" y1="136.836" x2="1051.402" y2="137.833"/>
<line x1="1051.402" y1="137.833" x2="1051.901" y2="139.330"/>
<line x1="1051.901" y1="139.330" x2="1052.899" y2="140.328"/>
<line x1="1052.899" y1="140.328" x2="1053.896" y2="140.827"/>
<line x1="1053.896" y1="140.827" x2="1055.393" y2="140.827"/>
<line x1="1055.393" y1="140.827" x2="1056.391" y2="140.328"/>
<line x1="1056.391" y1="140.328" x2="1057.389" y2="139.330"/>
<line x1="1061.380" y1="133.843" x2="1061.380" y2="140.827"/>
<line x1="1061.380" y1="136.836" x2="1061.878" y2="135.339"/>
<line x1="1061.878" y1="135.339" x2="1062.876" y2="134.341"/>
<line x1="1062.876" y1="134.341" x2="1063.874" y2="133.843"/>
<line x1="1063.874" y1="133.843" x2="1065.370" y2="133.843"/>
</g>
<g transform="matrix(1 0 0 1 0 0)"
style="stroke:rgb(2,2,2);
stroke-width:1.0">
<line x1="983.020" y1="799.000" x2="1197.552" y2="799.000"/>
<line x1="1197.552" y1="799.000" x2="1197.552" y2="0.799"/>
<line x1="1197.552" y1="0.799" x2="983.020" y2="0.799"/>
<line x1="983.020" y1="0.799" x2="983.020" y2="799.000"/>
</g>
</svg>
