<svg 
xmlns="http://www.w3.org/2000/svg"                   
width="1200"
height="800"
viewBox="0 0 1200 800">
<g transform="matrix(1 0 0 1 0 0)"                     
style="stroke:rgb(2,2,2);
stroke-width:1.0">
<line x1="249.938" y1="649.188" x2="249.544" y2="642.929"/>
<line x1="249.544" y1="642.929" x2="248.369" y2="636.769"/>
<line x1="248.369" y1="636.769" x2="246.431" y2="630.804"/>
<line x1="246.431" y1="630.804" x2="243.761" y2="625.130"/>
<line x1="243.761" y1="625.130" x2="240.400" y2="619.835"/>
<line x1="240.400" y1="619.835" x2="236.403" y2="615.003"/>
<line x1="236.403" y1="615.003" x2="231.831" y2="610.710"/>
<line x1="231.831" y1="610.710" x2="226.758" y2="607.024"/>
<line x1="226.758" y1="607.024" x2="221.262" y2="604.003"/>
<line x1="221.262" y1="604.003" x2="215.432" y2="601.694"/>
<line x1="215.432" y1="601.694" x2="209.357" y2="600.135"/>
<line x1="209.357" y1="600.135" x2="203.136" y2="599.349"/>
<line x1="203.136" y1="599.349" x2="196.864" y2="599.349"/>
<line x1="196.864" y1="599.349" x2="190.643" y2="600.135"/>
<line x1="190.643" y1="600.135" x2="184.568" y2="601.694"/>
<line x1="184.568" y1="601.694" x2="178.738" y2="604.003"/>
<line x1="178.738" y1="604.003" x2="173.242" y2="607.024"/>
<line x1="173.242" y1="607.024" x2="168.169" y2="610.710"/>
<line x1="168.169" y1="610.710" x2="163.597" y2="615.003"/>
<line x1="163.597" y1="615.003" x2="159.600" y2="619.835"/>
<line x1="159.600" y1="619.835" x2="156.239" y2="625.130"/>
<line x1="156.239" y1="625.130" x2="153.569" y2="630.804"/>
<line x1="153.569" y1="630.804" x2="151.631" y2="636.769"/>
<line x1="151.631" y1="636.769" x2="150.456" y2="642.929"/>
<line x1="150.456" y1="642.929" x2="150.062" y2="649.188"/>
<line x1="150.062" y1="649.188" x2="150.456" y2="655.446"/>
<line x1="150.456" y1="655.446" x2="151.631" y2="661.606"/>
<line x1="151.631" y1="661.606" x2="153.569" y2="667.571"/>
<line x1="153.569" y1="667.571" x2="156.239" y2="673.245"/>
<line x1="156.239" y1="673.245" x2="159.600" y2="678.540"/>
<line x1="159.600" y1="678.540" x2="163.597" y2="683.372"/>
<line x1="163.597" y1="683.372" x2="168.169" y2="687.665"/>
<line x1="168.169" y1="687.665" x2="173.242" y2="691.351"/>
<line x1="173.242" y1="691.351" x2="178.738" y2="694.372"/>
<line x1="178.738" y1="694.372" x2="184.568" y2="696.681"/>
<line x1="184.568" y1="696.681" x2="190.643" y2="698.240"/>
<line x1="190.643" y1="698.240" x2="196.864" y2="699.026"/>
<line x1="196.864" y1="699.026" x2="203.136" y2="699.026"/>
<line x1="203.136" y1="699.026" x2="209.357" y2="698.241"/>
<line x1="209.357" y1="698.241" x2="215.432" y2="696.681"/>
<line x1="215.432" y1="696.681" x2="221.262" y2="694.372"/>
<line x1="221.262" y1="694.372" x2="226.758" y2="691.351"/>
<line x1="226.758" y1="691.351" x2="231.831" y2="687.665"/>
<line x1="231.831" y1="687.665" x2="236.403" y2="683.372"/>
<line x1="236.403" y1="683.372" x2="240.400" y2="678.540"/>
<line x1="240.400" y1="678.540" x2="243.761" y2="673.245"/>
<line x1="243.761" y1="673.245" x2="246.431" y2="667.571"/>
<line x1="246.431" y1="667.571" x2="248.369" y2="661.606"/>
<line x1="248.369" y1="661.606" x2="249.544" y2="655.446"/>
<line x1="249.544" y1="655.446" x2="249.938" y2="649.188"/>
<line x1="249.938" y1="649.188" x2="249.938" y2="649.188"/>
<line x1="1048.938" y1="649.188" x2="1048.544" y2="642.929"/>
<line x1="1048.544" y1="642.929" x2="1048.222" y2="641.240"/>
<line x1="1046.306" y1="633.499" x2="1045.431" y2="630.804"/>
<line x1="1045.431" y1="630.804" x2="1043.235" y2="626.139"/>
<line x1="1039.015" y1="619.370" x2="1035.403" y2="615.003"/>
<line x1="1035.403" y1="615.003" x2="1033.710" y2="613.413"/>
<line x1="1027.562" y1="608.334" x2="1025.758" y2="607.024"/>
<line x1="1025.758" y1="607.024" x2="1020.710" y2="604.249"/>
<line x1="1013.262" y1="601.394" x2="1008.357" y2="600.135"/>
<line x1="1008.357" y1="600.135" x2="1005.454" y2="599.768"/>
<line x1="997.490" y1="599.349" x2="995.864" y2="599.349"/>
<line x1="995.864" y1="599.349" x2="989.643" y2="600.135"/>
<line x1="989.643" y1="600.135" x2="989.552" y2="600.158"/>
<line x1="981.884" y1="602.361" x2="977.738" y2="604.003"/>
<line x1="977.738" y1="604.003" x2="974.644" y2="605.704"/>
<line x1="967.995" y1="610.109" x2="967.169" y2="610.710"/>
<line x1="967.169" y1="610.710" x2="962.597" y2="615.003"/>
<line x1="962.597" y1="615.003" x2="962.153" y2="615.540"/>
<line x1="957.305" y1="621.875" x2="955.239" y2="625.130"/>
<line x1="955.239" y1="625.130" x2="953.479" y2="628.871"/>
<line x1="950.760" y1="636.371" x2="950.631" y2="636.769"/>
<line x1="950.631" y1="636.769" x2="949.456" y2="642.929"/>
<line x1="949.456" y1="642.929" x2="949.375" y2="644.227"/>
<line x1="949.252" y1="652.201" x2="949.456" y2="655.446"/>
<line x1="949.456" y1="655.446" x2="950.344" y2="660.101"/>
<line x1="952.649" y1="667.739" x2="955.239" y2="673.245"/>
<line x1="955.239" y1="673.245" x2="956.260" y2="674.854"/>
<line x1="960.910" y1="681.332" x2="962.597" y2="683.372"/>
<line x1="962.597" y1="683.372" x2="966.492" y2="687.029"/>
<line x1="972.935" y1="691.732" x2="977.738" y2="694.372"/>
<line x1="977.738" y1="694.372" x2="980.070" y2="695.296"/>
<line x1="987.663" y1="697.732" x2="989.643" y2="698.240"/>
<line x1="989.643" y1="698.240" x2="995.542" y2="698.986"/>
<line x1="1003.519" y1="698.852" x2="1008.357" y2="698.241"/>
<line x1="1008.357" y1="698.241" x2="1011.373" y2="697.466"/>
<line x1="1018.924" y1="694.902" x2="1020.262" y2="694.372"/>
<line x1="1020.262" y1="694.372" x2="1025.758" y2="691.351"/>
<line x1="1025.758" y1="691.351" x2="1025.984" y2="691.187"/>
<line x1="1032.288" y1="686.297" x2="1035.403" y2="683.372"/>
<line x1="1035.403" y1="683.372" x2="1037.772" y2="680.508"/>
<line x1="1042.313" y1="673.951" x2="1042.761" y2="673.245"/>
<line x1="1042.761" y1="673.245" x2="1045.431" y2="667.571"/>
<line x1="1045.431" y1="667.571" x2="1045.704" y2="666.731"/>
<line x1="1047.856" y1="659.050" x2="1048.544" y2="655.446"/>
<line x1="1048.544" y1="655.446" x2="1048.815" y2="651.134"/>
</g>
<g transform="matrix(1 0 0 1 0 0)"                     
style="stroke:rgb(2,2,255);
stroke-width:1.0">
<line x1="1048.746" y1="149.812" x2="1048.802" y2="149.677"/>
<line x1="1048.802" y1="149.677" x2="1048.938" y2="149.621"/>
<line x1="1048.938" y1="149.621" x2="1049.073" y2="149.677"/>
<line x1="1049.073" y1="149.677" x2="1049.129" y2="149.812"/>
<line x1="1049.129" y1="149.812" x2="1049.073" y2="149.948"/>
<line x1="1049.073" y1="149.948" x2="1048.938" y2="150.004"/>
<line x1="1048.938" y1="150.004" x2="1048.802" y2="149.948"/>
<line x1="1048.802" y1="149.948" x2="1048.746" y2="149.812"/>
</g>
<g transform="matrix(1 0 0 1 0 0)"                     
style="stroke:rgb(2,2,255);
stroke-width:1.0">
<line x1="1048.030" y1="141.865" x2="1048.086" y2="141.730"/>
<line x1="1048.086" y1="141.730" x2="1048.222" y2="141.674"/>
<line x1="1048.222" y1="141.674" x2="1048.357" y2="141.730"/>
<line x1="1048.357" y1="141.730" x2="1048.414" y2="141.865"/>
<line x1="1048.414" y1="141.865" x2="1048.357" y2="142.001"/>
<line x1="1048.357" y1="142.001" x2="1048.222" y2="142.057"/>
<line x1="1048.222" y1="142.057" x2="1048.086" y2="142.001"/>
<line x1="1048.086" y1="142.001" x2="1048.030" y2="141.865"/>
</g>
<g transform="matrix(1 0 0 1 0 0)"                     
style="stroke:rgb(2,2,255);
stroke-width:1.0">
<line x1="1046.115" y1="134.124" x2="1046.171" y2="133.989"/>
<line x1="1046.171" y1="133.989" x2="1046.306" y2="133.932"/>
<line x1="1046.306" y1="133.932" x2="1046.442" y2="133.989"/>
<line x1="1046.442" y1="133.989" x2="1046.498" y2="134.124"/>
<line x1="1046.498" y1="134.124" x2="1046.442" y2="134.260"/>
<line x1="1046.442" y1="134.260" x2="1046.306" y2="134.316"/>
<line x1="1046.306" y1="134.316" x2="1046.171" y2="134.260"/>
<line x1="1046.171" y1="134.260" x2="1046.115" y2="134.124"/>
</g>
<g transform="matrix(1 0 0 1 0 0)"                     
style="stroke:rgb(2,2,255);
stroke-width:1.0">
<line x1="1043.043" y1="126.764" x2="1043.100" y2="126.628"/>
<line x1="1043.100" y1="126.628" x2="1043.235" y2="126.572"/>
<line x1="1043.235" y1="126.572" x2="1043.371" y2="126.628"/>
<line x1="1043.371" y1="126.628" x2="1043.427" y2="126.764"/>
<line x1="1043.427" y1="126.764" x2="1043.371" y2="126.899"/>
<line x1="1043.371" y1="126.899" x2="1043.235" y2="126.956"/>
<line x1="1043.235" y1="126.956" x2="1043.100" y2="126.899"/>
<line x1="1043.100" y1="126.899" x2="1043.043" y2="126.764"/>
</g>
<g transform="matrix(1 0 0 1 0 0)"                     
style="stroke:rgb(2,2,255);
stroke-width:1.0">
<line x1="1038.823" y1="119.995" x2="1038.880" y2="119.859"/>
<line x1="1038.880" y1="119.859" x2="1039.015" y2="119.803"/>
<line x1="1039.015" y1="119.803" x2="1039.151" y2="119.859"/>
<line x1="1039.151" y1="119.859" x2="1039.207" y2="119.995"/>
<line x1="1039.207" y1="119.995" x2="1039.151" y2="120.130"/>
<line x1="1039.151" y1="120.130" x2="1039.015" y2="120.186"/>
<line x1="1039.015" y1="120.186" x2="1038.880" y2="120.130"/>
<line x1="1038.880" y1="120.130" x2="1038.823" y2="119.995"/>
</g>
<g transform="matrix(1 0 0 1 0 0)"                     
style="stroke:rgb(2,2,255);
stroke-width:1.0">
<line x1="1033.518" y1="114.038" x2="1033.574" y2="113.902"/>
<line x1="1033.574" y1="113.902" x2="1033.710" y2="113.846"/>
<line x1="1033.710" y1="113.846" x2="1033.845" y2="113.902"/>
<line x1="1033.845" y1="113.902" x2="1033.901" y2="114.038"/>
<line x1="1033.901" y1="114.038" x2="1033.845" y2="114.173"/>
<line x1="1033.845" y1="114.173" x2="1033.710" y2="114.230"/>
<line x1="1033.710" y1="114.230" x2="1033.574" y2="114.173"/>
<line x1="1033.574" y1="114.173" x2="1033.518" y2="114.038"/>
</g>
<g transform="matrix(1 0 0 1 0 0)"                     
style="stroke:rgb(2,2,255);
stroke-width:1.0">
<line x1="1027.370" y1="108.959" x2="1027.426" y2="108.824"/>
<line x1="1027.426" y1="108.824" x2="1027.562" y2="108.768"/>
<line x1="1027.562" y1="108.768" x2="1027.697" y2="108.824"/>
<line x1="1027.697" y1="108.824" x2="1027.754" y2="108.959"/>
<line x1="1027.754" y1="108.959" x2="1027.697" y2="109.095"/>
<line x1="1027.697" y1="109.095" x2="1027.562" y2="109.151"/>
<line x1="1027.562" y1="109.151" x2="1027.426" y2="109.095"/>
<line x1="1027.426" y1="109.095" x2="1027.370" y2="108.959"/>
</g>
<g transform="matrix(1 0 0 1 0 0)"                     
style="stroke:rgb(2,2,255);
stroke-width:1.0">
<line x1="1020.518" y1="104.874" x2="1020.574" y2="104.738"/>
<line x1="1020.574" y1="104.738" x2="1020.710" y2="104.682"/>
<line x1="1020.710" y1="104.682" x2="1020.846" y2="104.738"/>
<line x1="1020.846" y1="104.738" x2="1020.902" y2="104.874"/>
<line x1="1020.902" y1="104.874" x2="1020.846" y2="105.009"/>
<line x1="1020.846" y1="105.009" x2="1020.710" y2="105.066"/>
<line x1="1020.710" y1="105.066" x2="1020.574" y2="105.009"/>
<line x1="1020.574" y1="105.009" x2="1020.518" y2="104.874"/>
</g>
<g transform="matrix(1 0 0 1 0 0)"                     
style="stroke:rgb(2,2,255);
stroke-width:1.0">
<line x1="1013.070" y1="102.019" x2="1013.126" y2="101.883"/>
<line x1="1013.126" y1="101.883" x2="1013.262" y2="101.827"/>
<line x1="1013.262" y1="101.827" x2="1013.397" y2="101.883"/>
<line x1="1013.397" y1="101.883" x2="1013.453" y2="102.019"/>
<line x1="1013.453" y1="102.019" x2="1013.397" y2="102.154"/>
<line x1="1013.397" y1="102.154" x2="1013.262" y2="102.211"/>
<line x1="1013.262" y1="102.211" x2="1013.126" y2="102.154"/>
<line x1="1013.126" y1="102.154" x2="1013.070" y2="102.019"/>
</g>
<g transform="matrix(1 0 0 1 0 0)"                     
style="stroke:rgb(2,2,255);
stroke-width:1.0">
<line x1="1005.262" y1="100.393" x2="1005.318" y2="100.257"/>
<line x1="1005.318" y1="100.257" x2="1005.454" y2="100.201"/>
<line x1="1005.454" y1="100.201" x2="1005.589" y2="100.257"/>
<line x1="1005.589" y1="100.257" x2="1005.646" y2="100.393"/>
<line x1="1005.646" y1="100.393" x2="1005.589" y2="100.528"/>
<line x1="1005.589" y1="100.528" x2="1005.454" y2="100.585"/>
<line x1="1005.454" y1="100.585" x2="1005.318" y2="100.528"/>
<line x1="1005.318" y1="100.528" x2="1005.262" y2="100.393"/>
</g>
<g transform="matrix(1 0 0 1 0 0)"                     
style="stroke:rgb(2,2,255);
stroke-width:1.0">
<line x1="997.298" y1="99.974" x2="997.354" y2="99.838"/>
<line x1="997.354" y1="99.838" x2="997.490" y2="99.782"/>
<line x1="997.490" y1="99.782" x2="997.626" y2="99.838"/>
<line x1="997.626" y1="99.838" x2="997.682" y2="99.974"/>
<line x1="997.682" y1="99.974" x2="997.626" y2="100.109"/>
<line x1="997.626" y1="100.109" x2="997.490" y2="100.165"/>
<line x1="997.490" y1="100.165" x2="997.354" y2="100.109"/>
<line x1="997.354" y1="100.109" x2="997.298" y2="99.974"/>
</g>
<g transform="matrix(1 0 0 1 0 0)"                     
style="stroke:rgb(2,2,255);
stroke-width:1.0">
<line x1="989.361" y1="100.783" x2="989.417" y2="100.647"/>
<line x1="989.417" y1="100.647" x2="989.552" y2="100.591"/>
<line x1="989.552" y1="100.591" x2="989.688" y2="100.647"/>
<line x1="989.688" y1="100.647" x2="989.744" y2="100.783"/>
<line x1="989.744" y1="100.783" x2="989.688" y2="100.918"/>
<line x1="989.688" y1="100.918" x2="989.552" y2="100.974"/>
<line x1="989.552" y1="100.974" x2="989.417" y2="100.918"/>
<line x1="989.417" y1="100.918" x2="989.361" y2="100.783"/>
</g>
<g transform="matrix(1 0 0 1 0 0)"                     
style="stroke:rgb(2,2,255);
stroke-width:1.0">
<line x1="981.692" y1="102.986" x2="981.748" y2="102.851"/>
<line x1="981.748" y1="102.851" x2="981.884" y2="102.794"/>
<line x1="981.884" y1="102.794" x2="982.019" y2="102.851"/>
<line x1="982.019" y1="102.851" x2="982.076" y2="102.986"/>
<line x1="982.076" y1="102.986" x2="982.019" y2="103.122"/>
<line x1="982.019" y1="103.122" x2="981.884" y2="103.178"/>
<line x1="981.884" y1="103.178" x2="981.748" y2="103.122"/>
<line x1="981.748" y1="103.122" x2="981.692" y2="102.986"/>
</g>
<g transform="matrix(1 0 0 1 0 0)"                     
style="stroke:rgb(2,2,255);
stroke-width:1.0">
<line x1="974.452" y1="106.329" x2="974.508" y2="106.193"/>
<line x1="974.508" y1="106.193" x2="974.644" y2="106.137"/>
<line x1="974.644" y1="106.137" x2="974.779" y2="106.193"/>
<line x1="974.779" y1="106.193" x2="974.836" y2="106.329"/>
<line x1="974.836" y1="106.329" x2="974.779" y2="106.464"/>
<line x1="974.779" y1="106.464" x2="974.644" y2="106.521"/>
<line x1="974.644" y1="106.521" x2="974.508" y2="106.464"/>
<line x1="974.508" y1="106.464" x2="974.452" y2="106.329"/>
</g>
<g transform="matrix(1 0 0 1 0 0)"                     
style="stroke:rgb(2,2,255);
stroke-width:1.0">
<line x1="967.803" y1="110.734" x2="967.860" y2="110.599"/>
<line x1="967.860" y1="110.599" x2="967.995" y2="110.543"/>
<line x1="967.995" y1="110.543" x2="968.131" y2="110.599"/>
<line x1="968.131" y1="110.599" x2="968.187" y2="110.734"/>
<line x1="968.187" y1="110.734" x2="968.131" y2="110.870"/>
<line x1="968.131" y1="110.870" x2="967.995" y2="110.926"/>
<line x1="967.995" y1="110.926" x2="967.860" y2="110.870"/>
<line x1="967.860" y1="110.870" x2="967.803" y2="110.734"/>
</g>
<g transform="matrix(1 0 0 1 0 0)"                     
style="stroke:rgb(2,2,255);
stroke-width:1.0">
<line x1="961.961" y1="116.165" x2="962.017" y2="116.029"/>
<line x1="962.017" y1="116.029" x2="962.153" y2="115.973"/>
<line x1="962.153" y1="115.973" x2="962.288" y2="116.029"/>
<line x1="962.288" y1="116.029" x2="962.345" y2="116.165"/>
<line x1="962.345" y1="116.165" x2="962.288" y2="116.301"/>
<line x1="962.288" y1="116.301" x2="962.153" y2="116.357"/>
<line x1="962.153" y1="116.357" x2="962.017" y2="116.301"/>
<line x1="962.017" y1="116.301" x2="961.961" y2="116.165"/>
</g>
<g transform="matrix(1 0 0 1 0 0)"                     
style="stroke:rgb(2,2,255);
stroke-width:1.0">
<line x1="957.113" y1="122.500" x2="957.170" y2="122.364"/>
<line x1="957.170" y1="122.364" x2="957.305" y2="122.308"/>
<line x1="957.305" y1="122.308" x2="957.441" y2="122.364"/>
<line x1="957.441" y1="122.364" x2="957.497" y2="122.500"/>
<line x1="957.497" y1="122.500" x2="957.441" y2="122.635"/>
<line x1="957.441" y1="122.635" x2="957.305" y2="122.692"/>
<line x1="957.305" y1="122.692" x2="957.170" y2="122.635"/>
<line x1="957.170" y1="122.635" x2="957.113" y2="122.500"/>
</g>
<g transform="matrix(1 0 0 1 0 0)"                     
style="stroke:rgb(2,2,255);
stroke-width:1.0">
<line x1="953.287" y1="129.496" x2="953.343" y2="129.361"/>
<line x1="953.343" y1="129.361" x2="953.479" y2="129.304"/>
<line x1="953.479" y1="129.304" x2="953.615" y2="129.361"/>
<line x1="953.615" y1="129.361" x2="953.671" y2="129.496"/>
<line x1="953.671" y1="129.496" x2="953.615" y2="129.632"/>
<line x1="953.615" y1="129.632" x2="953.479" y2="129.688"/>
<line x1="953.479" y1="129.688" x2="953.343" y2="129.632"/>
<line x1="953.343" y1="129.632" x2="953.287" y2="129.496"/>
</g>
<g transform="matrix(1 0 0 1 0 0)"                     
style="stroke:rgb(2,2,255);
stroke-width:1.0">
<line x1="950.569" y1="136.996" x2="950.625" y2="136.861"/>
<line x1="950.625" y1="136.861" x2="950.760" y2="136.804"/>
<line x1="950.760" y1="136.804" x2="950.896" y2="136.861"/>
<line x1="950.896" y1="136.861" x2="950.952" y2="136.996"/>
<line x1="950.952" y1="136.996" x2="950.896" y2="137.132"/>
<line x1="950.896" y1="137.132" x2="950.760" y2="137.188"/>
<line x1="950.760" y1="137.188" x2="950.625" y2="137.132"/>
<line x1="950.625" y1="137.132" x2="950.569" y2="136.996"/>
</g>
<g transform="matrix(1 0 0 1 0 0)"                     
style="stroke:rgb(2,2,255);
stroke-width:1.0">
<line x1="949.183" y1="144.852" x2="949.239" y2="144.717"/>
<line x1="949.239" y1="144.717" x2="949.375" y2="144.660"/>
<line x1="949.375" y1="144.660" x2="949.510" y2="144.717"/>
<line x1="949.510" y1="144.717" x2="949.566" y2="144.852"/>
<line x1="949.566" y1="144.852" x2="949.510" y2="144.988"/>
<line x1="949.510" y1="144.988" x2="949.375" y2="145.044"/>
<line x1="949.375" y1="145.044" x2="949.239" y2="144.988"/>
<line x1="949.239" y1="144.988" x2="949.183" y2="144.852"/>
</g>
<g transform="matrix(1 0 0 1 0 0)"                     
style="stroke:rgb(2,2,255);
stroke-width:1.0">
<line x1="949.060" y1="152.826" x2="949.117" y2="152.691"/>
<line x1="949.117" y1="152.691" x2="949.252" y2="152.635"/>
<line x1="949.252" y1="152.635" x2="949.388" y2="152.691"/>
<line x1="949.388" y1="152.691" x2="949.444" y2="152.826"/>
<line x1="949.444" y1="152.826" x2="949.388" y2="152.962"/>
<line x1="949.388" y1="152.962" x2="949.252" y2="153.018"/>
<line x1="949.252" y1="153.018" x2="949.117" y2="152.962"/>
<line x1="949.117" y1="152.962" x2="949.060" y2="152.826"/>
</g>
<g transform="matrix(1 0 0 1 0 0)"                     
style="stroke:rgb(2,2,255);
stroke-width:1.0">
<line x1="950.152" y1="160.726" x2="950.208" y2="160.590"/>
<line x1="950.208" y1="160.590" x2="950.344" y2="160.534"/>
<line x1="950.344" y1="160.534" x2="950.480" y2="160.590"/>
<line x1="950.480" y1="160.590" x2="950.536" y2="160.726"/>
<line x1="950.536" y1="160.726" x2="950.480" y2="160.862"/>
<line x1="950.480" y1="160.862" x2="950.344" y2="160.918"/>
<line x1="950.344" y1="160.918" x2="950.208" y2="160.862"/>
<line x1="950.208" y1="160.862" x2="950.152" y2="160.726"/>
</g>
<g transform="matrix(1 0 0 1 0 0)"                     
style="stroke:rgb(2,2,255);
stroke-width:1.0">
<line x1="952.457" y1="168.364" x2="952.513" y2="168.229"/>
<line x1="952.513" y1="168.229" x2="952.649" y2="168.172"/>
<line x1="952.649" y1="168.172" x2="952.784" y2="168.229"/>
<line x1="952.784" y1="168.229" x2="952.840" y2="168.364"/>
<line x1="952.840" y1="168.364" x2="952.784" y2="168.500"/>
<line x1="952.784" y1="168.500" x2="952.649" y2="168.556"/>
<line x1="952.649" y1="168.556" x2="952.513" y2="168.500"/>
<line x1="952.513" y1="168.500" x2="952.457" y2="168.364"/>
</g>
<g transform="matrix(1 0 0 1 0 0)"                     
style="stroke:rgb(2,2,255);
stroke-width:1.0">
<line x1="956.068" y1="175.479" x2="956.125" y2="175.343"/>
<line x1="956.125" y1="175.343" x2="956.260" y2="175.287"/>
<line x1="956.260" y1="175.287" x2="956.396" y2="175.343"/>
<line x1="956.396" y1="175.343" x2="956.452" y2="175.479"/>
<line x1="956.452" y1="175.479" x2="956.396" y2="175.614"/>
<line x1="956.396" y1="175.614" x2="956.260" y2="175.670"/>
<line x1="956.260" y1="175.670" x2="956.125" y2="175.614"/>
<line x1="956.125" y1="175.614" x2="956.068" y2="175.479"/>
</g>
<g transform="matrix(1 0 0 1 0 0)"                     
style="stroke:rgb(2,2,255);
stroke-width:1.0">
<line x1="960.718" y1="181.957" x2="960.774" y2="181.822"/>
<line x1="960.774" y1="181.822" x2="960.910" y2="181.765"/>
<line x1="960.910" y1="181.765" x2="961.045" y2="181.822"/>
<line x1="961.045" y1="181.822" x2="961.101" y2="181.957"/>
<line x1="961.101" y1="181.957" x2="961.045" y2="182.093"/>
<line x1="961.045" y1="182.093" x2="960.910" y2="182.149"/>
<line x1="960.910" y1="182.149" x2="960.774" y2="182.093"/>
<line x1="960.774" y1="182.093" x2="960.718" y2="181.957"/>
</g>
<g transform="matrix(1 0 0 1 0 0)"                     
style="stroke:rgb(2,2,255);
stroke-width:1.0">
<line x1="966.300" y1="187.654" x2="966.356" y2="187.519"/>
<line x1="966.356" y1="187.519" x2="966.492" y2="187.463"/>
<line x1="966.492" y1="187.463" x2="966.627" y2="187.519"/>
<line x1="966.627" y1="187.519" x2="966.683" y2="187.654"/>
<line x1="966.683" y1="187.654" x2="966.627" y2="187.790"/>
<line x1="966.627" y1="187.790" x2="966.492" y2="187.846"/>
<line x1="966.492" y1="187.846" x2="966.356" y2="187.790"/>
<line x1="966.356" y1="187.790" x2="966.300" y2="187.654"/>
</g>
<g transform="matrix(1 0 0 1 0 0)"                     
style="stroke:rgb(2,2,255);
stroke-width:1.0">
<line x1="972.743" y1="192.357" x2="972.799" y2="192.221"/>
<line x1="972.799" y1="192.221" x2="972.935" y2="192.165"/>
<line x1="972.935" y1="192.165" x2="973.070" y2="192.221"/>
<line x1="973.070" y1="192.221" x2="973.126" y2="192.357"/>
<line x1="973.126" y1="192.357" x2="973.070" y2="192.493"/>
<line x1="973.070" y1="192.493" x2="972.935" y2="192.549"/>
<line x1="972.935" y1="192.549" x2="972.799" y2="192.493"/>
<line x1="972.799" y1="192.493" x2="972.743" y2="192.357"/>
</g>
<g transform="matrix(1 0 0 1 0 0)"                     
style="stroke:rgb(2,2,255);
stroke-width:1.0">
<line x1="979.879" y1="195.921" x2="979.935" y2="195.785"/>
<line x1="979.935" y1="195.785" x2="980.070" y2="195.729"/>
<line x1="980.070" y1="195.729" x2="980.206" y2="195.785"/>
<line x1="980.206" y1="195.785" x2="980.262" y2="195.921"/>
<line x1="980.262" y1="195.921" x2="980.206" y2="196.057"/>
<line x1="980.206" y1="196.057" x2="980.070" y2="196.113"/>
<line x1="980.070" y1="196.113" x2="979.935" y2="196.057"/>
<line x1="979.935" y1="196.057" x2="979.879" y2="195.921"/>
</g>
<g transform="matrix(1 0 0 1 0 0)"                     
style="stroke:rgb(2,2,255);
stroke-width:1.0">
<line x1="987.471" y1="198.357" x2="987.528" y2="198.222"/>
<line x1="987.528" y1="198.222" x2="987.663" y2="198.166"/>
<line x1="987.663" y1="198.166" x2="987.799" y2="198.222"/>
<line x1="987.799" y1="198.222" x2="987.855" y2="198.357"/>
<line x1="987.855" y1="198.357" x2="987.799" y2="198.493"/>
<line x1="987.799" y1="198.493" x2="987.663" y2="198.549"/>
<line x1="987.663" y1="198.549" x2="987.528" y2="198.493"/>
<line x1="987.528" y1="198.493" x2="987.471" y2="198.357"/>
</g>
<g transform="matrix(1 0 0 1 0 0)"                     
style="stroke:rgb(2,2,255);
stroke-width:1.0">
<line x1="995.351" y1="199.611" x2="995.407" y2="199.475"/>
<line x1="995.407" y1="199.475" x2="995.542" y2="199.419"/>
<line x1="995.542" y1="199.419" x2="995.678" y2="199.475"/>
<line x1="995.678" y1="199.475" x2="995.734" y2="199.611"/>
<line x1="995.734" y1="199.611" x2="995.678" y2="199.746"/>
<line x1="995.678" y1="199.746" x2="995.542" y2="199.803"/>
<line x1="995.542" y1="199.803" x2="995.407" y2="199.746"/>
<line x1="995.407" y1="199.746" x2="995.351" y2="199.611"/>
</g>
<g transform="matrix(1 0 0 1 0 0)"                     
style="stroke:rgb(2,2,255);
stroke-width:1.0">
<line x1="1003.327" y1="199.477" x2="1003.383" y2="199.341"/>
<line x1="1003.383" y1="199.341" x2="1003.519" y2="199.285"/>
<line x1="1003.519" y1="199.285" x2="1003.654" y2="199.341"/>
<line x1="1003.654" y1="199.341" x2="1003.711" y2="199.477"/>
<line x1="1003.711" y1="199.477" x2="1003.654" y2="199.612"/>
<line x1="1003.654" y1="199.612" x2="1003.519" y2="199.669"/>
<line x1="1003.519" y1="199.669" x2="1003.383" y2="199.612"/>
<line x1="1003.383" y1="199.612" x2="1003.327" y2="199.477"/>
</g>
<g transform="matrix(1 0 0 1 0 0)"                     
style="stroke:rgb(2,2,255);
stroke-width:1.0">
<line x1="1011.181" y1="198.091" x2="1011.237" y2="197.956"/>
<line x1="1011.237" y1="197.956" x2="1011.373" y2="197.900"/>
<line x1="1011.373" y1="197.900" x2="1011.508" y2="197.956"/>
<line x1="1011.508" y1="197.956" x2="1011.564" y2="198.091"/>
<line x1="1011.564" y1="198.091" x2="1011.508" y2="198.227"/>
<line x1="1011.508" y1="198.227" x2="1011.373" y2="198.283"/>
<line x1="1011.373" y1="198.283" x2="1011.237" y2="198.227"/>
<line x1="1011.237" y1="198.227" x2="1011.181" y2="198.091"/>
</g>
<g transform="matrix(1 0 0 1 0 0)"                     
style="stroke:rgb(2,2,255);
stroke-width:1.0">
<line x1="1018.732" y1="195.527" x2="1018.788" y2="195.392"/>
<line x1="1018.788" y1="195.392" x2="1018.924" y2="195.335"/>
<line x1="1018.924" y1="195.335" x2="1019.060" y2="195.392"/>
<line x1="1019.060" y1="195.392" x2="1019.116" y2="195.527"/>
<line x1="1019.116" y1="195.527" x2="1019.060" y2="195.663"/>
<line x1="1019.060" y1="195.663" x2="1018.924" y2="195.719"/>
<line x1="1018.924" y1="195.719" x2="1018.788" y2="195.663"/>
<line x1="1018.788" y1="195.663" x2="1018.732" y2="195.527"/>
</g>
<g transform="matrix(1 0 0 1 0 0)"                     
style="stroke:rgb(2,2,255);
stroke-width:1.0">
<line x1="1025.792" y1="191.812" x2="1025.848" y2="191.676"/>
<line x1="1025.848" y1="191.676" x2="1025.984" y2="191.620"/>
<line x1="1025.984" y1="191.620" x2="1026.120" y2="191.676"/>
<line x1="1026.120" y1="191.676" x2="1026.176" y2="191.812"/>
<line x1="1026.176" y1="191.812" x2="1026.120" y2="191.948"/>
<line x1="1026.120" y1="191.948" x2="1025.984" y2="192.004"/>
<line x1="1025.984" y1="192.004" x2="1025.848" y2="191.948"/>
<line x1="1025.848" y1="191.948" x2="1025.792" y2="191.812"/>
</g>
<g transform="matrix(1 0 0 1 0 0)"                     
style="stroke:rgb(2,2,255);
stroke-width:1.0">
<line x1="1032.096" y1="186.922" x2="1032.152" y2="186.787"/>
<line x1="1032.152" y1="186.787" x2="1032.288" y2="186.730"/>
<line x1="1032.288" y1="186.730" x2="1032.424" y2="186.787"/>
<line x1="1032.424" y1="186.787" x2="1032.480" y2="186.922"/>
<line x1="1032.480" y1="186.922" x2="1032.424" y2="187.058"/>
<line x1="1032.424" y1="187.058" x2="1032.288" y2="187.114"/>
<line x1="1032.288" y1="187.114" x2="1032.152" y2="187.058"/>
<line x1="1032.152" y1="187.058" x2="1032.096" y2="186.922"/>
</g>
<g transform="matrix(1 0 0 1 0 0)"                     
style="stroke:rgb(2,2,255);
stroke-width:1.0">
<line x1="1037.580" y1="181.133" x2="1037.636" y2="180.998"/>
<line x1="1037.636" y1="180.998" x2="1037.772" y2="180.941"/>
<line x1="1037.772" y1="180.941" x2="1037.908" y2="180.998"/>
<line x1="1037.908" y1="180.998" x2="1037.964" y2="181.133"/>
<line x1="1037.964" y1="181.133" x2="1037.908" y2="181.269"/>
<line x1="1037.908" y1="181.269" x2="1037.772" y2="181.325"/>
<line x1="1037.772" y1="181.325" x2="1037.636" y2="181.269"/>
<line x1="1037.636" y1="181.269" x2="1037.580" y2="181.133"/>
</g>
<g transform="matrix(1 0 0 1 0 0)"                     
style="stroke:rgb(2,2,255);
stroke-width:1.0">
<line x1="1042.121" y1="174.576" x2="1042.177" y2="174.440"/>
<line x1="1042.177" y1="174.440" x2="1042.313" y2="174.384"/>
<line x1="1042.313" y1="174.384" x2="1042.449" y2="174.440"/>
<line x1="1042.449" y1="174.440" x2="1042.505" y2="174.576"/>
<line x1="1042.505" y1="174.576" x2="1042.449" y2="174.711"/>
<line x1="1042.449" y1="174.711" x2="1042.313" y2="174.767"/>
<line x1="1042.313" y1="174.767" x2="1042.177" y2="174.711"/>
<line x1="1042.177" y1="174.711" x2="1042.121" y2="174.576"/>
</g>
<g transform="matrix(1 0 0 1 0 0)"                     
style="stroke:rgb(2,2,255);
stroke-width:1.0">
<line x1="1045.512" y1="167.356" x2="1045.568" y2="167.220"/>
<line x1="1045.568" y1="167.220" x2="1045.704" y2="167.164"/>
<line x1="1045.704" y1="167.164" x2="1045.839" y2="167.220"/>
<line x1="1045.839" y1="167.220" x2="1045.896" y2="167.356"/>
<line x1="1045.896" y1="167.356" x2="1045.839" y2="167.491"/>
<line x1="1045.839" y1="167.491" x2="1045.704" y2="167.548"/>
<line x1="1045.704" y1="167.548" x2="1045.568" y2="167.491"/>
<line x1="1045.568" y1="167.491" x2="1045.512" y2="167.356"/>
</g>
<g transform="matrix(1 0 0 1 0 0)"                     
style="stroke:rgb(2,2,255);
stroke-width:1.0">
<line x1="1047.664" y1="159.676" x2="1047.721" y2="159.540"/>
<line x1="1047.721" y1="159.540" x2="1047.856" y2="159.484"/>
<line x1="1047.856" y1="159.484" x2="1047.992" y2="159.540"/>
<line x1="1047.992" y1="159.540" x2="1048.048" y2="159.676"/>
<line x1="1048.048" y1="159.676" x2="1047.992" y2="159.811"/>
<line x1="1047.992" y1="159.811" x2="1047.856" y2="159.867"/>
<line x1="1047.856" y1="159.867" x2="1047.721" y2="159.811"/>
<line x1="1047.721" y1="159.811" x2="1047.664" y2="159.676"/>
</g>
<g transform="matrix(1 0 0 1 0 0)"                     
style="stroke:rgb(2,2,255);
stroke-width:1.0">
<line x1="1048.623" y1="151.759" x2="1048.679" y2="151.623"/>
<line x1="1048.679" y1="151.623" x2="1048.815" y2="151.567"/>
<line x1="1048.815" y1="151.567" x2="1048.951" y2="151.623"/>
<line x1="1048.951" y1="151.623" x2="1049.007" y2="151.759"/>
<line x1="1049.007" y1="151.759" x2="1048.951" y2="151.895"/>
<line x1="1048.951" y1="151.895" x2="1048.815" y2="151.951"/>
<line x1="1048.815" y1="151.951" x2="1048.679" y2="151.895"/>
<line x1="1048.679" y1="151.895" x2="1048.623" y2="151.759"/>
</g>
<g transform="matrix(1 0 0 1 0 0)"                     
style="stroke:rgb(255,2,2);
stroke-width:1.0">
<line x1="249.938" y1="149.812" x2="249.544" y2="143.554"/>
<line x1="249.544" y1="143.554" x2="249.222" y2="141.865"/>
</g>
<g transform="matrix(1 0 0 1 0 0)"                     
style="stroke:rgb(255,2,2);
stroke-width:1.0">
<line x1="247.115" y1="134.124" x2="247.171" y2="133.989"/>
<line x1="247.171" y1="133.989" x2="247.306" y2="133.932"/>
<line x1="247.306" y1="133.932" x2="247.442" y2="133.989"/>
<line x1="247.442" y1="133.989" x2="247.498" y2="134.124"/>
<line x1="247.498" y1="134.124" x2="247.442" y2="134.260"/>
<line x1="247.442" y1="134.260" x2="247.306" y2="134.316"/>
<line x1="247.306" y1="134.316" x2="247.171" y2="134.260"/>
<line x1="247.171" y1="134.260" x2="247.115" y2="134.124"/>
</g>
<g transform="matrix(1 0 0 1 0 0)"                     
style="stroke:rgb(255,2,2);
stroke-width:1.0">
<line x1="244.235" y1="126.764" x2="243.761" y2="125.755"/>
<line x1="243.761" y1="125.755" x2="240.400" y2="120.460"/>
<line x1="240.400" y1="120.460" x2="240.015" y2="119.995"/>
</g>
<g transform="matrix(1 0 0 1 0 0)"                     
style="stroke:rgb(255,2,2);
stroke-width:1.0">
<line x1="234.518" y1="114.038" x2="234.574" y2="113.902"/>
<line x1="234.574" y1="113.902" x2="234.710" y2="113.846"/>
<line x1="234.710" y1="113.846" x2="234.845" y2="113.902"/>
<line x1="234.845" y1="113.902" x2="234.902" y2="114.038"/>
<line x1="234.902" y1="114.038" x2="234.845" y2="114.174"/>
<line x1="234.845" y1="114.174" x2="234.710" y2="114.230"/>
<line x1="234.710" y1="114.230" x2="234.574" y2="114.174"/>
<line x1="234.574" y1="114.174" x2="234.518" y2="114.038"/>
</g>
<g transform="matrix(1 0 0 1 0 0)"                     
style="stroke:rgb(255,2,2);
stroke-width:1.0">
<line x1="228.562" y1="108.959" x2="226.758" y2="107.649"/>
<line x1="226.758" y1="107.649" x2="221.710" y2="104.874"/>
</g>
<g transform="matrix(1 0 0 1 0 0)"                     
style="stroke:rgb(255,2,2);
stroke-width:1.0">
<line x1="214.070" y1="102.019" x2="214.126" y2="101.883"/>
<line x1="214.126" y1="101.883" x2="214.262" y2="101.827"/>
<line x1="214.262" y1="101.827" x2="214.397" y2="101.883"/>
<line x1="214.397" y1="101.883" x2="214.453" y2="102.019"/>
<line x1="214.453" y1="102.019" x2="214.397" y2="102.154"/>
<line x1="214.397" y1="102.154" x2="214.262" y2="102.211"/>
<line x1="214.262" y1="102.211" x2="214.126" y2="102.154"/>
<line x1="214.126" y1="102.154" x2="214.070" y2="102.019"/>
</g>
<g transform="matrix(1 0 0 1 0 0)"                     
style="stroke:rgb(255,2,2);
stroke-width:1.0">
<line x1="206.454" y1="100.393" x2="203.136" y2="99.974"/>
<line x1="203.136" y1="99.974" x2="198.490" y2="99.974"/>
</g>
<g transform="matrix(1 0 0 1 0 0)"                     
style="stroke:rgb(255,2,2);
stroke-width:1.0">
<line x1="190.361" y1="100.783" x2="190.417" y2="100.647"/>
<line x1="190.417" y1="100.647" x2="190.552" y2="100.591"/>
<line x1="190.552" y1="100.591" x2="190.688" y2="100.647"/>
<line x1="190.688" y1="100.647" x2="190.744" y2="100.783"/>
<line x1="190.744" y1="100.783" x2="190.688" y2="100.918"/>
<line x1="190.688" y1="100.918" x2="190.552" y2="100.974"/>
<line x1="190.552" y1="100.974" x2="190.417" y2="100.918"/>
<line x1="190.417" y1="100.918" x2="190.361" y2="100.783"/>
</g>
<g transform="matrix(1 0 0 1 0 0)"                     
style="stroke:rgb(255,2,2);
stroke-width:1.0">
<line x1="182.884" y1="102.986" x2="178.738" y2="104.628"/>
<line x1="178.738" y1="104.628" x2="175.644" y2="106.329"/>
</g>
<g transform="matrix(1 0 0 1 0 0)"                     
style="stroke:rgb(255,2,2);
stroke-width:1.0">
<line x1="168.803" y1="110.734" x2="168.860" y2="110.599"/>
<line x1="168.860" y1="110.599" x2="168.995" y2="110.543"/>
<line x1="168.995" y1="110.543" x2="169.131" y2="110.599"/>
<line x1="169.131" y1="110.599" x2="169.187" y2="110.734"/>
<line x1="169.187" y1="110.734" x2="169.131" y2="110.870"/>
<line x1="169.131" y1="110.870" x2="168.995" y2="110.926"/>
<line x1="168.995" y1="110.926" x2="168.860" y2="110.870"/>
<line x1="168.860" y1="110.870" x2="168.803" y2="110.734"/>
</g>
<g transform="matrix(1 0 0 1 0 0)"                     
style="stroke:rgb(255,2,2);
stroke-width:1.0">
<line x1="163.153" y1="116.165" x2="159.600" y2="120.460"/>
<line x1="159.600" y1="120.460" x2="158.305" y2="122.500"/>
</g>
<g transform="matrix(1 0 0 1 0 0)"                     
style="stroke:rgb(255,2,2);
stroke-width:1.0">
<line x1="154.287" y1="129.496" x2="154.343" y2="129.361"/>
<line x1="154.343" y1="129.361" x2="154.479" y2="129.304"/>
<line x1="154.479" y1="129.304" x2="154.615" y2="129.361"/>
<line x1="154.615" y1="129.361" x2="154.671" y2="129.496"/>
<line x1="154.671" y1="129.496" x2="154.615" y2="129.632"/>
<line x1="154.615" y1="129.632" x2="154.479" y2="129.688"/>
<line x1="154.479" y1="129.688" x2="154.343" y2="129.632"/>
<line x1="154.343" y1="129.632" x2="154.287" y2="129.496"/>
</g>
<g transform="matrix(1 0 0 1 0 0)"                     
style="stroke:rgb(255,2,2);
stroke-width:1.0">
<line x1="151.760" y1="136.996" x2="151.631" y2="137.394"/>
<line x1="151.631" y1="137.394" x2="150.456" y2="143.554"/>
<line x1="150.456" y1="143.554" x2="150.375" y2="144.852"/>
</g>
<g transform="matrix(1 0 0 1 0 0)"                     
style="stroke:rgb(255,2,2);
stroke-width:1.0">
<line x1="150.060" y1="152.826" x2="150.116" y2="152.691"/>
<line x1="150.116" y1="152.691" x2="150.252" y2="152.635"/>
<line x1="150.252" y1="152.635" x2="150.388" y2="152.691"/>
<line x1="150.388" y1="152.691" x2="150.444" y2="152.826"/>
<line x1="150.444" y1="152.826" x2="150.388" y2="152.962"/>
<line x1="150.388" y1="152.962" x2="150.252" y2="153.018"/>
<line x1="150.252" y1="153.018" x2="150.116" y2="152.962"/>
<line x1="150.116" y1="152.962" x2="150.060" y2="152.826"/>
</g>
<g transform="matrix(1 0 0 1 0 0)"                     
style="stroke:rgb(255,2,2);
stroke-width:1.0">
<line x1="151.344" y1="160.726" x2="151.631" y2="162.232"/>
<line x1="151.631" y1="162.232" x2="153.569" y2="168.196"/>
<line x1="153.569" y1="168.196" x2="153.649" y2="168.364"/>
</g>
<g transform="matrix(1 0 0 1 0 0)"                     
style="stroke:rgb(255,2,2);
stroke-width:1.0">
<line x1="157.068" y1="175.479" x2="157.125" y2="175.343"/>
<line x1="157.125" y1="175.343" x2="157.260" y2="175.287"/>
<line x1="157.260" y1="175.287" x2="157.396" y2="175.343"/>
<line x1="157.396" y1="175.343" x2="157.452" y2="175.479"/>
<line x1="157.452" y1="175.479" x2="157.396" y2="175.614"/>
<line x1="157.396" y1="175.614" x2="157.260" y2="175.670"/>
<line x1="157.260" y1="175.670" x2="157.125" y2="175.614"/>
<line x1="157.125" y1="175.614" x2="157.068" y2="175.479"/>
</g>
<g transform="matrix(1 0 0 1 0 0)"                     
style="stroke:rgb(255,2,2);
stroke-width:1.0">
<line x1="161.910" y1="181.957" x2="163.597" y2="183.997"/>
<line x1="163.597" y1="183.997" x2="167.492" y2="187.654"/>
</g>
<g transform="matrix(1 0 0 1 0 0)"                     
style="stroke:rgb(255,2,2);
stroke-width:1.0">
<line x1="173.743" y1="192.357" x2="173.799" y2="192.221"/>
<line x1="173.799" y1="192.221" x2="173.935" y2="192.165"/>
<line x1="173.935" y1="192.165" x2="174.070" y2="192.221"/>
<line x1="174.070" y1="192.221" x2="174.126" y2="192.357"/>
<line x1="174.126" y1="192.357" x2="174.070" y2="192.493"/>
<line x1="174.070" y1="192.493" x2="173.935" y2="192.549"/>
<line x1="173.935" y1="192.549" x2="173.799" y2="192.493"/>
<line x1="173.799" y1="192.493" x2="173.743" y2="192.357"/>
</g>
<g transform="matrix(1 0 0 1 0 0)"                     
style="stroke:rgb(255,2,2);
stroke-width:1.0">
<line x1="181.070" y1="195.921" x2="184.568" y2="197.306"/>
<line x1="184.568" y1="197.306" x2="188.663" y2="198.357"/>
</g>
<g transform="matrix(1 0 0 1 0 0)"                     
style="stroke:rgb(255,2,2);
stroke-width:1.0">
<line x1="196.351" y1="199.611" x2="196.407" y2="199.475"/>
<line x1="196.407" y1="199.475" x2="196.542" y2="199.419"/>
<line x1="196.542" y1="199.419" x2="196.678" y2="199.475"/>
<line x1="196.678" y1="199.475" x2="196.734" y2="199.611"/>
<line x1="196.734" y1="199.611" x2="196.678" y2="199.746"/>
<line x1="196.678" y1="199.746" x2="196.542" y2="199.803"/>
<line x1="196.542" y1="199.803" x2="196.407" y2="199.746"/>
<line x1="196.407" y1="199.746" x2="196.351" y2="199.611"/>
</g>
<g transform="matrix(1 0 0 1 0 0)"                     
style="stroke:rgb(255,2,2);
stroke-width:1.0">
<line x1="204.519" y1="199.477" x2="209.357" y2="198.866"/>
<line x1="209.357" y1="198.866" x2="212.373" y2="198.091"/>
</g>
<g transform="matrix(1 0 0 1 0 0)"                     
style="stroke:rgb(255,2,2);
stroke-width:1.0">
<line x1="219.732" y1="195.527" x2="219.788" y2="195.392"/>
<line x1="219.788" y1="195.392" x2="219.924" y2="195.335"/>
<line x1="219.924" y1="195.335" x2="220.060" y2="195.392"/>
<line x1="220.060" y1="195.392" x2="220.116" y2="195.527"/>
<line x1="220.116" y1="195.527" x2="220.060" y2="195.663"/>
<line x1="220.060" y1="195.663" x2="219.924" y2="195.719"/>
<line x1="219.924" y1="195.719" x2="219.788" y2="195.663"/>
<line x1="219.788" y1="195.663" x2="219.732" y2="195.527"/>
</g>
<g transform="matrix(1 0 0 1 0 0)"                     
style="stroke:rgb(255,2,2);
stroke-width:1.0">
<line x1="226.984" y1="191.812" x2="231.831" y2="188.290"/>
<line x1="231.831" y1="188.290" x2="233.288" y2="186.922"/>
</g>
<g transform="matrix(1 0 0 1 0 0)"                     
style="stroke:rgb(255,2,2);
stroke-width:1.0">
<line x1="238.580" y1="181.133" x2="238.637" y2="180.998"/>
<line x1="238.637" y1="180.998" x2="238.772" y2="180.941"/>
<line x1="238.772" y1="180.941" x2="238.908" y2="180.998"/>
<line x1="238.908" y1="180.998" x2="238.964" y2="181.133"/>
<line x1="238.964" y1="181.133" x2="238.908" y2="181.269"/>
<line x1="238.908" y1="181.269" x2="238.772" y2="181.325"/>
<line x1="238.772" y1="181.325" x2="238.637" y2="181.269"/>
<line x1="238.637" y1="181.269" x2="238.580" y2="181.133"/>
</g>
<g transform="matrix(1 0 0 1 0 0)"                     
style="stroke:rgb(255,2,2);
stroke-width:1.0">
<line x1="243.313" y1="174.576" x2="243.761" y2="173.870"/>
<line x1="243.761" y1="173.870" x2="246.431" y2="168.196"/>
<line x1="246.431" y1="168.196" x2="246.704" y2="167.356"/>
</g>
<g transform="matrix(1 0 0 1 0 0)"                     
style="stroke:rgb(255,2,2);
stroke-width:1.0">
<line x1="248.664" y1="159.675" x2="248.721" y2="159.540"/>
<line x1="248.721" y1="159.540" x2="248.856" y2="159.484"/>
<line x1="248.856" y1="159.484" x2="248.992" y2="159.540"/>
<line x1="248.992" y1="159.540" x2="249.048" y2="159.675"/>
<line x1="249.048" y1="159.675" x2="248.992" y2="159.811"/>
<line x1="248.992" y1="159.811" x2="248.856" y2="159.867"/>
<line x1="248.856" y1="159.867" x2="248.721" y2="159.811"/>
<line x1="248.721" y1="159.811" x2="248.664" y2="159.675"/>
</g>
<g transform="matrix(1 0 0 1 0 0)"                     
style="stroke:rgb(255,2,2);
stroke-width:1.0">
<line x1="249.815" y1="151.759" x2="249.938" y2="149.812"/>
<line x1="249.938" y1="149.812" x2="249.938" y2="149.812"/>
</g>
<g transform="matrix(1 0 0 1 0 0)"                     
style="stroke:rgb(2,2,2);
stroke-width:1.0">
<line x1="399.750" y1="349.563" x2="549.562" y2="349.563"/>
<line x1="399.750" y1="349.563" x2="529.493" y2="274.656"/>
<line x1="499.625" y1="349.563" x2="498.837" y2="337.045"/>
<line x1="498.837" y1="337.045" x2="496.487" y2="324.725"/>
<line x1="496.487" y1="324.725" x2="492.611" y2="312.796"/>
<line x1="492.611" y1="312.796" x2="487.271" y2="301.447"/>
<line x1="487.271" y1="301.447" x2="486.244" y2="299.625"/>
</g>
<g transform="matrix(1 0 0 1 0 0)"                     
style="stroke:rgb(2,2,2);
stroke-width:1.0">
<line x1="528.339" y1="306.491" x2="527.091" y2="307.116"/>
<line x1="527.091" y1="307.116" x2="525.842" y2="308.988"/>
<line x1="525.842" y1="308.988" x2="525.218" y2="310.237"/>
<line x1="525.218" y1="310.237" x2="524.594" y2="312.109"/>
<line x1="524.594" y1="312.109" x2="523.970" y2="315.230"/>
<line x1="523.970" y1="315.230" x2="523.970" y2="317.727"/>
<line x1="523.970" y1="317.727" x2="524.594" y2="318.976"/>
<line x1="524.594" y1="318.976" x2="525.218" y2="319.600"/>
<line x1="525.218" y1="319.600" x2="526.466" y2="319.600"/>
<line x1="526.466" y1="319.600" x2="527.715" y2="318.976"/>
<line x1="527.715" y1="318.976" x2="528.963" y2="317.103"/>
<line x1="528.963" y1="317.103" x2="529.587" y2="315.855"/>
<line x1="529.587" y1="315.855" x2="530.212" y2="313.982"/>
<line x1="530.212" y1="313.982" x2="530.836" y2="310.861"/>
<line x1="530.836" y1="310.861" x2="530.836" y2="308.364"/>
<line x1="530.836" y1="308.364" x2="530.212" y2="307.116"/>
<line x1="530.212" y1="307.116" x2="529.587" y2="306.491"/>
<line x1="529.587" y1="306.491" x2="528.339" y2="306.491"/>
<line x1="524.594" y1="312.734" x2="530.212" y2="312.734"/>
<line x1="535.830" y1="310.549" x2="549.875" y2="310.549"/>
<line x1="535.830" y1="315.230" x2="549.875" y2="315.230"/>
<line x1="556.897" y1="303.526" x2="565.480" y2="303.526"/>
<line x1="565.480" y1="303.526" x2="560.798" y2="309.769"/>
<line x1="560.798" y1="309.769" x2="563.139" y2="309.769"/>
<line x1="563.139" y1="309.769" x2="564.700" y2="310.549"/>
<line x1="564.700" y1="310.549" x2="565.480" y2="311.329"/>
<line x1="565.480" y1="311.329" x2="566.260" y2="313.670"/>
<line x1="566.260" y1="313.670" x2="566.260" y2="315.230"/>
<line x1="566.260" y1="315.230" x2="565.480" y2="317.571"/>
<line x1="565.480" y1="317.571" x2="563.919" y2="319.132"/>
<line x1="563.919" y1="319.132" x2="561.579" y2="319.912"/>
<line x1="561.579" y1="319.912" x2="559.238" y2="319.912"/>
<line x1="559.238" y1="319.912" x2="556.897" y2="319.132"/>
<line x1="556.897" y1="319.132" x2="556.117" y2="318.352"/>
<line x1="556.117" y1="318.352" x2="555.336" y2="316.791"/>
<line x1="575.624" y1="303.526" x2="573.283" y2="304.307"/>
<line x1="573.283" y1="304.307" x2="571.722" y2="306.647"/>
<line x1="571.722" y1="306.647" x2="570.942" y2="310.549"/>
<line x1="570.942" y1="310.549" x2="570.942" y2="312.890"/>
<line x1="570.942" y1="312.890" x2="571.722" y2="316.791"/>
<line x1="571.722" y1="316.791" x2="573.283" y2="319.132"/>
<line x1="573.283" y1="319.132" x2="575.624" y2="319.912"/>
<line x1="575.624" y1="319.912" x2="577.184" y2="319.912"/>
<line x1="577.184" y1="319.912" x2="579.525" y2="319.132"/>
<line x1="579.525" y1="319.132" x2="581.086" y2="316.791"/>
<line x1="581.086" y1="316.791" x2="581.866" y2="312.890"/>
<line x1="581.866" y1="312.890" x2="581.866" y2="310.549"/>
<line x1="581.866" y1="310.549" x2="581.086" y2="306.647"/>
<line x1="581.086" y1="306.647" x2="579.525" y2="304.307"/>
<line x1="579.525" y1="304.307" x2="577.184" y2="303.526"/>
<line x1="577.184" y1="303.526" x2="575.624" y2="303.526"/>
</g>
<g transform="matrix(1 0 0 1 0 0)"                     
style="stroke:rgb(255,2,2);
stroke-width:1.0">
<line x1="150.063" y1="399.500" x2="1048.938" y2="399.500"/>
<line x1="599.500" y1="699.125" x2="599.500" y2="99.875"/>
</g>
<g transform="matrix(1 0 0 1 0 0)"                     
style="stroke:rgb(2,2,2);
stroke-width:1.0">
<line x1="599.500" y1="394.393" x2="598.365" y2="397.798"/>
<line x1="598.365" y1="397.798" x2="594.960" y2="397.798"/>
<line x1="594.960" y1="397.798" x2="597.798" y2="400.068"/>
<line x1="597.798" y1="400.068" x2="596.663" y2="403.472"/>
<line x1="596.663" y1="403.472" x2="599.500" y2="401.202"/>
<line x1="599.500" y1="401.202" x2="602.337" y2="403.472"/>
<line x1="602.337" y1="403.472" x2="601.202" y2="400.068"/>
<line x1="601.202" y1="400.068" x2="604.040" y2="397.798"/>
<line x1="604.040" y1="397.798" x2="600.635" y2="397.798"/>
<line x1="600.635" y1="397.798" x2="599.500" y2="394.393"/>
<line x1="598.365" y1="387.016" x2="595.528" y2="387.583"/>
<line x1="595.528" y1="387.583" x2="593.258" y2="388.718"/>
<line x1="593.258" y1="388.718" x2="591.555" y2="389.853"/>
<line x1="591.555" y1="389.853" x2="589.853" y2="391.555"/>
<line x1="589.853" y1="391.555" x2="588.718" y2="393.258"/>
<line x1="588.718" y1="393.258" x2="587.583" y2="395.528"/>
<line x1="587.583" y1="395.528" x2="587.016" y2="398.365"/>
<line x1="587.016" y1="398.365" x2="587.016" y2="400.635"/>
<line x1="587.016" y1="400.635" x2="587.583" y2="403.472"/>
<line x1="587.583" y1="403.472" x2="588.718" y2="405.742"/>
<line x1="588.718" y1="405.742" x2="589.853" y2="407.445"/>
<line x1="589.853" y1="407.445" x2="591.555" y2="409.147"/>
<line x1="591.555" y1="409.147" x2="593.258" y2="410.282"/>
<line x1="593.258" y1="410.282" x2="595.528" y2="411.417"/>
<line x1="595.528" y1="411.417" x2="598.365" y2="411.984"/>
<line x1="598.365" y1="411.984" x2="600.635" y2="411.984"/>
<line x1="600.635" y1="411.984" x2="603.472" y2="411.417"/>
<line x1="603.472" y1="411.417" x2="605.742" y2="410.282"/>
<line x1="605.742" y1="410.282" x2="607.445" y2="409.147"/>
<line x1="607.445" y1="409.147" x2="609.147" y2="407.445"/>
<line x1="609.147" y1="407.445" x2="610.282" y2="405.742"/>
<line x1="610.282" y1="405.742" x2="611.417" y2="403.472"/>
<line x1="611.417" y1="403.472" x2="611.984" y2="400.635"/>
<line x1="611.984" y1="400.635" x2="611.984" y2="398.365"/>
<line x1="611.984" y1="398.365" x2="611.417" y2="395.528"/>
<line x1="611.417" y1="395.528" x2="610.282" y2="393.258"/>
<line x1="610.282" y1="393.258" x2="609.147" y2="391.555"/>
<line x1="609.147" y1="391.555" x2="607.445" y2="389.853"/>
<line x1="607.445" y1="389.853" x2="605.742" y2="388.718"/>
<line x1="605.742" y1="388.718" x2="603.472" y2="387.583"/>
<line x1="603.472" y1="387.583" x2="600.635" y2="387.016"/>
<line x1="600.635" y1="387.016" x2="598.365" y2="387.016"/>
<line x1="100.125" y1="149.812" x2="299.875" y2="149.812"/>
<line x1="200.000" y1="249.688" x2="200.000" y2="49.938"/>
<line x1="200.000" y1="119.169" x2="193.190" y2="139.598"/>
<line x1="193.190" y1="139.598" x2="172.761" y2="139.598"/>
<line x1="172.761" y1="139.598" x2="189.786" y2="153.217"/>
<line x1="189.786" y1="153.217" x2="182.976" y2="173.646"/>
<line x1="182.976" y1="173.646" x2="200.000" y2="160.027"/>
<line x1="200.000" y1="160.027" x2="217.024" y2="173.646"/>
<line x1="217.024" y1="173.646" x2="210.215" y2="153.217"/>
<line x1="210.215" y1="153.217" x2="227.239" y2="139.598"/>
<line x1="227.239" y1="139.598" x2="206.810" y2="139.598"/>
<line x1="206.810" y1="139.598" x2="200.000" y2="119.169"/>
<line x1="899.125" y1="149.812" x2="1098.875" y2="149.812"/>
<line x1="999.000" y1="249.688" x2="999.000" y2="49.938"/>
<line x1="985.381" y1="136.193" x2="988.786" y2="146.408"/>
<line x1="988.786" y1="146.408" x2="988.786" y2="153.217"/>
<line x1="988.786" y1="153.217" x2="985.381" y2="163.432"/>
<line x1="1012.619" y1="136.193" x2="1009.215" y2="146.408"/>
<line x1="1009.215" y1="146.408" x2="1009.215" y2="153.217"/>
<line x1="1009.215" y1="153.217" x2="1012.619" y2="163.432"/>
<line x1="985.381" y1="136.193" x2="995.595" y2="139.598"/>
<line x1="995.595" y1="139.598" x2="1002.405" y2="139.598"/>
<line x1="1002.405" y1="139.598" x2="1012.619" y2="136.193"/>
<line x1="985.381" y1="163.432" x2="995.595" y2="160.027"/>
<line x1="995.595" y1="160.027" x2="1002.405" y2="160.027"/>
<line x1="1002.405" y1="160.027" x2="1012.619" y2="163.432"/>
<line x1="100.125" y1="649.188" x2="299.875" y2="649.188"/>
<line x1="200.000" y1="749.062" x2="200.000" y2="549.312"/>
<line x1="200.000" y1="669.616" x2="217.024" y2="638.973"/>
<line x1="217.024" y1="638.973" x2="182.976" y2="638.973"/>
<line x1="182.976" y1="638.973" x2="200.000" y2="669.616"/>
<line x1="200.000" y1="659.402" x2="210.215" y2="642.378"/>
<line x1="200.000" y1="659.402" x2="189.786" y2="642.378"/>
<line x1="200.000" y1="649.188" x2="203.405" y2="642.378"/>
<line x1="200.000" y1="649.188" x2="196.595" y2="642.378"/>
<line x1="899.125" y1="649.188" x2="1098.875" y2="649.188"/>
<line x1="999.000" y1="749.062" x2="999.000" y2="549.312"/>
<line x1="981.976" y1="632.163" x2="1016.024" y2="666.212"/>
<line x1="1016.024" y1="632.163" x2="981.976" y2="666.212"/>
</g>
<g transform="matrix(1 0 0 1 0 0)"                     
style="stroke:rgb(2,2,2);
stroke-width:3.0">
<line x1="349.813" y1="499.375" x2="350.206" y2="505.634"/>
<line x1="350.206" y1="505.634" x2="351.381" y2="511.794"/>
<line x1="351.381" y1="511.794" x2="353.319" y2="517.758"/>
<line x1="353.319" y1="517.758" x2="355.989" y2="523.433"/>
<line x1="355.989" y1="523.433" x2="359.350" y2="528.728"/>
<line x1="359.350" y1="528.728" x2="363.347" y2="533.560"/>
<line x1="363.347" y1="533.560" x2="367.919" y2="537.853"/>
<line x1="367.919" y1="537.853" x2="372.992" y2="541.539"/>
<line x1="372.992" y1="541.539" x2="378.488" y2="544.560"/>
<line x1="378.488" y1="544.560" x2="384.318" y2="546.868"/>
<line x1="384.318" y1="546.868" x2="390.393" y2="548.428"/>
<line x1="390.393" y1="548.428" x2="396.614" y2="549.214"/>
<line x1="396.614" y1="549.214" x2="399.750" y2="549.312"/>
<line x1="799.250" y1="549.312" x2="805.509" y2="548.919"/>
<line x1="805.509" y1="548.919" x2="811.669" y2="547.744"/>
<line x1="811.669" y1="547.744" x2="817.633" y2="545.806"/>
<line x1="817.633" y1="545.806" x2="823.308" y2="543.136"/>
<line x1="823.308" y1="543.136" x2="828.603" y2="539.775"/>
<line x1="828.603" y1="539.775" x2="833.435" y2="535.778"/>
<line x1="833.435" y1="535.778" x2="837.728" y2="531.206"/>
<line x1="837.728" y1="531.206" x2="841.414" y2="526.133"/>
<line x1="841.414" y1="526.133" x2="844.435" y2="520.637"/>
<line x1="844.435" y1="520.637" x2="846.743" y2="514.807"/>
<line x1="846.743" y1="514.807" x2="848.303" y2="508.732"/>
<line x1="848.303" y1="508.732" x2="849.089" y2="502.511"/>
<line x1="849.089" y1="502.511" x2="849.188" y2="499.375"/>
<line x1="399.750" y1="249.688" x2="393.491" y2="250.081"/>
<line x1="393.491" y1="250.081" x2="387.331" y2="251.256"/>
<line x1="387.331" y1="251.256" x2="381.367" y2="253.194"/>
<line x1="381.367" y1="253.194" x2="375.692" y2="255.864"/>
<line x1="375.692" y1="255.864" x2="370.397" y2="259.225"/>
<line x1="370.397" y1="259.225" x2="365.565" y2="263.222"/>
<line x1="365.565" y1="263.222" x2="361.272" y2="267.794"/>
<line x1="361.272" y1="267.794" x2="357.586" y2="272.867"/>
<line x1="357.586" y1="272.867" x2="354.565" y2="278.363"/>
<line x1="354.565" y1="278.363" x2="352.257" y2="284.193"/>
<line x1="352.257" y1="284.193" x2="350.697" y2="290.268"/>
<line x1="350.697" y1="290.268" x2="349.911" y2="296.489"/>
<line x1="349.911" y1="296.489" x2="349.813" y2="299.625"/>
<line x1="849.188" y1="299.625" x2="848.794" y2="293.366"/>
<line x1="848.794" y1="293.366" x2="847.619" y2="287.206"/>
<line x1="847.619" y1="287.206" x2="845.681" y2="281.242"/>
<line x1="845.681" y1="281.242" x2="843.011" y2="275.567"/>
<line x1="843.011" y1="275.567" x2="839.650" y2="270.272"/>
<line x1="839.650" y1="270.272" x2="835.653" y2="265.440"/>
<line x1="835.653" y1="265.440" x2="831.081" y2="261.148"/>
<line x1="831.081" y1="261.148" x2="826.008" y2="257.461"/>
<line x1="826.008" y1="257.461" x2="820.512" y2="254.440"/>
<line x1="820.512" y1="254.440" x2="814.682" y2="252.132"/>
<line x1="814.682" y1="252.132" x2="808.607" y2="250.572"/>
<line x1="808.607" y1="250.572" x2="802.386" y2="249.786"/>
<line x1="802.386" y1="249.786" x2="799.250" y2="249.688"/>
<line x1="349.813" y1="499.375" x2="349.813" y2="299.625"/>
<line x1="849.188" y1="499.375" x2="849.188" y2="299.625"/>
<line x1="399.750" y1="549.312" x2="799.250" y2="549.312"/>
<line x1="799.250" y1="249.688" x2="399.750" y2="249.688"/>
</g>
<g transform="matrix(1 0 0 1 0 0)"                     
style="stroke:rgb(2,2,2);
stroke-width:1.0">
<line x1="399.750" y1="449.438" x2="449.688" y2="499.375"/>
<line x1="449.688" y1="499.375" x2="499.625" y2="449.438"/>
<line x1="499.625" y1="449.438" x2="549.562" y2="499.375"/>
<line x1="649.438" y1="349.563" x2="699.375" y2="299.625"/>
<line x1="699.375" y1="299.625" x2="749.313" y2="349.563"/>
<line x1="749.313" y1="349.563" x2="799.250" y2="299.625"/>
<line x1="649.438" y1="499.375" x2="749.313" y2="499.375"/>
<line x1="749.313" y1="499.375" x2="799.250" y2="449.438"/>
<line x1="799.250" y1="449.438" x2="649.438" y2="449.438"/>
<line x1="649.438" y1="449.438" x2="649.438" y2="499.375"/>
</g>
<g transform="matrix(1 0 0 1 0 0)"                     
style="stroke:rgb(2,2,2);
stroke-width:1.0">
<line x1="343.570" y1="45.256" x2="342.790" y2="43.695"/>
<line x1="342.790" y1="43.695" x2="341.229" y2="42.135"/>
<line x1="341.229" y1="42.135" x2="339.669" y2="41.355"/>
<line x1="339.669" y1="41.355" x2="336.548" y2="41.355"/>
<line x1="336.548" y1="41.355" x2="334.987" y2="42.135"/>
<line x1="334.987" y1="42.135" x2="333.427" y2="43.695"/>
<line x1="333.427" y1="43.695" x2="332.647" y2="45.256"/>
<line x1="332.647" y1="45.256" x2="331.866" y2="47.597"/>
<line x1="331.866" y1="47.597" x2="331.866" y2="51.498"/>
<line x1="331.866" y1="51.498" x2="332.647" y2="53.839"/>
<line x1="332.647" y1="53.839" x2="333.427" y2="55.399"/>
<line x1="333.427" y1="55.399" x2="334.987" y2="56.960"/>
<line x1="334.987" y1="56.960" x2="336.548" y2="57.740"/>
<line x1="336.548" y1="57.740" x2="339.669" y2="57.740"/>
<line x1="339.669" y1="57.740" x2="341.229" y2="56.960"/>
<line x1="341.229" y1="56.960" x2="342.790" y2="55.399"/>
<line x1="342.790" y1="55.399" x2="343.570" y2="53.839"/>
<line x1="343.570" y1="53.839" x2="343.570" y2="51.498"/>
<line x1="339.669" y1="51.498" x2="343.570" y2="51.498"/>
<line x1="348.252" y1="51.498" x2="357.615" y2="51.498"/>
<line x1="357.615" y1="51.498" x2="357.615" y2="49.938"/>
<line x1="357.615" y1="49.938" x2="356.835" y2="48.377"/>
<line x1="356.835" y1="48.377" x2="356.055" y2="47.597"/>
<line x1="356.055" y1="47.597" x2="354.494" y2="46.816"/>
<line x1="354.494" y1="46.816" x2="352.153" y2="46.816"/>
<line x1="352.153" y1="46.816" x2="350.593" y2="47.597"/>
<line x1="350.593" y1="47.597" x2="349.032" y2="49.157"/>
<line x1="349.032" y1="49.157" x2="348.252" y2="51.498"/>
<line x1="348.252" y1="51.498" x2="348.252" y2="53.059"/>
<line x1="348.252" y1="53.059" x2="349.032" y2="55.399"/>
<line x1="349.032" y1="55.399" x2="350.593" y2="56.960"/>
<line x1="350.593" y1="56.960" x2="352.153" y2="57.740"/>
<line x1="352.153" y1="57.740" x2="354.494" y2="57.740"/>
<line x1="354.494" y1="57.740" x2="356.055" y2="56.960"/>
<line x1="356.055" y1="56.960" x2="357.615" y2="55.399"/>
<line x1="363.077" y1="46.816" x2="363.077" y2="57.740"/>
<line x1="363.077" y1="49.938" x2="365.418" y2="47.597"/>
<line x1="365.418" y1="47.597" x2="366.979" y2="46.816"/>
<line x1="366.979" y1="46.816" x2="369.319" y2="46.816"/>
<line x1="369.319" y1="46.816" x2="370.880" y2="47.597"/>
<line x1="370.880" y1="47.597" x2="371.660" y2="49.938"/>
<line x1="371.660" y1="49.938" x2="371.660" y2="57.740"/>
<line x1="377.122" y1="51.498" x2="386.485" y2="51.498"/>
<line x1="386.485" y1="51.498" x2="386.485" y2="49.938"/>
<line x1="386.485" y1="49.938" x2="385.705" y2="48.377"/>
<line x1="385.705" y1="48.377" x2="384.925" y2="47.597"/>
<line x1="384.925" y1="47.597" x2="383.364" y2="46.816"/>
<line x1="383.364" y1="46.816" x2="381.023" y2="46.816"/>
<line x1="381.023" y1="46.816" x2="379.463" y2="47.597"/>
<line x1="379.463" y1="47.597" x2="377.902" y2="49.157"/>
<line x1="377.902" y1="49.157" x2="377.122" y2="51.498"/>
<line x1="377.122" y1="51.498" x2="377.122" y2="53.059"/>
<line x1="377.122" y1="53.059" x2="377.902" y2="55.399"/>
<line x1="377.902" y1="55.399" x2="379.463" y2="56.960"/>
<line x1="379.463" y1="56.960" x2="381.023" y2="57.740"/>
<line x1="381.023" y1="57.740" x2="383.364" y2="57.740"/>
<line x1="383.364" y1="57.740" x2="384.925" y2="56.960"/>
<line x1="384.925" y1="56.960" x2="386.485" y2="55.399"/>
<line x1="391.947" y1="46.816" x2="391.947" y2="57.740"/>
<line x1="391.947" y1="51.498" x2="392.728" y2="49.157"/>
<line x1="392.728" y1="49.157" x2="394.288" y2="47.597"/>
<line x1="394.288" y1="47.597" x2="395.849" y2="46.816"/>
<line x1="395.849" y1="46.816" x2="398.189" y2="46.816"/>
<line x1="410.674" y1="46.816" x2="410.674" y2="57.740"/>
<line x1="410.674" y1="49.157" x2="409.113" y2="47.597"/>
<line x1="409.113" y1="47.597" x2="407.553" y2="46.816"/>
<line x1="407.553" y1="46.816" x2="405.212" y2="46.816"/>
<line x1="405.212" y1="46.816" x2="403.651" y2="47.597"/>
<line x1="403.651" y1="47.597" x2="402.091" y2="49.157"/>
<line x1="402.091" y1="49.157" x2="401.311" y2="51.498"/>
<line x1="401.311" y1="51.498" x2="401.311" y2="53.059"/>
<line x1="401.311" y1="53.059" x2="402.091" y2="55.399"/>
<line x1="402.091" y1="55.399" x2="403.651" y2="56.960"/>
<line x1="403.651" y1="56.960" x2="405.212" y2="57.740"/>
<line x1="405.212" y1="57.740" x2="407.553" y2="57.740"/>
<line x1="407.553" y1="57.740" x2="409.113" y2="56.960"/>
<line x1="409.113" y1="56.960" x2="410.674" y2="55.399"/>
<line x1="416.916" y1="41.355" x2="416.916" y2="57.740"/>
<line x1="446.566" y1="41.355" x2="446.566" y2="57.740"/>
<line x1="446.566" y1="49.157" x2="445.006" y2="47.597"/>
<line x1="445.006" y1="47.597" x2="443.445" y2="46.816"/>
<line x1="443.445" y1="46.816" x2="441.104" y2="46.816"/>
<line x1="441.104" y1="46.816" x2="439.544" y2="47.597"/>
<line x1="439.544" y1="47.597" x2="437.983" y2="49.157"/>
<line x1="437.983" y1="49.157" x2="437.203" y2="51.498"/>
<line x1="437.203" y1="51.498" x2="437.203" y2="53.059"/>
<line x1="437.203" y1="53.059" x2="437.983" y2="55.399"/>
<line x1="437.983" y1="55.399" x2="439.544" y2="56.960"/>
<line x1="439.544" y1="56.960" x2="441.104" y2="57.740"/>
<line x1="441.104" y1="57.740" x2="443.445" y2="57.740"/>
<line x1="443.445" y1="57.740" x2="445.006" y2="56.960"/>
<line x1="445.006" y1="56.960" x2="446.566" y2="55.399"/>
<line x1="452.809" y1="46.816" x2="452.809" y2="57.740"/>
<line x1="452.809" y1="51.498" x2="453.589" y2="49.157"/>
<line x1="453.589" y1="49.157" x2="455.149" y2="47.597"/>
<line x1="455.149" y1="47.597" x2="456.710" y2="46.816"/>
<line x1="456.710" y1="46.816" x2="459.051" y2="46.816"/>
<line x1="471.535" y1="46.816" x2="471.535" y2="57.740"/>
<line x1="471.535" y1="49.157" x2="469.975" y2="47.597"/>
<line x1="469.975" y1="47.597" x2="468.414" y2="46.816"/>
<line x1="468.414" y1="46.816" x2="466.073" y2="46.816"/>
<line x1="466.073" y1="46.816" x2="464.513" y2="47.597"/>
<line x1="464.513" y1="47.597" x2="462.952" y2="49.157"/>
<line x1="462.952" y1="49.157" x2="462.172" y2="51.498"/>
<line x1="462.172" y1="51.498" x2="462.172" y2="53.059"/>
<line x1="462.172" y1="53.059" x2="462.952" y2="55.399"/>
<line x1="462.952" y1="55.399" x2="464.513" y2="56.960"/>
<line x1="464.513" y1="56.960" x2="466.073" y2="57.740"/>
<line x1="466.073" y1="57.740" x2="468.414" y2="57.740"/>
<line x1="468.414" y1="57.740" x2="469.975" y2="56.960"/>
<line x1="469.975" y1="56.960" x2="471.535" y2="55.399"/>
<line x1="476.997" y1="46.816" x2="480.118" y2="57.740"/>
<line x1="483.239" y1="46.816" x2="480.118" y2="57.740"/>
<line x1="483.239" y1="46.816" x2="486.360" y2="57.740"/>
<line x1="489.481" y1="46.816" x2="486.360" y2="57.740"/>
<line x1="494.163" y1="41.355" x2="494.943" y2="42.135"/>
<line x1="494.943" y1="42.135" x2="495.724" y2="41.355"/>
<line x1="495.724" y1="41.355" x2="494.943" y2="40.574"/>
<line x1="494.943" y1="40.574" x2="494.163" y2="41.355"/>
<line x1="494.943" y1="46.816" x2="494.943" y2="57.740"/>
<line x1="501.186" y1="46.816" x2="501.186" y2="57.740"/>
<line x1="501.186" y1="49.938" x2="503.526" y2="47.597"/>
<line x1="503.526" y1="47.597" x2="505.087" y2="46.816"/>
<line x1="505.087" y1="46.816" x2="507.428" y2="46.816"/>
<line x1="507.428" y1="46.816" x2="508.988" y2="47.597"/>
<line x1="508.988" y1="47.597" x2="509.769" y2="49.938"/>
<line x1="509.769" y1="49.938" x2="509.769" y2="57.740"/>
<line x1="524.594" y1="46.816" x2="524.594" y2="59.301"/>
<line x1="524.594" y1="59.301" x2="523.813" y2="61.642"/>
<line x1="523.813" y1="61.642" x2="523.033" y2="62.422"/>
<line x1="523.033" y1="62.422" x2="521.473" y2="63.202"/>
<line x1="521.473" y1="63.202" x2="519.132" y2="63.202"/>
<line x1="519.132" y1="63.202" x2="517.571" y2="62.422"/>
<line x1="524.594" y1="49.157" x2="523.033" y2="47.597"/>
<line x1="523.033" y1="47.597" x2="521.473" y2="46.816"/>
<line x1="521.473" y1="46.816" x2="519.132" y2="46.816"/>
<line x1="519.132" y1="46.816" x2="517.571" y2="47.597"/>
<line x1="517.571" y1="47.597" x2="516.011" y2="49.157"/>
<line x1="516.011" y1="49.157" x2="515.230" y2="51.498"/>
<line x1="515.230" y1="51.498" x2="515.230" y2="53.059"/>
<line x1="515.230" y1="53.059" x2="516.011" y2="55.399"/>
<line x1="516.011" y1="55.399" x2="517.571" y2="56.960"/>
<line x1="517.571" y1="56.960" x2="519.132" y2="57.740"/>
<line x1="519.132" y1="57.740" x2="521.473" y2="57.740"/>
<line x1="521.473" y1="57.740" x2="523.033" y2="56.960"/>
<line x1="523.033" y1="56.960" x2="524.594" y2="55.399"/>
<line x1="545.661" y1="41.355" x2="545.661" y2="57.740"/>
<line x1="545.661" y1="49.157" x2="547.222" y2="47.597"/>
<line x1="547.222" y1="47.597" x2="548.782" y2="46.816"/>
<line x1="548.782" y1="46.816" x2="551.123" y2="46.816"/>
<line x1="551.123" y1="46.816" x2="552.684" y2="47.597"/>
<line x1="552.684" y1="47.597" x2="554.244" y2="49.157"/>
<line x1="554.244" y1="49.157" x2="555.024" y2="51.498"/>
<line x1="555.024" y1="51.498" x2="555.024" y2="53.059"/>
<line x1="555.024" y1="53.059" x2="554.244" y2="55.399"/>
<line x1="554.244" y1="55.399" x2="552.684" y2="56.960"/>
<line x1="552.684" y1="56.960" x2="551.123" y2="57.740"/>
<line x1="551.123" y1="57.740" x2="548.782" y2="57.740"/>
<line x1="548.782" y1="57.740" x2="547.222" y2="56.960"/>
<line x1="547.222" y1="56.960" x2="545.661" y2="55.399"/>
<line x1="569.069" y1="46.816" x2="569.069" y2="57.740"/>
<line x1="569.069" y1="49.157" x2="567.509" y2="47.597"/>
<line x1="567.509" y1="47.597" x2="565.948" y2="46.816"/>
<line x1="565.948" y1="46.816" x2="563.607" y2="46.816"/>
<line x1="563.607" y1="46.816" x2="562.047" y2="47.597"/>
<line x1="562.047" y1="47.597" x2="560.486" y2="49.157"/>
<line x1="560.486" y1="49.157" x2="559.706" y2="51.498"/>
<line x1="559.706" y1="51.498" x2="559.706" y2="53.059"/>
<line x1="559.706" y1="53.059" x2="560.486" y2="55.399"/>
<line x1="560.486" y1="55.399" x2="562.047" y2="56.960"/>
<line x1="562.047" y1="56.960" x2="563.607" y2="57.740"/>
<line x1="563.607" y1="57.740" x2="565.948" y2="57.740"/>
<line x1="565.948" y1="57.740" x2="567.509" y2="56.960"/>
<line x1="567.509" y1="56.960" x2="569.069" y2="55.399"/>
<line x1="583.114" y1="49.157" x2="582.334" y2="47.597"/>
<line x1="582.334" y1="47.597" x2="579.993" y2="46.816"/>
<line x1="579.993" y1="46.816" x2="577.652" y2="46.816"/>
<line x1="577.652" y1="46.816" x2="575.312" y2="47.597"/>
<line x1="575.312" y1="47.597" x2="574.531" y2="49.157"/>
<line x1="574.531" y1="49.157" x2="575.312" y2="50.718"/>
<line x1="575.312" y1="50.718" x2="576.872" y2="51.498"/>
<line x1="576.872" y1="51.498" x2="580.773" y2="52.278"/>
<line x1="580.773" y1="52.278" x2="582.334" y2="53.059"/>
<line x1="582.334" y1="53.059" x2="583.114" y2="54.619"/>
<line x1="583.114" y1="54.619" x2="583.114" y2="55.399"/>
<line x1="583.114" y1="55.399" x2="582.334" y2="56.960"/>
<line x1="582.334" y1="56.960" x2="579.993" y2="57.740"/>
<line x1="579.993" y1="57.740" x2="577.652" y2="57.740"/>
<line x1="577.652" y1="57.740" x2="575.312" y2="56.960"/>
<line x1="575.312" y1="56.960" x2="574.531" y2="55.399"/>
<line x1="587.796" y1="41.355" x2="588.576" y2="42.135"/>
<line x1="588.576" y1="42.135" x2="589.356" y2="41.355"/>
<line x1="589.356" y1="41.355" x2="588.576" y2="40.574"/>
<line x1="588.576" y1="40.574" x2="587.796" y2="41.355"/>
<line x1="588.576" y1="46.816" x2="588.576" y2="57.740"/>
<line x1="603.401" y1="49.157" x2="601.841" y2="47.597"/>
<line x1="601.841" y1="47.597" x2="600.280" y2="46.816"/>
<line x1="600.280" y1="46.816" x2="597.939" y2="46.816"/>
<line x1="597.939" y1="46.816" x2="596.379" y2="47.597"/>
<line x1="596.379" y1="47.597" x2="594.818" y2="49.157"/>
<line x1="594.818" y1="49.157" x2="594.038" y2="51.498"/>
<line x1="594.038" y1="51.498" x2="594.038" y2="53.059"/>
<line x1="594.038" y1="53.059" x2="594.818" y2="55.399"/>
<line x1="594.818" y1="55.399" x2="596.379" y2="56.960"/>
<line x1="596.379" y1="56.960" x2="597.939" y2="57.740"/>
<line x1="597.939" y1="57.740" x2="600.280" y2="57.740"/>
<line x1="600.280" y1="57.740" x2="601.841" y2="56.960"/>
<line x1="601.841" y1="56.960" x2="603.401" y2="55.399"/>
<line x1="632.271" y1="49.157" x2="630.711" y2="47.597"/>
<line x1="630.711" y1="47.597" x2="629.150" y2="46.816"/>
<line x1="629.150" y1="46.816" x2="626.810" y2="46.816"/>
<line x1="626.810" y1="46.816" x2="625.249" y2="47.597"/>
<line x1="625.249" y1="47.597" x2="623.689" y2="49.157"/>
<line x1="623.689" y1="49.157" x2="622.908" y2="51.498"/>
<line x1="622.908" y1="51.498" x2="622.908" y2="53.059"/>
<line x1="622.908" y1="53.059" x2="623.689" y2="55.399"/>
<line x1="623.689" y1="55.399" x2="625.249" y2="56.960"/>
<line x1="625.249" y1="56.960" x2="626.810" y2="57.740"/>
<line x1="626.810" y1="57.740" x2="629.150" y2="57.740"/>
<line x1="629.150" y1="57.740" x2="630.711" y2="56.960"/>
<line x1="630.711" y1="56.960" x2="632.271" y2="55.399"/>
<line x1="640.854" y1="46.816" x2="639.294" y2="47.597"/>
<line x1="639.294" y1="47.597" x2="637.733" y2="49.157"/>
<line x1="637.733" y1="49.157" x2="636.953" y2="51.498"/>
<line x1="636.953" y1="51.498" x2="636.953" y2="53.059"/>
<line x1="636.953" y1="53.059" x2="637.733" y2="55.399"/>
<line x1="637.733" y1="55.399" x2="639.294" y2="56.960"/>
<line x1="639.294" y1="56.960" x2="640.854" y2="57.740"/>
<line x1="640.854" y1="57.740" x2="643.195" y2="57.740"/>
<line x1="643.195" y1="57.740" x2="644.756" y2="56.960"/>
<line x1="644.756" y1="56.960" x2="646.316" y2="55.399"/>
<line x1="646.316" y1="55.399" x2="647.097" y2="53.059"/>
<line x1="647.097" y1="53.059" x2="647.097" y2="51.498"/>
<line x1="647.097" y1="51.498" x2="646.316" y2="49.157"/>
<line x1="646.316" y1="49.157" x2="644.756" y2="47.597"/>
<line x1="644.756" y1="47.597" x2="643.195" y2="46.816"/>
<line x1="643.195" y1="46.816" x2="640.854" y2="46.816"/>
<line x1="652.559" y1="46.816" x2="652.559" y2="57.740"/>
<line x1="652.559" y1="49.938" x2="654.899" y2="47.597"/>
<line x1="654.899" y1="47.597" x2="656.460" y2="46.816"/>
<line x1="656.460" y1="46.816" x2="658.801" y2="46.816"/>
<line x1="658.801" y1="46.816" x2="660.361" y2="47.597"/>
<line x1="660.361" y1="47.597" x2="661.142" y2="49.938"/>
<line x1="661.142" y1="49.938" x2="661.142" y2="57.740"/>
<line x1="661.142" y1="49.938" x2="663.482" y2="47.597"/>
<line x1="663.482" y1="47.597" x2="665.043" y2="46.816"/>
<line x1="665.043" y1="46.816" x2="667.384" y2="46.816"/>
<line x1="667.384" y1="46.816" x2="668.944" y2="47.597"/>
<line x1="668.944" y1="47.597" x2="669.725" y2="49.938"/>
<line x1="669.725" y1="49.938" x2="669.725" y2="57.740"/>
<line x1="675.967" y1="46.816" x2="675.967" y2="57.740"/>
<line x1="675.967" y1="49.938" x2="678.308" y2="47.597"/>
<line x1="678.308" y1="47.597" x2="679.868" y2="46.816"/>
<line x1="679.868" y1="46.816" x2="682.209" y2="46.816"/>
<line x1="682.209" y1="46.816" x2="683.770" y2="47.597"/>
<line x1="683.770" y1="47.597" x2="684.550" y2="49.938"/>
<line x1="684.550" y1="49.938" x2="684.550" y2="57.740"/>
<line x1="684.550" y1="49.938" x2="686.891" y2="47.597"/>
<line x1="686.891" y1="47.597" x2="688.451" y2="46.816"/>
<line x1="688.451" y1="46.816" x2="690.792" y2="46.816"/>
<line x1="690.792" y1="46.816" x2="692.353" y2="47.597"/>
<line x1="692.353" y1="47.597" x2="693.133" y2="49.938"/>
<line x1="693.133" y1="49.938" x2="693.133" y2="57.740"/>
<line x1="707.958" y1="46.816" x2="707.958" y2="57.740"/>
<line x1="707.958" y1="49.157" x2="706.398" y2="47.597"/>
<line x1="706.398" y1="47.597" x2="704.837" y2="46.816"/>
<line x1="704.837" y1="46.816" x2="702.496" y2="46.816"/>
<line x1="702.496" y1="46.816" x2="700.936" y2="47.597"/>
<line x1="700.936" y1="47.597" x2="699.375" y2="49.157"/>
<line x1="699.375" y1="49.157" x2="698.595" y2="51.498"/>
<line x1="698.595" y1="51.498" x2="698.595" y2="53.059"/>
<line x1="698.595" y1="53.059" x2="699.375" y2="55.399"/>
<line x1="699.375" y1="55.399" x2="700.936" y2="56.960"/>
<line x1="700.936" y1="56.960" x2="702.496" y2="57.740"/>
<line x1="702.496" y1="57.740" x2="704.837" y2="57.740"/>
<line x1="704.837" y1="57.740" x2="706.398" y2="56.960"/>
<line x1="706.398" y1="56.960" x2="707.958" y2="55.399"/>
<line x1="714.200" y1="46.816" x2="714.200" y2="57.740"/>
<line x1="714.200" y1="49.938" x2="716.541" y2="47.597"/>
<line x1="716.541" y1="47.597" x2="718.102" y2="46.816"/>
<line x1="718.102" y1="46.816" x2="720.442" y2="46.816"/>
<line x1="720.442" y1="46.816" x2="722.003" y2="47.597"/>
<line x1="722.003" y1="47.597" x2="722.783" y2="49.938"/>
<line x1="722.783" y1="49.938" x2="722.783" y2="57.740"/>
<line x1="737.608" y1="41.355" x2="737.608" y2="57.740"/>
<line x1="737.608" y1="49.157" x2="736.048" y2="47.597"/>
<line x1="736.048" y1="47.597" x2="734.487" y2="46.816"/>
<line x1="734.487" y1="46.816" x2="732.146" y2="46.816"/>
<line x1="732.146" y1="46.816" x2="730.586" y2="47.597"/>
<line x1="730.586" y1="47.597" x2="729.025" y2="49.157"/>
<line x1="729.025" y1="49.157" x2="728.245" y2="51.498"/>
<line x1="728.245" y1="51.498" x2="728.245" y2="53.059"/>
<line x1="728.245" y1="53.059" x2="729.025" y2="55.399"/>
<line x1="729.025" y1="55.399" x2="730.586" y2="56.960"/>
<line x1="730.586" y1="56.960" x2="732.146" y2="57.740"/>
<line x1="732.146" y1="57.740" x2="734.487" y2="57.740"/>
<line x1="734.487" y1="57.740" x2="736.048" y2="56.960"/>
<line x1="736.048" y1="56.960" x2="737.608" y2="55.399"/>
<line x1="751.653" y1="49.157" x2="750.873" y2="47.597"/>
<line x1="750.873" y1="47.597" x2="748.532" y2="46.816"/>
<line x1="748.532" y1="46.816" x2="746.191" y2="46.816"/>
<line x1="746.191" y1="46.816" x2="743.851" y2="47.597"/>
<line x1="743.851" y1="47.597" x2="743.070" y2="49.157"/>
<line x1="743.070" y1="49.157" x2="743.851" y2="50.718"/>
<line x1="743.851" y1="50.718" x2="745.411" y2="51.498"/>
<line x1="745.411" y1="51.498" x2="749.313" y2="52.278"/>
<line x1="749.313" y1="52.278" x2="750.873" y2="53.059"/>
<line x1="750.873" y1="53.059" x2="751.653" y2="54.619"/>
<line x1="751.653" y1="54.619" x2="751.653" y2="55.399"/>
<line x1="751.653" y1="55.399" x2="750.873" y2="56.960"/>
<line x1="750.873" y1="56.960" x2="748.532" y2="57.740"/>
<line x1="748.532" y1="57.740" x2="746.191" y2="57.740"/>
<line x1="746.191" y1="57.740" x2="743.851" y2="56.960"/>
<line x1="743.851" y1="56.960" x2="743.070" y2="55.399"/>
<line x1="771.160" y1="51.498" x2="780.523" y2="51.498"/>
<line x1="780.523" y1="51.498" x2="780.523" y2="49.938"/>
<line x1="780.523" y1="49.938" x2="779.743" y2="48.377"/>
<line x1="779.743" y1="48.377" x2="778.963" y2="47.597"/>
<line x1="778.963" y1="47.597" x2="777.402" y2="46.816"/>
<line x1="777.402" y1="46.816" x2="775.062" y2="46.816"/>
<line x1="775.062" y1="46.816" x2="773.501" y2="47.597"/>
<line x1="773.501" y1="47.597" x2="771.940" y2="49.157"/>
<line x1="771.940" y1="49.157" x2="771.160" y2="51.498"/>
<line x1="771.160" y1="51.498" x2="771.160" y2="53.059"/>
<line x1="771.160" y1="53.059" x2="771.940" y2="55.399"/>
<line x1="771.940" y1="55.399" x2="773.501" y2="56.960"/>
<line x1="773.501" y1="56.960" x2="775.062" y2="57.740"/>
<line x1="775.062" y1="57.740" x2="777.402" y2="57.740"/>
<line x1="777.402" y1="57.740" x2="778.963" y2="56.960"/>
<line x1="778.963" y1="56.960" x2="780.523" y2="55.399"/>
<line x1="785.205" y1="46.816" x2="793.788" y2="57.740"/>
<line x1="793.788" y1="46.816" x2="785.205" y2="57.740"/>
<line x1="807.833" y1="46.816" x2="807.833" y2="57.740"/>
<line x1="807.833" y1="49.157" x2="806.272" y2="47.597"/>
<line x1="806.272" y1="47.597" x2="804.712" y2="46.816"/>
<line x1="804.712" y1="46.816" x2="802.371" y2="46.816"/>
<line x1="802.371" y1="46.816" x2="800.811" y2="47.597"/>
<line x1="800.811" y1="47.597" x2="799.250" y2="49.157"/>
<line x1="799.250" y1="49.157" x2="798.470" y2="51.498"/>
<line x1="798.470" y1="51.498" x2="798.470" y2="53.059"/>
<line x1="798.470" y1="53.059" x2="799.250" y2="55.399"/>
<line x1="799.250" y1="55.399" x2="800.811" y2="56.960"/>
<line x1="800.811" y1="56.960" x2="802.371" y2="57.740"/>
<line x1="802.371" y1="57.740" x2="804.712" y2="57.740"/>
<line x1="804.712" y1="57.740" x2="806.272" y2="56.960"/>
<line x1="806.272" y1="56.960" x2="807.833" y2="55.399"/>
<line x1="814.075" y1="46.816" x2="814.075" y2="57.740"/>
<line x1="814.075" y1="49.938" x2="816.416" y2="47.597"/>
<line x1="816.416" y1="47.597" x2="817.977" y2="46.816"/>
<line x1="817.977" y1="46.816" x2="820.317" y2="46.816"/>
<line x1="820.317" y1="46.816" x2="821.878" y2="47.597"/>
<line x1="821.878" y1="47.597" x2="822.658" y2="49.938"/>
<line x1="822.658" y1="49.938" x2="822.658" y2="57.740"/>
<line x1="822.658" y1="49.938" x2="824.999" y2="47.597"/>
<line x1="824.999" y1="47.597" x2="826.560" y2="46.816"/>
<line x1="826.560" y1="46.816" x2="828.900" y2="46.816"/>
<line x1="828.900" y1="46.816" x2="830.461" y2="47.597"/>
<line x1="830.461" y1="47.597" x2="831.241" y2="49.938"/>
<line x1="831.241" y1="49.938" x2="831.241" y2="57.740"/>
<line x1="837.483" y1="46.816" x2="837.483" y2="63.202"/>
<line x1="837.483" y1="49.157" x2="839.044" y2="47.597"/>
<line x1="839.044" y1="47.597" x2="840.605" y2="46.816"/>
<line x1="840.605" y1="46.816" x2="842.945" y2="46.816"/>
<line x1="842.945" y1="46.816" x2="844.506" y2="47.597"/>
<line x1="844.506" y1="47.597" x2="846.066" y2="49.157"/>
<line x1="846.066" y1="49.157" x2="846.847" y2="51.498"/>
<line x1="846.847" y1="51.498" x2="846.847" y2="53.059"/>
<line x1="846.847" y1="53.059" x2="846.066" y2="55.399"/>
<line x1="846.066" y1="55.399" x2="844.506" y2="56.960"/>
<line x1="844.506" y1="56.960" x2="842.945" y2="57.740"/>
<line x1="842.945" y1="57.740" x2="840.605" y2="57.740"/>
<line x1="840.605" y1="57.740" x2="839.044" y2="56.960"/>
<line x1="839.044" y1="56.960" x2="837.483" y2="55.399"/>
<line x1="852.309" y1="41.355" x2="852.309" y2="57.740"/>
<line x1="857.771" y1="51.498" x2="867.134" y2="51.498"/>
<line x1="867.134" y1="51.498" x2="867.134" y2="49.938"/>
<line x1="867.134" y1="49.938" x2="866.354" y2="48.377"/>
<line x1="866.354" y1="48.377" x2="865.573" y2="47.597"/>
<line x1="865.573" y1="47.597" x2="864.013" y2="46.816"/>
<line x1="864.013" y1="46.816" x2="861.672" y2="46.816"/>
<line x1="861.672" y1="46.816" x2="860.111" y2="47.597"/>
<line x1="860.111" y1="47.597" x2="858.551" y2="49.157"/>
<line x1="858.551" y1="49.157" x2="857.771" y2="51.498"/>
<line x1="857.771" y1="51.498" x2="857.771" y2="53.059"/>
<line x1="857.771" y1="53.059" x2="858.551" y2="55.399"/>
<line x1="858.551" y1="55.399" x2="860.111" y2="56.960"/>
<line x1="860.111" y1="56.960" x2="861.672" y2="57.740"/>
<line x1="861.672" y1="57.740" x2="864.013" y2="57.740"/>
<line x1="864.013" y1="57.740" x2="865.573" y2="56.960"/>
<line x1="865.573" y1="56.960" x2="867.134" y2="55.399"/>
<line x1="329.525" y1="64.919" x2="869.475" y2="64.919"/>
</g>
<g transform="matrix(1 0 0 1 0 0)"                     
style="stroke:rgb(2,2,2);
stroke-width:1.0">
<line x1="302.535" y1="741.746" x2="302.535" y2="755.713"/>
<line x1="302.535" y1="741.746" x2="307.856" y2="755.713"/>
<line x1="313.177" y1="741.746" x2="307.856" y2="755.713"/>
<line x1="313.177" y1="741.746" x2="313.177" y2="755.713"/>
<line x1="321.823" y1="741.746" x2="320.493" y2="742.412"/>
<line x1="320.493" y1="742.412" x2="319.163" y2="743.742"/>
<line x1="319.163" y1="743.742" x2="318.498" y2="745.072"/>
<line x1="318.498" y1="745.072" x2="317.833" y2="747.067"/>
<line x1="317.833" y1="747.067" x2="317.833" y2="750.393"/>
<line x1="317.833" y1="750.393" x2="318.498" y2="752.388"/>
<line x1="318.498" y1="752.388" x2="319.163" y2="753.718"/>
<line x1="319.163" y1="753.718" x2="320.493" y2="755.048"/>
<line x1="320.493" y1="755.048" x2="321.823" y2="755.713"/>
<line x1="321.823" y1="755.713" x2="324.484" y2="755.713"/>
<line x1="324.484" y1="755.713" x2="325.814" y2="755.048"/>
<line x1="325.814" y1="755.048" x2="327.144" y2="753.718"/>
<line x1="327.144" y1="753.718" x2="327.809" y2="752.388"/>
<line x1="327.809" y1="752.388" x2="328.474" y2="750.393"/>
<line x1="328.474" y1="750.393" x2="328.474" y2="747.067"/>
<line x1="328.474" y1="747.067" x2="327.809" y2="745.072"/>
<line x1="327.809" y1="745.072" x2="327.144" y2="743.742"/>
<line x1="327.144" y1="743.742" x2="325.814" y2="742.412"/>
<line x1="325.814" y1="742.412" x2="324.484" y2="741.746"/>
<line x1="324.484" y1="741.746" x2="321.823" y2="741.746"/>
<line x1="331.134" y1="741.746" x2="336.455" y2="755.713"/>
<line x1="341.776" y1="741.746" x2="336.455" y2="755.713"/>
<line x1="345.101" y1="741.746" x2="345.101" y2="755.713"/>
<line x1="345.101" y1="741.746" x2="353.748" y2="741.746"/>
<line x1="345.101" y1="748.397" x2="350.422" y2="748.397"/>
<line x1="345.101" y1="755.713" x2="353.748" y2="755.713"/>
<line x1="359.068" y1="755.048" x2="358.403" y2="755.713"/>
<line x1="358.403" y1="755.713" x2="357.738" y2="755.048"/>
<line x1="357.738" y1="755.048" x2="358.403" y2="754.383"/>
<line x1="358.403" y1="754.383" x2="359.068" y2="755.048"/>
<line x1="359.068" y1="755.048" x2="359.068" y2="756.379"/>
<line x1="359.068" y1="756.379" x2="358.403" y2="757.709"/>
<line x1="358.403" y1="757.709" x2="357.738" y2="758.374"/>
<line x1="377.026" y1="741.746" x2="377.026" y2="755.713"/>
<line x1="377.026" y1="741.746" x2="381.682" y2="741.746"/>
<line x1="381.682" y1="741.746" x2="383.677" y2="742.412"/>
<line x1="383.677" y1="742.412" x2="385.007" y2="743.742"/>
<line x1="385.007" y1="743.742" x2="385.672" y2="745.072"/>
<line x1="385.672" y1="745.072" x2="386.337" y2="747.067"/>
<line x1="386.337" y1="747.067" x2="386.337" y2="750.393"/>
<line x1="386.337" y1="750.393" x2="385.672" y2="752.388"/>
<line x1="385.672" y1="752.388" x2="385.007" y2="753.718"/>
<line x1="385.007" y1="753.718" x2="383.677" y2="755.048"/>
<line x1="383.677" y1="755.048" x2="381.682" y2="755.713"/>
<line x1="381.682" y1="755.713" x2="377.026" y2="755.713"/>
<line x1="390.993" y1="741.746" x2="390.993" y2="755.713"/>
<line x1="390.993" y1="741.746" x2="396.979" y2="741.746"/>
<line x1="396.979" y1="741.746" x2="398.974" y2="742.412"/>
<line x1="398.974" y1="742.412" x2="399.639" y2="743.077"/>
<line x1="399.639" y1="743.077" x2="400.304" y2="744.407"/>
<line x1="400.304" y1="744.407" x2="400.304" y2="745.737"/>
<line x1="400.304" y1="745.737" x2="399.639" y2="747.067"/>
<line x1="399.639" y1="747.067" x2="398.974" y2="747.732"/>
<line x1="398.974" y1="747.732" x2="396.979" y2="748.397"/>
<line x1="396.979" y1="748.397" x2="390.993" y2="748.397"/>
<line x1="395.649" y1="748.397" x2="400.304" y2="755.713"/>
<line x1="408.285" y1="741.746" x2="402.965" y2="755.713"/>
<line x1="408.285" y1="741.746" x2="413.606" y2="755.713"/>
<line x1="404.960" y1="751.058" x2="411.611" y2="751.058"/>
<line x1="415.601" y1="741.746" x2="418.927" y2="755.713"/>
<line x1="422.252" y1="741.746" x2="418.927" y2="755.713"/>
<line x1="422.252" y1="741.746" x2="425.578" y2="755.713"/>
<line x1="428.903" y1="741.746" x2="425.578" y2="755.713"/>
<line x1="434.224" y1="755.048" x2="433.559" y2="755.713"/>
<line x1="433.559" y1="755.713" x2="432.894" y2="755.048"/>
<line x1="432.894" y1="755.048" x2="433.559" y2="754.383"/>
<line x1="433.559" y1="754.383" x2="434.224" y2="755.048"/>
<line x1="434.224" y1="755.048" x2="434.224" y2="756.379"/>
<line x1="434.224" y1="756.379" x2="433.559" y2="757.709"/>
<line x1="433.559" y1="757.709" x2="432.894" y2="758.374"/>
<line x1="461.493" y1="745.072" x2="460.828" y2="743.742"/>
<line x1="460.828" y1="743.742" x2="459.498" y2="742.412"/>
<line x1="459.498" y1="742.412" x2="458.167" y2="741.746"/>
<line x1="458.167" y1="741.746" x2="455.507" y2="741.746"/>
<line x1="455.507" y1="741.746" x2="454.177" y2="742.412"/>
<line x1="454.177" y1="742.412" x2="452.847" y2="743.742"/>
<line x1="452.847" y1="743.742" x2="452.182" y2="745.072"/>
<line x1="452.182" y1="745.072" x2="451.517" y2="747.067"/>
<line x1="451.517" y1="747.067" x2="451.517" y2="750.393"/>
<line x1="451.517" y1="750.393" x2="452.182" y2="752.388"/>
<line x1="452.182" y1="752.388" x2="452.847" y2="753.718"/>
<line x1="452.847" y1="753.718" x2="454.177" y2="755.048"/>
<line x1="454.177" y1="755.048" x2="455.507" y2="755.713"/>
<line x1="455.507" y1="755.713" x2="458.167" y2="755.713"/>
<line x1="458.167" y1="755.713" x2="459.498" y2="755.048"/>
<line x1="459.498" y1="755.048" x2="460.828" y2="753.718"/>
<line x1="460.828" y1="753.718" x2="461.493" y2="752.388"/>
<line x1="466.149" y1="741.746" x2="466.149" y2="755.713"/>
<line x1="471.469" y1="741.746" x2="471.469" y2="755.713"/>
<line x1="471.469" y1="741.746" x2="477.455" y2="741.746"/>
<line x1="477.455" y1="741.746" x2="479.450" y2="742.412"/>
<line x1="479.450" y1="742.412" x2="480.116" y2="743.077"/>
<line x1="480.116" y1="743.077" x2="480.781" y2="744.407"/>
<line x1="480.781" y1="744.407" x2="480.781" y2="745.737"/>
<line x1="480.781" y1="745.737" x2="480.116" y2="747.067"/>
<line x1="480.116" y1="747.067" x2="479.450" y2="747.732"/>
<line x1="479.450" y1="747.732" x2="477.455" y2="748.397"/>
<line x1="477.455" y1="748.397" x2="471.469" y2="748.397"/>
<line x1="476.125" y1="748.397" x2="480.781" y2="755.713"/>
<line x1="494.748" y1="745.072" x2="494.083" y2="743.742"/>
<line x1="494.083" y1="743.742" x2="492.752" y2="742.412"/>
<line x1="492.752" y1="742.412" x2="491.422" y2="741.746"/>
<line x1="491.422" y1="741.746" x2="488.762" y2="741.746"/>
<line x1="488.762" y1="741.746" x2="487.432" y2="742.412"/>
<line x1="487.432" y1="742.412" x2="486.101" y2="743.742"/>
<line x1="486.101" y1="743.742" x2="485.436" y2="745.072"/>
<line x1="485.436" y1="745.072" x2="484.771" y2="747.067"/>
<line x1="484.771" y1="747.067" x2="484.771" y2="750.393"/>
<line x1="484.771" y1="750.393" x2="485.436" y2="752.388"/>
<line x1="485.436" y1="752.388" x2="486.101" y2="753.718"/>
<line x1="486.101" y1="753.718" x2="487.432" y2="755.048"/>
<line x1="487.432" y1="755.048" x2="488.762" y2="755.713"/>
<line x1="488.762" y1="755.713" x2="491.422" y2="755.713"/>
<line x1="491.422" y1="755.713" x2="492.752" y2="755.048"/>
<line x1="492.752" y1="755.048" x2="494.083" y2="753.718"/>
<line x1="494.083" y1="753.718" x2="494.748" y2="752.388"/>
<line x1="499.403" y1="741.746" x2="499.403" y2="755.713"/>
<line x1="499.403" y1="755.713" x2="507.384" y2="755.713"/>
<line x1="510.710" y1="741.746" x2="510.710" y2="755.713"/>
<line x1="510.710" y1="741.746" x2="519.356" y2="741.746"/>
<line x1="510.710" y1="748.397" x2="516.031" y2="748.397"/>
<line x1="510.710" y1="755.713" x2="519.356" y2="755.713"/>
<line x1="524.677" y1="755.048" x2="524.012" y2="755.713"/>
<line x1="524.012" y1="755.713" x2="523.347" y2="755.048"/>
<line x1="523.347" y1="755.048" x2="524.012" y2="754.383"/>
<line x1="524.012" y1="754.383" x2="524.677" y2="755.048"/>
<line x1="524.677" y1="755.048" x2="524.677" y2="756.379"/>
<line x1="524.677" y1="756.379" x2="524.012" y2="757.709"/>
<line x1="524.012" y1="757.709" x2="523.347" y2="758.374"/>
<line x1="545.960" y1="741.746" x2="540.639" y2="755.713"/>
<line x1="545.960" y1="741.746" x2="551.281" y2="755.713"/>
<line x1="542.634" y1="751.058" x2="549.285" y2="751.058"/>
<line x1="554.606" y1="741.746" x2="554.606" y2="755.713"/>
<line x1="554.606" y1="741.746" x2="560.592" y2="741.746"/>
<line x1="560.592" y1="741.746" x2="562.587" y2="742.412"/>
<line x1="562.587" y1="742.412" x2="563.252" y2="743.077"/>
<line x1="563.252" y1="743.077" x2="563.917" y2="744.407"/>
<line x1="563.917" y1="744.407" x2="563.917" y2="745.737"/>
<line x1="563.917" y1="745.737" x2="563.252" y2="747.067"/>
<line x1="563.252" y1="747.067" x2="562.587" y2="747.732"/>
<line x1="562.587" y1="747.732" x2="560.592" y2="748.397"/>
<line x1="560.592" y1="748.397" x2="554.606" y2="748.397"/>
<line x1="559.262" y1="748.397" x2="563.917" y2="755.713"/>
<line x1="577.884" y1="745.072" x2="577.219" y2="743.742"/>
<line x1="577.219" y1="743.742" x2="575.889" y2="742.412"/>
<line x1="575.889" y1="742.412" x2="574.559" y2="741.746"/>
<line x1="574.559" y1="741.746" x2="571.899" y2="741.746"/>
<line x1="571.899" y1="741.746" x2="570.568" y2="742.412"/>
<line x1="570.568" y1="742.412" x2="569.238" y2="743.742"/>
<line x1="569.238" y1="743.742" x2="568.573" y2="745.072"/>
<line x1="568.573" y1="745.072" x2="567.908" y2="747.067"/>
<line x1="567.908" y1="747.067" x2="567.908" y2="750.393"/>
<line x1="567.908" y1="750.393" x2="568.573" y2="752.388"/>
<line x1="568.573" y1="752.388" x2="569.238" y2="753.718"/>
<line x1="569.238" y1="753.718" x2="570.568" y2="755.048"/>
<line x1="570.568" y1="755.048" x2="571.899" y2="755.713"/>
<line x1="571.899" y1="755.713" x2="574.559" y2="755.713"/>
<line x1="574.559" y1="755.713" x2="575.889" y2="755.048"/>
<line x1="575.889" y1="755.048" x2="577.219" y2="753.718"/>
<line x1="577.219" y1="753.718" x2="577.884" y2="752.388"/>
<line x1="583.870" y1="755.048" x2="583.205" y2="755.713"/>
<line x1="583.205" y1="755.713" x2="582.540" y2="755.048"/>
<line x1="582.540" y1="755.048" x2="583.205" y2="754.383"/>
<line x1="583.205" y1="754.383" x2="583.870" y2="755.048"/>
<line x1="583.870" y1="755.048" x2="583.870" y2="756.379"/>
<line x1="583.870" y1="756.379" x2="583.205" y2="757.709"/>
<line x1="583.205" y1="757.709" x2="582.540" y2="758.374"/>
<line x1="601.828" y1="741.746" x2="601.828" y2="755.713"/>
<line x1="601.828" y1="741.746" x2="607.149" y2="755.713"/>
<line x1="612.469" y1="741.746" x2="607.149" y2="755.713"/>
<line x1="612.469" y1="741.746" x2="612.469" y2="755.713"/>
<line x1="621.116" y1="741.746" x2="615.795" y2="755.713"/>
<line x1="621.116" y1="741.746" x2="626.436" y2="755.713"/>
<line x1="617.790" y1="751.058" x2="624.441" y2="751.058"/>
<line x1="629.762" y1="741.746" x2="629.762" y2="755.713"/>
<line x1="629.762" y1="741.746" x2="635.748" y2="741.746"/>
<line x1="635.748" y1="741.746" x2="637.743" y2="742.412"/>
<line x1="637.743" y1="742.412" x2="638.408" y2="743.077"/>
<line x1="638.408" y1="743.077" x2="639.073" y2="744.407"/>
<line x1="639.073" y1="744.407" x2="639.073" y2="745.737"/>
<line x1="639.073" y1="745.737" x2="638.408" y2="747.067"/>
<line x1="638.408" y1="747.067" x2="637.743" y2="747.732"/>
<line x1="637.743" y1="747.732" x2="635.748" y2="748.397"/>
<line x1="635.748" y1="748.397" x2="629.762" y2="748.397"/>
<line x1="634.418" y1="748.397" x2="639.073" y2="755.713"/>
<line x1="643.729" y1="741.746" x2="643.729" y2="755.713"/>
<line x1="653.040" y1="741.746" x2="643.729" y2="751.058"/>
<line x1="647.054" y1="747.732" x2="653.040" y2="755.713"/>
<line x1="657.696" y1="741.746" x2="657.696" y2="755.713"/>
<line x1="657.696" y1="741.746" x2="666.342" y2="741.746"/>
<line x1="657.696" y1="748.397" x2="663.017" y2="748.397"/>
<line x1="657.696" y1="755.713" x2="666.342" y2="755.713"/>
<line x1="670.333" y1="741.746" x2="670.333" y2="755.713"/>
<line x1="670.333" y1="741.746" x2="676.318" y2="741.746"/>
<line x1="676.318" y1="741.746" x2="678.314" y2="742.412"/>
<line x1="678.314" y1="742.412" x2="678.979" y2="743.077"/>
<line x1="678.979" y1="743.077" x2="679.644" y2="744.407"/>
<line x1="679.644" y1="744.407" x2="679.644" y2="745.737"/>
<line x1="679.644" y1="745.737" x2="678.979" y2="747.067"/>
<line x1="678.979" y1="747.067" x2="678.314" y2="747.732"/>
<line x1="678.314" y1="747.732" x2="676.318" y2="748.397"/>
<line x1="676.318" y1="748.397" x2="670.333" y2="748.397"/>
<line x1="674.988" y1="748.397" x2="679.644" y2="755.713"/>
<line x1="685.630" y1="755.048" x2="684.965" y2="755.713"/>
<line x1="684.965" y1="755.713" x2="684.300" y2="755.048"/>
<line x1="684.300" y1="755.048" x2="684.965" y2="754.383"/>
<line x1="684.965" y1="754.383" x2="685.630" y2="755.048"/>
<line x1="685.630" y1="755.048" x2="685.630" y2="756.379"/>
<line x1="685.630" y1="756.379" x2="684.965" y2="757.709"/>
<line x1="684.965" y1="757.709" x2="684.300" y2="758.374"/>
<line x1="706.248" y1="741.746" x2="706.248" y2="755.713"/>
<line x1="701.592" y1="741.746" x2="710.903" y2="741.746"/>
<line x1="714.229" y1="741.746" x2="714.229" y2="755.713"/>
<line x1="714.229" y1="741.746" x2="722.875" y2="741.746"/>
<line x1="714.229" y1="748.397" x2="719.550" y2="748.397"/>
<line x1="714.229" y1="755.713" x2="722.875" y2="755.713"/>
<line x1="726.201" y1="741.746" x2="735.512" y2="755.713"/>
<line x1="735.512" y1="741.746" x2="726.201" y2="755.713"/>
<line x1="742.828" y1="741.746" x2="742.828" y2="755.713"/>
<line x1="738.172" y1="741.746" x2="747.484" y2="741.746"/>
<line x1="752.139" y1="755.048" x2="751.474" y2="755.713"/>
<line x1="751.474" y1="755.713" x2="750.809" y2="755.048"/>
<line x1="750.809" y1="755.048" x2="751.474" y2="754.383"/>
<line x1="751.474" y1="754.383" x2="752.139" y2="755.048"/>
<line x1="752.139" y1="755.048" x2="752.139" y2="756.379"/>
<line x1="752.139" y1="756.379" x2="751.474" y2="757.709"/>
<line x1="751.474" y1="757.709" x2="750.809" y2="758.374"/>
<line x1="779.408" y1="745.072" x2="778.743" y2="743.742"/>
<line x1="778.743" y1="743.742" x2="777.413" y2="742.412"/>
<line x1="777.413" y1="742.412" x2="776.083" y2="741.746"/>
<line x1="776.083" y1="741.746" x2="773.422" y2="741.746"/>
<line x1="773.422" y1="741.746" x2="772.092" y2="742.412"/>
<line x1="772.092" y1="742.412" x2="770.762" y2="743.742"/>
<line x1="770.762" y1="743.742" x2="770.097" y2="745.072"/>
<line x1="770.097" y1="745.072" x2="769.432" y2="747.067"/>
<line x1="769.432" y1="747.067" x2="769.432" y2="750.393"/>
<line x1="769.432" y1="750.393" x2="770.097" y2="752.388"/>
<line x1="770.097" y1="752.388" x2="770.762" y2="753.718"/>
<line x1="770.762" y1="753.718" x2="772.092" y2="755.048"/>
<line x1="772.092" y1="755.048" x2="773.422" y2="755.713"/>
<line x1="773.422" y1="755.713" x2="776.083" y2="755.713"/>
<line x1="776.083" y1="755.713" x2="777.413" y2="755.048"/>
<line x1="777.413" y1="755.048" x2="778.743" y2="753.718"/>
<line x1="778.743" y1="753.718" x2="779.408" y2="752.388"/>
<line x1="786.724" y1="741.746" x2="786.724" y2="755.713"/>
<line x1="782.068" y1="741.746" x2="791.380" y2="741.746"/>
<line x1="794.705" y1="741.746" x2="794.705" y2="755.713"/>
<line x1="794.705" y1="741.746" x2="803.351" y2="741.746"/>
<line x1="794.705" y1="748.397" x2="800.026" y2="748.397"/>
<line x1="794.705" y1="755.713" x2="803.351" y2="755.713"/>
<line x1="806.677" y1="741.746" x2="815.988" y2="755.713"/>
<line x1="815.988" y1="741.746" x2="806.677" y2="755.713"/>
<line x1="823.304" y1="741.746" x2="823.304" y2="755.713"/>
<line x1="818.649" y1="741.746" x2="827.960" y2="741.746"/>
<line x1="832.616" y1="755.048" x2="831.951" y2="755.713"/>
<line x1="831.951" y1="755.713" x2="831.285" y2="755.048"/>
<line x1="831.285" y1="755.048" x2="831.951" y2="754.383"/>
<line x1="831.951" y1="754.383" x2="832.616" y2="755.048"/>
<line x1="832.616" y1="755.048" x2="832.616" y2="756.379"/>
<line x1="832.616" y1="756.379" x2="831.951" y2="757.709"/>
<line x1="831.951" y1="757.709" x2="831.285" y2="758.374"/>
<line x1="850.573" y1="741.746" x2="850.573" y2="755.713"/>
<line x1="850.573" y1="741.746" x2="856.559" y2="741.746"/>
<line x1="856.559" y1="741.746" x2="858.554" y2="742.412"/>
<line x1="858.554" y1="742.412" x2="859.219" y2="743.077"/>
<line x1="859.219" y1="743.077" x2="859.884" y2="744.407"/>
<line x1="859.884" y1="744.407" x2="859.884" y2="746.402"/>
<line x1="859.884" y1="746.402" x2="859.219" y2="747.732"/>
<line x1="859.219" y1="747.732" x2="858.554" y2="748.397"/>
<line x1="858.554" y1="748.397" x2="856.559" y2="749.062"/>
<line x1="856.559" y1="749.062" x2="850.573" y2="749.062"/>
<line x1="867.865" y1="741.746" x2="862.545" y2="755.713"/>
<line x1="867.865" y1="741.746" x2="873.186" y2="755.713"/>
<line x1="864.540" y1="751.058" x2="871.191" y2="751.058"/>
<line x1="879.172" y1="741.746" x2="879.172" y2="755.713"/>
<line x1="874.516" y1="741.746" x2="883.828" y2="741.746"/>
<line x1="887.153" y1="741.746" x2="887.153" y2="755.713"/>
<line x1="896.465" y1="741.746" x2="896.465" y2="755.713"/>
<line x1="887.153" y1="748.397" x2="896.465" y2="748.397"/>
</g>
<g transform="matrix(1 0 0 1 0 0)"                     
style="stroke:rgb(2,2,255);
stroke-width:1.0">
<line x1="51.286" y1="798.201" x2="1147.714" y2="798.201"/>
<line x1="1147.714" y1="798.201" x2="1147.714" y2="0.799"/>
<line x1="1147.714" y1="0.799" x2="51.286" y2="0.799"/>
<line x1="51.286" y1="0.799" x2="51.286" y2="798.201"/>
</g>
<g transform="matrix(1 0 0 1 0 0)"                     
style="stroke:rgb(0,0,0);
stroke-width:1.0">
<line x1="0.500" y1="798.500" x2="1198.500" y2="798.500"/>
<line x1="1198.500" y1="798.500" x2="1198.500" y2="0.500"/>
<line x1="1198.500" y1="0.500" x2="0.500" y2="0.500"/>
<line x1="0.500" y1="0.500" x2="0.500" y2="798.500"/>
</g>
</svg>
