<svg 
xmlns="http://www.w3.org/2000/svg"                   
width="1200"
height="800"
viewBox="0 0 1200 800">
<g transform="matrix(1 0 0 1 0 0)"
style="stroke:rgb(2,2,2);
stroke-width:2.0">
<line x1="57.095" y1="770.619" x2="342.571" y2="770.619"/>
<line x1="342.571" y1="770.619" x2="342.571" y2="599.333"/>
<line x1="342.571" y1="599.333" x2="57.095" y2="599.333"/>
<line x1="57.095" y1="599.333" x2="57.095" y2="770.619"/>
</g>
<g transform="matrix(1 0 0 1 0 0)"
style="stroke:rgb(255,0,0);
stroke-width:1.0">
<line x1="306.908" y1="770.619" x2="342.571" y2="742.094"/>
<line x1="271.217" y1="770.619" x2="342.571" y2="713.547"/>
<line x1="235.525" y1="770.619" x2="342.571" y2="684.999"/>
<line x1="199.833" y1="770.619" x2="342.571" y2="656.451"/>
<line x1="164.142" y1="770.619" x2="342.571" y2="627.904"/>
<line x1="128.450" y1="770.619" x2="215.503" y2="700.990"/>
<line x1="239.311" y1="681.948" x2="342.571" y2="599.356"/>
<line x1="92.758" y1="770.619" x2="179.812" y2="700.990"/>
<line x1="219.855" y1="668.962" x2="306.908" y2="599.333"/>
<line x1="57.095" y1="770.596" x2="160.355" y2="688.005"/>
<line x1="184.163" y1="668.962" x2="271.217" y2="599.333"/>
<line x1="57.095" y1="742.049" x2="235.525" y2="599.333"/>
<line x1="57.095" y1="713.501" x2="199.833" y2="599.333"/>
<line x1="57.095" y1="684.953" x2="164.142" y2="599.333"/>
<line x1="57.095" y1="656.406" x2="128.450" y2="599.333"/>
<line x1="57.095" y1="627.858" x2="92.758" y2="599.333"/>
</g>
<g transform="matrix(1 0 0 1 0 0)"
style="stroke:rgb(2,2,2);
stroke-width:1.0">
<line x1="167.571" y1="676.911" x2="167.571" y2="692.309"/>
<line x1="167.571" y1="676.911" x2="174.170" y2="676.911"/>
<line x1="174.170" y1="676.911" x2="176.370" y2="677.644"/>
<line x1="176.370" y1="677.644" x2="177.103" y2="678.377"/>
<line x1="177.103" y1="678.377" x2="177.836" y2="679.844"/>
<line x1="177.836" y1="679.844" x2="177.836" y2="681.310"/>
<line x1="177.836" y1="681.310" x2="177.103" y2="682.776"/>
<line x1="177.103" y1="682.776" x2="176.370" y2="683.510"/>
<line x1="176.370" y1="683.510" x2="174.170" y2="684.243"/>
<line x1="167.571" y1="684.243" x2="174.170" y2="684.243"/>
<line x1="174.170" y1="684.243" x2="176.370" y2="684.976"/>
<line x1="176.370" y1="684.976" x2="177.103" y2="685.709"/>
<line x1="177.103" y1="685.709" x2="177.836" y2="687.176"/>
<line x1="177.836" y1="687.176" x2="177.836" y2="689.376"/>
<line x1="177.836" y1="689.376" x2="177.103" y2="690.842"/>
<line x1="177.103" y1="690.842" x2="176.370" y2="691.575"/>
<line x1="176.370" y1="691.575" x2="174.170" y2="692.309"/>
<line x1="174.170" y1="692.309" x2="167.571" y2="692.309"/>
<line x1="185.902" y1="682.043" x2="184.435" y2="682.776"/>
<line x1="184.435" y1="682.776" x2="182.969" y2="684.243"/>
<line x1="182.969" y1="684.243" x2="182.235" y2="686.443"/>
<line x1="182.235" y1="686.443" x2="182.235" y2="687.909"/>
<line x1="182.235" y1="687.909" x2="182.969" y2="690.109"/>
<line x1="182.969" y1="690.109" x2="184.435" y2="691.575"/>
<line x1="184.435" y1="691.575" x2="185.902" y2="692.309"/>
<line x1="185.902" y1="692.309" x2="188.101" y2="692.309"/>
<line x1="188.101" y1="692.309" x2="189.568" y2="691.575"/>
<line x1="189.568" y1="691.575" x2="191.034" y2="690.109"/>
<line x1="191.034" y1="690.109" x2="191.768" y2="687.909"/>
<line x1="191.768" y1="687.909" x2="191.768" y2="686.443"/>
<line x1="191.768" y1="686.443" x2="191.034" y2="684.243"/>
<line x1="191.034" y1="684.243" x2="189.568" y2="682.776"/>
<line x1="189.568" y1="682.776" x2="188.101" y2="682.043"/>
<line x1="188.101" y1="682.043" x2="185.902" y2="682.043"/>
<line x1="196.167" y1="682.043" x2="204.233" y2="692.309"/>
<line x1="204.233" y1="682.043" x2="196.167" y2="692.309"/>
<line x1="224.764" y1="679.844" x2="226.230" y2="679.110"/>
<line x1="226.230" y1="679.110" x2="228.430" y2="676.911"/>
<line x1="228.430" y1="676.911" x2="228.430" y2="692.309"/>
</g>
<g transform="matrix(1 0 0 1 0 0)"
style="stroke:rgb(2,2,2);
stroke-width:2.0">
<line x1="456.762" y1="770.619" x2="742.238" y2="770.619"/>
<line x1="742.238" y1="770.619" x2="742.238" y2="599.333"/>
<line x1="742.238" y1="599.333" x2="456.762" y2="599.333"/>
<line x1="456.762" y1="599.333" x2="456.762" y2="770.619"/>
</g>
<g transform="matrix(1 0 0 1 0 0)"
style="stroke:rgb(255,0,0);
stroke-width:1.0">
<line x1="706.575" y1="770.619" x2="742.238" y2="742.094"/>
<line x1="670.883" y1="770.619" x2="742.238" y2="713.547"/>
<line x1="635.192" y1="770.619" x2="742.238" y2="684.999"/>
<line x1="599.500" y1="770.619" x2="742.238" y2="656.451"/>
<line x1="563.808" y1="770.619" x2="742.238" y2="627.904"/>
<line x1="528.117" y1="770.619" x2="615.170" y2="700.990"/>
<line x1="638.978" y1="681.948" x2="742.238" y2="599.356"/>
<line x1="492.425" y1="770.619" x2="579.478" y2="700.990"/>
<line x1="619.522" y1="668.962" x2="706.575" y2="599.333"/>
<line x1="456.762" y1="770.596" x2="560.022" y2="688.005"/>
<line x1="583.830" y1="668.962" x2="670.883" y2="599.333"/>
<line x1="456.762" y1="742.049" x2="635.192" y2="599.333"/>
<line x1="456.762" y1="713.501" x2="599.500" y2="599.333"/>
<line x1="456.762" y1="684.953" x2="563.808" y2="599.333"/>
<line x1="456.762" y1="656.406" x2="528.117" y2="599.333"/>
<line x1="456.762" y1="627.858" x2="492.425" y2="599.333"/>
</g>
<g transform="matrix(1 0 0 1 0 0)"
style="stroke:rgb(2,2,2);
stroke-width:1.0">
<line x1="567.237" y1="676.911" x2="567.237" y2="692.309"/>
<line x1="567.237" y1="676.911" x2="573.836" y2="676.911"/>
<line x1="573.836" y1="676.911" x2="576.036" y2="677.644"/>
<line x1="576.036" y1="677.644" x2="576.769" y2="678.377"/>
<line x1="576.769" y1="678.377" x2="577.503" y2="679.844"/>
<line x1="577.503" y1="679.844" x2="577.503" y2="681.310"/>
<line x1="577.503" y1="681.310" x2="576.769" y2="682.776"/>
<line x1="576.769" y1="682.776" x2="576.036" y2="683.510"/>
<line x1="576.036" y1="683.510" x2="573.836" y2="684.243"/>
<line x1="567.237" y1="684.243" x2="573.836" y2="684.243"/>
<line x1="573.836" y1="684.243" x2="576.036" y2="684.976"/>
<line x1="576.036" y1="684.976" x2="576.769" y2="685.709"/>
<line x1="576.769" y1="685.709" x2="577.503" y2="687.176"/>
<line x1="577.503" y1="687.176" x2="577.503" y2="689.376"/>
<line x1="577.503" y1="689.376" x2="576.769" y2="690.842"/>
<line x1="576.769" y1="690.842" x2="576.036" y2="691.575"/>
<line x1="576.036" y1="691.575" x2="573.836" y2="692.309"/>
<line x1="573.836" y1="692.309" x2="567.237" y2="692.309"/>
<line x1="585.568" y1="682.043" x2="584.102" y2="682.776"/>
<line x1="584.102" y1="682.776" x2="582.635" y2="684.243"/>
<line x1="582.635" y1="684.243" x2="581.902" y2="686.443"/>
<line x1="581.902" y1="686.443" x2="581.902" y2="687.909"/>
<line x1="581.902" y1="687.909" x2="582.635" y2="690.109"/>
<line x1="582.635" y1="690.109" x2="584.102" y2="691.575"/>
<line x1="584.102" y1="691.575" x2="585.568" y2="692.309"/>
<line x1="585.568" y1="692.309" x2="587.768" y2="692.309"/>
<line x1="587.768" y1="692.309" x2="589.235" y2="691.575"/>
<line x1="589.235" y1="691.575" x2="590.701" y2="690.109"/>
<line x1="590.701" y1="690.109" x2="591.434" y2="687.909"/>
<line x1="591.434" y1="687.909" x2="591.434" y2="686.443"/>
<line x1="591.434" y1="686.443" x2="590.701" y2="684.243"/>
<line x1="590.701" y1="684.243" x2="589.235" y2="682.776"/>
<line x1="589.235" y1="682.776" x2="587.768" y2="682.043"/>
<line x1="587.768" y1="682.043" x2="585.568" y2="682.043"/>
<line x1="595.834" y1="682.043" x2="603.900" y2="692.309"/>
<line x1="603.900" y1="682.043" x2="595.834" y2="692.309"/>
<line x1="622.964" y1="680.577" x2="622.964" y2="679.844"/>
<line x1="622.964" y1="679.844" x2="623.697" y2="678.377"/>
<line x1="623.697" y1="678.377" x2="624.430" y2="677.644"/>
<line x1="624.430" y1="677.644" x2="625.897" y2="676.911"/>
<line x1="625.897" y1="676.911" x2="628.830" y2="676.911"/>
<line x1="628.830" y1="676.911" x2="630.296" y2="677.644"/>
<line x1="630.296" y1="677.644" x2="631.029" y2="678.377"/>
<line x1="631.029" y1="678.377" x2="631.763" y2="679.844"/>
<line x1="631.763" y1="679.844" x2="631.763" y2="681.310"/>
<line x1="631.763" y1="681.310" x2="631.029" y2="682.776"/>
<line x1="631.029" y1="682.776" x2="629.563" y2="684.976"/>
<line x1="629.563" y1="684.976" x2="622.231" y2="692.309"/>
<line x1="622.231" y1="692.309" x2="632.496" y2="692.309"/>
</g>
<g transform="matrix(1 0 0 1 0 0)"
style="stroke:rgb(2,2,2);
stroke-width:2.0">
<line x1="856.429" y1="770.619" x2="1141.905" y2="770.619"/>
<line x1="1141.905" y1="770.619" x2="1141.905" y2="599.333"/>
<line x1="1141.905" y1="599.333" x2="856.429" y2="599.333"/>
<line x1="856.429" y1="599.333" x2="856.429" y2="770.619"/>
</g>
<g transform="matrix(1 0 0 1 0 0)"
style="stroke:rgb(255,0,0);
stroke-width:1.0">
<line x1="1106.242" y1="770.619" x2="1141.905" y2="742.094"/>
<line x1="1070.550" y1="770.619" x2="1141.905" y2="713.547"/>
<line x1="1034.858" y1="770.619" x2="1141.905" y2="684.999"/>
<line x1="999.167" y1="770.619" x2="1141.905" y2="656.451"/>
<line x1="963.475" y1="770.619" x2="1030.507" y2="717.004"/>
<line x1="1045.977" y1="704.631" x2="1141.905" y2="627.904"/>
<line x1="927.783" y1="770.619" x2="994.815" y2="717.004"/>
<line x1="1045.977" y1="676.083" x2="1141.905" y2="599.356"/>
<line x1="892.092" y1="770.619" x2="959.124" y2="717.004"/>
<line x1="1039.210" y1="652.948" x2="1106.242" y2="599.333"/>
<line x1="856.429" y1="770.596" x2="952.356" y2="693.869"/>
<line x1="1003.518" y1="652.948" x2="1070.550" y2="599.333"/>
<line x1="856.429" y1="742.049" x2="952.356" y2="665.322"/>
<line x1="967.827" y1="652.948" x2="1034.858" y2="599.333"/>
<line x1="856.429" y1="713.501" x2="999.167" y2="599.333"/>
<line x1="856.429" y1="684.953" x2="963.475" y2="599.333"/>
<line x1="856.429" y1="656.406" x2="927.783" y2="599.333"/>
<line x1="856.429" y1="627.858" x2="892.092" y2="599.333"/>
</g>
<g transform="matrix(1 0 0 1 0 0)"
style="stroke:rgb(2,2,2);
stroke-width:1.0">
<line x1="969.837" y1="668.845" x2="969.104" y2="667.378"/>
<line x1="969.104" y1="667.378" x2="967.637" y2="665.912"/>
<line x1="967.637" y1="665.912" x2="966.171" y2="665.179"/>
<line x1="966.171" y1="665.179" x2="963.238" y2="665.179"/>
<line x1="963.238" y1="665.179" x2="961.771" y2="665.912"/>
<line x1="961.771" y1="665.912" x2="960.305" y2="667.378"/>
<line x1="960.305" y1="667.378" x2="959.572" y2="668.845"/>
<line x1="959.572" y1="668.845" x2="958.838" y2="671.045"/>
<line x1="958.838" y1="671.045" x2="958.838" y2="674.711"/>
<line x1="958.838" y1="674.711" x2="959.572" y2="676.911"/>
<line x1="959.572" y1="676.911" x2="960.305" y2="678.377"/>
<line x1="960.305" y1="678.377" x2="961.771" y2="679.844"/>
<line x1="961.771" y1="679.844" x2="963.238" y2="680.577"/>
<line x1="963.238" y1="680.577" x2="966.171" y2="680.577"/>
<line x1="966.171" y1="680.577" x2="967.637" y2="679.844"/>
<line x1="967.637" y1="679.844" x2="969.104" y2="678.377"/>
<line x1="969.104" y1="678.377" x2="969.837" y2="676.911"/>
<line x1="974.970" y1="670.311" x2="974.970" y2="677.644"/>
<line x1="974.970" y1="677.644" x2="975.703" y2="679.844"/>
<line x1="975.703" y1="679.844" x2="977.169" y2="680.577"/>
<line x1="977.169" y1="680.577" x2="979.369" y2="680.577"/>
<line x1="979.369" y1="680.577" x2="980.836" y2="679.844"/>
<line x1="980.836" y1="679.844" x2="983.035" y2="677.644"/>
<line x1="983.035" y1="670.311" x2="983.035" y2="680.577"/>
<line x1="988.901" y1="670.311" x2="988.901" y2="680.577"/>
<line x1="988.901" y1="674.711" x2="989.635" y2="672.511"/>
<line x1="989.635" y1="672.511" x2="991.101" y2="671.045"/>
<line x1="991.101" y1="671.045" x2="992.567" y2="670.311"/>
<line x1="992.567" y1="670.311" x2="994.767" y2="670.311"/>
<line x1="997.700" y1="665.179" x2="998.433" y2="665.912"/>
<line x1="998.433" y1="665.912" x2="999.167" y2="665.179"/>
<line x1="999.167" y1="665.179" x2="998.433" y2="664.445"/>
<line x1="998.433" y1="664.445" x2="997.700" y2="665.179"/>
<line x1="998.433" y1="670.311" x2="998.433" y2="680.577"/>
<line x1="1007.232" y1="670.311" x2="1005.766" y2="671.045"/>
<line x1="1005.766" y1="671.045" x2="1004.299" y2="672.511"/>
<line x1="1004.299" y1="672.511" x2="1003.566" y2="674.711"/>
<line x1="1003.566" y1="674.711" x2="1003.566" y2="676.177"/>
<line x1="1003.566" y1="676.177" x2="1004.299" y2="678.377"/>
<line x1="1004.299" y1="678.377" x2="1005.766" y2="679.844"/>
<line x1="1005.766" y1="679.844" x2="1007.232" y2="680.577"/>
<line x1="1007.232" y1="680.577" x2="1009.432" y2="680.577"/>
<line x1="1009.432" y1="680.577" x2="1010.899" y2="679.844"/>
<line x1="1010.899" y1="679.844" x2="1012.365" y2="678.377"/>
<line x1="1012.365" y1="678.377" x2="1013.098" y2="676.177"/>
<line x1="1013.098" y1="676.177" x2="1013.098" y2="674.711"/>
<line x1="1013.098" y1="674.711" x2="1012.365" y2="672.511"/>
<line x1="1012.365" y1="672.511" x2="1010.899" y2="671.045"/>
<line x1="1010.899" y1="671.045" x2="1009.432" y2="670.311"/>
<line x1="1009.432" y1="670.311" x2="1007.232" y2="670.311"/>
<line x1="1018.231" y1="670.311" x2="1018.231" y2="677.644"/>
<line x1="1018.231" y1="677.644" x2="1018.964" y2="679.844"/>
<line x1="1018.964" y1="679.844" x2="1020.431" y2="680.577"/>
<line x1="1020.431" y1="680.577" x2="1022.630" y2="680.577"/>
<line x1="1022.630" y1="680.577" x2="1024.097" y2="679.844"/>
<line x1="1024.097" y1="679.844" x2="1026.297" y2="677.644"/>
<line x1="1026.297" y1="670.311" x2="1026.297" y2="680.577"/>
<line x1="1039.495" y1="672.511" x2="1038.762" y2="671.045"/>
<line x1="1038.762" y1="671.045" x2="1036.562" y2="670.311"/>
<line x1="1036.562" y1="670.311" x2="1034.362" y2="670.311"/>
<line x1="1034.362" y1="670.311" x2="1032.163" y2="671.045"/>
<line x1="1032.163" y1="671.045" x2="1031.429" y2="672.511"/>
<line x1="1031.429" y1="672.511" x2="1032.163" y2="673.978"/>
<line x1="1032.163" y1="673.978" x2="1033.629" y2="674.711"/>
<line x1="1033.629" y1="674.711" x2="1037.295" y2="675.444"/>
<line x1="1037.295" y1="675.444" x2="1038.762" y2="676.177"/>
<line x1="1038.762" y1="676.177" x2="1039.495" y2="677.644"/>
<line x1="1039.495" y1="677.644" x2="1039.495" y2="678.377"/>
<line x1="1039.495" y1="678.377" x2="1038.762" y2="679.844"/>
<line x1="1038.762" y1="679.844" x2="1036.562" y2="680.577"/>
<line x1="1036.562" y1="680.577" x2="1034.362" y2="680.577"/>
<line x1="1034.362" y1="680.577" x2="1032.163" y2="679.844"/>
<line x1="1032.163" y1="679.844" x2="1031.429" y2="678.377"/>
</g>
<g transform="matrix(1 0 0 1 0 0)"
style="stroke:rgb(2,2,2);
stroke-width:1.0">
<line x1="966.904" y1="688.642" x2="966.904" y2="704.041"/>
<line x1="966.904" y1="688.642" x2="973.503" y2="688.642"/>
<line x1="973.503" y1="688.642" x2="975.703" y2="689.376"/>
<line x1="975.703" y1="689.376" x2="976.436" y2="690.109"/>
<line x1="976.436" y1="690.109" x2="977.169" y2="691.575"/>
<line x1="977.169" y1="691.575" x2="977.169" y2="693.042"/>
<line x1="977.169" y1="693.042" x2="976.436" y2="694.508"/>
<line x1="976.436" y1="694.508" x2="975.703" y2="695.242"/>
<line x1="975.703" y1="695.242" x2="973.503" y2="695.975"/>
<line x1="966.904" y1="695.975" x2="973.503" y2="695.975"/>
<line x1="973.503" y1="695.975" x2="975.703" y2="696.708"/>
<line x1="975.703" y1="696.708" x2="976.436" y2="697.441"/>
<line x1="976.436" y1="697.441" x2="977.169" y2="698.908"/>
<line x1="977.169" y1="698.908" x2="977.169" y2="701.108"/>
<line x1="977.169" y1="701.108" x2="976.436" y2="702.574"/>
<line x1="976.436" y1="702.574" x2="975.703" y2="703.307"/>
<line x1="975.703" y1="703.307" x2="973.503" y2="704.041"/>
<line x1="973.503" y1="704.041" x2="966.904" y2="704.041"/>
<line x1="985.235" y1="693.775" x2="983.769" y2="694.508"/>
<line x1="983.769" y1="694.508" x2="982.302" y2="695.975"/>
<line x1="982.302" y1="695.975" x2="981.569" y2="698.175"/>
<line x1="981.569" y1="698.175" x2="981.569" y2="699.641"/>
<line x1="981.569" y1="699.641" x2="982.302" y2="701.841"/>
<line x1="982.302" y1="701.841" x2="983.769" y2="703.307"/>
<line x1="983.769" y1="703.307" x2="985.235" y2="704.041"/>
<line x1="985.235" y1="704.041" x2="987.435" y2="704.041"/>
<line x1="987.435" y1="704.041" x2="988.901" y2="703.307"/>
<line x1="988.901" y1="703.307" x2="990.368" y2="701.841"/>
<line x1="990.368" y1="701.841" x2="991.101" y2="699.641"/>
<line x1="991.101" y1="699.641" x2="991.101" y2="698.175"/>
<line x1="991.101" y1="698.175" x2="990.368" y2="695.975"/>
<line x1="990.368" y1="695.975" x2="988.901" y2="694.508"/>
<line x1="988.901" y1="694.508" x2="987.435" y2="693.775"/>
<line x1="987.435" y1="693.775" x2="985.235" y2="693.775"/>
<line x1="995.500" y1="693.775" x2="1003.566" y2="704.041"/>
<line x1="1003.566" y1="693.775" x2="995.500" y2="704.041"/>
<line x1="1023.364" y1="688.642" x2="1031.429" y2="688.642"/>
<line x1="1031.429" y1="688.642" x2="1027.030" y2="694.508"/>
<line x1="1027.030" y1="694.508" x2="1029.230" y2="694.508"/>
<line x1="1029.230" y1="694.508" x2="1030.696" y2="695.242"/>
<line x1="1030.696" y1="695.242" x2="1031.429" y2="695.975"/>
<line x1="1031.429" y1="695.975" x2="1032.163" y2="698.175"/>
<line x1="1032.163" y1="698.175" x2="1032.163" y2="699.641"/>
<line x1="1032.163" y1="699.641" x2="1031.429" y2="701.841"/>
<line x1="1031.429" y1="701.841" x2="1029.963" y2="703.307"/>
<line x1="1029.963" y1="703.307" x2="1027.763" y2="704.041"/>
<line x1="1027.763" y1="704.041" x2="1025.563" y2="704.041"/>
<line x1="1025.563" y1="704.041" x2="1023.364" y2="703.307"/>
<line x1="1023.364" y1="703.307" x2="1022.630" y2="702.574"/>
<line x1="1022.630" y1="702.574" x2="1021.897" y2="701.108"/>
</g>
<g transform="matrix(1 0 0 1 0 0)"
style="stroke:rgb(2,2,2);
stroke-width:2.0">
<line x1="856.429" y1="485.143" x2="1141.905" y2="485.143"/>
<line x1="1141.905" y1="485.143" x2="1141.905" y2="313.857"/>
<line x1="1141.905" y1="313.857" x2="856.429" y2="313.857"/>
<line x1="856.429" y1="313.857" x2="856.429" y2="485.143"/>
</g>
<g transform="matrix(1 0 0 1 0 0)"
style="stroke:rgb(255,0,0);
stroke-width:1.0">
<line x1="1106.242" y1="485.143" x2="1141.905" y2="456.618"/>
<line x1="1070.550" y1="485.143" x2="1141.905" y2="428.070"/>
<line x1="1034.858" y1="485.143" x2="1141.905" y2="399.523"/>
<line x1="999.167" y1="485.143" x2="1141.905" y2="370.975"/>
<line x1="963.475" y1="485.143" x2="1141.905" y2="342.428"/>
<line x1="927.783" y1="485.143" x2="1014.837" y2="415.514"/>
<line x1="1038.645" y1="396.472" x2="1141.905" y2="313.880"/>
<line x1="892.092" y1="485.143" x2="979.145" y2="415.514"/>
<line x1="1019.188" y1="383.486" x2="1106.242" y2="313.857"/>
<line x1="856.429" y1="485.120" x2="959.689" y2="402.528"/>
<line x1="983.497" y1="383.486" x2="1070.550" y2="313.857"/>
<line x1="856.429" y1="456.572" x2="1034.858" y2="313.857"/>
<line x1="856.429" y1="428.025" x2="999.167" y2="313.857"/>
<line x1="856.429" y1="399.477" x2="963.475" y2="313.857"/>
<line x1="856.429" y1="370.930" x2="927.783" y2="313.857"/>
<line x1="856.429" y1="342.382" x2="892.092" y2="313.857"/>
</g>
<g transform="matrix(1 0 0 1 0 0)"
style="stroke:rgb(2,2,2);
stroke-width:1.0">
<line x1="966.904" y1="391.434" x2="966.904" y2="406.832"/>
<line x1="966.904" y1="391.434" x2="973.503" y2="391.434"/>
<line x1="973.503" y1="391.434" x2="975.703" y2="392.168"/>
<line x1="975.703" y1="392.168" x2="976.436" y2="392.901"/>
<line x1="976.436" y1="392.901" x2="977.169" y2="394.367"/>
<line x1="977.169" y1="394.367" x2="977.169" y2="395.834"/>
<line x1="977.169" y1="395.834" x2="976.436" y2="397.300"/>
<line x1="976.436" y1="397.300" x2="975.703" y2="398.034"/>
<line x1="975.703" y1="398.034" x2="973.503" y2="398.767"/>
<line x1="966.904" y1="398.767" x2="973.503" y2="398.767"/>
<line x1="973.503" y1="398.767" x2="975.703" y2="399.500"/>
<line x1="975.703" y1="399.500" x2="976.436" y2="400.233"/>
<line x1="976.436" y1="400.233" x2="977.169" y2="401.700"/>
<line x1="977.169" y1="401.700" x2="977.169" y2="403.900"/>
<line x1="977.169" y1="403.900" x2="976.436" y2="405.366"/>
<line x1="976.436" y1="405.366" x2="975.703" y2="406.099"/>
<line x1="975.703" y1="406.099" x2="973.503" y2="406.832"/>
<line x1="973.503" y1="406.832" x2="966.904" y2="406.832"/>
<line x1="985.235" y1="396.567" x2="983.769" y2="397.300"/>
<line x1="983.769" y1="397.300" x2="982.302" y2="398.767"/>
<line x1="982.302" y1="398.767" x2="981.569" y2="400.967"/>
<line x1="981.569" y1="400.967" x2="981.569" y2="402.433"/>
<line x1="981.569" y1="402.433" x2="982.302" y2="404.633"/>
<line x1="982.302" y1="404.633" x2="983.769" y2="406.099"/>
<line x1="983.769" y1="406.099" x2="985.235" y2="406.832"/>
<line x1="985.235" y1="406.832" x2="987.435" y2="406.832"/>
<line x1="987.435" y1="406.832" x2="988.901" y2="406.099"/>
<line x1="988.901" y1="406.099" x2="990.368" y2="404.633"/>
<line x1="990.368" y1="404.633" x2="991.101" y2="402.433"/>
<line x1="991.101" y1="402.433" x2="991.101" y2="400.967"/>
<line x1="991.101" y1="400.967" x2="990.368" y2="398.767"/>
<line x1="990.368" y1="398.767" x2="988.901" y2="397.300"/>
<line x1="988.901" y1="397.300" x2="987.435" y2="396.567"/>
<line x1="987.435" y1="396.567" x2="985.235" y2="396.567"/>
<line x1="995.500" y1="396.567" x2="1003.566" y2="406.832"/>
<line x1="1003.566" y1="396.567" x2="995.500" y2="406.832"/>
<line x1="1029.230" y1="391.434" x2="1021.897" y2="401.700"/>
<line x1="1021.897" y1="401.700" x2="1032.896" y2="401.700"/>
<line x1="1029.230" y1="391.434" x2="1029.230" y2="406.832"/>
</g>
<g transform="matrix(1 0 0 1 0 0)"
style="stroke:rgb(2,2,2);
stroke-width:2.0">
<line x1="456.762" y1="256.762" x2="742.238" y2="256.762"/>
<line x1="742.238" y1="256.762" x2="742.238" y2="85.476"/>
<line x1="742.238" y1="85.476" x2="456.762" y2="85.476"/>
<line x1="456.762" y1="85.476" x2="456.762" y2="256.762"/>
</g>
<g transform="matrix(1 0 0 1 0 0)"
style="stroke:rgb(2,2,2);
stroke-width:2.0">
<line x1="540.591" y1="203.147" x2="658.409" y2="203.147"/>
<line x1="658.409" y1="203.147" x2="658.409" y2="139.091"/>
<line x1="658.409" y1="139.091" x2="540.591" y2="139.091"/>
<line x1="540.591" y1="139.091" x2="540.591" y2="203.147"/>
</g>
<g transform="matrix(1 0 0 1 0 0)"
style="stroke:rgb(255,0,0);
stroke-width:1.0">
<line x1="456.762" y1="106.866" x2="471.017" y2="85.476"/>
<line x1="456.762" y1="128.283" x2="485.291" y2="85.476"/>
<line x1="456.762" y1="149.701" x2="499.564" y2="85.476"/>
<line x1="456.762" y1="171.119" x2="513.838" y2="85.476"/>
<line x1="456.762" y1="192.537" x2="528.112" y2="85.476"/>
<line x1="456.762" y1="213.955" x2="542.386" y2="85.476"/>
<line x1="456.762" y1="235.373" x2="556.660" y2="85.476"/>
<line x1="456.781" y1="256.762" x2="570.933" y2="85.476"/>
<line x1="471.055" y1="256.762" x2="540.591" y2="152.422"/>
<line x1="549.476" y1="139.091" x2="585.207" y2="85.476"/>
<line x1="485.329" y1="256.762" x2="540.591" y2="173.840"/>
<line x1="563.750" y1="139.091" x2="599.481" y2="85.476"/>
<line x1="499.602" y1="256.762" x2="540.591" y2="195.258"/>
<line x1="578.023" y1="139.091" x2="613.755" y2="85.476"/>
<line x1="513.876" y1="256.762" x2="549.607" y2="203.147"/>
<line x1="592.297" y1="139.091" x2="628.029" y2="85.476"/>
<line x1="528.150" y1="256.762" x2="563.881" y2="203.147"/>
<line x1="606.571" y1="139.091" x2="642.302" y2="85.476"/>
<line x1="542.424" y1="256.762" x2="578.155" y2="203.147"/>
<line x1="620.845" y1="139.091" x2="656.576" y2="85.476"/>
<line x1="556.698" y1="256.762" x2="592.429" y2="203.147"/>
<line x1="635.119" y1="139.091" x2="670.850" y2="85.476"/>
<line x1="570.971" y1="256.762" x2="606.703" y2="203.147"/>
<line x1="649.393" y1="139.091" x2="685.124" y2="85.476"/>
<line x1="585.245" y1="256.762" x2="620.977" y2="203.147"/>
<line x1="658.409" y1="146.980" x2="699.398" y2="85.476"/>
<line x1="599.519" y1="256.762" x2="635.250" y2="203.147"/>
<line x1="658.409" y1="168.398" x2="713.671" y2="85.476"/>
<line x1="613.793" y1="256.762" x2="649.524" y2="203.147"/>
<line x1="658.409" y1="189.816" x2="727.945" y2="85.476"/>
<line x1="628.067" y1="256.762" x2="742.219" y2="85.476"/>
<line x1="642.340" y1="256.762" x2="742.238" y2="106.866"/>
<line x1="656.614" y1="256.762" x2="742.238" y2="128.283"/>
<line x1="670.888" y1="256.762" x2="742.238" y2="149.701"/>
<line x1="685.162" y1="256.762" x2="742.238" y2="171.119"/>
<line x1="699.436" y1="256.762" x2="742.238" y2="192.537"/>
<line x1="713.709" y1="256.762" x2="742.238" y2="213.955"/>
<line x1="727.983" y1="256.762" x2="742.238" y2="235.373"/>
</g>
<g transform="matrix(1 0 0 1 0 0)"
style="stroke:rgb(2,2,2);
stroke-width:1.0">
<line x1="567.237" y1="151.322" x2="567.237" y2="166.720"/>
<line x1="567.237" y1="151.322" x2="573.836" y2="151.322"/>
<line x1="573.836" y1="151.322" x2="576.036" y2="152.055"/>
<line x1="576.036" y1="152.055" x2="576.769" y2="152.788"/>
<line x1="576.769" y1="152.788" x2="577.503" y2="154.255"/>
<line x1="577.503" y1="154.255" x2="577.503" y2="155.721"/>
<line x1="577.503" y1="155.721" x2="576.769" y2="157.188"/>
<line x1="576.769" y1="157.188" x2="576.036" y2="157.921"/>
<line x1="576.036" y1="157.921" x2="573.836" y2="158.654"/>
<line x1="567.237" y1="158.654" x2="573.836" y2="158.654"/>
<line x1="573.836" y1="158.654" x2="576.036" y2="159.387"/>
<line x1="576.036" y1="159.387" x2="576.769" y2="160.120"/>
<line x1="576.769" y1="160.120" x2="577.503" y2="161.587"/>
<line x1="577.503" y1="161.587" x2="577.503" y2="163.787"/>
<line x1="577.503" y1="163.787" x2="576.769" y2="165.253"/>
<line x1="576.769" y1="165.253" x2="576.036" y2="165.986"/>
<line x1="576.036" y1="165.986" x2="573.836" y2="166.720"/>
<line x1="573.836" y1="166.720" x2="567.237" y2="166.720"/>
<line x1="585.568" y1="156.454" x2="584.102" y2="157.188"/>
<line x1="584.102" y1="157.188" x2="582.635" y2="158.654"/>
<line x1="582.635" y1="158.654" x2="581.902" y2="160.854"/>
<line x1="581.902" y1="160.854" x2="581.902" y2="162.320"/>
<line x1="581.902" y1="162.320" x2="582.635" y2="164.520"/>
<line x1="582.635" y1="164.520" x2="584.102" y2="165.986"/>
<line x1="584.102" y1="165.986" x2="585.568" y2="166.720"/>
<line x1="585.568" y1="166.720" x2="587.768" y2="166.720"/>
<line x1="587.768" y1="166.720" x2="589.235" y2="165.986"/>
<line x1="589.235" y1="165.986" x2="590.701" y2="164.520"/>
<line x1="590.701" y1="164.520" x2="591.434" y2="162.320"/>
<line x1="591.434" y1="162.320" x2="591.434" y2="160.854"/>
<line x1="591.434" y1="160.854" x2="590.701" y2="158.654"/>
<line x1="590.701" y1="158.654" x2="589.235" y2="157.188"/>
<line x1="589.235" y1="157.188" x2="587.768" y2="156.454"/>
<line x1="587.768" y1="156.454" x2="585.568" y2="156.454"/>
<line x1="595.834" y1="156.454" x2="603.900" y2="166.720"/>
<line x1="603.900" y1="156.454" x2="595.834" y2="166.720"/>
<line x1="631.029" y1="151.322" x2="623.697" y2="151.322"/>
<line x1="623.697" y1="151.322" x2="622.964" y2="157.921"/>
<line x1="622.964" y1="157.921" x2="623.697" y2="157.188"/>
<line x1="623.697" y1="157.188" x2="625.897" y2="156.454"/>
<line x1="625.897" y1="156.454" x2="628.097" y2="156.454"/>
<line x1="628.097" y1="156.454" x2="630.296" y2="157.188"/>
<line x1="630.296" y1="157.188" x2="631.763" y2="158.654"/>
<line x1="631.763" y1="158.654" x2="632.496" y2="160.854"/>
<line x1="632.496" y1="160.854" x2="632.496" y2="162.320"/>
<line x1="632.496" y1="162.320" x2="631.763" y2="164.520"/>
<line x1="631.763" y1="164.520" x2="630.296" y2="165.986"/>
<line x1="630.296" y1="165.986" x2="628.097" y2="166.720"/>
<line x1="628.097" y1="166.720" x2="625.897" y2="166.720"/>
<line x1="625.897" y1="166.720" x2="623.697" y2="165.986"/>
<line x1="623.697" y1="165.986" x2="622.964" y2="165.253"/>
<line x1="622.964" y1="165.253" x2="622.231" y2="163.787"/>
</g>
<g transform="matrix(1 0 0 1 0 0)"
style="stroke:rgb(2,2,2);
stroke-width:1.0">
<line x1="551.473" y1="174.785" x2="545.607" y2="190.183"/>
<line x1="551.473" y1="174.785" x2="557.339" y2="190.183"/>
<line x1="547.806" y1="185.051" x2="555.139" y2="185.051"/>
<line x1="561.005" y1="179.918" x2="561.005" y2="190.183"/>
<line x1="561.005" y1="182.851" x2="563.204" y2="180.651"/>
<line x1="563.204" y1="180.651" x2="564.671" y2="179.918"/>
<line x1="564.671" y1="179.918" x2="566.871" y2="179.918"/>
<line x1="566.871" y1="179.918" x2="568.337" y2="180.651"/>
<line x1="568.337" y1="180.651" x2="569.070" y2="182.851"/>
<line x1="569.070" y1="182.851" x2="569.070" y2="190.183"/>
<line x1="591.801" y1="179.918" x2="590.334" y2="180.651"/>
<line x1="590.334" y1="180.651" x2="588.868" y2="182.118"/>
<line x1="588.868" y1="182.118" x2="588.135" y2="184.318"/>
<line x1="588.135" y1="184.318" x2="588.135" y2="185.784"/>
<line x1="588.135" y1="185.784" x2="588.868" y2="187.984"/>
<line x1="588.868" y1="187.984" x2="590.334" y2="189.450"/>
<line x1="590.334" y1="189.450" x2="591.801" y2="190.183"/>
<line x1="591.801" y1="190.183" x2="594.001" y2="190.183"/>
<line x1="594.001" y1="190.183" x2="595.467" y2="189.450"/>
<line x1="595.467" y1="189.450" x2="596.934" y2="187.984"/>
<line x1="596.934" y1="187.984" x2="597.667" y2="185.784"/>
<line x1="597.667" y1="185.784" x2="597.667" y2="184.318"/>
<line x1="597.667" y1="184.318" x2="596.934" y2="182.118"/>
<line x1="596.934" y1="182.118" x2="595.467" y2="180.651"/>
<line x1="595.467" y1="180.651" x2="594.001" y2="179.918"/>
<line x1="594.001" y1="179.918" x2="591.801" y2="179.918"/>
<line x1="610.865" y1="174.785" x2="610.865" y2="190.183"/>
<line x1="610.865" y1="182.118" x2="609.399" y2="180.651"/>
<line x1="609.399" y1="180.651" x2="607.932" y2="179.918"/>
<line x1="607.932" y1="179.918" x2="605.733" y2="179.918"/>
<line x1="605.733" y1="179.918" x2="604.266" y2="180.651"/>
<line x1="604.266" y1="180.651" x2="602.800" y2="182.118"/>
<line x1="602.800" y1="182.118" x2="602.066" y2="184.318"/>
<line x1="602.066" y1="184.318" x2="602.066" y2="185.784"/>
<line x1="602.066" y1="185.784" x2="602.800" y2="187.984"/>
<line x1="602.800" y1="187.984" x2="604.266" y2="189.450"/>
<line x1="604.266" y1="189.450" x2="605.733" y2="190.183"/>
<line x1="605.733" y1="190.183" x2="607.932" y2="190.183"/>
<line x1="607.932" y1="190.183" x2="609.399" y2="189.450"/>
<line x1="609.399" y1="189.450" x2="610.865" y2="187.984"/>
<line x1="624.797" y1="174.785" x2="624.797" y2="190.183"/>
<line x1="624.797" y1="182.118" x2="623.330" y2="180.651"/>
<line x1="623.330" y1="180.651" x2="621.864" y2="179.918"/>
<line x1="621.864" y1="179.918" x2="619.664" y2="179.918"/>
<line x1="619.664" y1="179.918" x2="618.198" y2="180.651"/>
<line x1="618.198" y1="180.651" x2="616.731" y2="182.118"/>
<line x1="616.731" y1="182.118" x2="615.998" y2="184.318"/>
<line x1="615.998" y1="184.318" x2="615.998" y2="185.784"/>
<line x1="615.998" y1="185.784" x2="616.731" y2="187.984"/>
<line x1="616.731" y1="187.984" x2="618.198" y2="189.450"/>
<line x1="618.198" y1="189.450" x2="619.664" y2="190.183"/>
<line x1="619.664" y1="190.183" x2="621.864" y2="190.183"/>
<line x1="621.864" y1="190.183" x2="623.330" y2="189.450"/>
<line x1="623.330" y1="189.450" x2="624.797" y2="187.984"/>
<line x1="629.930" y1="174.785" x2="630.663" y2="175.519"/>
<line x1="630.663" y1="175.519" x2="631.396" y2="174.785"/>
<line x1="631.396" y1="174.785" x2="630.663" y2="174.052"/>
<line x1="630.663" y1="174.052" x2="629.930" y2="174.785"/>
<line x1="630.663" y1="179.918" x2="630.663" y2="190.183"/>
<line x1="637.262" y1="174.785" x2="637.262" y2="187.250"/>
<line x1="637.262" y1="187.250" x2="637.995" y2="189.450"/>
<line x1="637.995" y1="189.450" x2="639.462" y2="190.183"/>
<line x1="639.462" y1="190.183" x2="640.928" y2="190.183"/>
<line x1="635.062" y1="179.918" x2="640.195" y2="179.918"/>
<line x1="643.861" y1="179.918" x2="648.261" y2="190.183"/>
<line x1="652.660" y1="179.918" x2="648.261" y2="190.183"/>
<line x1="648.261" y1="190.183" x2="646.794" y2="193.116"/>
<line x1="646.794" y1="193.116" x2="645.328" y2="194.583"/>
<line x1="645.328" y1="194.583" x2="643.861" y2="195.316"/>
<line x1="643.861" y1="195.316" x2="643.128" y2="195.316"/>
</g>
<g transform="matrix(1 0 0 1 0 0)"
style="stroke:rgb(2,2,2);
stroke-width:1.0">
<line x1="433.924" y1="696.395" x2="456.762" y2="684.976"/>
<line x1="456.762" y1="684.976" x2="433.924" y2="673.557"/>
<line x1="433.924" y1="673.557" x2="440.775" y2="684.976"/>
<line x1="440.775" y1="684.976" x2="433.924" y2="696.395"/>
<line x1="342.571" y1="684.976" x2="440.775" y2="684.976"/>
<line x1="833.591" y1="696.395" x2="856.429" y2="684.976"/>
<line x1="856.429" y1="684.976" x2="833.591" y2="673.557"/>
<line x1="833.591" y1="673.557" x2="840.442" y2="684.976"/>
<line x1="840.442" y1="684.976" x2="833.591" y2="696.395"/>
<line x1="742.238" y1="684.976" x2="840.442" y2="684.976"/>
<line x1="1010.586" y1="507.981" x2="999.167" y2="485.143"/>
<line x1="999.167" y1="485.143" x2="987.748" y2="507.981"/>
<line x1="987.748" y1="507.981" x2="999.167" y2="501.130"/>
<line x1="999.167" y1="501.130" x2="1010.586" y2="507.981"/>
<line x1="999.167" y1="599.333" x2="999.167" y2="501.130"/>
<line x1="1010.586" y1="291.019" x2="999.167" y2="313.857"/>
<line x1="999.167" y1="313.857" x2="987.748" y2="291.019"/>
<line x1="987.748" y1="291.019" x2="999.167" y2="297.871"/>
<line x1="999.167" y1="297.871" x2="1010.586" y2="291.019"/>
<line x1="1016.295" y1="242.488" x2="1016.160" y2="240.341"/>
<line x1="1016.160" y1="240.341" x2="1015.757" y2="238.228"/>
<line x1="1015.757" y1="238.228" x2="1015.092" y2="236.183"/>
<line x1="1015.092" y1="236.183" x2="1014.177" y2="234.236"/>
<line x1="1014.177" y1="234.236" x2="1013.024" y2="232.420"/>
<line x1="1013.024" y1="232.420" x2="1011.653" y2="230.763"/>
<line x1="1011.653" y1="230.763" x2="1010.085" y2="229.290"/>
<line x1="1010.085" y1="229.290" x2="1008.345" y2="228.026"/>
<line x1="1008.345" y1="228.026" x2="1006.460" y2="226.990"/>
<line x1="1006.460" y1="226.990" x2="1004.460" y2="226.198"/>
<line x1="1004.460" y1="226.198" x2="1002.376" y2="225.663"/>
<line x1="1002.376" y1="225.663" x2="1000.242" y2="225.393"/>
<line x1="1000.242" y1="225.393" x2="998.091" y2="225.393"/>
<line x1="998.091" y1="225.393" x2="995.957" y2="225.663"/>
<line x1="995.957" y1="225.663" x2="993.874" y2="226.198"/>
<line x1="993.874" y1="226.198" x2="991.874" y2="226.990"/>
<line x1="991.874" y1="226.990" x2="989.989" y2="228.026"/>
<line x1="989.989" y1="228.026" x2="988.248" y2="229.290"/>
<line x1="988.248" y1="229.290" x2="986.680" y2="230.763"/>
<line x1="986.680" y1="230.763" x2="985.309" y2="232.420"/>
<line x1="985.309" y1="232.420" x2="984.157" y2="234.236"/>
<line x1="984.157" y1="234.236" x2="983.241" y2="236.183"/>
<line x1="983.241" y1="236.183" x2="982.576" y2="238.228"/>
<line x1="982.576" y1="238.228" x2="982.173" y2="240.341"/>
<line x1="982.173" y1="240.341" x2="982.038" y2="242.488"/>
<line x1="982.038" y1="242.488" x2="982.173" y2="244.635"/>
<line x1="982.173" y1="244.635" x2="982.576" y2="246.748"/>
<line x1="982.576" y1="246.748" x2="983.241" y2="248.794"/>
<line x1="983.241" y1="248.794" x2="984.157" y2="250.740"/>
<line x1="984.157" y1="250.740" x2="985.309" y2="252.556"/>
<line x1="985.309" y1="252.556" x2="986.680" y2="254.213"/>
<line x1="986.680" y1="254.213" x2="988.248" y2="255.686"/>
<line x1="988.248" y1="255.686" x2="989.989" y2="256.950"/>
<line x1="989.989" y1="256.950" x2="991.874" y2="257.987"/>
<line x1="991.874" y1="257.987" x2="993.874" y2="258.778"/>
<line x1="993.874" y1="258.778" x2="995.957" y2="259.313"/>
<line x1="995.957" y1="259.313" x2="998.091" y2="259.583"/>
<line x1="998.091" y1="259.583" x2="1000.242" y2="259.583"/>
<line x1="1000.242" y1="259.583" x2="1002.376" y2="259.313"/>
<line x1="1002.376" y1="259.313" x2="1004.460" y2="258.778"/>
<line x1="1004.460" y1="258.778" x2="1006.460" y2="257.987"/>
<line x1="1006.460" y1="257.987" x2="1008.345" y2="256.950"/>
<line x1="1008.345" y1="256.950" x2="1010.085" y2="255.686"/>
<line x1="1010.085" y1="255.686" x2="1011.653" y2="254.213"/>
<line x1="1011.653" y1="254.213" x2="1013.024" y2="252.556"/>
<line x1="1013.024" y1="252.556" x2="1014.177" y2="250.740"/>
<line x1="1014.177" y1="250.740" x2="1015.092" y2="248.794"/>
<line x1="1015.092" y1="248.794" x2="1015.757" y2="246.748"/>
<line x1="1015.757" y1="246.748" x2="1016.160" y2="244.635"/>
<line x1="1016.160" y1="244.635" x2="1016.295" y2="242.488"/>
<line x1="1016.295" y1="242.488" x2="1016.295" y2="242.488"/>
<line x1="999.167" y1="297.871" x2="999.167" y2="259.617"/>
<line x1="999.167" y1="225.360" x2="999.167" y2="171.119"/>
</g>
<g transform="matrix(1 0 0 1 0 0)"
style="stroke:rgb(2,2,2);
stroke-width:1.0">
<line x1="990.083" y1="234.495" x2="990.083" y2="249.755"/>
<line x1="990.083" y1="234.495" x2="996.623" y2="234.495"/>
<line x1="996.623" y1="234.495" x2="998.803" y2="235.221"/>
<line x1="998.803" y1="235.221" x2="999.530" y2="235.948"/>
<line x1="999.530" y1="235.948" x2="1000.257" y2="237.401"/>
<line x1="1000.257" y1="237.401" x2="1000.257" y2="238.855"/>
<line x1="1000.257" y1="238.855" x2="999.530" y2="240.308"/>
<line x1="999.530" y1="240.308" x2="998.803" y2="241.035"/>
<line x1="998.803" y1="241.035" x2="996.623" y2="241.761"/>
<line x1="996.623" y1="241.761" x2="990.083" y2="241.761"/>
<line x1="995.170" y1="241.761" x2="1000.257" y2="249.755"/>
<line x1="1006.070" y1="234.495" x2="1006.070" y2="246.848"/>
<line x1="1006.070" y1="246.848" x2="1006.797" y2="249.028"/>
<line x1="1006.797" y1="249.028" x2="1008.250" y2="249.755"/>
<line x1="1008.250" y1="249.755" x2="1009.703" y2="249.755"/>
<line x1="1003.890" y1="239.581" x2="1008.977" y2="239.581"/>
</g>
<g transform="matrix(1 0 0 1 0 0)"
style="stroke:rgb(2,2,2);
stroke-width:1.0">
<line x1="765.076" y1="159.700" x2="742.238" y2="171.119"/>
<line x1="742.238" y1="171.119" x2="765.076" y2="182.538"/>
<line x1="765.076" y1="182.538" x2="758.225" y2="171.119"/>
<line x1="758.225" y1="171.119" x2="765.076" y2="159.700"/>
<line x1="999.167" y1="171.119" x2="758.225" y2="171.119"/>
<line x1="216.962" y1="385.226" x2="216.827" y2="383.079"/>
<line x1="216.827" y1="383.079" x2="216.424" y2="380.966"/>
<line x1="216.424" y1="380.966" x2="215.759" y2="378.921"/>
<line x1="215.759" y1="378.921" x2="214.843" y2="376.974"/>
<line x1="214.843" y1="376.974" x2="213.691" y2="375.158"/>
<line x1="213.691" y1="375.158" x2="212.320" y2="373.501"/>
<line x1="212.320" y1="373.501" x2="210.751" y2="372.028"/>
<line x1="210.751" y1="372.028" x2="209.011" y2="370.764"/>
<line x1="209.011" y1="370.764" x2="207.126" y2="369.728"/>
<line x1="207.126" y1="369.728" x2="205.126" y2="368.936"/>
<line x1="205.126" y1="368.936" x2="203.043" y2="368.401"/>
<line x1="203.043" y1="368.401" x2="200.909" y2="368.131"/>
<line x1="200.909" y1="368.131" x2="198.758" y2="368.131"/>
<line x1="198.758" y1="368.131" x2="196.624" y2="368.401"/>
<line x1="196.624" y1="368.401" x2="194.540" y2="368.936"/>
<line x1="194.540" y1="368.936" x2="192.540" y2="369.728"/>
<line x1="192.540" y1="369.728" x2="190.655" y2="370.764"/>
<line x1="190.655" y1="370.764" x2="188.915" y2="372.028"/>
<line x1="188.915" y1="372.028" x2="187.347" y2="373.501"/>
<line x1="187.347" y1="373.501" x2="185.976" y2="375.158"/>
<line x1="185.976" y1="375.158" x2="184.823" y2="376.974"/>
<line x1="184.823" y1="376.974" x2="183.908" y2="378.921"/>
<line x1="183.908" y1="378.921" x2="183.243" y2="380.966"/>
<line x1="183.243" y1="380.966" x2="182.840" y2="383.079"/>
<line x1="182.840" y1="383.079" x2="182.705" y2="385.226"/>
<line x1="182.705" y1="385.226" x2="182.840" y2="387.373"/>
<line x1="182.840" y1="387.373" x2="183.243" y2="389.486"/>
<line x1="183.243" y1="389.486" x2="183.908" y2="391.532"/>
<line x1="183.908" y1="391.532" x2="184.823" y2="393.478"/>
<line x1="184.823" y1="393.478" x2="185.976" y2="395.294"/>
<line x1="185.976" y1="395.294" x2="187.347" y2="396.952"/>
<line x1="187.347" y1="396.952" x2="188.915" y2="398.424"/>
<line x1="188.915" y1="398.424" x2="190.655" y2="399.688"/>
<line x1="190.655" y1="399.688" x2="192.540" y2="400.725"/>
<line x1="192.540" y1="400.725" x2="194.540" y2="401.516"/>
<line x1="194.540" y1="401.516" x2="196.624" y2="402.051"/>
<line x1="196.624" y1="402.051" x2="198.758" y2="402.321"/>
<line x1="198.758" y1="402.321" x2="200.909" y2="402.321"/>
<line x1="200.909" y1="402.321" x2="203.043" y2="402.051"/>
<line x1="203.043" y1="402.051" x2="205.126" y2="401.516"/>
<line x1="205.126" y1="401.516" x2="207.126" y2="400.725"/>
<line x1="207.126" y1="400.725" x2="209.011" y2="399.688"/>
<line x1="209.011" y1="399.688" x2="210.752" y2="398.424"/>
<line x1="210.752" y1="398.424" x2="212.320" y2="396.952"/>
<line x1="212.320" y1="396.952" x2="213.691" y2="395.294"/>
<line x1="213.691" y1="395.294" x2="214.843" y2="393.478"/>
<line x1="214.843" y1="393.478" x2="215.759" y2="391.532"/>
<line x1="215.759" y1="391.532" x2="216.424" y2="389.486"/>
<line x1="216.424" y1="389.486" x2="216.827" y2="387.373"/>
<line x1="216.827" y1="387.373" x2="216.962" y2="385.226"/>
<line x1="216.962" y1="385.226" x2="216.962" y2="385.226"/>
<line x1="199.833" y1="599.333" x2="199.833" y2="402.355"/>
<line x1="199.833" y1="368.098" x2="199.833" y2="171.119"/>
</g>
<g transform="matrix(1 0 0 1 0 0)"
style="stroke:rgb(2,2,2);
stroke-width:1.0">
<line x1="190.584" y1="377.690" x2="190.584" y2="392.078"/>
<line x1="190.584" y1="392.078" x2="198.806" y2="392.078"/>
<line x1="201.546" y1="386.597" x2="209.768" y2="386.597"/>
<line x1="209.768" y1="386.597" x2="209.768" y2="385.226"/>
<line x1="209.768" y1="385.226" x2="209.083" y2="383.856"/>
<line x1="209.083" y1="383.856" x2="208.398" y2="383.171"/>
<line x1="208.398" y1="383.171" x2="207.027" y2="382.486"/>
<line x1="207.027" y1="382.486" x2="204.972" y2="382.486"/>
<line x1="204.972" y1="382.486" x2="203.602" y2="383.171"/>
<line x1="203.602" y1="383.171" x2="202.231" y2="384.541"/>
<line x1="202.231" y1="384.541" x2="201.546" y2="386.597"/>
<line x1="201.546" y1="386.597" x2="201.546" y2="387.967"/>
<line x1="201.546" y1="387.967" x2="202.231" y2="390.022"/>
<line x1="202.231" y1="390.022" x2="203.602" y2="391.392"/>
<line x1="203.602" y1="391.392" x2="204.972" y2="392.078"/>
<line x1="204.972" y1="392.078" x2="207.027" y2="392.078"/>
<line x1="207.027" y1="392.078" x2="208.398" y2="391.392"/>
<line x1="208.398" y1="391.392" x2="209.768" y2="390.022"/>
</g>
<g transform="matrix(1 0 0 1 0 0)"
style="stroke:rgb(2,2,2);
stroke-width:1.0">
<line x1="433.924" y1="182.538" x2="456.762" y2="171.119"/>
<line x1="456.762" y1="171.119" x2="433.924" y2="159.700"/>
<line x1="433.924" y1="159.700" x2="440.775" y2="171.119"/>
<line x1="440.775" y1="171.119" x2="433.924" y2="182.538"/>
<line x1="199.833" y1="171.119" x2="440.775" y2="171.119"/>
<line x1="356.845" y1="413.774" x2="376.829" y2="413.774"/>
<line x1="401.579" y1="387.410" x2="402.521" y2="368.098"/>
<line x1="402.521" y1="368.098" x2="386.506" y2="378.931"/>
<line x1="386.506" y1="378.931" x2="396.586" y2="378.649"/>
<line x1="396.586" y1="378.649" x2="401.579" y2="387.410"/>
<line x1="376.829" y1="413.774" x2="396.586" y2="378.649"/>
</g>
<g transform="matrix(1 0 0 1 0 0)"
style="stroke:rgb(0,0,0);
stroke-width:1.0">
<line x1="0.500" y1="798.500" x2="1198.500" y2="798.500"/>
<line x1="1198.500" y1="798.500" x2="1198.500" y2="0.500"/>
<line x1="1198.500" y1="0.500" x2="0.500" y2="0.500"/>
<line x1="0.500" y1="0.500" x2="0.500" y2="798.500"/>
</g>
</svg>
