<svg 
xmlns="http://www.w3.org/2000/svg"                   
width="1200"
height="800"
viewBox="0 0 1200 800">
<g transform="matrix(1 0 0 1 0 0)"
style="stroke:rgb(204,25,25);
stroke-width:1.0">
<line x1="174.033" y1="683.145" x2="259.126" y2="677.472"/>
<line x1="259.126" y1="677.472" x2="344.220" y2="660.453"/>
<line x1="344.220" y1="660.453" x2="429.313" y2="632.089"/>
<line x1="429.313" y1="632.089" x2="514.406" y2="592.379"/>
<line x1="514.406" y1="592.379" x2="599.500" y2="541.323"/>
<line x1="599.500" y1="541.323" x2="684.594" y2="478.921"/>
<line x1="684.594" y1="478.921" x2="769.687" y2="405.173"/>
<line x1="769.687" y1="405.173" x2="854.781" y2="320.079"/>
<line x1="854.781" y1="320.079" x2="939.874" y2="223.640"/>
<line x1="939.874" y1="223.640" x2="1024.967" y2="115.855"/>
<line x1="174.033" y1="683.145" x2="176.869" y2="683.145"/>
<line x1="256.290" y1="679.741" x2="261.962" y2="679.741"/>
<line x1="259.126" y1="679.741" x2="259.126" y2="675.203"/>
<line x1="256.290" y1="675.203" x2="261.962" y2="675.203"/>
<line x1="341.383" y1="666.126" x2="347.056" y2="666.126"/>
<line x1="344.220" y1="666.126" x2="344.220" y2="654.781"/>
<line x1="341.383" y1="654.781" x2="347.056" y2="654.781"/>
<line x1="426.477" y1="655.348" x2="432.149" y2="655.348"/>
<line x1="429.313" y1="655.348" x2="429.313" y2="608.830"/>
<line x1="426.477" y1="608.830" x2="432.149" y2="608.830"/>
<line x1="511.570" y1="639.464" x2="517.243" y2="639.464"/>
<line x1="514.406" y1="639.464" x2="514.406" y2="545.294"/>
<line x1="511.570" y1="545.294" x2="517.243" y2="545.294"/>
<line x1="596.664" y1="548.697" x2="602.336" y2="548.697"/>
<line x1="599.500" y1="548.697" x2="599.500" y2="533.948"/>
<line x1="596.664" y1="533.948" x2="602.336" y2="533.948"/>
<line x1="681.757" y1="491.401" x2="687.430" y2="491.401"/>
<line x1="684.594" y1="491.401" x2="684.594" y2="466.440"/>
<line x1="681.757" y1="466.440" x2="687.430" y2="466.440"/>
<line x1="766.851" y1="423.893" x2="772.523" y2="423.893"/>
<line x1="769.687" y1="423.893" x2="769.687" y2="386.452"/>
<line x1="766.851" y1="386.452" x2="772.523" y2="386.452"/>
<line x1="851.944" y1="350.713" x2="857.617" y2="350.713"/>
<line x1="854.781" y1="350.713" x2="854.781" y2="289.446"/>
<line x1="851.944" y1="289.446" x2="857.617" y2="289.446"/>
<line x1="937.037" y1="260.514" x2="942.710" y2="260.514"/>
<line x1="939.874" y1="260.514" x2="939.874" y2="186.766"/>
<line x1="937.037" y1="186.766" x2="942.710" y2="186.766"/>
<line x1="1022.131" y1="172.584" x2="1024.968" y2="172.584"/>
<line x1="1024.967" y1="172.584" x2="1024.967" y2="115.855"/>
</g>
<g transform="matrix(1 0 0 1 0 0)"
style="stroke:rgb(2,2,2);
stroke-width:1.0">
<line x1="391.510" y1="41.848" x2="391.510" y2="56.529"/>
<line x1="391.510" y1="56.529" x2="399.900" y2="56.529"/>
<line x1="406.192" y1="46.742" x2="404.794" y2="47.441"/>
<line x1="404.794" y1="47.441" x2="403.395" y2="48.839"/>
<line x1="403.395" y1="48.839" x2="402.696" y2="50.936"/>
<line x1="402.696" y1="50.936" x2="402.696" y2="52.335"/>
<line x1="402.696" y1="52.335" x2="403.395" y2="54.432"/>
<line x1="403.395" y1="54.432" x2="404.794" y2="55.830"/>
<line x1="404.794" y1="55.830" x2="406.192" y2="56.529"/>
<line x1="406.192" y1="56.529" x2="408.289" y2="56.529"/>
<line x1="408.289" y1="56.529" x2="409.688" y2="55.830"/>
<line x1="409.688" y1="55.830" x2="411.086" y2="54.432"/>
<line x1="411.086" y1="54.432" x2="411.785" y2="52.335"/>
<line x1="411.785" y1="52.335" x2="411.785" y2="50.936"/>
<line x1="411.785" y1="50.936" x2="411.086" y2="48.839"/>
<line x1="411.086" y1="48.839" x2="409.688" y2="47.441"/>
<line x1="409.688" y1="47.441" x2="408.289" y2="46.742"/>
<line x1="408.289" y1="46.742" x2="406.192" y2="46.742"/>
<line x1="419.475" y1="46.742" x2="418.077" y2="47.441"/>
<line x1="418.077" y1="47.441" x2="416.679" y2="48.839"/>
<line x1="416.679" y1="48.839" x2="415.980" y2="50.936"/>
<line x1="415.980" y1="50.936" x2="415.980" y2="52.335"/>
<line x1="415.980" y1="52.335" x2="416.679" y2="54.432"/>
<line x1="416.679" y1="54.432" x2="418.077" y2="55.830"/>
<line x1="418.077" y1="55.830" x2="419.475" y2="56.529"/>
<line x1="419.475" y1="56.529" x2="421.573" y2="56.529"/>
<line x1="421.573" y1="56.529" x2="422.971" y2="55.830"/>
<line x1="422.971" y1="55.830" x2="424.369" y2="54.432"/>
<line x1="424.369" y1="54.432" x2="425.068" y2="52.335"/>
<line x1="425.068" y1="52.335" x2="425.068" y2="50.936"/>
<line x1="425.068" y1="50.936" x2="424.369" y2="48.839"/>
<line x1="424.369" y1="48.839" x2="422.971" y2="47.441"/>
<line x1="422.971" y1="47.441" x2="421.573" y2="46.742"/>
<line x1="421.573" y1="46.742" x2="419.475" y2="46.742"/>
<line x1="429.962" y1="41.848" x2="429.962" y2="56.529"/>
<line x1="436.953" y1="46.742" x2="429.962" y2="53.733"/>
<line x1="432.759" y1="50.936" x2="437.653" y2="56.529"/>
<line x1="448.839" y1="48.839" x2="448.139" y2="47.441"/>
<line x1="448.139" y1="47.441" x2="446.042" y2="46.742"/>
<line x1="446.042" y1="46.742" x2="443.945" y2="46.742"/>
<line x1="443.945" y1="46.742" x2="441.847" y2="47.441"/>
<line x1="441.847" y1="47.441" x2="441.148" y2="48.839"/>
<line x1="441.148" y1="48.839" x2="441.847" y2="50.237"/>
<line x1="441.847" y1="50.237" x2="443.246" y2="50.936"/>
<line x1="443.246" y1="50.936" x2="446.741" y2="51.635"/>
<line x1="446.741" y1="51.635" x2="448.139" y2="52.335"/>
<line x1="448.139" y1="52.335" x2="448.839" y2="53.733"/>
<line x1="448.839" y1="53.733" x2="448.839" y2="54.432"/>
<line x1="448.839" y1="54.432" x2="448.139" y2="55.830"/>
<line x1="448.139" y1="55.830" x2="446.042" y2="56.529"/>
<line x1="446.042" y1="56.529" x2="443.945" y2="56.529"/>
<line x1="443.945" y1="56.529" x2="441.847" y2="55.830"/>
<line x1="441.847" y1="55.830" x2="441.148" y2="54.432"/>
<line x1="467.016" y1="41.848" x2="467.016" y2="56.529"/>
<line x1="471.910" y1="41.848" x2="472.609" y2="42.547"/>
<line x1="472.609" y1="42.547" x2="473.308" y2="41.848"/>
<line x1="473.308" y1="41.848" x2="472.609" y2="41.149"/>
<line x1="472.609" y1="41.149" x2="471.910" y2="41.848"/>
<line x1="472.609" y1="46.742" x2="472.609" y2="56.529"/>
<line x1="478.202" y1="41.848" x2="478.202" y2="56.529"/>
<line x1="485.193" y1="46.742" x2="478.202" y2="53.733"/>
<line x1="480.998" y1="50.936" x2="485.892" y2="56.529"/>
<line x1="489.388" y1="50.936" x2="497.777" y2="50.936"/>
<line x1="497.777" y1="50.936" x2="497.777" y2="49.538"/>
<line x1="497.777" y1="49.538" x2="497.078" y2="48.140"/>
<line x1="497.078" y1="48.140" x2="496.379" y2="47.441"/>
<line x1="496.379" y1="47.441" x2="494.981" y2="46.742"/>
<line x1="494.981" y1="46.742" x2="492.883" y2="46.742"/>
<line x1="492.883" y1="46.742" x2="491.485" y2="47.441"/>
<line x1="491.485" y1="47.441" x2="490.087" y2="48.839"/>
<line x1="490.087" y1="48.839" x2="489.388" y2="50.936"/>
<line x1="489.388" y1="50.936" x2="489.388" y2="52.335"/>
<line x1="489.388" y1="52.335" x2="490.087" y2="54.432"/>
<line x1="490.087" y1="54.432" x2="491.485" y2="55.830"/>
<line x1="491.485" y1="55.830" x2="492.883" y2="56.529"/>
<line x1="492.883" y1="56.529" x2="494.981" y2="56.529"/>
<line x1="494.981" y1="56.529" x2="496.379" y2="55.830"/>
<line x1="496.379" y1="55.830" x2="497.777" y2="54.432"/>
<line x1="515.255" y1="46.742" x2="522.946" y2="56.529"/>
<line x1="522.946" y1="46.742" x2="515.255" y2="56.529"/>
<line x1="526.162" y1="41.149" x2="526.162" y2="40.869"/>
<line x1="526.162" y1="40.869" x2="526.441" y2="40.310"/>
<line x1="526.441" y1="40.310" x2="526.721" y2="40.030"/>
<line x1="526.721" y1="40.030" x2="527.280" y2="39.750"/>
<line x1="527.280" y1="39.750" x2="528.399" y2="39.750"/>
<line x1="528.399" y1="39.750" x2="528.958" y2="40.030"/>
<line x1="528.958" y1="40.030" x2="529.238" y2="40.310"/>
<line x1="529.238" y1="40.310" x2="529.518" y2="40.869"/>
<line x1="529.518" y1="40.869" x2="529.518" y2="41.428"/>
<line x1="529.518" y1="41.428" x2="529.238" y2="41.987"/>
<line x1="529.238" y1="41.987" x2="528.679" y2="42.826"/>
<line x1="528.679" y1="42.826" x2="525.882" y2="45.623"/>
<line x1="525.882" y1="45.623" x2="529.797" y2="45.623"/>
<line x1="546.017" y1="46.742" x2="548.813" y2="56.529"/>
<line x1="551.610" y1="46.742" x2="548.813" y2="56.529"/>
<line x1="551.610" y1="46.742" x2="554.406" y2="56.529"/>
<line x1="557.203" y1="46.742" x2="554.406" y2="56.529"/>
<line x1="561.398" y1="41.848" x2="562.097" y2="42.547"/>
<line x1="562.097" y1="42.547" x2="562.796" y2="41.848"/>
<line x1="562.796" y1="41.848" x2="562.097" y2="41.149"/>
<line x1="562.097" y1="41.149" x2="561.398" y2="41.848"/>
<line x1="562.097" y1="46.742" x2="562.097" y2="56.529"/>
<line x1="568.389" y1="41.848" x2="568.389" y2="53.733"/>
<line x1="568.389" y1="53.733" x2="569.088" y2="55.830"/>
<line x1="569.088" y1="55.830" x2="570.486" y2="56.529"/>
<line x1="570.486" y1="56.529" x2="571.885" y2="56.529"/>
<line x1="566.292" y1="46.742" x2="571.185" y2="46.742"/>
<line x1="576.079" y1="41.848" x2="576.079" y2="56.529"/>
<line x1="576.079" y1="49.538" x2="578.177" y2="47.441"/>
<line x1="578.177" y1="47.441" x2="579.575" y2="46.742"/>
<line x1="579.575" y1="46.742" x2="581.672" y2="46.742"/>
<line x1="581.672" y1="46.742" x2="583.071" y2="47.441"/>
<line x1="583.071" y1="47.441" x2="583.770" y2="49.538"/>
<line x1="583.770" y1="49.538" x2="583.770" y2="56.529"/>
<line x1="609.637" y1="48.839" x2="608.938" y2="47.441"/>
<line x1="608.938" y1="47.441" x2="606.841" y2="46.742"/>
<line x1="606.841" y1="46.742" x2="604.743" y2="46.742"/>
<line x1="604.743" y1="46.742" x2="602.646" y2="47.441"/>
<line x1="602.646" y1="47.441" x2="601.947" y2="48.839"/>
<line x1="601.947" y1="48.839" x2="602.646" y2="50.237"/>
<line x1="602.646" y1="50.237" x2="604.044" y2="50.936"/>
<line x1="604.044" y1="50.936" x2="607.540" y2="51.635"/>
<line x1="607.540" y1="51.635" x2="608.938" y2="52.335"/>
<line x1="608.938" y1="52.335" x2="609.637" y2="53.733"/>
<line x1="609.637" y1="53.733" x2="609.637" y2="54.432"/>
<line x1="609.637" y1="54.432" x2="608.938" y2="55.830"/>
<line x1="608.938" y1="55.830" x2="606.841" y2="56.529"/>
<line x1="606.841" y1="56.529" x2="604.743" y2="56.529"/>
<line x1="604.743" y1="56.529" x2="602.646" y2="55.830"/>
<line x1="602.646" y1="55.830" x2="601.947" y2="54.432"/>
<line x1="613.133" y1="46.742" x2="617.328" y2="56.529"/>
<line x1="621.522" y1="46.742" x2="617.328" y2="56.529"/>
<line x1="617.328" y1="56.529" x2="615.929" y2="59.326"/>
<line x1="615.929" y1="59.326" x2="614.531" y2="60.724"/>
<line x1="614.531" y1="60.724" x2="613.133" y2="61.423"/>
<line x1="613.133" y1="61.423" x2="612.434" y2="61.423"/>
<line x1="625.717" y1="46.742" x2="625.717" y2="56.529"/>
<line x1="625.717" y1="49.538" x2="627.815" y2="47.441"/>
<line x1="627.815" y1="47.441" x2="629.213" y2="46.742"/>
<line x1="629.213" y1="46.742" x2="631.310" y2="46.742"/>
<line x1="631.310" y1="46.742" x2="632.708" y2="47.441"/>
<line x1="632.708" y1="47.441" x2="633.408" y2="49.538"/>
<line x1="633.408" y1="49.538" x2="633.408" y2="56.529"/>
<line x1="633.408" y1="49.538" x2="635.505" y2="47.441"/>
<line x1="635.505" y1="47.441" x2="636.903" y2="46.742"/>
<line x1="636.903" y1="46.742" x2="639.001" y2="46.742"/>
<line x1="639.001" y1="46.742" x2="640.399" y2="47.441"/>
<line x1="640.399" y1="47.441" x2="641.098" y2="49.538"/>
<line x1="641.098" y1="49.538" x2="641.098" y2="56.529"/>
<line x1="646.691" y1="46.742" x2="646.691" y2="56.529"/>
<line x1="646.691" y1="49.538" x2="648.788" y2="47.441"/>
<line x1="648.788" y1="47.441" x2="650.187" y2="46.742"/>
<line x1="650.187" y1="46.742" x2="652.284" y2="46.742"/>
<line x1="652.284" y1="46.742" x2="653.682" y2="47.441"/>
<line x1="653.682" y1="47.441" x2="654.381" y2="49.538"/>
<line x1="654.381" y1="49.538" x2="654.381" y2="56.529"/>
<line x1="654.381" y1="49.538" x2="656.479" y2="47.441"/>
<line x1="656.479" y1="47.441" x2="657.877" y2="46.742"/>
<line x1="657.877" y1="46.742" x2="659.974" y2="46.742"/>
<line x1="659.974" y1="46.742" x2="661.373" y2="47.441"/>
<line x1="661.373" y1="47.441" x2="662.072" y2="49.538"/>
<line x1="662.072" y1="49.538" x2="662.072" y2="56.529"/>
<line x1="666.966" y1="50.936" x2="675.355" y2="50.936"/>
<line x1="675.355" y1="50.936" x2="675.355" y2="49.538"/>
<line x1="675.355" y1="49.538" x2="674.656" y2="48.140"/>
<line x1="674.656" y1="48.140" x2="673.957" y2="47.441"/>
<line x1="673.957" y1="47.441" x2="672.559" y2="46.742"/>
<line x1="672.559" y1="46.742" x2="670.461" y2="46.742"/>
<line x1="670.461" y1="46.742" x2="669.063" y2="47.441"/>
<line x1="669.063" y1="47.441" x2="667.665" y2="48.839"/>
<line x1="667.665" y1="48.839" x2="666.966" y2="50.936"/>
<line x1="666.966" y1="50.936" x2="666.966" y2="52.335"/>
<line x1="666.966" y1="52.335" x2="667.665" y2="54.432"/>
<line x1="667.665" y1="54.432" x2="669.063" y2="55.830"/>
<line x1="669.063" y1="55.830" x2="670.461" y2="56.529"/>
<line x1="670.461" y1="56.529" x2="672.559" y2="56.529"/>
<line x1="672.559" y1="56.529" x2="673.957" y2="55.830"/>
<line x1="673.957" y1="55.830" x2="675.355" y2="54.432"/>
<line x1="680.948" y1="41.848" x2="680.948" y2="53.733"/>
<line x1="680.948" y1="53.733" x2="681.647" y2="55.830"/>
<line x1="681.647" y1="55.830" x2="683.045" y2="56.529"/>
<line x1="683.045" y1="56.529" x2="684.444" y2="56.529"/>
<line x1="678.851" y1="46.742" x2="683.745" y2="46.742"/>
<line x1="688.638" y1="46.742" x2="688.638" y2="56.529"/>
<line x1="688.638" y1="50.936" x2="689.338" y2="48.839"/>
<line x1="689.338" y1="48.839" x2="690.736" y2="47.441"/>
<line x1="690.736" y1="47.441" x2="692.134" y2="46.742"/>
<line x1="692.134" y1="46.742" x2="694.231" y2="46.742"/>
<line x1="697.028" y1="41.848" x2="697.727" y2="42.547"/>
<line x1="697.727" y1="42.547" x2="698.426" y2="41.848"/>
<line x1="698.426" y1="41.848" x2="697.727" y2="41.149"/>
<line x1="697.727" y1="41.149" x2="697.028" y2="41.848"/>
<line x1="697.727" y1="46.742" x2="697.727" y2="56.529"/>
<line x1="711.010" y1="48.839" x2="709.612" y2="47.441"/>
<line x1="709.612" y1="47.441" x2="708.214" y2="46.742"/>
<line x1="708.214" y1="46.742" x2="706.117" y2="46.742"/>
<line x1="706.117" y1="46.742" x2="704.718" y2="47.441"/>
<line x1="704.718" y1="47.441" x2="703.320" y2="48.839"/>
<line x1="703.320" y1="48.839" x2="702.621" y2="50.936"/>
<line x1="702.621" y1="50.936" x2="702.621" y2="52.335"/>
<line x1="702.621" y1="52.335" x2="703.320" y2="54.432"/>
<line x1="703.320" y1="54.432" x2="704.718" y2="55.830"/>
<line x1="704.718" y1="55.830" x2="706.117" y2="56.529"/>
<line x1="706.117" y1="56.529" x2="708.214" y2="56.529"/>
<line x1="708.214" y1="56.529" x2="709.612" y2="55.830"/>
<line x1="709.612" y1="55.830" x2="711.010" y2="54.432"/>
<line x1="723.595" y1="46.742" x2="723.595" y2="56.529"/>
<line x1="723.595" y1="48.839" x2="722.196" y2="47.441"/>
<line x1="722.196" y1="47.441" x2="720.798" y2="46.742"/>
<line x1="720.798" y1="46.742" x2="718.701" y2="46.742"/>
<line x1="718.701" y1="46.742" x2="717.303" y2="47.441"/>
<line x1="717.303" y1="47.441" x2="715.904" y2="48.839"/>
<line x1="715.904" y1="48.839" x2="715.205" y2="50.936"/>
<line x1="715.205" y1="50.936" x2="715.205" y2="52.335"/>
<line x1="715.205" y1="52.335" x2="715.904" y2="54.432"/>
<line x1="715.904" y1="54.432" x2="717.303" y2="55.830"/>
<line x1="717.303" y1="55.830" x2="718.701" y2="56.529"/>
<line x1="718.701" y1="56.529" x2="720.798" y2="56.529"/>
<line x1="720.798" y1="56.529" x2="722.196" y2="55.830"/>
<line x1="722.196" y1="55.830" x2="723.595" y2="54.432"/>
<line x1="729.188" y1="41.848" x2="729.188" y2="56.529"/>
<line x1="747.365" y1="50.936" x2="755.754" y2="50.936"/>
<line x1="755.754" y1="50.936" x2="755.754" y2="49.538"/>
<line x1="755.754" y1="49.538" x2="755.055" y2="48.140"/>
<line x1="755.055" y1="48.140" x2="754.356" y2="47.441"/>
<line x1="754.356" y1="47.441" x2="752.958" y2="46.742"/>
<line x1="752.958" y1="46.742" x2="750.861" y2="46.742"/>
<line x1="750.861" y1="46.742" x2="749.462" y2="47.441"/>
<line x1="749.462" y1="47.441" x2="748.064" y2="48.839"/>
<line x1="748.064" y1="48.839" x2="747.365" y2="50.936"/>
<line x1="747.365" y1="50.936" x2="747.365" y2="52.335"/>
<line x1="747.365" y1="52.335" x2="748.064" y2="54.432"/>
<line x1="748.064" y1="54.432" x2="749.462" y2="55.830"/>
<line x1="749.462" y1="55.830" x2="750.861" y2="56.529"/>
<line x1="750.861" y1="56.529" x2="752.958" y2="56.529"/>
<line x1="752.958" y1="56.529" x2="754.356" y2="55.830"/>
<line x1="754.356" y1="55.830" x2="755.754" y2="54.432"/>
<line x1="760.648" y1="46.742" x2="760.648" y2="56.529"/>
<line x1="760.648" y1="50.936" x2="761.347" y2="48.839"/>
<line x1="761.347" y1="48.839" x2="762.746" y2="47.441"/>
<line x1="762.746" y1="47.441" x2="764.144" y2="46.742"/>
<line x1="764.144" y1="46.742" x2="766.241" y2="46.742"/>
<line x1="769.737" y1="46.742" x2="769.737" y2="56.529"/>
<line x1="769.737" y1="50.936" x2="770.436" y2="48.839"/>
<line x1="770.436" y1="48.839" x2="771.834" y2="47.441"/>
<line x1="771.834" y1="47.441" x2="773.233" y2="46.742"/>
<line x1="773.233" y1="46.742" x2="775.330" y2="46.742"/>
<line x1="781.622" y1="46.742" x2="780.224" y2="47.441"/>
<line x1="780.224" y1="47.441" x2="778.826" y2="48.839"/>
<line x1="778.826" y1="48.839" x2="778.126" y2="50.936"/>
<line x1="778.126" y1="50.936" x2="778.126" y2="52.335"/>
<line x1="778.126" y1="52.335" x2="778.826" y2="54.432"/>
<line x1="778.826" y1="54.432" x2="780.224" y2="55.830"/>
<line x1="780.224" y1="55.830" x2="781.622" y2="56.529"/>
<line x1="781.622" y1="56.529" x2="783.719" y2="56.529"/>
<line x1="783.719" y1="56.529" x2="785.118" y2="55.830"/>
<line x1="785.118" y1="55.830" x2="786.516" y2="54.432"/>
<line x1="786.516" y1="54.432" x2="787.215" y2="52.335"/>
<line x1="787.215" y1="52.335" x2="787.215" y2="50.936"/>
<line x1="787.215" y1="50.936" x2="786.516" y2="48.839"/>
<line x1="786.516" y1="48.839" x2="785.118" y2="47.441"/>
<line x1="785.118" y1="47.441" x2="783.719" y2="46.742"/>
<line x1="783.719" y1="46.742" x2="781.622" y2="46.742"/>
<line x1="792.109" y1="46.742" x2="792.109" y2="56.529"/>
<line x1="792.109" y1="50.936" x2="792.808" y2="48.839"/>
<line x1="792.808" y1="48.839" x2="794.206" y2="47.441"/>
<line x1="794.206" y1="47.441" x2="795.605" y2="46.742"/>
<line x1="795.605" y1="46.742" x2="797.702" y2="46.742"/>
<line x1="808.189" y1="48.839" x2="807.490" y2="47.441"/>
<line x1="807.490" y1="47.441" x2="805.392" y2="46.742"/>
<line x1="805.392" y1="46.742" x2="803.295" y2="46.742"/>
<line x1="803.295" y1="46.742" x2="801.198" y2="47.441"/>
<line x1="801.198" y1="47.441" x2="800.498" y2="48.839"/>
<line x1="800.498" y1="48.839" x2="801.198" y2="50.237"/>
<line x1="801.198" y1="50.237" x2="802.596" y2="50.936"/>
<line x1="802.596" y1="50.936" x2="806.092" y2="51.635"/>
<line x1="806.092" y1="51.635" x2="807.490" y2="52.335"/>
<line x1="807.490" y1="52.335" x2="808.189" y2="53.733"/>
<line x1="808.189" y1="53.733" x2="808.189" y2="54.432"/>
<line x1="808.189" y1="54.432" x2="807.490" y2="55.830"/>
<line x1="807.490" y1="55.830" x2="805.392" y2="56.529"/>
<line x1="805.392" y1="56.529" x2="803.295" y2="56.529"/>
<line x1="803.295" y1="56.529" x2="801.198" y2="55.830"/>
<line x1="801.198" y1="55.830" x2="800.498" y2="54.432"/>
</g>
<g transform="matrix(1 0 0 1 0 0)"
style="stroke:rgb(2,2,2);
stroke-width:1.0">
<line x1="592.842" y1="712.822" x2="606.158" y2="732.797"/>
<line x1="606.158" y1="712.822" x2="592.842" y2="732.797"/>
</g>
<g transform="matrix(1 0 0 1 0 0)"
style="stroke:rgb(2,2,2);
stroke-width:1.0">
<line x1="3.674" y1="410.914" x2="17.942" y2="399.500"/>
<line x1="17.942" y1="399.500" x2="33.637" y2="399.500"/>
<line x1="3.674" y1="388.086" x2="17.942" y2="399.500"/>
</g>
<g transform="matrix(1 0 0 1 0 0)"
style="stroke:rgb(2,2,2);
stroke-width:1.0">
<line x1="344.220" y1="683.145" x2="344.220" y2="675.155"/>
<line x1="514.406" y1="683.145" x2="514.406" y2="675.155"/>
<line x1="684.594" y1="683.145" x2="684.594" y2="675.155"/>
<line x1="854.781" y1="683.145" x2="854.781" y2="675.155"/>
</g>
<g transform="matrix(1 0 0 1 0 0)"
style="stroke:rgb(2,2,2);
stroke-width:1.0">
<line x1="344.220" y1="115.855" x2="344.220" y2="123.845"/>
<line x1="514.406" y1="115.855" x2="514.406" y2="123.845"/>
<line x1="684.594" y1="115.855" x2="684.594" y2="123.845"/>
<line x1="854.781" y1="115.855" x2="854.781" y2="123.845"/>
</g>
<g transform="matrix(1 0 0 1 0 0)"
style="stroke:rgb(2,2,2);
stroke-width:1.0">
<line x1="174.033" y1="569.687" x2="182.023" y2="569.687"/>
<line x1="174.033" y1="456.229" x2="182.023" y2="456.229"/>
<line x1="174.033" y1="342.771" x2="182.023" y2="342.771"/>
<line x1="174.033" y1="229.313" x2="182.023" y2="229.313"/>
</g>
<g transform="matrix(1 0 0 1 0 0)"
style="stroke:rgb(2,2,2);
stroke-width:1.0">
<line x1="1024.968" y1="569.687" x2="1016.978" y2="569.687"/>
<line x1="1024.968" y1="456.229" x2="1016.978" y2="456.229"/>
<line x1="1024.968" y1="342.771" x2="1016.978" y2="342.771"/>
<line x1="1024.968" y1="229.313" x2="1016.978" y2="229.313"/>
</g>
<g transform="matrix(1 0 0 1 0 0)"
style="stroke:rgb(2,2,2);
stroke-width:1.0">
<line x1="151.061" y1="697.627" x2="149.563" y2="698.126"/>
<line x1="149.563" y1="698.126" x2="148.564" y2="699.624"/>
<line x1="148.564" y1="699.624" x2="148.065" y2="702.121"/>
<line x1="148.065" y1="702.121" x2="148.065" y2="703.619"/>
<line x1="148.065" y1="703.619" x2="148.564" y2="706.116"/>
<line x1="148.564" y1="706.116" x2="149.563" y2="707.614"/>
<line x1="149.563" y1="707.614" x2="151.061" y2="708.114"/>
<line x1="151.061" y1="708.114" x2="152.060" y2="708.114"/>
<line x1="152.060" y1="708.114" x2="153.558" y2="707.614"/>
<line x1="153.558" y1="707.614" x2="154.557" y2="706.116"/>
<line x1="154.557" y1="706.116" x2="155.056" y2="703.619"/>
<line x1="155.056" y1="703.619" x2="155.056" y2="702.121"/>
<line x1="155.056" y1="702.121" x2="154.557" y2="699.624"/>
<line x1="154.557" y1="699.624" x2="153.558" y2="698.126"/>
<line x1="153.558" y1="698.126" x2="152.060" y2="697.627"/>
<line x1="152.060" y1="697.627" x2="151.061" y2="697.627"/>
<line x1="166.542" y1="707.115" x2="166.043" y2="707.614"/>
<line x1="166.043" y1="707.614" x2="166.542" y2="708.114"/>
<line x1="166.542" y1="708.114" x2="167.041" y2="707.614"/>
<line x1="167.041" y1="707.614" x2="166.542" y2="707.115"/>
<line x1="181.024" y1="697.627" x2="179.526" y2="698.126"/>
<line x1="179.526" y1="698.126" x2="178.527" y2="699.624"/>
<line x1="178.527" y1="699.624" x2="178.028" y2="702.121"/>
<line x1="178.028" y1="702.121" x2="178.028" y2="703.619"/>
<line x1="178.028" y1="703.619" x2="178.527" y2="706.116"/>
<line x1="178.527" y1="706.116" x2="179.526" y2="707.614"/>
<line x1="179.526" y1="707.614" x2="181.024" y2="708.114"/>
<line x1="181.024" y1="708.114" x2="182.023" y2="708.114"/>
<line x1="182.023" y1="708.114" x2="183.521" y2="707.614"/>
<line x1="183.521" y1="707.614" x2="184.519" y2="706.116"/>
<line x1="184.519" y1="706.116" x2="185.019" y2="703.619"/>
<line x1="185.019" y1="703.619" x2="185.019" y2="702.121"/>
<line x1="185.019" y1="702.121" x2="184.519" y2="699.624"/>
<line x1="184.519" y1="699.624" x2="183.521" y2="698.126"/>
<line x1="183.521" y1="698.126" x2="182.023" y2="697.627"/>
<line x1="182.023" y1="697.627" x2="181.024" y2="697.627"/>
<line x1="196.005" y1="697.627" x2="194.507" y2="698.126"/>
<line x1="194.507" y1="698.126" x2="193.508" y2="699.624"/>
<line x1="193.508" y1="699.624" x2="193.009" y2="702.121"/>
<line x1="193.009" y1="702.121" x2="193.009" y2="703.619"/>
<line x1="193.009" y1="703.619" x2="193.508" y2="706.116"/>
<line x1="193.508" y1="706.116" x2="194.507" y2="707.614"/>
<line x1="194.507" y1="707.614" x2="196.005" y2="708.114"/>
<line x1="196.005" y1="708.114" x2="197.004" y2="708.114"/>
<line x1="197.004" y1="708.114" x2="198.502" y2="707.614"/>
<line x1="198.502" y1="707.614" x2="199.501" y2="706.116"/>
<line x1="199.501" y1="706.116" x2="200.000" y2="703.619"/>
<line x1="200.000" y1="703.619" x2="200.000" y2="702.121"/>
<line x1="200.000" y1="702.121" x2="199.501" y2="699.624"/>
<line x1="199.501" y1="699.624" x2="198.502" y2="698.126"/>
<line x1="198.502" y1="698.126" x2="197.004" y2="697.627"/>
<line x1="197.004" y1="697.627" x2="196.005" y2="697.627"/>
</g>
<g transform="matrix(1 0 0 1 0 0)"
style="stroke:rgb(2,2,2);
stroke-width:1.0">
<line x1="321.248" y1="697.627" x2="319.750" y2="698.126"/>
<line x1="319.750" y1="698.126" x2="318.751" y2="699.624"/>
<line x1="318.751" y1="699.624" x2="318.252" y2="702.121"/>
<line x1="318.252" y1="702.121" x2="318.252" y2="703.619"/>
<line x1="318.252" y1="703.619" x2="318.751" y2="706.116"/>
<line x1="318.751" y1="706.116" x2="319.750" y2="707.614"/>
<line x1="319.750" y1="707.614" x2="321.248" y2="708.114"/>
<line x1="321.248" y1="708.114" x2="322.247" y2="708.114"/>
<line x1="322.247" y1="708.114" x2="323.745" y2="707.614"/>
<line x1="323.745" y1="707.614" x2="324.744" y2="706.116"/>
<line x1="324.744" y1="706.116" x2="325.243" y2="703.619"/>
<line x1="325.243" y1="703.619" x2="325.243" y2="702.121"/>
<line x1="325.243" y1="702.121" x2="324.744" y2="699.624"/>
<line x1="324.744" y1="699.624" x2="323.745" y2="698.126"/>
<line x1="323.745" y1="698.126" x2="322.247" y2="697.627"/>
<line x1="322.247" y1="697.627" x2="321.248" y2="697.627"/>
<line x1="336.729" y1="707.115" x2="336.230" y2="707.614"/>
<line x1="336.230" y1="707.614" x2="336.729" y2="708.114"/>
<line x1="336.729" y1="708.114" x2="337.228" y2="707.614"/>
<line x1="337.228" y1="707.614" x2="336.729" y2="707.115"/>
<line x1="348.714" y1="700.124" x2="348.714" y2="699.624"/>
<line x1="348.714" y1="699.624" x2="349.213" y2="698.626"/>
<line x1="349.213" y1="698.626" x2="349.713" y2="698.126"/>
<line x1="349.713" y1="698.126" x2="350.711" y2="697.627"/>
<line x1="350.711" y1="697.627" x2="352.709" y2="697.627"/>
<line x1="352.709" y1="697.627" x2="353.708" y2="698.126"/>
<line x1="353.708" y1="698.126" x2="354.207" y2="698.626"/>
<line x1="354.207" y1="698.626" x2="354.706" y2="699.624"/>
<line x1="354.706" y1="699.624" x2="354.706" y2="700.623"/>
<line x1="354.706" y1="700.623" x2="354.207" y2="701.622"/>
<line x1="354.207" y1="701.622" x2="353.208" y2="703.120"/>
<line x1="353.208" y1="703.120" x2="348.215" y2="708.114"/>
<line x1="348.215" y1="708.114" x2="355.206" y2="708.114"/>
<line x1="366.192" y1="697.627" x2="364.694" y2="698.126"/>
<line x1="364.694" y1="698.126" x2="363.695" y2="699.624"/>
<line x1="363.695" y1="699.624" x2="363.196" y2="702.121"/>
<line x1="363.196" y1="702.121" x2="363.196" y2="703.619"/>
<line x1="363.196" y1="703.619" x2="363.695" y2="706.116"/>
<line x1="363.695" y1="706.116" x2="364.694" y2="707.614"/>
<line x1="364.694" y1="707.614" x2="366.192" y2="708.114"/>
<line x1="366.192" y1="708.114" x2="367.191" y2="708.114"/>
<line x1="367.191" y1="708.114" x2="368.689" y2="707.614"/>
<line x1="368.689" y1="707.614" x2="369.688" y2="706.116"/>
<line x1="369.688" y1="706.116" x2="370.187" y2="703.619"/>
<line x1="370.187" y1="703.619" x2="370.187" y2="702.121"/>
<line x1="370.187" y1="702.121" x2="369.688" y2="699.624"/>
<line x1="369.688" y1="699.624" x2="368.689" y2="698.126"/>
<line x1="368.689" y1="698.126" x2="367.191" y2="697.627"/>
<line x1="367.191" y1="697.627" x2="366.192" y2="697.627"/>
</g>
<g transform="matrix(1 0 0 1 0 0)"
style="stroke:rgb(2,2,2);
stroke-width:1.0">
<line x1="491.435" y1="697.627" x2="489.937" y2="698.126"/>
<line x1="489.937" y1="698.126" x2="488.938" y2="699.624"/>
<line x1="488.938" y1="699.624" x2="488.439" y2="702.121"/>
<line x1="488.439" y1="702.121" x2="488.439" y2="703.619"/>
<line x1="488.439" y1="703.619" x2="488.938" y2="706.116"/>
<line x1="488.938" y1="706.116" x2="489.937" y2="707.614"/>
<line x1="489.937" y1="707.614" x2="491.435" y2="708.114"/>
<line x1="491.435" y1="708.114" x2="492.434" y2="708.114"/>
<line x1="492.434" y1="708.114" x2="493.932" y2="707.614"/>
<line x1="493.932" y1="707.614" x2="494.931" y2="706.116"/>
<line x1="494.931" y1="706.116" x2="495.430" y2="703.619"/>
<line x1="495.430" y1="703.619" x2="495.430" y2="702.121"/>
<line x1="495.430" y1="702.121" x2="494.931" y2="699.624"/>
<line x1="494.931" y1="699.624" x2="493.932" y2="698.126"/>
<line x1="493.932" y1="698.126" x2="492.434" y2="697.627"/>
<line x1="492.434" y1="697.627" x2="491.435" y2="697.627"/>
<line x1="506.916" y1="707.115" x2="506.417" y2="707.614"/>
<line x1="506.417" y1="707.614" x2="506.916" y2="708.114"/>
<line x1="506.916" y1="708.114" x2="507.415" y2="707.614"/>
<line x1="507.415" y1="707.614" x2="506.916" y2="707.115"/>
<line x1="523.395" y1="697.627" x2="518.401" y2="704.618"/>
<line x1="518.401" y1="704.618" x2="525.892" y2="704.618"/>
<line x1="523.395" y1="697.627" x2="523.395" y2="708.114"/>
<line x1="536.379" y1="697.627" x2="534.881" y2="698.126"/>
<line x1="534.881" y1="698.126" x2="533.882" y2="699.624"/>
<line x1="533.882" y1="699.624" x2="533.383" y2="702.121"/>
<line x1="533.383" y1="702.121" x2="533.383" y2="703.619"/>
<line x1="533.383" y1="703.619" x2="533.882" y2="706.116"/>
<line x1="533.882" y1="706.116" x2="534.881" y2="707.614"/>
<line x1="534.881" y1="707.614" x2="536.379" y2="708.114"/>
<line x1="536.379" y1="708.114" x2="537.378" y2="708.114"/>
<line x1="537.378" y1="708.114" x2="538.876" y2="707.614"/>
<line x1="538.876" y1="707.614" x2="539.875" y2="706.116"/>
<line x1="539.875" y1="706.116" x2="540.374" y2="703.619"/>
<line x1="540.374" y1="703.619" x2="540.374" y2="702.121"/>
<line x1="540.374" y1="702.121" x2="539.875" y2="699.624"/>
<line x1="539.875" y1="699.624" x2="538.876" y2="698.126"/>
<line x1="538.876" y1="698.126" x2="537.378" y2="697.627"/>
<line x1="537.378" y1="697.627" x2="536.379" y2="697.627"/>
</g>
<g transform="matrix(1 0 0 1 0 0)"
style="stroke:rgb(2,2,2);
stroke-width:1.0">
<line x1="661.622" y1="697.627" x2="660.124" y2="698.126"/>
<line x1="660.124" y1="698.126" x2="659.125" y2="699.624"/>
<line x1="659.125" y1="699.624" x2="658.626" y2="702.121"/>
<line x1="658.626" y1="702.121" x2="658.626" y2="703.619"/>
<line x1="658.626" y1="703.619" x2="659.125" y2="706.116"/>
<line x1="659.125" y1="706.116" x2="660.124" y2="707.614"/>
<line x1="660.124" y1="707.614" x2="661.622" y2="708.114"/>
<line x1="661.622" y1="708.114" x2="662.621" y2="708.114"/>
<line x1="662.621" y1="708.114" x2="664.119" y2="707.614"/>
<line x1="664.119" y1="707.614" x2="665.118" y2="706.116"/>
<line x1="665.118" y1="706.116" x2="665.617" y2="703.619"/>
<line x1="665.617" y1="703.619" x2="665.617" y2="702.121"/>
<line x1="665.617" y1="702.121" x2="665.118" y2="699.624"/>
<line x1="665.118" y1="699.624" x2="664.119" y2="698.126"/>
<line x1="664.119" y1="698.126" x2="662.621" y2="697.627"/>
<line x1="662.621" y1="697.627" x2="661.622" y2="697.627"/>
<line x1="677.103" y1="707.115" x2="676.604" y2="707.614"/>
<line x1="676.604" y1="707.614" x2="677.103" y2="708.114"/>
<line x1="677.103" y1="708.114" x2="677.602" y2="707.614"/>
<line x1="677.602" y1="707.614" x2="677.103" y2="707.115"/>
<line x1="695.080" y1="699.125" x2="694.581" y2="698.126"/>
<line x1="694.581" y1="698.126" x2="693.083" y2="697.627"/>
<line x1="693.083" y1="697.627" x2="692.084" y2="697.627"/>
<line x1="692.084" y1="697.627" x2="690.586" y2="698.126"/>
<line x1="690.586" y1="698.126" x2="689.587" y2="699.624"/>
<line x1="689.587" y1="699.624" x2="689.088" y2="702.121"/>
<line x1="689.088" y1="702.121" x2="689.088" y2="704.618"/>
<line x1="689.088" y1="704.618" x2="689.587" y2="706.616"/>
<line x1="689.587" y1="706.616" x2="690.586" y2="707.614"/>
<line x1="690.586" y1="707.614" x2="692.084" y2="708.114"/>
<line x1="692.084" y1="708.114" x2="692.584" y2="708.114"/>
<line x1="692.584" y1="708.114" x2="694.082" y2="707.614"/>
<line x1="694.082" y1="707.614" x2="695.080" y2="706.616"/>
<line x1="695.080" y1="706.616" x2="695.580" y2="705.117"/>
<line x1="695.580" y1="705.117" x2="695.580" y2="704.618"/>
<line x1="695.580" y1="704.618" x2="695.080" y2="703.120"/>
<line x1="695.080" y1="703.120" x2="694.082" y2="702.121"/>
<line x1="694.082" y1="702.121" x2="692.584" y2="701.622"/>
<line x1="692.584" y1="701.622" x2="692.084" y2="701.622"/>
<line x1="692.084" y1="701.622" x2="690.586" y2="702.121"/>
<line x1="690.586" y1="702.121" x2="689.587" y2="703.120"/>
<line x1="689.587" y1="703.120" x2="689.088" y2="704.618"/>
<line x1="706.566" y1="697.627" x2="705.068" y2="698.126"/>
<line x1="705.068" y1="698.126" x2="704.069" y2="699.624"/>
<line x1="704.069" y1="699.624" x2="703.570" y2="702.121"/>
<line x1="703.570" y1="702.121" x2="703.570" y2="703.619"/>
<line x1="703.570" y1="703.619" x2="704.069" y2="706.116"/>
<line x1="704.069" y1="706.116" x2="705.068" y2="707.614"/>
<line x1="705.068" y1="707.614" x2="706.566" y2="708.114"/>
<line x1="706.566" y1="708.114" x2="707.565" y2="708.114"/>
<line x1="707.565" y1="708.114" x2="709.063" y2="707.614"/>
<line x1="709.063" y1="707.614" x2="710.062" y2="706.116"/>
<line x1="710.062" y1="706.116" x2="710.561" y2="703.619"/>
<line x1="710.561" y1="703.619" x2="710.561" y2="702.121"/>
<line x1="710.561" y1="702.121" x2="710.062" y2="699.624"/>
<line x1="710.062" y1="699.624" x2="709.063" y2="698.126"/>
<line x1="709.063" y1="698.126" x2="707.565" y2="697.627"/>
<line x1="707.565" y1="697.627" x2="706.566" y2="697.627"/>
</g>
<g transform="matrix(1 0 0 1 0 0)"
style="stroke:rgb(2,2,2);
stroke-width:1.0">
<line x1="831.809" y1="697.627" x2="830.311" y2="698.126"/>
<line x1="830.311" y1="698.126" x2="829.312" y2="699.624"/>
<line x1="829.312" y1="699.624" x2="828.813" y2="702.121"/>
<line x1="828.813" y1="702.121" x2="828.813" y2="703.619"/>
<line x1="828.813" y1="703.619" x2="829.312" y2="706.116"/>
<line x1="829.312" y1="706.116" x2="830.311" y2="707.614"/>
<line x1="830.311" y1="707.614" x2="831.809" y2="708.114"/>
<line x1="831.809" y1="708.114" x2="832.808" y2="708.114"/>
<line x1="832.808" y1="708.114" x2="834.306" y2="707.614"/>
<line x1="834.306" y1="707.614" x2="835.305" y2="706.116"/>
<line x1="835.305" y1="706.116" x2="835.804" y2="703.619"/>
<line x1="835.804" y1="703.619" x2="835.804" y2="702.121"/>
<line x1="835.804" y1="702.121" x2="835.305" y2="699.624"/>
<line x1="835.305" y1="699.624" x2="834.306" y2="698.126"/>
<line x1="834.306" y1="698.126" x2="832.808" y2="697.627"/>
<line x1="832.808" y1="697.627" x2="831.809" y2="697.627"/>
<line x1="847.290" y1="707.115" x2="846.790" y2="707.614"/>
<line x1="846.790" y1="707.614" x2="847.290" y2="708.114"/>
<line x1="847.290" y1="708.114" x2="847.789" y2="707.614"/>
<line x1="847.789" y1="707.614" x2="847.290" y2="707.115"/>
<line x1="861.272" y1="697.627" x2="859.774" y2="698.126"/>
<line x1="859.774" y1="698.126" x2="859.275" y2="699.125"/>
<line x1="859.275" y1="699.125" x2="859.275" y2="700.124"/>
<line x1="859.275" y1="700.124" x2="859.774" y2="701.122"/>
<line x1="859.774" y1="701.122" x2="860.773" y2="701.622"/>
<line x1="860.773" y1="701.622" x2="862.771" y2="702.121"/>
<line x1="862.771" y1="702.121" x2="864.269" y2="702.621"/>
<line x1="864.269" y1="702.621" x2="865.267" y2="703.619"/>
<line x1="865.267" y1="703.619" x2="865.767" y2="704.618"/>
<line x1="865.767" y1="704.618" x2="865.767" y2="706.116"/>
<line x1="865.767" y1="706.116" x2="865.267" y2="707.115"/>
<line x1="865.267" y1="707.115" x2="864.768" y2="707.614"/>
<line x1="864.768" y1="707.614" x2="863.270" y2="708.114"/>
<line x1="863.270" y1="708.114" x2="861.272" y2="708.114"/>
<line x1="861.272" y1="708.114" x2="859.774" y2="707.614"/>
<line x1="859.774" y1="707.614" x2="859.275" y2="707.115"/>
<line x1="859.275" y1="707.115" x2="858.775" y2="706.116"/>
<line x1="858.775" y1="706.116" x2="858.775" y2="704.618"/>
<line x1="858.775" y1="704.618" x2="859.275" y2="703.619"/>
<line x1="859.275" y1="703.619" x2="860.274" y2="702.621"/>
<line x1="860.274" y1="702.621" x2="861.772" y2="702.121"/>
<line x1="861.772" y1="702.121" x2="863.769" y2="701.622"/>
<line x1="863.769" y1="701.622" x2="864.768" y2="701.122"/>
<line x1="864.768" y1="701.122" x2="865.267" y2="700.124"/>
<line x1="865.267" y1="700.124" x2="865.267" y2="699.125"/>
<line x1="865.267" y1="699.125" x2="864.768" y2="698.126"/>
<line x1="864.768" y1="698.126" x2="863.270" y2="697.627"/>
<line x1="863.270" y1="697.627" x2="861.272" y2="697.627"/>
<line x1="876.753" y1="697.627" x2="875.255" y2="698.126"/>
<line x1="875.255" y1="698.126" x2="874.256" y2="699.624"/>
<line x1="874.256" y1="699.624" x2="873.757" y2="702.121"/>
<line x1="873.757" y1="702.121" x2="873.757" y2="703.619"/>
<line x1="873.757" y1="703.619" x2="874.256" y2="706.116"/>
<line x1="874.256" y1="706.116" x2="875.255" y2="707.614"/>
<line x1="875.255" y1="707.614" x2="876.753" y2="708.114"/>
<line x1="876.753" y1="708.114" x2="877.752" y2="708.114"/>
<line x1="877.752" y1="708.114" x2="879.250" y2="707.614"/>
<line x1="879.250" y1="707.614" x2="880.249" y2="706.116"/>
<line x1="880.249" y1="706.116" x2="880.748" y2="703.619"/>
<line x1="880.748" y1="703.619" x2="880.748" y2="702.121"/>
<line x1="880.748" y1="702.121" x2="880.249" y2="699.624"/>
<line x1="880.249" y1="699.624" x2="879.250" y2="698.126"/>
<line x1="879.250" y1="698.126" x2="877.752" y2="697.627"/>
<line x1="877.752" y1="697.627" x2="876.753" y2="697.627"/>
</g>
<g transform="matrix(1 0 0 1 0 0)"
style="stroke:rgb(2,2,2);
stroke-width:1.0">
<line x1="1000.498" y1="699.624" x2="1001.497" y2="699.125"/>
<line x1="1001.497" y1="699.125" x2="1002.995" y2="697.627"/>
<line x1="1002.995" y1="697.627" x2="1002.995" y2="708.114"/>
<line x1="1017.477" y1="707.115" x2="1016.977" y2="707.614"/>
<line x1="1016.977" y1="707.614" x2="1017.477" y2="708.114"/>
<line x1="1017.477" y1="708.114" x2="1017.976" y2="707.614"/>
<line x1="1017.976" y1="707.614" x2="1017.477" y2="707.115"/>
<line x1="1031.959" y1="697.627" x2="1030.461" y2="698.126"/>
<line x1="1030.461" y1="698.126" x2="1029.462" y2="699.624"/>
<line x1="1029.462" y1="699.624" x2="1028.962" y2="702.121"/>
<line x1="1028.962" y1="702.121" x2="1028.962" y2="703.619"/>
<line x1="1028.962" y1="703.619" x2="1029.462" y2="706.116"/>
<line x1="1029.462" y1="706.116" x2="1030.461" y2="707.614"/>
<line x1="1030.461" y1="707.614" x2="1031.959" y2="708.114"/>
<line x1="1031.959" y1="708.114" x2="1032.958" y2="708.114"/>
<line x1="1032.958" y1="708.114" x2="1034.456" y2="707.614"/>
<line x1="1034.456" y1="707.614" x2="1035.454" y2="706.116"/>
<line x1="1035.454" y1="706.116" x2="1035.954" y2="703.619"/>
<line x1="1035.954" y1="703.619" x2="1035.954" y2="702.121"/>
<line x1="1035.954" y1="702.121" x2="1035.454" y2="699.624"/>
<line x1="1035.454" y1="699.624" x2="1034.456" y2="698.126"/>
<line x1="1034.456" y1="698.126" x2="1032.958" y2="697.627"/>
<line x1="1032.958" y1="697.627" x2="1031.959" y2="697.627"/>
<line x1="1046.940" y1="697.627" x2="1045.442" y2="698.126"/>
<line x1="1045.442" y1="698.126" x2="1044.443" y2="699.624"/>
<line x1="1044.443" y1="699.624" x2="1043.944" y2="702.121"/>
<line x1="1043.944" y1="702.121" x2="1043.944" y2="703.619"/>
<line x1="1043.944" y1="703.619" x2="1044.443" y2="706.116"/>
<line x1="1044.443" y1="706.116" x2="1045.442" y2="707.614"/>
<line x1="1045.442" y1="707.614" x2="1046.940" y2="708.114"/>
<line x1="1046.940" y1="708.114" x2="1047.939" y2="708.114"/>
<line x1="1047.939" y1="708.114" x2="1049.437" y2="707.614"/>
<line x1="1049.437" y1="707.614" x2="1050.435" y2="706.116"/>
<line x1="1050.435" y1="706.116" x2="1050.935" y2="703.619"/>
<line x1="1050.935" y1="703.619" x2="1050.935" y2="702.121"/>
<line x1="1050.935" y1="702.121" x2="1050.435" y2="699.624"/>
<line x1="1050.435" y1="699.624" x2="1049.437" y2="698.126"/>
<line x1="1049.437" y1="698.126" x2="1047.939" y2="697.627"/>
<line x1="1047.939" y1="697.627" x2="1046.940" y2="697.627"/>
</g>
<g transform="matrix(1 0 0 1 0 0)"
style="stroke:rgb(2,2,2);
stroke-width:1.0">
<line x1="103.121" y1="677.652" x2="101.623" y2="678.151"/>
<line x1="101.623" y1="678.151" x2="100.624" y2="679.649"/>
<line x1="100.624" y1="679.649" x2="100.125" y2="682.146"/>
<line x1="100.125" y1="682.146" x2="100.125" y2="683.644"/>
<line x1="100.125" y1="683.644" x2="100.624" y2="686.141"/>
<line x1="100.624" y1="686.141" x2="101.623" y2="687.639"/>
<line x1="101.623" y1="687.639" x2="103.121" y2="688.139"/>
<line x1="103.121" y1="688.139" x2="104.120" y2="688.139"/>
<line x1="104.120" y1="688.139" x2="105.618" y2="687.639"/>
<line x1="105.618" y1="687.639" x2="106.617" y2="686.141"/>
<line x1="106.617" y1="686.141" x2="107.116" y2="683.644"/>
<line x1="107.116" y1="683.644" x2="107.116" y2="682.146"/>
<line x1="107.116" y1="682.146" x2="106.617" y2="679.649"/>
<line x1="106.617" y1="679.649" x2="105.618" y2="678.151"/>
<line x1="105.618" y1="678.151" x2="104.120" y2="677.652"/>
<line x1="104.120" y1="677.652" x2="103.121" y2="677.652"/>
<line x1="118.602" y1="687.140" x2="118.103" y2="687.639"/>
<line x1="118.103" y1="687.639" x2="118.602" y2="688.139"/>
<line x1="118.602" y1="688.139" x2="119.101" y2="687.639"/>
<line x1="119.101" y1="687.639" x2="118.602" y2="687.140"/>
<line x1="133.084" y1="677.652" x2="131.586" y2="678.151"/>
<line x1="131.586" y1="678.151" x2="130.587" y2="679.649"/>
<line x1="130.587" y1="679.649" x2="130.088" y2="682.146"/>
<line x1="130.088" y1="682.146" x2="130.088" y2="683.644"/>
<line x1="130.088" y1="683.644" x2="130.587" y2="686.141"/>
<line x1="130.587" y1="686.141" x2="131.586" y2="687.639"/>
<line x1="131.586" y1="687.639" x2="133.084" y2="688.139"/>
<line x1="133.084" y1="688.139" x2="134.083" y2="688.139"/>
<line x1="134.083" y1="688.139" x2="135.581" y2="687.639"/>
<line x1="135.581" y1="687.639" x2="136.579" y2="686.141"/>
<line x1="136.579" y1="686.141" x2="137.079" y2="683.644"/>
<line x1="137.079" y1="683.644" x2="137.079" y2="682.146"/>
<line x1="137.079" y1="682.146" x2="136.579" y2="679.649"/>
<line x1="136.579" y1="679.649" x2="135.581" y2="678.151"/>
<line x1="135.581" y1="678.151" x2="134.083" y2="677.652"/>
<line x1="134.083" y1="677.652" x2="133.084" y2="677.652"/>
<line x1="148.065" y1="677.652" x2="146.567" y2="678.151"/>
<line x1="146.567" y1="678.151" x2="145.568" y2="679.649"/>
<line x1="145.568" y1="679.649" x2="145.069" y2="682.146"/>
<line x1="145.069" y1="682.146" x2="145.069" y2="683.644"/>
<line x1="145.069" y1="683.644" x2="145.568" y2="686.141"/>
<line x1="145.568" y1="686.141" x2="146.567" y2="687.639"/>
<line x1="146.567" y1="687.639" x2="148.065" y2="688.139"/>
<line x1="148.065" y1="688.139" x2="149.064" y2="688.139"/>
<line x1="149.064" y1="688.139" x2="150.562" y2="687.639"/>
<line x1="150.562" y1="687.639" x2="151.561" y2="686.141"/>
<line x1="151.561" y1="686.141" x2="152.060" y2="683.644"/>
<line x1="152.060" y1="683.644" x2="152.060" y2="682.146"/>
<line x1="152.060" y1="682.146" x2="151.561" y2="679.649"/>
<line x1="151.561" y1="679.649" x2="150.562" y2="678.151"/>
<line x1="150.562" y1="678.151" x2="149.064" y2="677.652"/>
<line x1="149.064" y1="677.652" x2="148.065" y2="677.652"/>
</g>
<g transform="matrix(1 0 0 1 0 0)"
style="stroke:rgb(2,2,2);
stroke-width:1.0">
<line x1="103.121" y1="564.194" x2="101.623" y2="564.693"/>
<line x1="101.623" y1="564.693" x2="100.624" y2="566.191"/>
<line x1="100.624" y1="566.191" x2="100.125" y2="568.688"/>
<line x1="100.125" y1="568.688" x2="100.125" y2="570.186"/>
<line x1="100.125" y1="570.186" x2="100.624" y2="572.683"/>
<line x1="100.624" y1="572.683" x2="101.623" y2="574.181"/>
<line x1="101.623" y1="574.181" x2="103.121" y2="574.681"/>
<line x1="103.121" y1="574.681" x2="104.120" y2="574.681"/>
<line x1="104.120" y1="574.681" x2="105.618" y2="574.181"/>
<line x1="105.618" y1="574.181" x2="106.617" y2="572.683"/>
<line x1="106.617" y1="572.683" x2="107.116" y2="570.186"/>
<line x1="107.116" y1="570.186" x2="107.116" y2="568.688"/>
<line x1="107.116" y1="568.688" x2="106.617" y2="566.191"/>
<line x1="106.617" y1="566.191" x2="105.618" y2="564.693"/>
<line x1="105.618" y1="564.693" x2="104.120" y2="564.194"/>
<line x1="104.120" y1="564.194" x2="103.121" y2="564.194"/>
<line x1="118.602" y1="573.682" x2="118.103" y2="574.181"/>
<line x1="118.103" y1="574.181" x2="118.602" y2="574.681"/>
<line x1="118.602" y1="574.681" x2="119.101" y2="574.181"/>
<line x1="119.101" y1="574.181" x2="118.602" y2="573.682"/>
<line x1="130.587" y1="566.691" x2="130.587" y2="566.191"/>
<line x1="130.587" y1="566.191" x2="131.086" y2="565.193"/>
<line x1="131.086" y1="565.193" x2="131.586" y2="564.693"/>
<line x1="131.586" y1="564.693" x2="132.584" y2="564.194"/>
<line x1="132.584" y1="564.194" x2="134.582" y2="564.194"/>
<line x1="134.582" y1="564.194" x2="135.581" y2="564.693"/>
<line x1="135.581" y1="564.693" x2="136.080" y2="565.193"/>
<line x1="136.080" y1="565.193" x2="136.579" y2="566.191"/>
<line x1="136.579" y1="566.191" x2="136.579" y2="567.190"/>
<line x1="136.579" y1="567.190" x2="136.080" y2="568.189"/>
<line x1="136.080" y1="568.189" x2="135.081" y2="569.687"/>
<line x1="135.081" y1="569.687" x2="130.088" y2="574.681"/>
<line x1="130.088" y1="574.681" x2="137.079" y2="574.681"/>
<line x1="148.065" y1="564.194" x2="146.567" y2="564.693"/>
<line x1="146.567" y1="564.693" x2="145.568" y2="566.191"/>
<line x1="145.568" y1="566.191" x2="145.069" y2="568.688"/>
<line x1="145.069" y1="568.688" x2="145.069" y2="570.186"/>
<line x1="145.069" y1="570.186" x2="145.568" y2="572.683"/>
<line x1="145.568" y1="572.683" x2="146.567" y2="574.181"/>
<line x1="146.567" y1="574.181" x2="148.065" y2="574.681"/>
<line x1="148.065" y1="574.681" x2="149.064" y2="574.681"/>
<line x1="149.064" y1="574.681" x2="150.562" y2="574.181"/>
<line x1="150.562" y1="574.181" x2="151.561" y2="572.683"/>
<line x1="151.561" y1="572.683" x2="152.060" y2="570.186"/>
<line x1="152.060" y1="570.186" x2="152.060" y2="568.688"/>
<line x1="152.060" y1="568.688" x2="151.561" y2="566.191"/>
<line x1="151.561" y1="566.191" x2="150.562" y2="564.693"/>
<line x1="150.562" y1="564.693" x2="149.064" y2="564.194"/>
<line x1="149.064" y1="564.194" x2="148.065" y2="564.194"/>
</g>
<g transform="matrix(1 0 0 1 0 0)"
style="stroke:rgb(2,2,2);
stroke-width:1.0">
<line x1="103.121" y1="450.736" x2="101.623" y2="451.235"/>
<line x1="101.623" y1="451.235" x2="100.624" y2="452.733"/>
<line x1="100.624" y1="452.733" x2="100.125" y2="455.230"/>
<line x1="100.125" y1="455.230" x2="100.125" y2="456.728"/>
<line x1="100.125" y1="456.728" x2="100.624" y2="459.225"/>
<line x1="100.624" y1="459.225" x2="101.623" y2="460.723"/>
<line x1="101.623" y1="460.723" x2="103.121" y2="461.223"/>
<line x1="103.121" y1="461.223" x2="104.120" y2="461.223"/>
<line x1="104.120" y1="461.223" x2="105.618" y2="460.723"/>
<line x1="105.618" y1="460.723" x2="106.617" y2="459.225"/>
<line x1="106.617" y1="459.225" x2="107.116" y2="456.728"/>
<line x1="107.116" y1="456.728" x2="107.116" y2="455.230"/>
<line x1="107.116" y1="455.230" x2="106.617" y2="452.733"/>
<line x1="106.617" y1="452.733" x2="105.618" y2="451.235"/>
<line x1="105.618" y1="451.235" x2="104.120" y2="450.736"/>
<line x1="104.120" y1="450.736" x2="103.121" y2="450.736"/>
<line x1="118.602" y1="460.224" x2="118.103" y2="460.723"/>
<line x1="118.103" y1="460.723" x2="118.602" y2="461.223"/>
<line x1="118.602" y1="461.223" x2="119.101" y2="460.723"/>
<line x1="119.101" y1="460.723" x2="118.602" y2="460.224"/>
<line x1="135.081" y1="450.736" x2="130.088" y2="457.727"/>
<line x1="130.088" y1="457.727" x2="137.578" y2="457.727"/>
<line x1="135.081" y1="450.736" x2="135.081" y2="461.223"/>
<line x1="148.065" y1="450.736" x2="146.567" y2="451.235"/>
<line x1="146.567" y1="451.235" x2="145.568" y2="452.733"/>
<line x1="145.568" y1="452.733" x2="145.069" y2="455.230"/>
<line x1="145.069" y1="455.230" x2="145.069" y2="456.728"/>
<line x1="145.069" y1="456.728" x2="145.568" y2="459.225"/>
<line x1="145.568" y1="459.225" x2="146.567" y2="460.723"/>
<line x1="146.567" y1="460.723" x2="148.065" y2="461.223"/>
<line x1="148.065" y1="461.223" x2="149.064" y2="461.223"/>
<line x1="149.064" y1="461.223" x2="150.562" y2="460.723"/>
<line x1="150.562" y1="460.723" x2="151.561" y2="459.225"/>
<line x1="151.561" y1="459.225" x2="152.060" y2="456.728"/>
<line x1="152.060" y1="456.728" x2="152.060" y2="455.230"/>
<line x1="152.060" y1="455.230" x2="151.561" y2="452.733"/>
<line x1="151.561" y1="452.733" x2="150.562" y2="451.235"/>
<line x1="150.562" y1="451.235" x2="149.064" y2="450.736"/>
<line x1="149.064" y1="450.736" x2="148.065" y2="450.736"/>
</g>
<g transform="matrix(1 0 0 1 0 0)"
style="stroke:rgb(2,2,2);
stroke-width:1.0">
<line x1="103.121" y1="337.278" x2="101.623" y2="337.777"/>
<line x1="101.623" y1="337.777" x2="100.624" y2="339.275"/>
<line x1="100.624" y1="339.275" x2="100.125" y2="341.772"/>
<line x1="100.125" y1="341.772" x2="100.125" y2="343.270"/>
<line x1="100.125" y1="343.270" x2="100.624" y2="345.767"/>
<line x1="100.624" y1="345.767" x2="101.623" y2="347.265"/>
<line x1="101.623" y1="347.265" x2="103.121" y2="347.765"/>
<line x1="103.121" y1="347.765" x2="104.120" y2="347.765"/>
<line x1="104.120" y1="347.765" x2="105.618" y2="347.265"/>
<line x1="105.618" y1="347.265" x2="106.617" y2="345.767"/>
<line x1="106.617" y1="345.767" x2="107.116" y2="343.270"/>
<line x1="107.116" y1="343.270" x2="107.116" y2="341.772"/>
<line x1="107.116" y1="341.772" x2="106.617" y2="339.275"/>
<line x1="106.617" y1="339.275" x2="105.618" y2="337.777"/>
<line x1="105.618" y1="337.777" x2="104.120" y2="337.278"/>
<line x1="104.120" y1="337.278" x2="103.121" y2="337.278"/>
<line x1="118.602" y1="346.766" x2="118.103" y2="347.265"/>
<line x1="118.103" y1="347.265" x2="118.602" y2="347.765"/>
<line x1="118.602" y1="347.765" x2="119.101" y2="347.265"/>
<line x1="119.101" y1="347.265" x2="118.602" y2="346.766"/>
<line x1="136.579" y1="338.776" x2="136.080" y2="337.777"/>
<line x1="136.080" y1="337.777" x2="134.582" y2="337.278"/>
<line x1="134.582" y1="337.278" x2="133.583" y2="337.278"/>
<line x1="133.583" y1="337.278" x2="132.085" y2="337.777"/>
<line x1="132.085" y1="337.777" x2="131.086" y2="339.275"/>
<line x1="131.086" y1="339.275" x2="130.587" y2="341.772"/>
<line x1="130.587" y1="341.772" x2="130.587" y2="344.269"/>
<line x1="130.587" y1="344.269" x2="131.086" y2="346.267"/>
<line x1="131.086" y1="346.267" x2="132.085" y2="347.265"/>
<line x1="132.085" y1="347.265" x2="133.583" y2="347.765"/>
<line x1="133.583" y1="347.765" x2="134.083" y2="347.765"/>
<line x1="134.083" y1="347.765" x2="135.581" y2="347.265"/>
<line x1="135.581" y1="347.265" x2="136.579" y2="346.267"/>
<line x1="136.579" y1="346.267" x2="137.079" y2="344.769"/>
<line x1="137.079" y1="344.769" x2="137.079" y2="344.269"/>
<line x1="137.079" y1="344.269" x2="136.579" y2="342.771"/>
<line x1="136.579" y1="342.771" x2="135.581" y2="341.772"/>
<line x1="135.581" y1="341.772" x2="134.083" y2="341.273"/>
<line x1="134.083" y1="341.273" x2="133.583" y2="341.273"/>
<line x1="133.583" y1="341.273" x2="132.085" y2="341.772"/>
<line x1="132.085" y1="341.772" x2="131.086" y2="342.771"/>
<line x1="131.086" y1="342.771" x2="130.587" y2="344.269"/>
<line x1="148.065" y1="337.278" x2="146.567" y2="337.777"/>
<line x1="146.567" y1="337.777" x2="145.568" y2="339.275"/>
<line x1="145.568" y1="339.275" x2="145.069" y2="341.772"/>
<line x1="145.069" y1="341.772" x2="145.069" y2="343.270"/>
<line x1="145.069" y1="343.270" x2="145.568" y2="345.767"/>
<line x1="145.568" y1="345.767" x2="146.567" y2="347.265"/>
<line x1="146.567" y1="347.265" x2="148.065" y2="347.765"/>
<line x1="148.065" y1="347.765" x2="149.064" y2="347.765"/>
<line x1="149.064" y1="347.765" x2="150.562" y2="347.265"/>
<line x1="150.562" y1="347.265" x2="151.561" y2="345.767"/>
<line x1="151.561" y1="345.767" x2="152.060" y2="343.270"/>
<line x1="152.060" y1="343.270" x2="152.060" y2="341.772"/>
<line x1="152.060" y1="341.772" x2="151.561" y2="339.275"/>
<line x1="151.561" y1="339.275" x2="150.562" y2="337.777"/>
<line x1="150.562" y1="337.777" x2="149.064" y2="337.278"/>
<line x1="149.064" y1="337.278" x2="148.065" y2="337.278"/>
</g>
<g transform="matrix(1 0 0 1 0 0)"
style="stroke:rgb(2,2,2);
stroke-width:1.0">
<line x1="103.121" y1="223.820" x2="101.623" y2="224.319"/>
<line x1="101.623" y1="224.319" x2="100.624" y2="225.817"/>
<line x1="100.624" y1="225.817" x2="100.125" y2="228.314"/>
<line x1="100.125" y1="228.314" x2="100.125" y2="229.812"/>
<line x1="100.125" y1="229.812" x2="100.624" y2="232.309"/>
<line x1="100.624" y1="232.309" x2="101.623" y2="233.807"/>
<line x1="101.623" y1="233.807" x2="103.121" y2="234.307"/>
<line x1="103.121" y1="234.307" x2="104.120" y2="234.307"/>
<line x1="104.120" y1="234.307" x2="105.618" y2="233.807"/>
<line x1="105.618" y1="233.807" x2="106.617" y2="232.309"/>
<line x1="106.617" y1="232.309" x2="107.116" y2="229.812"/>
<line x1="107.116" y1="229.812" x2="107.116" y2="228.314"/>
<line x1="107.116" y1="228.314" x2="106.617" y2="225.817"/>
<line x1="106.617" y1="225.817" x2="105.618" y2="224.319"/>
<line x1="105.618" y1="224.319" x2="104.120" y2="223.820"/>
<line x1="104.120" y1="223.820" x2="103.121" y2="223.820"/>
<line x1="118.602" y1="233.308" x2="118.103" y2="233.807"/>
<line x1="118.103" y1="233.807" x2="118.602" y2="234.307"/>
<line x1="118.602" y1="234.307" x2="119.101" y2="233.807"/>
<line x1="119.101" y1="233.807" x2="118.602" y2="233.308"/>
<line x1="132.584" y1="223.820" x2="131.086" y2="224.319"/>
<line x1="131.086" y1="224.319" x2="130.587" y2="225.318"/>
<line x1="130.587" y1="225.318" x2="130.587" y2="226.317"/>
<line x1="130.587" y1="226.317" x2="131.086" y2="227.315"/>
<line x1="131.086" y1="227.315" x2="132.085" y2="227.815"/>
<line x1="132.085" y1="227.815" x2="134.083" y2="228.314"/>
<line x1="134.083" y1="228.314" x2="135.581" y2="228.814"/>
<line x1="135.581" y1="228.814" x2="136.579" y2="229.812"/>
<line x1="136.579" y1="229.812" x2="137.079" y2="230.811"/>
<line x1="137.079" y1="230.811" x2="137.079" y2="232.309"/>
<line x1="137.079" y1="232.309" x2="136.579" y2="233.308"/>
<line x1="136.579" y1="233.308" x2="136.080" y2="233.807"/>
<line x1="136.080" y1="233.807" x2="134.582" y2="234.307"/>
<line x1="134.582" y1="234.307" x2="132.584" y2="234.307"/>
<line x1="132.584" y1="234.307" x2="131.086" y2="233.807"/>
<line x1="131.086" y1="233.807" x2="130.587" y2="233.308"/>
<line x1="130.587" y1="233.308" x2="130.088" y2="232.309"/>
<line x1="130.088" y1="232.309" x2="130.088" y2="230.811"/>
<line x1="130.088" y1="230.811" x2="130.587" y2="229.812"/>
<line x1="130.587" y1="229.812" x2="131.586" y2="228.814"/>
<line x1="131.586" y1="228.814" x2="133.084" y2="228.314"/>
<line x1="133.084" y1="228.314" x2="135.081" y2="227.815"/>
<line x1="135.081" y1="227.815" x2="136.080" y2="227.315"/>
<line x1="136.080" y1="227.315" x2="136.579" y2="226.317"/>
<line x1="136.579" y1="226.317" x2="136.579" y2="225.318"/>
<line x1="136.579" y1="225.318" x2="136.080" y2="224.319"/>
<line x1="136.080" y1="224.319" x2="134.582" y2="223.820"/>
<line x1="134.582" y1="223.820" x2="132.584" y2="223.820"/>
<line x1="148.065" y1="223.820" x2="146.567" y2="224.319"/>
<line x1="146.567" y1="224.319" x2="145.568" y2="225.817"/>
<line x1="145.568" y1="225.817" x2="145.069" y2="228.314"/>
<line x1="145.069" y1="228.314" x2="145.069" y2="229.812"/>
<line x1="145.069" y1="229.812" x2="145.568" y2="232.309"/>
<line x1="145.568" y1="232.309" x2="146.567" y2="233.807"/>
<line x1="146.567" y1="233.807" x2="148.065" y2="234.307"/>
<line x1="148.065" y1="234.307" x2="149.064" y2="234.307"/>
<line x1="149.064" y1="234.307" x2="150.562" y2="233.807"/>
<line x1="150.562" y1="233.807" x2="151.561" y2="232.309"/>
<line x1="151.561" y1="232.309" x2="152.060" y2="229.812"/>
<line x1="152.060" y1="229.812" x2="152.060" y2="228.314"/>
<line x1="152.060" y1="228.314" x2="151.561" y2="225.817"/>
<line x1="151.561" y1="225.817" x2="150.562" y2="224.319"/>
<line x1="150.562" y1="224.319" x2="149.064" y2="223.820"/>
<line x1="149.064" y1="223.820" x2="148.065" y2="223.820"/>
</g>
<g transform="matrix(1 0 0 1 0 0)"
style="stroke:rgb(2,2,2);
stroke-width:1.0">
<line x1="101.623" y1="112.359" x2="102.622" y2="111.860"/>
<line x1="102.622" y1="111.860" x2="104.120" y2="110.362"/>
<line x1="104.120" y1="110.362" x2="104.120" y2="120.849"/>
<line x1="118.602" y1="119.850" x2="118.103" y2="120.349"/>
<line x1="118.103" y1="120.349" x2="118.602" y2="120.849"/>
<line x1="118.602" y1="120.849" x2="119.101" y2="120.349"/>
<line x1="119.101" y1="120.349" x2="118.602" y2="119.850"/>
<line x1="133.084" y1="110.362" x2="131.586" y2="110.861"/>
<line x1="131.586" y1="110.861" x2="130.587" y2="112.359"/>
<line x1="130.587" y1="112.359" x2="130.088" y2="114.856"/>
<line x1="130.088" y1="114.856" x2="130.088" y2="116.354"/>
<line x1="130.088" y1="116.354" x2="130.587" y2="118.851"/>
<line x1="130.587" y1="118.851" x2="131.586" y2="120.349"/>
<line x1="131.586" y1="120.349" x2="133.084" y2="120.849"/>
<line x1="133.084" y1="120.849" x2="134.083" y2="120.849"/>
<line x1="134.083" y1="120.849" x2="135.581" y2="120.349"/>
<line x1="135.581" y1="120.349" x2="136.579" y2="118.851"/>
<line x1="136.579" y1="118.851" x2="137.079" y2="116.354"/>
<line x1="137.079" y1="116.354" x2="137.079" y2="114.856"/>
<line x1="137.079" y1="114.856" x2="136.579" y2="112.359"/>
<line x1="136.579" y1="112.359" x2="135.581" y2="110.861"/>
<line x1="135.581" y1="110.861" x2="134.083" y2="110.362"/>
<line x1="134.083" y1="110.362" x2="133.084" y2="110.362"/>
<line x1="148.065" y1="110.362" x2="146.567" y2="110.861"/>
<line x1="146.567" y1="110.861" x2="145.568" y2="112.359"/>
<line x1="145.568" y1="112.359" x2="145.069" y2="114.856"/>
<line x1="145.069" y1="114.856" x2="145.069" y2="116.354"/>
<line x1="145.069" y1="116.354" x2="145.568" y2="118.851"/>
<line x1="145.568" y1="118.851" x2="146.567" y2="120.349"/>
<line x1="146.567" y1="120.349" x2="148.065" y2="120.849"/>
<line x1="148.065" y1="120.849" x2="149.064" y2="120.849"/>
<line x1="149.064" y1="120.849" x2="150.562" y2="120.349"/>
<line x1="150.562" y1="120.349" x2="151.561" y2="118.851"/>
<line x1="151.561" y1="118.851" x2="152.060" y2="116.354"/>
<line x1="152.060" y1="116.354" x2="152.060" y2="114.856"/>
<line x1="152.060" y1="114.856" x2="151.561" y2="112.359"/>
<line x1="151.561" y1="112.359" x2="150.562" y2="110.861"/>
<line x1="150.562" y1="110.861" x2="149.064" y2="110.362"/>
<line x1="149.064" y1="110.362" x2="148.065" y2="110.362"/>
</g>
<g transform="matrix(1 0 0 1 0 0)"
style="stroke:rgb(2,2,2);
stroke-width:1.0">
<line x1="174.033" y1="683.145" x2="1024.968" y2="683.145"/>
<line x1="1024.968" y1="683.145" x2="1024.968" y2="115.855"/>
<line x1="1024.968" y1="115.855" x2="174.033" y2="115.855"/>
<line x1="174.033" y1="115.855" x2="174.033" y2="683.145"/>
</g>
<g transform="matrix(1 0 0 1 0 0)"
style="stroke:rgb(2,2,2);
stroke-width:1.0">
<line x1="174.033" y1="683.145" x2="1024.968" y2="683.145"/>
</g>
<g transform="matrix(1 0 0 1 0 0)"
style="stroke:rgb(2,2,2);
stroke-width:1.0">
<line x1="174.033" y1="683.145" x2="174.033" y2="115.855"/>
</g>
<g transform="matrix(1 0 0 1 0 0)"
style="stroke:rgb(0,0,0);
stroke-width:1.0">
<line x1="0.500" y1="798.500" x2="1198.500" y2="798.500"/>
<line x1="1198.500" y1="798.500" x2="1198.500" y2="0.500"/>
<line x1="1198.500" y1="0.500" x2="0.500" y2="0.500"/>
<line x1="0.500" y1="0.500" x2="0.500" y2="798.500"/>
</g>
</svg>
