<svg 
xmlns="http://www.w3.org/2000/svg"                   
width="1199"
height="799"
viewBox="0 0 1200 800">
<g transform="matrix(1 0 0 1 0 0)"
style="stroke:rgb(204,25,25);
stroke-width:1.0">
<line x1="174.033" y1="683.145" x2="259.126" y2="677.472"/>
<line x1="259.126" y1="677.472" x2="344.220" y2="660.453"/>
<line x1="344.220" y1="660.453" x2="429.313" y2="632.089"/>
<line x1="429.313" y1="632.089" x2="514.406" y2="592.379"/>
<line x1="514.406" y1="592.379" x2="599.500" y2="541.323"/>
<line x1="599.500" y1="541.323" x2="684.594" y2="478.921"/>
<line x1="684.594" y1="478.921" x2="769.687" y2="405.173"/>
<line x1="769.687" y1="405.173" x2="854.781" y2="320.079"/>
<line x1="854.781" y1="320.079" x2="939.874" y2="223.640"/>
<line x1="939.874" y1="223.640" x2="1024.967" y2="115.855"/>
<line x1="174.033" y1="683.145" x2="176.869" y2="683.145"/>
<line x1="256.290" y1="680.876" x2="261.962" y2="680.876"/>
<line x1="259.126" y1="680.876" x2="259.126" y2="675.203"/>
<line x1="256.290" y1="675.203" x2="261.962" y2="675.203"/>
<line x1="344.220" y1="683.145" x2="344.220" y2="654.781"/>
<line x1="341.383" y1="654.781" x2="347.056" y2="654.781"/>
<line x1="426.477" y1="650.242" x2="432.149" y2="650.242"/>
<line x1="429.313" y1="650.242" x2="429.313" y2="608.830"/>
<line x1="426.477" y1="608.830" x2="432.149" y2="608.830"/>
<line x1="511.570" y1="616.772" x2="517.243" y2="616.772"/>
<line x1="514.406" y1="616.772" x2="514.406" y2="545.294"/>
<line x1="511.570" y1="545.294" x2="517.243" y2="545.294"/>
<line x1="596.664" y1="592.379" x2="602.336" y2="592.379"/>
<line x1="599.500" y1="592.379" x2="599.500" y2="533.948"/>
<line x1="596.664" y1="533.948" x2="602.336" y2="533.948"/>
<line x1="681.757" y1="491.401" x2="687.430" y2="491.401"/>
<line x1="684.594" y1="491.401" x2="684.594" y2="466.440"/>
<line x1="681.757" y1="466.440" x2="687.430" y2="466.440"/>
<line x1="766.851" y1="417.086" x2="772.523" y2="417.086"/>
<line x1="769.687" y1="417.086" x2="769.687" y2="386.452"/>
<line x1="766.851" y1="386.452" x2="772.523" y2="386.452"/>
<line x1="851.944" y1="357.521" x2="857.617" y2="357.521"/>
<line x1="854.781" y1="357.521" x2="854.781" y2="289.446"/>
<line x1="851.944" y1="289.446" x2="857.617" y2="289.446"/>
<line x1="937.037" y1="241.793" x2="942.710" y2="241.793"/>
<line x1="939.874" y1="241.793" x2="939.874" y2="186.766"/>
<line x1="937.037" y1="186.766" x2="942.710" y2="186.766"/>
<line x1="1022.131" y1="144.220" x2="1024.968" y2="144.220"/>
<line x1="1024.967" y1="144.220" x2="1024.967" y2="115.855"/>
</g>
<g transform="matrix(1 0 0 1 0 0)"
style="stroke:rgb(2,2,2);
stroke-width:1.0">
<line x1="380.324" y1="46.742" x2="388.015" y2="56.529"/>
<line x1="388.015" y1="46.742" x2="380.324" y2="56.529"/>
<line x1="391.231" y1="41.149" x2="391.231" y2="40.869"/>
<line x1="391.231" y1="40.869" x2="391.510" y2="40.310"/>
<line x1="391.510" y1="40.310" x2="391.790" y2="40.030"/>
<line x1="391.790" y1="40.030" x2="392.349" y2="39.750"/>
<line x1="392.349" y1="39.750" x2="393.468" y2="39.750"/>
<line x1="393.468" y1="39.750" x2="394.027" y2="40.030"/>
<line x1="394.027" y1="40.030" x2="394.307" y2="40.310"/>
<line x1="394.307" y1="40.310" x2="394.586" y2="40.869"/>
<line x1="394.586" y1="40.869" x2="394.586" y2="41.428"/>
<line x1="394.586" y1="41.428" x2="394.307" y2="41.987"/>
<line x1="394.307" y1="41.987" x2="393.747" y2="42.826"/>
<line x1="393.747" y1="42.826" x2="390.951" y2="45.623"/>
<line x1="390.951" y1="45.623" x2="394.866" y2="45.623"/>
<line x1="411.086" y1="46.742" x2="413.882" y2="56.529"/>
<line x1="416.679" y1="46.742" x2="413.882" y2="56.529"/>
<line x1="416.679" y1="46.742" x2="419.475" y2="56.529"/>
<line x1="422.272" y1="46.742" x2="419.475" y2="56.529"/>
<line x1="426.467" y1="41.848" x2="427.166" y2="42.547"/>
<line x1="427.166" y1="42.547" x2="427.865" y2="41.848"/>
<line x1="427.865" y1="41.848" x2="427.166" y2="41.149"/>
<line x1="427.166" y1="41.149" x2="426.467" y2="41.848"/>
<line x1="427.166" y1="46.742" x2="427.166" y2="56.529"/>
<line x1="433.458" y1="41.848" x2="433.458" y2="53.733"/>
<line x1="433.458" y1="53.733" x2="434.157" y2="55.830"/>
<line x1="434.157" y1="55.830" x2="435.555" y2="56.529"/>
<line x1="435.555" y1="56.529" x2="436.953" y2="56.529"/>
<line x1="431.360" y1="46.742" x2="436.254" y2="46.742"/>
<line x1="441.148" y1="41.848" x2="441.148" y2="56.529"/>
<line x1="441.148" y1="49.538" x2="443.246" y2="47.441"/>
<line x1="443.246" y1="47.441" x2="444.644" y2="46.742"/>
<line x1="444.644" y1="46.742" x2="446.741" y2="46.742"/>
<line x1="446.741" y1="46.742" x2="448.139" y2="47.441"/>
<line x1="448.139" y1="47.441" x2="448.839" y2="49.538"/>
<line x1="448.839" y1="49.538" x2="448.839" y2="56.529"/>
<line x1="475.405" y1="46.742" x2="475.405" y2="56.529"/>
<line x1="475.405" y1="48.839" x2="474.007" y2="47.441"/>
<line x1="474.007" y1="47.441" x2="472.609" y2="46.742"/>
<line x1="472.609" y1="46.742" x2="470.511" y2="46.742"/>
<line x1="470.511" y1="46.742" x2="469.113" y2="47.441"/>
<line x1="469.113" y1="47.441" x2="467.715" y2="48.839"/>
<line x1="467.715" y1="48.839" x2="467.016" y2="50.936"/>
<line x1="467.016" y1="50.936" x2="467.016" y2="52.335"/>
<line x1="467.016" y1="52.335" x2="467.715" y2="54.432"/>
<line x1="467.715" y1="54.432" x2="469.113" y2="55.830"/>
<line x1="469.113" y1="55.830" x2="470.511" y2="56.529"/>
<line x1="470.511" y1="56.529" x2="472.609" y2="56.529"/>
<line x1="472.609" y1="56.529" x2="474.007" y2="55.830"/>
<line x1="474.007" y1="55.830" x2="475.405" y2="54.432"/>
<line x1="487.990" y1="48.839" x2="487.290" y2="47.441"/>
<line x1="487.290" y1="47.441" x2="485.193" y2="46.742"/>
<line x1="485.193" y1="46.742" x2="483.096" y2="46.742"/>
<line x1="483.096" y1="46.742" x2="480.998" y2="47.441"/>
<line x1="480.998" y1="47.441" x2="480.299" y2="48.839"/>
<line x1="480.299" y1="48.839" x2="480.998" y2="50.237"/>
<line x1="480.998" y1="50.237" x2="482.397" y2="50.936"/>
<line x1="482.397" y1="50.936" x2="485.892" y2="51.635"/>
<line x1="485.892" y1="51.635" x2="487.290" y2="52.335"/>
<line x1="487.290" y1="52.335" x2="487.990" y2="53.733"/>
<line x1="487.990" y1="53.733" x2="487.990" y2="54.432"/>
<line x1="487.990" y1="54.432" x2="487.290" y2="55.830"/>
<line x1="487.290" y1="55.830" x2="485.193" y2="56.529"/>
<line x1="485.193" y1="56.529" x2="483.096" y2="56.529"/>
<line x1="483.096" y1="56.529" x2="480.998" y2="55.830"/>
<line x1="480.998" y1="55.830" x2="480.299" y2="54.432"/>
<line x1="491.485" y1="46.742" x2="495.680" y2="56.529"/>
<line x1="499.875" y1="46.742" x2="495.680" y2="56.529"/>
<line x1="495.680" y1="56.529" x2="494.282" y2="59.326"/>
<line x1="494.282" y1="59.326" x2="492.883" y2="60.724"/>
<line x1="492.883" y1="60.724" x2="491.485" y2="61.423"/>
<line x1="491.485" y1="61.423" x2="490.786" y2="61.423"/>
<line x1="504.069" y1="46.742" x2="504.069" y2="56.529"/>
<line x1="504.069" y1="49.538" x2="506.167" y2="47.441"/>
<line x1="506.167" y1="47.441" x2="507.565" y2="46.742"/>
<line x1="507.565" y1="46.742" x2="509.662" y2="46.742"/>
<line x1="509.662" y1="46.742" x2="511.061" y2="47.441"/>
<line x1="511.061" y1="47.441" x2="511.760" y2="49.538"/>
<line x1="511.760" y1="49.538" x2="511.760" y2="56.529"/>
<line x1="511.760" y1="49.538" x2="513.857" y2="47.441"/>
<line x1="513.857" y1="47.441" x2="515.255" y2="46.742"/>
<line x1="515.255" y1="46.742" x2="517.353" y2="46.742"/>
<line x1="517.353" y1="46.742" x2="518.751" y2="47.441"/>
<line x1="518.751" y1="47.441" x2="519.450" y2="49.538"/>
<line x1="519.450" y1="49.538" x2="519.450" y2="56.529"/>
<line x1="525.043" y1="46.742" x2="525.043" y2="56.529"/>
<line x1="525.043" y1="49.538" x2="527.141" y2="47.441"/>
<line x1="527.141" y1="47.441" x2="528.539" y2="46.742"/>
<line x1="528.539" y1="46.742" x2="530.636" y2="46.742"/>
<line x1="530.636" y1="46.742" x2="532.034" y2="47.441"/>
<line x1="532.034" y1="47.441" x2="532.734" y2="49.538"/>
<line x1="532.734" y1="49.538" x2="532.734" y2="56.529"/>
<line x1="532.734" y1="49.538" x2="534.831" y2="47.441"/>
<line x1="534.831" y1="47.441" x2="536.229" y2="46.742"/>
<line x1="536.229" y1="46.742" x2="538.327" y2="46.742"/>
<line x1="538.327" y1="46.742" x2="539.725" y2="47.441"/>
<line x1="539.725" y1="47.441" x2="540.424" y2="49.538"/>
<line x1="540.424" y1="49.538" x2="540.424" y2="56.529"/>
<line x1="545.318" y1="50.936" x2="553.707" y2="50.936"/>
<line x1="553.707" y1="50.936" x2="553.707" y2="49.538"/>
<line x1="553.707" y1="49.538" x2="553.008" y2="48.140"/>
<line x1="553.008" y1="48.140" x2="552.309" y2="47.441"/>
<line x1="552.309" y1="47.441" x2="550.911" y2="46.742"/>
<line x1="550.911" y1="46.742" x2="548.813" y2="46.742"/>
<line x1="548.813" y1="46.742" x2="547.415" y2="47.441"/>
<line x1="547.415" y1="47.441" x2="546.017" y2="48.839"/>
<line x1="546.017" y1="48.839" x2="545.318" y2="50.936"/>
<line x1="545.318" y1="50.936" x2="545.318" y2="52.335"/>
<line x1="545.318" y1="52.335" x2="546.017" y2="54.432"/>
<line x1="546.017" y1="54.432" x2="547.415" y2="55.830"/>
<line x1="547.415" y1="55.830" x2="548.813" y2="56.529"/>
<line x1="548.813" y1="56.529" x2="550.911" y2="56.529"/>
<line x1="550.911" y1="56.529" x2="552.309" y2="55.830"/>
<line x1="552.309" y1="55.830" x2="553.707" y2="54.432"/>
<line x1="559.300" y1="41.848" x2="559.300" y2="53.733"/>
<line x1="559.300" y1="53.733" x2="559.999" y2="55.830"/>
<line x1="559.999" y1="55.830" x2="561.398" y2="56.529"/>
<line x1="561.398" y1="56.529" x2="562.796" y2="56.529"/>
<line x1="557.203" y1="46.742" x2="562.097" y2="46.742"/>
<line x1="566.991" y1="46.742" x2="566.991" y2="56.529"/>
<line x1="566.991" y1="50.936" x2="567.690" y2="48.839"/>
<line x1="567.690" y1="48.839" x2="569.088" y2="47.441"/>
<line x1="569.088" y1="47.441" x2="570.486" y2="46.742"/>
<line x1="570.486" y1="46.742" x2="572.584" y2="46.742"/>
<line x1="575.380" y1="41.848" x2="576.079" y2="42.547"/>
<line x1="576.079" y1="42.547" x2="576.778" y2="41.848"/>
<line x1="576.778" y1="41.848" x2="576.079" y2="41.149"/>
<line x1="576.079" y1="41.149" x2="575.380" y2="41.848"/>
<line x1="576.079" y1="46.742" x2="576.079" y2="56.529"/>
<line x1="589.363" y1="48.839" x2="587.964" y2="47.441"/>
<line x1="587.964" y1="47.441" x2="586.566" y2="46.742"/>
<line x1="586.566" y1="46.742" x2="584.469" y2="46.742"/>
<line x1="584.469" y1="46.742" x2="583.071" y2="47.441"/>
<line x1="583.071" y1="47.441" x2="581.672" y2="48.839"/>
<line x1="581.672" y1="48.839" x2="580.973" y2="50.936"/>
<line x1="580.973" y1="50.936" x2="580.973" y2="52.335"/>
<line x1="580.973" y1="52.335" x2="581.672" y2="54.432"/>
<line x1="581.672" y1="54.432" x2="583.071" y2="55.830"/>
<line x1="583.071" y1="55.830" x2="584.469" y2="56.529"/>
<line x1="584.469" y1="56.529" x2="586.566" y2="56.529"/>
<line x1="586.566" y1="56.529" x2="587.964" y2="55.830"/>
<line x1="587.964" y1="55.830" x2="589.363" y2="54.432"/>
<line x1="601.947" y1="46.742" x2="601.947" y2="56.529"/>
<line x1="601.947" y1="48.839" x2="600.549" y2="47.441"/>
<line x1="600.549" y1="47.441" x2="599.150" y2="46.742"/>
<line x1="599.150" y1="46.742" x2="597.053" y2="46.742"/>
<line x1="597.053" y1="46.742" x2="595.655" y2="47.441"/>
<line x1="595.655" y1="47.441" x2="594.257" y2="48.839"/>
<line x1="594.257" y1="48.839" x2="593.557" y2="50.936"/>
<line x1="593.557" y1="50.936" x2="593.557" y2="52.335"/>
<line x1="593.557" y1="52.335" x2="594.257" y2="54.432"/>
<line x1="594.257" y1="54.432" x2="595.655" y2="55.830"/>
<line x1="595.655" y1="55.830" x2="597.053" y2="56.529"/>
<line x1="597.053" y1="56.529" x2="599.150" y2="56.529"/>
<line x1="599.150" y1="56.529" x2="600.549" y2="55.830"/>
<line x1="600.549" y1="55.830" x2="601.947" y2="54.432"/>
<line x1="607.540" y1="41.848" x2="607.540" y2="56.529"/>
<line x1="625.717" y1="50.936" x2="634.107" y2="50.936"/>
<line x1="634.107" y1="50.936" x2="634.107" y2="49.538"/>
<line x1="634.107" y1="49.538" x2="633.408" y2="48.140"/>
<line x1="633.408" y1="48.140" x2="632.708" y2="47.441"/>
<line x1="632.708" y1="47.441" x2="631.310" y2="46.742"/>
<line x1="631.310" y1="46.742" x2="629.213" y2="46.742"/>
<line x1="629.213" y1="46.742" x2="627.815" y2="47.441"/>
<line x1="627.815" y1="47.441" x2="626.416" y2="48.839"/>
<line x1="626.416" y1="48.839" x2="625.717" y2="50.936"/>
<line x1="625.717" y1="50.936" x2="625.717" y2="52.335"/>
<line x1="625.717" y1="52.335" x2="626.416" y2="54.432"/>
<line x1="626.416" y1="54.432" x2="627.815" y2="55.830"/>
<line x1="627.815" y1="55.830" x2="629.213" y2="56.529"/>
<line x1="629.213" y1="56.529" x2="631.310" y2="56.529"/>
<line x1="631.310" y1="56.529" x2="632.708" y2="55.830"/>
<line x1="632.708" y1="55.830" x2="634.107" y2="54.432"/>
<line x1="639.001" y1="46.742" x2="639.001" y2="56.529"/>
<line x1="639.001" y1="50.936" x2="639.700" y2="48.839"/>
<line x1="639.700" y1="48.839" x2="641.098" y2="47.441"/>
<line x1="641.098" y1="47.441" x2="642.496" y2="46.742"/>
<line x1="642.496" y1="46.742" x2="644.594" y2="46.742"/>
<line x1="648.089" y1="46.742" x2="648.089" y2="56.529"/>
<line x1="648.089" y1="50.936" x2="648.788" y2="48.839"/>
<line x1="648.788" y1="48.839" x2="650.187" y2="47.441"/>
<line x1="650.187" y1="47.441" x2="651.585" y2="46.742"/>
<line x1="651.585" y1="46.742" x2="653.682" y2="46.742"/>
<line x1="659.974" y1="46.742" x2="658.576" y2="47.441"/>
<line x1="658.576" y1="47.441" x2="657.178" y2="48.839"/>
<line x1="657.178" y1="48.839" x2="656.479" y2="50.936"/>
<line x1="656.479" y1="50.936" x2="656.479" y2="52.335"/>
<line x1="656.479" y1="52.335" x2="657.178" y2="54.432"/>
<line x1="657.178" y1="54.432" x2="658.576" y2="55.830"/>
<line x1="658.576" y1="55.830" x2="659.974" y2="56.529"/>
<line x1="659.974" y1="56.529" x2="662.072" y2="56.529"/>
<line x1="662.072" y1="56.529" x2="663.470" y2="55.830"/>
<line x1="663.470" y1="55.830" x2="664.868" y2="54.432"/>
<line x1="664.868" y1="54.432" x2="665.567" y2="52.335"/>
<line x1="665.567" y1="52.335" x2="665.567" y2="50.936"/>
<line x1="665.567" y1="50.936" x2="664.868" y2="48.839"/>
<line x1="664.868" y1="48.839" x2="663.470" y2="47.441"/>
<line x1="663.470" y1="47.441" x2="662.072" y2="46.742"/>
<line x1="662.072" y1="46.742" x2="659.974" y2="46.742"/>
<line x1="670.461" y1="46.742" x2="670.461" y2="56.529"/>
<line x1="670.461" y1="50.936" x2="671.160" y2="48.839"/>
<line x1="671.160" y1="48.839" x2="672.559" y2="47.441"/>
<line x1="672.559" y1="47.441" x2="673.957" y2="46.742"/>
<line x1="673.957" y1="46.742" x2="676.054" y2="46.742"/>
<line x1="686.541" y1="48.839" x2="685.842" y2="47.441"/>
<line x1="685.842" y1="47.441" x2="683.745" y2="46.742"/>
<line x1="683.745" y1="46.742" x2="681.647" y2="46.742"/>
<line x1="681.647" y1="46.742" x2="679.550" y2="47.441"/>
<line x1="679.550" y1="47.441" x2="678.851" y2="48.839"/>
<line x1="678.851" y1="48.839" x2="679.550" y2="50.237"/>
<line x1="679.550" y1="50.237" x2="680.948" y2="50.936"/>
<line x1="680.948" y1="50.936" x2="684.444" y2="51.635"/>
<line x1="684.444" y1="51.635" x2="685.842" y2="52.335"/>
<line x1="685.842" y1="52.335" x2="686.541" y2="53.733"/>
<line x1="686.541" y1="53.733" x2="686.541" y2="54.432"/>
<line x1="686.541" y1="54.432" x2="685.842" y2="55.830"/>
<line x1="685.842" y1="55.830" x2="683.745" y2="56.529"/>
<line x1="683.745" y1="56.529" x2="681.647" y2="56.529"/>
<line x1="681.647" y1="56.529" x2="679.550" y2="55.830"/>
<line x1="679.550" y1="55.830" x2="678.851" y2="54.432"/>
<line x1="712.409" y1="46.742" x2="712.409" y2="56.529"/>
<line x1="712.409" y1="48.839" x2="711.010" y2="47.441"/>
<line x1="711.010" y1="47.441" x2="709.612" y2="46.742"/>
<line x1="709.612" y1="46.742" x2="707.515" y2="46.742"/>
<line x1="707.515" y1="46.742" x2="706.117" y2="47.441"/>
<line x1="706.117" y1="47.441" x2="704.718" y2="48.839"/>
<line x1="704.718" y1="48.839" x2="704.019" y2="50.936"/>
<line x1="704.019" y1="50.936" x2="704.019" y2="52.335"/>
<line x1="704.019" y1="52.335" x2="704.718" y2="54.432"/>
<line x1="704.718" y1="54.432" x2="706.117" y2="55.830"/>
<line x1="706.117" y1="55.830" x2="707.515" y2="56.529"/>
<line x1="707.515" y1="56.529" x2="709.612" y2="56.529"/>
<line x1="709.612" y1="56.529" x2="711.010" y2="55.830"/>
<line x1="711.010" y1="55.830" x2="712.409" y2="54.432"/>
<line x1="718.002" y1="46.742" x2="718.002" y2="56.529"/>
<line x1="718.002" y1="49.538" x2="720.099" y2="47.441"/>
<line x1="720.099" y1="47.441" x2="721.497" y2="46.742"/>
<line x1="721.497" y1="46.742" x2="723.595" y2="46.742"/>
<line x1="723.595" y1="46.742" x2="724.993" y2="47.441"/>
<line x1="724.993" y1="47.441" x2="725.692" y2="49.538"/>
<line x1="725.692" y1="49.538" x2="725.692" y2="56.529"/>
<line x1="738.975" y1="41.848" x2="738.975" y2="56.529"/>
<line x1="738.975" y1="48.839" x2="737.577" y2="47.441"/>
<line x1="737.577" y1="47.441" x2="736.179" y2="46.742"/>
<line x1="736.179" y1="46.742" x2="734.081" y2="46.742"/>
<line x1="734.081" y1="46.742" x2="732.683" y2="47.441"/>
<line x1="732.683" y1="47.441" x2="731.285" y2="48.839"/>
<line x1="731.285" y1="48.839" x2="730.586" y2="50.936"/>
<line x1="730.586" y1="50.936" x2="730.586" y2="52.335"/>
<line x1="730.586" y1="52.335" x2="731.285" y2="54.432"/>
<line x1="731.285" y1="54.432" x2="732.683" y2="55.830"/>
<line x1="732.683" y1="55.830" x2="734.081" y2="56.529"/>
<line x1="734.081" y1="56.529" x2="736.179" y2="56.529"/>
<line x1="736.179" y1="56.529" x2="737.577" y2="55.830"/>
<line x1="737.577" y1="55.830" x2="738.975" y2="54.432"/>
<line x1="757.852" y1="46.742" x2="757.852" y2="61.423"/>
<line x1="757.852" y1="48.839" x2="759.250" y2="47.441"/>
<line x1="759.250" y1="47.441" x2="760.648" y2="46.742"/>
<line x1="760.648" y1="46.742" x2="762.746" y2="46.742"/>
<line x1="762.746" y1="46.742" x2="764.144" y2="47.441"/>
<line x1="764.144" y1="47.441" x2="765.542" y2="48.839"/>
<line x1="765.542" y1="48.839" x2="766.241" y2="50.936"/>
<line x1="766.241" y1="50.936" x2="766.241" y2="52.335"/>
<line x1="766.241" y1="52.335" x2="765.542" y2="54.432"/>
<line x1="765.542" y1="54.432" x2="764.144" y2="55.830"/>
<line x1="764.144" y1="55.830" x2="762.746" y2="56.529"/>
<line x1="762.746" y1="56.529" x2="760.648" y2="56.529"/>
<line x1="760.648" y1="56.529" x2="759.250" y2="55.830"/>
<line x1="759.250" y1="55.830" x2="757.852" y2="54.432"/>
<line x1="773.932" y1="46.742" x2="772.533" y2="47.441"/>
<line x1="772.533" y1="47.441" x2="771.135" y2="48.839"/>
<line x1="771.135" y1="48.839" x2="770.436" y2="50.936"/>
<line x1="770.436" y1="50.936" x2="770.436" y2="52.335"/>
<line x1="770.436" y1="52.335" x2="771.135" y2="54.432"/>
<line x1="771.135" y1="54.432" x2="772.533" y2="55.830"/>
<line x1="772.533" y1="55.830" x2="773.932" y2="56.529"/>
<line x1="773.932" y1="56.529" x2="776.029" y2="56.529"/>
<line x1="776.029" y1="56.529" x2="777.427" y2="55.830"/>
<line x1="777.427" y1="55.830" x2="778.826" y2="54.432"/>
<line x1="778.826" y1="54.432" x2="779.525" y2="52.335"/>
<line x1="779.525" y1="52.335" x2="779.525" y2="50.936"/>
<line x1="779.525" y1="50.936" x2="778.826" y2="48.839"/>
<line x1="778.826" y1="48.839" x2="777.427" y2="47.441"/>
<line x1="777.427" y1="47.441" x2="776.029" y2="46.742"/>
<line x1="776.029" y1="46.742" x2="773.932" y2="46.742"/>
<line x1="783.719" y1="41.848" x2="784.418" y2="42.547"/>
<line x1="784.418" y1="42.547" x2="785.118" y2="41.848"/>
<line x1="785.118" y1="41.848" x2="784.418" y2="41.149"/>
<line x1="784.418" y1="41.149" x2="783.719" y2="41.848"/>
<line x1="784.418" y1="46.742" x2="784.418" y2="56.529"/>
<line x1="790.011" y1="46.742" x2="790.011" y2="56.529"/>
<line x1="790.011" y1="49.538" x2="792.109" y2="47.441"/>
<line x1="792.109" y1="47.441" x2="793.507" y2="46.742"/>
<line x1="793.507" y1="46.742" x2="795.604" y2="46.742"/>
<line x1="795.604" y1="46.742" x2="797.003" y2="47.441"/>
<line x1="797.003" y1="47.441" x2="797.702" y2="49.538"/>
<line x1="797.702" y1="49.538" x2="797.702" y2="56.529"/>
<line x1="803.994" y1="41.848" x2="803.994" y2="53.733"/>
<line x1="803.994" y1="53.733" x2="804.693" y2="55.830"/>
<line x1="804.693" y1="55.830" x2="806.091" y2="56.529"/>
<line x1="806.091" y1="56.529" x2="807.490" y2="56.529"/>
<line x1="801.897" y1="46.742" x2="806.790" y2="46.742"/>
<line x1="818.676" y1="48.839" x2="817.976" y2="47.441"/>
<line x1="817.976" y1="47.441" x2="815.879" y2="46.742"/>
<line x1="815.879" y1="46.742" x2="813.782" y2="46.742"/>
<line x1="813.782" y1="46.742" x2="811.684" y2="47.441"/>
<line x1="811.684" y1="47.441" x2="810.985" y2="48.839"/>
<line x1="810.985" y1="48.839" x2="811.684" y2="50.237"/>
<line x1="811.684" y1="50.237" x2="813.083" y2="50.936"/>
<line x1="813.083" y1="50.936" x2="816.578" y2="51.635"/>
<line x1="816.578" y1="51.635" x2="817.976" y2="52.335"/>
<line x1="817.976" y1="52.335" x2="818.676" y2="53.733"/>
<line x1="818.676" y1="53.733" x2="818.676" y2="54.432"/>
<line x1="818.676" y1="54.432" x2="817.976" y2="55.830"/>
<line x1="817.976" y1="55.830" x2="815.879" y2="56.529"/>
<line x1="815.879" y1="56.529" x2="813.782" y2="56.529"/>
<line x1="813.782" y1="56.529" x2="811.684" y2="55.830"/>
<line x1="811.684" y1="55.830" x2="810.985" y2="54.432"/>
</g>
<g transform="matrix(1 0 0 1 0 0)"
style="stroke:rgb(2,2,2);
stroke-width:1.0">
<line x1="592.842" y1="712.822" x2="606.158" y2="732.797"/>
<line x1="606.158" y1="712.822" x2="592.842" y2="732.797"/>
</g>
<g transform="matrix(1 0 0 1 0 0)"
style="stroke:rgb(2,2,2);
stroke-width:1.0">
<line x1="3.674" y1="410.914" x2="17.942" y2="399.500"/>
<line x1="17.942" y1="399.500" x2="33.637" y2="399.500"/>
<line x1="3.674" y1="388.086" x2="17.942" y2="399.500"/>
</g>
<g transform="matrix(1 0 0 1 0 0)"
style="stroke:rgb(2,2,2);
stroke-width:1.0">
<line x1="344.220" y1="683.145" x2="344.220" y2="675.155"/>
<line x1="514.406" y1="683.145" x2="514.406" y2="675.155"/>
<line x1="684.594" y1="683.145" x2="684.594" y2="675.155"/>
<line x1="854.781" y1="683.145" x2="854.781" y2="675.155"/>
</g>
<g transform="matrix(1 0 0 1 0 0)"
style="stroke:rgb(2,2,2);
stroke-width:1.0">
<line x1="344.220" y1="115.855" x2="344.220" y2="123.845"/>
<line x1="514.406" y1="115.855" x2="514.406" y2="123.845"/>
<line x1="684.594" y1="115.855" x2="684.594" y2="123.845"/>
<line x1="854.781" y1="115.855" x2="854.781" y2="123.845"/>
</g>
<g transform="matrix(1 0 0 1 0 0)"
style="stroke:rgb(2,2,2);
stroke-width:1.0">
<line x1="174.033" y1="569.687" x2="182.023" y2="569.687"/>
<line x1="174.033" y1="456.229" x2="182.023" y2="456.229"/>
<line x1="174.033" y1="342.771" x2="182.023" y2="342.771"/>
<line x1="174.033" y1="229.313" x2="182.023" y2="229.313"/>
</g>
<g transform="matrix(1 0 0 1 0 0)"
style="stroke:rgb(2,2,2);
stroke-width:1.0">
<line x1="1024.968" y1="569.687" x2="1016.978" y2="569.687"/>
<line x1="1024.968" y1="456.229" x2="1016.978" y2="456.229"/>
<line x1="1024.968" y1="342.771" x2="1016.978" y2="342.771"/>
<line x1="1024.968" y1="229.313" x2="1016.978" y2="229.313"/>
</g>
<g transform="matrix(1 0 0 1 0 0)"
style="stroke:rgb(2,2,2);
stroke-width:1.0">
<line x1="151.061" y1="697.627" x2="149.563" y2="698.126"/>
<line x1="149.563" y1="698.126" x2="148.564" y2="699.624"/>
<line x1="148.564" y1="699.624" x2="148.065" y2="702.121"/>
<line x1="148.065" y1="702.121" x2="148.065" y2="703.619"/>
<line x1="148.065" y1="703.619" x2="148.564" y2="706.116"/>
<line x1="148.564" y1="706.116" x2="149.563" y2="707.614"/>
<line x1="149.563" y1="707.614" x2="151.061" y2="708.114"/>
<line x1="151.061" y1="708.114" x2="152.060" y2="708.114"/>
<line x1="152.060" y1="708.114" x2="153.558" y2="707.614"/>
<line x1="153.558" y1="707.614" x2="154.557" y2="706.116"/>
<line x1="154.557" y1="706.116" x2="155.056" y2="703.619"/>
<line x1="155.056" y1="703.619" x2="155.056" y2="702.121"/>
<line x1="155.056" y1="702.121" x2="154.557" y2="699.624"/>
<line x1="154.557" y1="699.624" x2="153.558" y2="698.126"/>
<line x1="153.558" y1="698.126" x2="152.060" y2="697.627"/>
<line x1="152.060" y1="697.627" x2="151.061" y2="697.627"/>
<line x1="166.542" y1="707.115" x2="166.043" y2="707.614"/>
<line x1="166.043" y1="707.614" x2="166.542" y2="708.114"/>
<line x1="166.542" y1="708.114" x2="167.041" y2="707.614"/>
<line x1="167.041" y1="707.614" x2="166.542" y2="707.115"/>
<line x1="181.024" y1="697.627" x2="179.526" y2="698.126"/>
<line x1="179.526" y1="698.126" x2="178.527" y2="699.624"/>
<line x1="178.527" y1="699.624" x2="178.028" y2="702.121"/>
<line x1="178.028" y1="702.121" x2="178.028" y2="703.619"/>
<line x1="178.028" y1="703.619" x2="178.527" y2="706.116"/>
<line x1="178.527" y1="706.116" x2="179.526" y2="707.614"/>
<line x1="179.526" y1="707.614" x2="181.024" y2="708.114"/>
<line x1="181.024" y1="708.114" x2="182.023" y2="708.114"/>
<line x1="182.023" y1="708.114" x2="183.521" y2="707.614"/>
<line x1="183.521" y1="707.614" x2="184.519" y2="706.116"/>
<line x1="184.519" y1="706.116" x2="185.019" y2="703.619"/>
<line x1="185.019" y1="703.619" x2="185.019" y2="702.121"/>
<line x1="185.019" y1="702.121" x2="184.519" y2="699.624"/>
<line x1="184.519" y1="699.624" x2="183.521" y2="698.126"/>
<line x1="183.521" y1="698.126" x2="182.023" y2="697.627"/>
<line x1="182.023" y1="697.627" x2="181.024" y2="697.627"/>
<line x1="196.005" y1="697.627" x2="194.507" y2="698.126"/>
<line x1="194.507" y1="698.126" x2="193.508" y2="699.624"/>
<line x1="193.508" y1="699.624" x2="193.009" y2="702.121"/>
<line x1="193.009" y1="702.121" x2="193.009" y2="703.619"/>
<line x1="193.009" y1="703.619" x2="193.508" y2="706.116"/>
<line x1="193.508" y1="706.116" x2="194.507" y2="707.614"/>
<line x1="194.507" y1="707.614" x2="196.005" y2="708.114"/>
<line x1="196.005" y1="708.114" x2="197.004" y2="708.114"/>
<line x1="197.004" y1="708.114" x2="198.502" y2="707.614"/>
<line x1="198.502" y1="707.614" x2="199.501" y2="706.116"/>
<line x1="199.501" y1="706.116" x2="200.000" y2="703.619"/>
<line x1="200.000" y1="703.619" x2="200.000" y2="702.121"/>
<line x1="200.000" y1="702.121" x2="199.501" y2="699.624"/>
<line x1="199.501" y1="699.624" x2="198.502" y2="698.126"/>
<line x1="198.502" y1="698.126" x2="197.004" y2="697.627"/>
<line x1="197.004" y1="697.627" x2="196.005" y2="697.627"/>
</g>
<g transform="matrix(1 0 0 1 0 0)"
style="stroke:rgb(2,2,2);
stroke-width:1.0">
<line x1="321.248" y1="697.627" x2="319.750" y2="698.126"/>
<line x1="319.750" y1="698.126" x2="318.751" y2="699.624"/>
<line x1="318.751" y1="699.624" x2="318.252" y2="702.121"/>
<line x1="318.252" y1="702.121" x2="318.252" y2="703.619"/>
<line x1="318.252" y1="703.619" x2="318.751" y2="706.116"/>
<line x1="318.751" y1="706.116" x2="319.750" y2="707.614"/>
<line x1="319.750" y1="707.614" x2="321.248" y2="708.114"/>
<line x1="321.248" y1="708.114" x2="322.247" y2="708.114"/>
<line x1="322.247" y1="708.114" x2="323.745" y2="707.614"/>
<line x1="323.745" y1="707.614" x2="324.744" y2="706.116"/>
<line x1="324.744" y1="706.116" x2="325.243" y2="703.619"/>
<line x1="325.243" y1="703.619" x2="325.243" y2="702.121"/>
<line x1="325.243" y1="702.121" x2="324.744" y2="699.624"/>
<line x1="324.744" y1="699.624" x2="323.745" y2="698.126"/>
<line x1="323.745" y1="698.126" x2="322.247" y2="697.627"/>
<line x1="322.247" y1="697.627" x2="321.248" y2="697.627"/>
<line x1="336.729" y1="707.115" x2="336.230" y2="707.614"/>
<line x1="336.230" y1="707.614" x2="336.729" y2="708.114"/>
<line x1="336.729" y1="708.114" x2="337.228" y2="707.614"/>
<line x1="337.228" y1="707.614" x2="336.729" y2="707.115"/>
<line x1="348.714" y1="700.124" x2="348.714" y2="699.624"/>
<line x1="348.714" y1="699.624" x2="349.213" y2="698.626"/>
<line x1="349.213" y1="698.626" x2="349.713" y2="698.126"/>
<line x1="349.713" y1="698.126" x2="350.711" y2="697.627"/>
<line x1="350.711" y1="697.627" x2="352.709" y2="697.627"/>
<line x1="352.709" y1="697.627" x2="353.708" y2="698.126"/>
<line x1="353.708" y1="698.126" x2="354.207" y2="698.626"/>
<line x1="354.207" y1="698.626" x2="354.706" y2="699.624"/>
<line x1="354.706" y1="699.624" x2="354.706" y2="700.623"/>
<line x1="354.706" y1="700.623" x2="354.207" y2="701.622"/>
<line x1="354.207" y1="701.622" x2="353.208" y2="703.120"/>
<line x1="353.208" y1="703.120" x2="348.215" y2="708.114"/>
<line x1="348.215" y1="708.114" x2="355.206" y2="708.114"/>
<line x1="366.192" y1="697.627" x2="364.694" y2="698.126"/>
<line x1="364.694" y1="698.126" x2="363.695" y2="699.624"/>
<line x1="363.695" y1="699.624" x2="363.196" y2="702.121"/>
<line x1="363.196" y1="702.121" x2="363.196" y2="703.619"/>
<line x1="363.196" y1="703.619" x2="363.695" y2="706.116"/>
<line x1="363.695" y1="706.116" x2="364.694" y2="707.614"/>
<line x1="364.694" y1="707.614" x2="366.192" y2="708.114"/>
<line x1="366.192" y1="708.114" x2="367.191" y2="708.114"/>
<line x1="367.191" y1="708.114" x2="368.689" y2="707.614"/>
<line x1="368.689" y1="707.614" x2="369.688" y2="706.116"/>
<line x1="369.688" y1="706.116" x2="370.187" y2="703.619"/>
<line x1="370.187" y1="703.619" x2="370.187" y2="702.121"/>
<line x1="370.187" y1="702.121" x2="369.688" y2="699.624"/>
<line x1="369.688" y1="699.624" x2="368.689" y2="698.126"/>
<line x1="368.689" y1="698.126" x2="367.191" y2="697.627"/>
<line x1="367.191" y1="697.627" x2="366.192" y2="697.627"/>
</g>
<g transform="matrix(1 0 0 1 0 0)"
style="stroke:rgb(2,2,2);
stroke-width:1.0">
<line x1="491.435" y1="697.627" x2="489.937" y2="698.126"/>
<line x1="489.937" y1="698.126" x2="488.938" y2="699.624"/>
<line x1="488.938" y1="699.624" x2="488.439" y2="702.121"/>
<line x1="488.439" y1="702.121" x2="488.439" y2="703.619"/>
<line x1="488.439" y1="703.619" x2="488.938" y2="706.116"/>
<line x1="488.938" y1="706.116" x2="489.937" y2="707.614"/>
<line x1="489.937" y1="707.614" x2="491.435" y2="708.114"/>
<line x1="491.435" y1="708.114" x2="492.434" y2="708.114"/>
<line x1="492.434" y1="708.114" x2="493.932" y2="707.614"/>
<line x1="493.932" y1="707.614" x2="494.931" y2="706.116"/>
<line x1="494.931" y1="706.116" x2="495.430" y2="703.619"/>
<line x1="495.430" y1="703.619" x2="495.430" y2="702.121"/>
<line x1="495.430" y1="702.121" x2="494.931" y2="699.624"/>
<line x1="494.931" y1="699.624" x2="493.932" y2="698.126"/>
<line x1="493.932" y1="698.126" x2="492.434" y2="697.627"/>
<line x1="492.434" y1="697.627" x2="491.435" y2="697.627"/>
<line x1="506.916" y1="707.115" x2="506.417" y2="707.614"/>
<line x1="506.417" y1="707.614" x2="506.916" y2="708.114"/>
<line x1="506.916" y1="708.114" x2="507.415" y2="707.614"/>
<line x1="507.415" y1="707.614" x2="506.916" y2="707.115"/>
<line x1="523.395" y1="697.627" x2="518.401" y2="704.618"/>
<line x1="518.401" y1="704.618" x2="525.892" y2="704.618"/>
<line x1="523.395" y1="697.627" x2="523.395" y2="708.114"/>
<line x1="536.379" y1="697.627" x2="534.881" y2="698.126"/>
<line x1="534.881" y1="698.126" x2="533.882" y2="699.624"/>
<line x1="533.882" y1="699.624" x2="533.383" y2="702.121"/>
<line x1="533.383" y1="702.121" x2="533.383" y2="703.619"/>
<line x1="533.383" y1="703.619" x2="533.882" y2="706.116"/>
<line x1="533.882" y1="706.116" x2="534.881" y2="707.614"/>
<line x1="534.881" y1="707.614" x2="536.379" y2="708.114"/>
<line x1="536.379" y1="708.114" x2="537.378" y2="708.114"/>
<line x1="537.378" y1="708.114" x2="538.876" y2="707.614"/>
<line x1="538.876" y1="707.614" x2="539.875" y2="706.116"/>
<line x1="539.875" y1="706.116" x2="540.374" y2="703.619"/>
<line x1="540.374" y1="703.619" x2="540.374" y2="702.121"/>
<line x1="540.374" y1="702.121" x2="539.875" y2="699.624"/>
<line x1="539.875" y1="699.624" x2="538.876" y2="698.126"/>
<line x1="538.876" y1="698.126" x2="537.378" y2="697.627"/>
<line x1="537.378" y1="697.627" x2="536.379" y2="697.627"/>
</g>
<g transform="matrix(1 0 0 1 0 0)"
style="stroke:rgb(2,2,2);
stroke-width:1.0">
<line x1="661.622" y1="697.627" x2="660.124" y2="698.126"/>
<line x1="660.124" y1="698.126" x2="659.125" y2="699.624"/>
<line x1="659.125" y1="699.624" x2="658.626" y2="702.121"/>
<line x1="658.626" y1="702.121" x2="658.626" y2="703.619"/>
<line x1="658.626" y1="703.619" x2="659.125" y2="706.116"/>
<line x1="659.125" y1="706.116" x2="660.124" y2="707.614"/>
<line x1="660.124" y1="707.614" x2="661.622" y2="708.114"/>
<line x1="661.622" y1="708.114" x2="662.621" y2="708.114"/>
<line x1="662.621" y1="708.114" x2="664.119" y2="707.614"/>
<line x1="664.119" y1="707.614" x2="665.118" y2="706.116"/>
<line x1="665.118" y1="706.116" x2="665.617" y2="703.619"/>
<line x1="665.617" y1="703.619" x2="665.617" y2="702.121"/>
<line x1="665.617" y1="702.121" x2="665.118" y2="699.624"/>
<line x1="665.118" y1="699.624" x2="664.119" y2="698.126"/>
<line x1="664.119" y1="698.126" x2="662.621" y2="697.627"/>
<line x1="662.621" y1="697.627" x2="661.622" y2="697.627"/>
<line x1="677.103" y1="707.115" x2="676.604" y2="707.614"/>
<line x1="676.604" y1="707.614" x2="677.103" y2="708.114"/>
<line x1="677.103" y1="708.114" x2="677.602" y2="707.614"/>
<line x1="677.602" y1="707.614" x2="677.103" y2="707.115"/>
<line x1="695.080" y1="699.125" x2="694.581" y2="698.126"/>
<line x1="694.581" y1="698.126" x2="693.083" y2="697.627"/>
<line x1="693.083" y1="697.627" x2="692.084" y2="697.627"/>
<line x1="692.084" y1="697.627" x2="690.586" y2="698.126"/>
<line x1="690.586" y1="698.126" x2="689.587" y2="699.624"/>
<line x1="689.587" y1="699.624" x2="689.088" y2="702.121"/>
<line x1="689.088" y1="702.121" x2="689.088" y2="704.618"/>
<line x1="689.088" y1="704.618" x2="689.587" y2="706.616"/>
<line x1="689.587" y1="706.616" x2="690.586" y2="707.614"/>
<line x1="690.586" y1="707.614" x2="692.084" y2="708.114"/>
<line x1="692.084" y1="708.114" x2="692.584" y2="708.114"/>
<line x1="692.584" y1="708.114" x2="694.082" y2="707.614"/>
<line x1="694.082" y1="707.614" x2="695.080" y2="706.616"/>
<line x1="695.080" y1="706.616" x2="695.580" y2="705.117"/>
<line x1="695.580" y1="705.117" x2="695.580" y2="704.618"/>
<line x1="695.580" y1="704.618" x2="695.080" y2="703.120"/>
<line x1="695.080" y1="703.120" x2="694.082" y2="702.121"/>
<line x1="694.082" y1="702.121" x2="692.584" y2="701.622"/>
<line x1="692.584" y1="701.622" x2="692.084" y2="701.622"/>
<line x1="692.084" y1="701.622" x2="690.586" y2="702.121"/>
<line x1="690.586" y1="702.121" x2="689.587" y2="703.120"/>
<line x1="689.587" y1="703.120" x2="689.088" y2="704.618"/>
<line x1="706.566" y1="697.627" x2="705.068" y2="698.126"/>
<line x1="705.068" y1="698.126" x2="704.069" y2="699.624"/>
<line x1="704.069" y1="699.624" x2="703.570" y2="702.121"/>
<line x1="703.570" y1="702.121" x2="703.570" y2="703.619"/>
<line x1="703.570" y1="703.619" x2="704.069" y2="706.116"/>
<line x1="704.069" y1="706.116" x2="705.068" y2="707.614"/>
<line x1="705.068" y1="707.614" x2="706.566" y2="708.114"/>
<line x1="706.566" y1="708.114" x2="707.565" y2="708.114"/>
<line x1="707.565" y1="708.114" x2="709.063" y2="707.614"/>
<line x1="709.063" y1="707.614" x2="710.062" y2="706.116"/>
<line x1="710.062" y1="706.116" x2="710.561" y2="703.619"/>
<line x1="710.561" y1="703.619" x2="710.561" y2="702.121"/>
<line x1="710.561" y1="702.121" x2="710.062" y2="699.624"/>
<line x1="710.062" y1="699.624" x2="709.063" y2="698.126"/>
<line x1="709.063" y1="698.126" x2="707.565" y2="697.627"/>
<line x1="707.565" y1="697.627" x2="706.566" y2="697.627"/>
</g>
<g transform="matrix(1 0 0 1 0 0)"
style="stroke:rgb(2,2,2);
stroke-width:1.0">
<line x1="831.809" y1="697.627" x2="830.311" y2="698.126"/>
<line x1="830.311" y1="698.126" x2="829.312" y2="699.624"/>
<line x1="829.312" y1="699.624" x2="828.813" y2="702.121"/>
<line x1="828.813" y1="702.121" x2="828.813" y2="703.619"/>
<line x1="828.813" y1="703.619" x2="829.312" y2="706.116"/>
<line x1="829.312" y1="706.116" x2="830.311" y2="707.614"/>
<line x1="830.311" y1="707.614" x2="831.809" y2="708.114"/>
<line x1="831.809" y1="708.114" x2="832.808" y2="708.114"/>
<line x1="832.808" y1="708.114" x2="834.306" y2="707.614"/>
<line x1="834.306" y1="707.614" x2="835.305" y2="706.116"/>
<line x1="835.305" y1="706.116" x2="835.804" y2="703.619"/>
<line x1="835.804" y1="703.619" x2="835.804" y2="702.121"/>
<line x1="835.804" y1="702.121" x2="835.305" y2="699.624"/>
<line x1="835.305" y1="699.624" x2="834.306" y2="698.126"/>
<line x1="834.306" y1="698.126" x2="832.808" y2="697.627"/>
<line x1="832.808" y1="697.627" x2="831.809" y2="697.627"/>
<line x1="847.290" y1="707.115" x2="846.790" y2="707.614"/>
<line x1="846.790" y1="707.614" x2="847.290" y2="708.114"/>
<line x1="847.290" y1="708.114" x2="847.789" y2="707.614"/>
<line x1="847.789" y1="707.614" x2="847.290" y2="707.115"/>
<line x1="861.272" y1="697.627" x2="859.774" y2="698.126"/>
<line x1="859.774" y1="698.126" x2="859.275" y2="699.125"/>
<line x1="859.275" y1="699.125" x2="859.275" y2="700.124"/>
<line x1="859.275" y1="700.124" x2="859.774" y2="701.122"/>
<line x1="859.774" y1="701.122" x2="860.773" y2="701.622"/>
<line x1="860.773" y1="701.622" x2="862.771" y2="702.121"/>
<line x1="862.771" y1="702.121" x2="864.269" y2="702.621"/>
<line x1="864.269" y1="702.621" x2="865.267" y2="703.619"/>
<line x1="865.267" y1="703.619" x2="865.767" y2="704.618"/>
<line x1="865.767" y1="704.618" x2="865.767" y2="706.116"/>
<line x1="865.767" y1="706.116" x2="865.267" y2="707.115"/>
<line x1="865.267" y1="707.115" x2="864.768" y2="707.614"/>
<line x1="864.768" y1="707.614" x2="863.270" y2="708.114"/>
<line x1="863.270" y1="708.114" x2="861.272" y2="708.114"/>
<line x1="861.272" y1="708.114" x2="859.774" y2="707.614"/>
<line x1="859.774" y1="707.614" x2="859.275" y2="707.115"/>
<line x1="859.275" y1="707.115" x2="858.775" y2="706.116"/>
<line x1="858.775" y1="706.116" x2="858.775" y2="704.618"/>
<line x1="858.775" y1="704.618" x2="859.275" y2="703.619"/>
<line x1="859.275" y1="703.619" x2="860.274" y2="702.621"/>
<line x1="860.274" y1="702.621" x2="861.772" y2="702.121"/>
<line x1="861.772" y1="702.121" x2="863.769" y2="701.622"/>
<line x1="863.769" y1="701.622" x2="864.768" y2="701.122"/>
<line x1="864.768" y1="701.122" x2="865.267" y2="700.124"/>
<line x1="865.267" y1="700.124" x2="865.267" y2="699.125"/>
<line x1="865.267" y1="699.125" x2="864.768" y2="698.126"/>
<line x1="864.768" y1="698.126" x2="863.270" y2="697.627"/>
<line x1="863.270" y1="697.627" x2="861.272" y2="697.627"/>
<line x1="876.753" y1="697.627" x2="875.255" y2="698.126"/>
<line x1="875.255" y1="698.126" x2="874.256" y2="699.624"/>
<line x1="874.256" y1="699.624" x2="873.757" y2="702.121"/>
<line x1="873.757" y1="702.121" x2="873.757" y2="703.619"/>
<line x1="873.757" y1="703.619" x2="874.256" y2="706.116"/>
<line x1="874.256" y1="706.116" x2="875.255" y2="707.614"/>
<line x1="875.255" y1="707.614" x2="876.753" y2="708.114"/>
<line x1="876.753" y1="708.114" x2="877.752" y2="708.114"/>
<line x1="877.752" y1="708.114" x2="879.250" y2="707.614"/>
<line x1="879.250" y1="707.614" x2="880.249" y2="706.116"/>
<line x1="880.249" y1="706.116" x2="880.748" y2="703.619"/>
<line x1="880.748" y1="703.619" x2="880.748" y2="702.121"/>
<line x1="880.748" y1="702.121" x2="880.249" y2="699.624"/>
<line x1="880.249" y1="699.624" x2="879.250" y2="698.126"/>
<line x1="879.250" y1="698.126" x2="877.752" y2="697.627"/>
<line x1="877.752" y1="697.627" x2="876.753" y2="697.627"/>
</g>
<g transform="matrix(1 0 0 1 0 0)"
style="stroke:rgb(2,2,2);
stroke-width:1.0">
<line x1="1000.498" y1="699.624" x2="1001.497" y2="699.125"/>
<line x1="1001.497" y1="699.125" x2="1002.995" y2="697.627"/>
<line x1="1002.995" y1="697.627" x2="1002.995" y2="708.114"/>
<line x1="1017.477" y1="707.115" x2="1016.977" y2="707.614"/>
<line x1="1016.977" y1="707.614" x2="1017.477" y2="708.114"/>
<line x1="1017.477" y1="708.114" x2="1017.976" y2="707.614"/>
<line x1="1017.976" y1="707.614" x2="1017.477" y2="707.115"/>
<line x1="1031.959" y1="697.627" x2="1030.461" y2="698.126"/>
<line x1="1030.461" y1="698.126" x2="1029.462" y2="699.624"/>
<line x1="1029.462" y1="699.624" x2="1028.962" y2="702.121"/>
<line x1="1028.962" y1="702.121" x2="1028.962" y2="703.619"/>
<line x1="1028.962" y1="703.619" x2="1029.462" y2="706.116"/>
<line x1="1029.462" y1="706.116" x2="1030.461" y2="707.614"/>
<line x1="1030.461" y1="707.614" x2="1031.959" y2="708.114"/>
<line x1="1031.959" y1="708.114" x2="1032.958" y2="708.114"/>
<line x1="1032.958" y1="708.114" x2="1034.456" y2="707.614"/>
<line x1="1034.456" y1="707.614" x2="1035.454" y2="706.116"/>
<line x1="1035.454" y1="706.116" x2="1035.954" y2="703.619"/>
<line x1="1035.954" y1="703.619" x2="1035.954" y2="702.121"/>
<line x1="1035.954" y1="702.121" x2="1035.454" y2="699.624"/>
<line x1="1035.454" y1="699.624" x2="1034.456" y2="698.126"/>
<line x1="1034.456" y1="698.126" x2="1032.958" y2="697.627"/>
<line x1="1032.958" y1="697.627" x2="1031.959" y2="697.627"/>
<line x1="1046.940" y1="697.627" x2="1045.442" y2="698.126"/>
<line x1="1045.442" y1="698.126" x2="1044.443" y2="699.624"/>
<line x1="1044.443" y1="699.624" x2="1043.944" y2="702.121"/>
<line x1="1043.944" y1="702.121" x2="1043.944" y2="703.619"/>
<line x1="1043.944" y1="703.619" x2="1044.443" y2="706.116"/>
<line x1="1044.443" y1="706.116" x2="1045.442" y2="707.614"/>
<line x1="1045.442" y1="707.614" x2="1046.940" y2="708.114"/>
<line x1="1046.940" y1="708.114" x2="1047.939" y2="708.114"/>
<line x1="1047.939" y1="708.114" x2="1049.437" y2="707.614"/>
<line x1="1049.437" y1="707.614" x2="1050.435" y2="706.116"/>
<line x1="1050.435" y1="706.116" x2="1050.935" y2="703.619"/>
<line x1="1050.935" y1="703.619" x2="1050.935" y2="702.121"/>
<line x1="1050.935" y1="702.121" x2="1050.435" y2="699.624"/>
<line x1="1050.435" y1="699.624" x2="1049.437" y2="698.126"/>
<line x1="1049.437" y1="698.126" x2="1047.939" y2="697.627"/>
<line x1="1047.939" y1="697.627" x2="1046.940" y2="697.627"/>
</g>
<g transform="matrix(1 0 0 1 0 0)"
style="stroke:rgb(2,2,2);
stroke-width:1.0">
<line x1="103.121" y1="677.652" x2="101.623" y2="678.151"/>
<line x1="101.623" y1="678.151" x2="100.624" y2="679.649"/>
<line x1="100.624" y1="679.649" x2="100.125" y2="682.146"/>
<line x1="100.125" y1="682.146" x2="100.125" y2="683.644"/>
<line x1="100.125" y1="683.644" x2="100.624" y2="686.141"/>
<line x1="100.624" y1="686.141" x2="101.623" y2="687.639"/>
<line x1="101.623" y1="687.639" x2="103.121" y2="688.139"/>
<line x1="103.121" y1="688.139" x2="104.120" y2="688.139"/>
<line x1="104.120" y1="688.139" x2="105.618" y2="687.639"/>
<line x1="105.618" y1="687.639" x2="106.617" y2="686.141"/>
<line x1="106.617" y1="686.141" x2="107.116" y2="683.644"/>
<line x1="107.116" y1="683.644" x2="107.116" y2="682.146"/>
<line x1="107.116" y1="682.146" x2="106.617" y2="679.649"/>
<line x1="106.617" y1="679.649" x2="105.618" y2="678.151"/>
<line x1="105.618" y1="678.151" x2="104.120" y2="677.652"/>
<line x1="104.120" y1="677.652" x2="103.121" y2="677.652"/>
<line x1="118.602" y1="687.140" x2="118.103" y2="687.639"/>
<line x1="118.103" y1="687.639" x2="118.602" y2="688.139"/>
<line x1="118.602" y1="688.139" x2="119.101" y2="687.639"/>
<line x1="119.101" y1="687.639" x2="118.602" y2="687.140"/>
<line x1="133.084" y1="677.652" x2="131.586" y2="678.151"/>
<line x1="131.586" y1="678.151" x2="130.587" y2="679.649"/>
<line x1="130.587" y1="679.649" x2="130.088" y2="682.146"/>
<line x1="130.088" y1="682.146" x2="130.088" y2="683.644"/>
<line x1="130.088" y1="683.644" x2="130.587" y2="686.141"/>
<line x1="130.587" y1="686.141" x2="131.586" y2="687.639"/>
<line x1="131.586" y1="687.639" x2="133.084" y2="688.139"/>
<line x1="133.084" y1="688.139" x2="134.083" y2="688.139"/>
<line x1="134.083" y1="688.139" x2="135.581" y2="687.639"/>
<line x1="135.581" y1="687.639" x2="136.579" y2="686.141"/>
<line x1="136.579" y1="686.141" x2="137.079" y2="683.644"/>
<line x1="137.079" y1="683.644" x2="137.079" y2="682.146"/>
<line x1="137.079" y1="682.146" x2="136.579" y2="679.649"/>
<line x1="136.579" y1="679.649" x2="135.581" y2="678.151"/>
<line x1="135.581" y1="678.151" x2="134.083" y2="677.652"/>
<line x1="134.083" y1="677.652" x2="133.084" y2="677.652"/>
<line x1="148.065" y1="677.652" x2="146.567" y2="678.151"/>
<line x1="146.567" y1="678.151" x2="145.568" y2="679.649"/>
<line x1="145.568" y1="679.649" x2="145.069" y2="682.146"/>
<line x1="145.069" y1="682.146" x2="145.069" y2="683.644"/>
<line x1="145.069" y1="683.644" x2="145.568" y2="686.141"/>
<line x1="145.568" y1="686.141" x2="146.567" y2="687.639"/>
<line x1="146.567" y1="687.639" x2="148.065" y2="688.139"/>
<line x1="148.065" y1="688.139" x2="149.064" y2="688.139"/>
<line x1="149.064" y1="688.139" x2="150.562" y2="687.639"/>
<line x1="150.562" y1="687.639" x2="151.561" y2="686.141"/>
<line x1="151.561" y1="686.141" x2="152.060" y2="683.644"/>
<line x1="152.060" y1="683.644" x2="152.060" y2="682.146"/>
<line x1="152.060" y1="682.146" x2="151.561" y2="679.649"/>
<line x1="151.561" y1="679.649" x2="150.562" y2="678.151"/>
<line x1="150.562" y1="678.151" x2="149.064" y2="677.652"/>
<line x1="149.064" y1="677.652" x2="148.065" y2="677.652"/>
</g>
<g transform="matrix(1 0 0 1 0 0)"
style="stroke:rgb(2,2,2);
stroke-width:1.0">
<line x1="103.121" y1="564.194" x2="101.623" y2="564.693"/>
<line x1="101.623" y1="564.693" x2="100.624" y2="566.191"/>
<line x1="100.624" y1="566.191" x2="100.125" y2="568.688"/>
<line x1="100.125" y1="568.688" x2="100.125" y2="570.186"/>
<line x1="100.125" y1="570.186" x2="100.624" y2="572.683"/>
<line x1="100.624" y1="572.683" x2="101.623" y2="574.181"/>
<line x1="101.623" y1="574.181" x2="103.121" y2="574.681"/>
<line x1="103.121" y1="574.681" x2="104.120" y2="574.681"/>
<line x1="104.120" y1="574.681" x2="105.618" y2="574.181"/>
<line x1="105.618" y1="574.181" x2="106.617" y2="572.683"/>
<line x1="106.617" y1="572.683" x2="107.116" y2="570.186"/>
<line x1="107.116" y1="570.186" x2="107.116" y2="568.688"/>
<line x1="107.116" y1="568.688" x2="106.617" y2="566.191"/>
<line x1="106.617" y1="566.191" x2="105.618" y2="564.693"/>
<line x1="105.618" y1="564.693" x2="104.120" y2="564.194"/>
<line x1="104.120" y1="564.194" x2="103.121" y2="564.194"/>
<line x1="118.602" y1="573.682" x2="118.103" y2="574.181"/>
<line x1="118.103" y1="574.181" x2="118.602" y2="574.681"/>
<line x1="118.602" y1="574.681" x2="119.101" y2="574.181"/>
<line x1="119.101" y1="574.181" x2="118.602" y2="573.682"/>
<line x1="130.587" y1="566.691" x2="130.587" y2="566.191"/>
<line x1="130.587" y1="566.191" x2="131.086" y2="565.193"/>
<line x1="131.086" y1="565.193" x2="131.586" y2="564.693"/>
<line x1="131.586" y1="564.693" x2="132.584" y2="564.194"/>
<line x1="132.584" y1="564.194" x2="134.582" y2="564.194"/>
<line x1="134.582" y1="564.194" x2="135.581" y2="564.693"/>
<line x1="135.581" y1="564.693" x2="136.080" y2="565.193"/>
<line x1="136.080" y1="565.193" x2="136.579" y2="566.191"/>
<line x1="136.579" y1="566.191" x2="136.579" y2="567.190"/>
<line x1="136.579" y1="567.190" x2="136.080" y2="568.189"/>
<line x1="136.080" y1="568.189" x2="135.081" y2="569.687"/>
<line x1="135.081" y1="569.687" x2="130.088" y2="574.681"/>
<line x1="130.088" y1="574.681" x2="137.079" y2="574.681"/>
<line x1="148.065" y1="564.194" x2="146.567" y2="564.693"/>
<line x1="146.567" y1="564.693" x2="145.568" y2="566.191"/>
<line x1="145.568" y1="566.191" x2="145.069" y2="568.688"/>
<line x1="145.069" y1="568.688" x2="145.069" y2="570.186"/>
<line x1="145.069" y1="570.186" x2="145.568" y2="572.683"/>
<line x1="145.568" y1="572.683" x2="146.567" y2="574.181"/>
<line x1="146.567" y1="574.181" x2="148.065" y2="574.681"/>
<line x1="148.065" y1="574.681" x2="149.064" y2="574.681"/>
<line x1="149.064" y1="574.681" x2="150.562" y2="574.181"/>
<line x1="150.562" y1="574.181" x2="151.561" y2="572.683"/>
<line x1="151.561" y1="572.683" x2="152.060" y2="570.186"/>
<line x1="152.060" y1="570.186" x2="152.060" y2="568.688"/>
<line x1="152.060" y1="568.688" x2="151.561" y2="566.191"/>
<line x1="151.561" y1="566.191" x2="150.562" y2="564.693"/>
<line x1="150.562" y1="564.693" x2="149.064" y2="564.194"/>
<line x1="149.064" y1="564.194" x2="148.065" y2="564.194"/>
</g>
<g transform="matrix(1 0 0 1 0 0)"
style="stroke:rgb(2,2,2);
stroke-width:1.0">
<line x1="103.121" y1="450.736" x2="101.623" y2="451.235"/>
<line x1="101.623" y1="451.235" x2="100.624" y2="452.733"/>
<line x1="100.624" y1="452.733" x2="100.125" y2="455.230"/>
<line x1="100.125" y1="455.230" x2="100.125" y2="456.728"/>
<line x1="100.125" y1="456.728" x2="100.624" y2="459.225"/>
<line x1="100.624" y1="459.225" x2="101.623" y2="460.723"/>
<line x1="101.623" y1="460.723" x2="103.121" y2="461.223"/>
<line x1="103.121" y1="461.223" x2="104.120" y2="461.223"/>
<line x1="104.120" y1="461.223" x2="105.618" y2="460.723"/>
<line x1="105.618" y1="460.723" x2="106.617" y2="459.225"/>
<line x1="106.617" y1="459.225" x2="107.116" y2="456.728"/>
<line x1="107.116" y1="456.728" x2="107.116" y2="455.230"/>
<line x1="107.116" y1="455.230" x2="106.617" y2="452.733"/>
<line x1="106.617" y1="452.733" x2="105.618" y2="451.235"/>
<line x1="105.618" y1="451.235" x2="104.120" y2="450.736"/>
<line x1="104.120" y1="450.736" x2="103.121" y2="450.736"/>
<line x1="118.602" y1="460.224" x2="118.103" y2="460.723"/>
<line x1="118.103" y1="460.723" x2="118.602" y2="461.223"/>
<line x1="118.602" y1="461.223" x2="119.101" y2="460.723"/>
<line x1="119.101" y1="460.723" x2="118.602" y2="460.224"/>
<line x1="135.081" y1="450.736" x2="130.088" y2="457.727"/>
<line x1="130.088" y1="457.727" x2="137.578" y2="457.727"/>
<line x1="135.081" y1="450.736" x2="135.081" y2="461.223"/>
<line x1="148.065" y1="450.736" x2="146.567" y2="451.235"/>
<line x1="146.567" y1="451.235" x2="145.568" y2="452.733"/>
<line x1="145.568" y1="452.733" x2="145.069" y2="455.230"/>
<line x1="145.069" y1="455.230" x2="145.069" y2="456.728"/>
<line x1="145.069" y1="456.728" x2="145.568" y2="459.225"/>
<line x1="145.568" y1="459.225" x2="146.567" y2="460.723"/>
<line x1="146.567" y1="460.723" x2="148.065" y2="461.223"/>
<line x1="148.065" y1="461.223" x2="149.064" y2="461.223"/>
<line x1="149.064" y1="461.223" x2="150.562" y2="460.723"/>
<line x1="150.562" y1="460.723" x2="151.561" y2="459.225"/>
<line x1="151.561" y1="459.225" x2="152.060" y2="456.728"/>
<line x1="152.060" y1="456.728" x2="152.060" y2="455.230"/>
<line x1="152.060" y1="455.230" x2="151.561" y2="452.733"/>
<line x1="151.561" y1="452.733" x2="150.562" y2="451.235"/>
<line x1="150.562" y1="451.235" x2="149.064" y2="450.736"/>
<line x1="149.064" y1="450.736" x2="148.065" y2="450.736"/>
</g>
<g transform="matrix(1 0 0 1 0 0)"
style="stroke:rgb(2,2,2);
stroke-width:1.0">
<line x1="103.121" y1="337.278" x2="101.623" y2="337.777"/>
<line x1="101.623" y1="337.777" x2="100.624" y2="339.275"/>
<line x1="100.624" y1="339.275" x2="100.125" y2="341.772"/>
<line x1="100.125" y1="341.772" x2="100.125" y2="343.270"/>
<line x1="100.125" y1="343.270" x2="100.624" y2="345.767"/>
<line x1="100.624" y1="345.767" x2="101.623" y2="347.265"/>
<line x1="101.623" y1="347.265" x2="103.121" y2="347.765"/>
<line x1="103.121" y1="347.765" x2="104.120" y2="347.765"/>
<line x1="104.120" y1="347.765" x2="105.618" y2="347.265"/>
<line x1="105.618" y1="347.265" x2="106.617" y2="345.767"/>
<line x1="106.617" y1="345.767" x2="107.116" y2="343.270"/>
<line x1="107.116" y1="343.270" x2="107.116" y2="341.772"/>
<line x1="107.116" y1="341.772" x2="106.617" y2="339.275"/>
<line x1="106.617" y1="339.275" x2="105.618" y2="337.777"/>
<line x1="105.618" y1="337.777" x2="104.120" y2="337.278"/>
<line x1="104.120" y1="337.278" x2="103.121" y2="337.278"/>
<line x1="118.602" y1="346.766" x2="118.103" y2="347.265"/>
<line x1="118.103" y1="347.265" x2="118.602" y2="347.765"/>
<line x1="118.602" y1="347.765" x2="119.101" y2="347.265"/>
<line x1="119.101" y1="347.265" x2="118.602" y2="346.766"/>
<line x1="136.579" y1="338.776" x2="136.080" y2="337.777"/>
<line x1="136.080" y1="337.777" x2="134.582" y2="337.278"/>
<line x1="134.582" y1="337.278" x2="133.583" y2="337.278"/>
<line x1="133.583" y1="337.278" x2="132.085" y2="337.777"/>
<line x1="132.085" y1="337.777" x2="131.086" y2="339.275"/>
<line x1="131.086" y1="339.275" x2="130.587" y2="341.772"/>
<line x1="130.587" y1="341.772" x2="130.587" y2="344.269"/>
<line x1="130.587" y1="344.269" x2="131.086" y2="346.267"/>
<line x1="131.086" y1="346.267" x2="132.085" y2="347.265"/>
<line x1="132.085" y1="347.265" x2="133.583" y2="347.765"/>
<line x1="133.583" y1="347.765" x2="134.083" y2="347.765"/>
<line x1="134.083" y1="347.765" x2="135.581" y2="347.265"/>
<line x1="135.581" y1="347.265" x2="136.579" y2="346.267"/>
<line x1="136.579" y1="346.267" x2="137.079" y2="344.769"/>
<line x1="137.079" y1="344.769" x2="137.079" y2="344.269"/>
<line x1="137.079" y1="344.269" x2="136.579" y2="342.771"/>
<line x1="136.579" y1="342.771" x2="135.581" y2="341.772"/>
<line x1="135.581" y1="341.772" x2="134.083" y2="341.273"/>
<line x1="134.083" y1="341.273" x2="133.583" y2="341.273"/>
<line x1="133.583" y1="341.273" x2="132.085" y2="341.772"/>
<line x1="132.085" y1="341.772" x2="131.086" y2="342.771"/>
<line x1="131.086" y1="342.771" x2="130.587" y2="344.269"/>
<line x1="148.065" y1="337.278" x2="146.567" y2="337.777"/>
<line x1="146.567" y1="337.777" x2="145.568" y2="339.275"/>
<line x1="145.568" y1="339.275" x2="145.069" y2="341.772"/>
<line x1="145.069" y1="341.772" x2="145.069" y2="343.270"/>
<line x1="145.069" y1="343.270" x2="145.568" y2="345.767"/>
<line x1="145.568" y1="345.767" x2="146.567" y2="347.265"/>
<line x1="146.567" y1="347.265" x2="148.065" y2="347.765"/>
<line x1="148.065" y1="347.765" x2="149.064" y2="347.765"/>
<line x1="149.064" y1="347.765" x2="150.562" y2="347.265"/>
<line x1="150.562" y1="347.265" x2="151.561" y2="345.767"/>
<line x1="151.561" y1="345.767" x2="152.060" y2="343.270"/>
<line x1="152.060" y1="343.270" x2="152.060" y2="341.772"/>
<line x1="152.060" y1="341.772" x2="151.561" y2="339.275"/>
<line x1="151.561" y1="339.275" x2="150.562" y2="337.777"/>
<line x1="150.562" y1="337.777" x2="149.064" y2="337.278"/>
<line x1="149.064" y1="337.278" x2="148.065" y2="337.278"/>
</g>
<g transform="matrix(1 0 0 1 0 0)"
style="stroke:rgb(2,2,2);
stroke-width:1.0">
<line x1="103.121" y1="223.820" x2="101.623" y2="224.319"/>
<line x1="101.623" y1="224.319" x2="100.624" y2="225.817"/>
<line x1="100.624" y1="225.817" x2="100.125" y2="228.314"/>
<line x1="100.125" y1="228.314" x2="100.125" y2="229.812"/>
<line x1="100.125" y1="229.812" x2="100.624" y2="232.309"/>
<line x1="100.624" y1="232.309" x2="101.623" y2="233.807"/>
<line x1="101.623" y1="233.807" x2="103.121" y2="234.307"/>
<line x1="103.121" y1="234.307" x2="104.120" y2="234.307"/>
<line x1="104.120" y1="234.307" x2="105.618" y2="233.807"/>
<line x1="105.618" y1="233.807" x2="106.617" y2="232.309"/>
<line x1="106.617" y1="232.309" x2="107.116" y2="229.812"/>
<line x1="107.116" y1="229.812" x2="107.116" y2="228.314"/>
<line x1="107.116" y1="228.314" x2="106.617" y2="225.817"/>
<line x1="106.617" y1="225.817" x2="105.618" y2="224.319"/>
<line x1="105.618" y1="224.319" x2="104.120" y2="223.820"/>
<line x1="104.120" y1="223.820" x2="103.121" y2="223.820"/>
<line x1="118.602" y1="233.308" x2="118.103" y2="233.807"/>
<line x1="118.103" y1="233.807" x2="118.602" y2="234.307"/>
<line x1="118.602" y1="234.307" x2="119.101" y2="233.807"/>
<line x1="119.101" y1="233.807" x2="118.602" y2="233.308"/>
<line x1="132.584" y1="223.820" x2="131.086" y2="224.319"/>
<line x1="131.086" y1="224.319" x2="130.587" y2="225.318"/>
<line x1="130.587" y1="225.318" x2="130.587" y2="226.317"/>
<line x1="130.587" y1="226.317" x2="131.086" y2="227.315"/>
<line x1="131.086" y1="227.315" x2="132.085" y2="227.815"/>
<line x1="132.085" y1="227.815" x2="134.083" y2="228.314"/>
<line x1="134.083" y1="228.314" x2="135.581" y2="228.814"/>
<line x1="135.581" y1="228.814" x2="136.579" y2="229.812"/>
<line x1="136.579" y1="229.812" x2="137.079" y2="230.811"/>
<line x1="137.079" y1="230.811" x2="137.079" y2="232.309"/>
<line x1="137.079" y1="232.309" x2="136.579" y2="233.308"/>
<line x1="136.579" y1="233.308" x2="136.080" y2="233.807"/>
<line x1="136.080" y1="233.807" x2="134.582" y2="234.307"/>
<line x1="134.582" y1="234.307" x2="132.584" y2="234.307"/>
<line x1="132.584" y1="234.307" x2="131.086" y2="233.807"/>
<line x1="131.086" y1="233.807" x2="130.587" y2="233.308"/>
<line x1="130.587" y1="233.308" x2="130.088" y2="232.309"/>
<line x1="130.088" y1="232.309" x2="130.088" y2="230.811"/>
<line x1="130.088" y1="230.811" x2="130.587" y2="229.812"/>
<line x1="130.587" y1="229.812" x2="131.586" y2="228.814"/>
<line x1="131.586" y1="228.814" x2="133.084" y2="228.314"/>
<line x1="133.084" y1="228.314" x2="135.081" y2="227.815"/>
<line x1="135.081" y1="227.815" x2="136.080" y2="227.315"/>
<line x1="136.080" y1="227.315" x2="136.579" y2="226.317"/>
<line x1="136.579" y1="226.317" x2="136.579" y2="225.318"/>
<line x1="136.579" y1="225.318" x2="136.080" y2="224.319"/>
<line x1="136.080" y1="224.319" x2="134.582" y2="223.820"/>
<line x1="134.582" y1="223.820" x2="132.584" y2="223.820"/>
<line x1="148.065" y1="223.820" x2="146.567" y2="224.319"/>
<line x1="146.567" y1="224.319" x2="145.568" y2="225.817"/>
<line x1="145.568" y1="225.817" x2="145.069" y2="228.314"/>
<line x1="145.069" y1="228.314" x2="145.069" y2="229.812"/>
<line x1="145.069" y1="229.812" x2="145.568" y2="232.309"/>
<line x1="145.568" y1="232.309" x2="146.567" y2="233.807"/>
<line x1="146.567" y1="233.807" x2="148.065" y2="234.307"/>
<line x1="148.065" y1="234.307" x2="149.064" y2="234.307"/>
<line x1="149.064" y1="234.307" x2="150.562" y2="233.807"/>
<line x1="150.562" y1="233.807" x2="151.561" y2="232.309"/>
<line x1="151.561" y1="232.309" x2="152.060" y2="229.812"/>
<line x1="152.060" y1="229.812" x2="152.060" y2="228.314"/>
<line x1="152.060" y1="228.314" x2="151.561" y2="225.817"/>
<line x1="151.561" y1="225.817" x2="150.562" y2="224.319"/>
<line x1="150.562" y1="224.319" x2="149.064" y2="223.820"/>
<line x1="149.064" y1="223.820" x2="148.065" y2="223.820"/>
</g>
<g transform="matrix(1 0 0 1 0 0)"
style="stroke:rgb(2,2,2);
stroke-width:1.0">
<line x1="101.623" y1="112.359" x2="102.622" y2="111.860"/>
<line x1="102.622" y1="111.860" x2="104.120" y2="110.362"/>
<line x1="104.120" y1="110.362" x2="104.120" y2="120.849"/>
<line x1="118.602" y1="119.850" x2="118.103" y2="120.349"/>
<line x1="118.103" y1="120.349" x2="118.602" y2="120.849"/>
<line x1="118.602" y1="120.849" x2="119.101" y2="120.349"/>
<line x1="119.101" y1="120.349" x2="118.602" y2="119.850"/>
<line x1="133.084" y1="110.362" x2="131.586" y2="110.861"/>
<line x1="131.586" y1="110.861" x2="130.587" y2="112.359"/>
<line x1="130.587" y1="112.359" x2="130.088" y2="114.856"/>
<line x1="130.088" y1="114.856" x2="130.088" y2="116.354"/>
<line x1="130.088" y1="116.354" x2="130.587" y2="118.851"/>
<line x1="130.587" y1="118.851" x2="131.586" y2="120.349"/>
<line x1="131.586" y1="120.349" x2="133.084" y2="120.849"/>
<line x1="133.084" y1="120.849" x2="134.083" y2="120.849"/>
<line x1="134.083" y1="120.849" x2="135.581" y2="120.349"/>
<line x1="135.581" y1="120.349" x2="136.579" y2="118.851"/>
<line x1="136.579" y1="118.851" x2="137.079" y2="116.354"/>
<line x1="137.079" y1="116.354" x2="137.079" y2="114.856"/>
<line x1="137.079" y1="114.856" x2="136.579" y2="112.359"/>
<line x1="136.579" y1="112.359" x2="135.581" y2="110.861"/>
<line x1="135.581" y1="110.861" x2="134.083" y2="110.362"/>
<line x1="134.083" y1="110.362" x2="133.084" y2="110.362"/>
<line x1="148.065" y1="110.362" x2="146.567" y2="110.861"/>
<line x1="146.567" y1="110.861" x2="145.568" y2="112.359"/>
<line x1="145.568" y1="112.359" x2="145.069" y2="114.856"/>
<line x1="145.069" y1="114.856" x2="145.069" y2="116.354"/>
<line x1="145.069" y1="116.354" x2="145.568" y2="118.851"/>
<line x1="145.568" y1="118.851" x2="146.567" y2="120.349"/>
<line x1="146.567" y1="120.349" x2="148.065" y2="120.849"/>
<line x1="148.065" y1="120.849" x2="149.064" y2="120.849"/>
<line x1="149.064" y1="120.849" x2="150.562" y2="120.349"/>
<line x1="150.562" y1="120.349" x2="151.561" y2="118.851"/>
<line x1="151.561" y1="118.851" x2="152.060" y2="116.354"/>
<line x1="152.060" y1="116.354" x2="152.060" y2="114.856"/>
<line x1="152.060" y1="114.856" x2="151.561" y2="112.359"/>
<line x1="151.561" y1="112.359" x2="150.562" y2="110.861"/>
<line x1="150.562" y1="110.861" x2="149.064" y2="110.362"/>
<line x1="149.064" y1="110.362" x2="148.065" y2="110.362"/>
</g>
<g transform="matrix(1 0 0 1 0 0)"
style="stroke:rgb(2,2,2);
stroke-width:1.0">
<line x1="174.033" y1="683.145" x2="1024.968" y2="683.145"/>
<line x1="1024.968" y1="683.145" x2="1024.968" y2="115.855"/>
<line x1="1024.968" y1="115.855" x2="174.033" y2="115.855"/>
<line x1="174.033" y1="115.855" x2="174.033" y2="683.145"/>
</g>
<g transform="matrix(1 0 0 1 0 0)"
style="stroke:rgb(2,2,2);
stroke-width:1.0">
<line x1="174.033" y1="683.145" x2="1024.968" y2="683.145"/>
</g>
<g transform="matrix(1 0 0 1 0 0)"
style="stroke:rgb(2,2,2);
stroke-width:1.0">
<line x1="174.033" y1="683.145" x2="174.033" y2="115.855"/>
</g>
<g transform="matrix(1 0 0 1 0 0)"
style="stroke:rgb(2,2,255);
stroke-width:1.0">
<line x1="177.664" y1="679.513" x2="174.033" y2="683.145"/>
<line x1="255.494" y1="678.379" x2="260.261" y2="683.145"/>
<line x1="262.758" y1="678.379" x2="257.991" y2="683.145"/>
<line x1="340.588" y1="660.793" x2="347.851" y2="668.056"/>
<line x1="347.851" y1="660.793" x2="340.588" y2="668.056"/>
<line x1="425.681" y1="627.323" x2="432.945" y2="634.586"/>
<line x1="432.945" y1="627.323" x2="425.681" y2="634.586"/>
<line x1="510.775" y1="588.180" x2="518.038" y2="595.443"/>
<line x1="518.038" y1="588.180" x2="510.775" y2="595.443"/>
<line x1="595.868" y1="537.123" x2="603.132" y2="544.387"/>
<line x1="603.132" y1="537.123" x2="595.868" y2="544.387"/>
<line x1="680.962" y1="474.324" x2="688.225" y2="481.588"/>
<line x1="688.225" y1="474.324" x2="680.962" y2="481.588"/>
<line x1="766.055" y1="395.868" x2="773.319" y2="403.132"/>
<line x1="773.319" y1="395.868" x2="766.055" y2="403.132"/>
<line x1="851.149" y1="301.698" x2="858.412" y2="308.962"/>
<line x1="858.412" y1="301.698" x2="851.149" y2="308.962"/>
<line x1="936.242" y1="217.739" x2="943.506" y2="225.003"/>
<line x1="943.506" y1="217.739" x2="936.242" y2="225.003"/>
<line x1="1023.266" y1="115.855" x2="1024.968" y2="117.557"/>
<line x1="1024.968" y1="117.557" x2="1021.336" y2="121.189"/>
</g>
<g transform="matrix(1 0 0 1 0 0)"
style="stroke:rgb(0,0,0);
stroke-width:1.0">
<line x1="0.500" y1="798.500" x2="1198.500" y2="798.500"/>
<line x1="1198.500" y1="798.500" x2="1198.500" y2="0.500"/>
<line x1="1198.500" y1="0.500" x2="0.500" y2="0.500"/>
<line x1="0.500" y1="0.500" x2="0.500" y2="798.500"/>
</g>
</svg>
