<svg 
xmlns="http://www.w3.org/2000/svg"                   
width="1200"
height="800"
viewBox="0 0 1200 800">
<g transform="matrix(1 0 0 1 0 0)"                     
style="stroke:rgb(204,25,25);
stroke-width:1.0">
<line x1="174.033" y1="683.145" x2="259.126" y2="677.472"/>
<line x1="259.126" y1="677.472" x2="344.220" y2="660.453"/>
<line x1="344.220" y1="660.453" x2="429.313" y2="632.089"/>
<line x1="429.313" y1="632.089" x2="514.406" y2="592.379"/>
<line x1="514.406" y1="592.379" x2="599.500" y2="541.323"/>
<line x1="599.500" y1="541.323" x2="684.594" y2="478.921"/>
<line x1="684.594" y1="478.921" x2="769.687" y2="405.173"/>
<line x1="769.687" y1="405.173" x2="854.781" y2="320.079"/>
<line x1="854.781" y1="320.079" x2="939.874" y2="223.640"/>
<line x1="939.874" y1="223.640" x2="1024.967" y2="115.855"/>
<line x1="174.033" y1="683.145" x2="174.033" y2="680.309"/>
<line x1="174.033" y1="683.145" x2="176.869" y2="683.145"/>
<line x1="254.020" y1="680.309" x2="254.020" y2="674.636"/>
<line x1="254.020" y1="677.472" x2="264.232" y2="677.472"/>
<line x1="264.232" y1="680.309" x2="264.232" y2="674.636"/>
<line x1="256.290" y1="679.741" x2="261.962" y2="679.741"/>
<line x1="259.126" y1="679.741" x2="259.126" y2="675.203"/>
<line x1="256.290" y1="675.203" x2="261.962" y2="675.203"/>
<line x1="242.107" y1="663.290" x2="242.107" y2="657.617"/>
<line x1="242.107" y1="660.453" x2="446.332" y2="660.453"/>
<line x1="446.332" y1="663.290" x2="446.332" y2="657.617"/>
<line x1="341.383" y1="666.126" x2="347.056" y2="666.126"/>
<line x1="344.220" y1="666.126" x2="344.220" y2="654.781"/>
<line x1="341.383" y1="654.781" x2="347.056" y2="654.781"/>
<line x1="402.083" y1="634.925" x2="402.083" y2="629.252"/>
<line x1="402.083" y1="632.089" x2="456.543" y2="632.089"/>
<line x1="456.543" y1="634.925" x2="456.543" y2="629.252"/>
<line x1="426.477" y1="655.348" x2="432.149" y2="655.348"/>
<line x1="429.313" y1="655.348" x2="429.313" y2="608.830"/>
<line x1="426.477" y1="608.830" x2="432.149" y2="608.830"/>
<line x1="477.816" y1="595.215" x2="477.816" y2="589.542"/>
<line x1="477.816" y1="592.379" x2="550.997" y2="592.379"/>
<line x1="550.997" y1="595.215" x2="550.997" y2="589.542"/>
<line x1="511.570" y1="639.464" x2="517.243" y2="639.464"/>
<line x1="514.406" y1="639.464" x2="514.406" y2="545.294"/>
<line x1="511.570" y1="545.294" x2="517.243" y2="545.294"/>
<line x1="522.916" y1="544.159" x2="522.916" y2="538.486"/>
<line x1="522.916" y1="541.323" x2="676.084" y2="541.323"/>
<line x1="676.084" y1="544.159" x2="676.084" y2="538.486"/>
<line x1="596.664" y1="548.697" x2="602.336" y2="548.697"/>
<line x1="599.500" y1="548.697" x2="599.500" y2="533.948"/>
<line x1="596.664" y1="533.948" x2="602.336" y2="533.948"/>
<line x1="665.873" y1="481.757" x2="665.873" y2="476.084"/>
<line x1="665.873" y1="478.921" x2="703.314" y2="478.921"/>
<line x1="703.314" y1="481.757" x2="703.314" y2="476.084"/>
<line x1="681.757" y1="491.401" x2="687.430" y2="491.401"/>
<line x1="684.594" y1="491.401" x2="684.594" y2="466.440"/>
<line x1="681.757" y1="466.440" x2="687.430" y2="466.440"/>
<line x1="751.817" y1="408.009" x2="751.817" y2="402.336"/>
<line x1="751.817" y1="405.173" x2="787.557" y2="405.173"/>
<line x1="787.557" y1="408.009" x2="787.557" y2="402.336"/>
<line x1="766.851" y1="423.893" x2="772.523" y2="423.893"/>
<line x1="769.687" y1="423.893" x2="769.687" y2="386.452"/>
<line x1="766.851" y1="386.452" x2="772.523" y2="386.452"/>
<line x1="798.619" y1="322.916" x2="798.619" y2="317.243"/>
<line x1="798.619" y1="320.079" x2="910.942" y2="320.079"/>
<line x1="910.942" y1="322.916" x2="910.942" y2="317.243"/>
<line x1="851.944" y1="350.713" x2="857.617" y2="350.713"/>
<line x1="854.781" y1="350.713" x2="854.781" y2="289.446"/>
<line x1="851.944" y1="289.446" x2="857.617" y2="289.446"/>
<line x1="912.644" y1="226.477" x2="912.644" y2="220.804"/>
<line x1="912.644" y1="223.640" x2="967.104" y2="223.640"/>
<line x1="967.104" y1="226.477" x2="967.104" y2="220.804"/>
<line x1="937.037" y1="260.514" x2="942.710" y2="260.514"/>
<line x1="939.874" y1="260.514" x2="939.874" y2="186.766"/>
<line x1="937.037" y1="186.766" x2="942.710" y2="186.766"/>
<line x1="982.421" y1="118.691" x2="982.421" y2="115.855"/>
<line x1="982.421" y1="115.855" x2="1024.968" y2="115.855"/>
<line x1="1022.131" y1="172.584" x2="1024.968" y2="172.584"/>
<line x1="1024.967" y1="172.584" x2="1024.967" y2="115.855"/>
</g>
<g transform="matrix(1 0 0 1 0 0)"                     
style="stroke:rgb(2,2,2);
stroke-width:1.0">
<line x1="350.961" y1="41.848" x2="350.961" y2="56.529"/>
<line x1="350.961" y1="56.529" x2="359.351" y2="56.529"/>
<line x1="365.643" y1="46.742" x2="364.244" y2="47.441"/>
<line x1="364.244" y1="47.441" x2="362.846" y2="48.839"/>
<line x1="362.846" y1="48.839" x2="362.147" y2="50.936"/>
<line x1="362.147" y1="50.936" x2="362.147" y2="52.335"/>
<line x1="362.147" y1="52.335" x2="362.846" y2="54.432"/>
<line x1="362.846" y1="54.432" x2="364.244" y2="55.830"/>
<line x1="364.244" y1="55.830" x2="365.643" y2="56.529"/>
<line x1="365.643" y1="56.529" x2="367.740" y2="56.529"/>
<line x1="367.740" y1="56.529" x2="369.138" y2="55.830"/>
<line x1="369.138" y1="55.830" x2="370.537" y2="54.432"/>
<line x1="370.537" y1="54.432" x2="371.236" y2="52.335"/>
<line x1="371.236" y1="52.335" x2="371.236" y2="50.936"/>
<line x1="371.236" y1="50.936" x2="370.537" y2="48.839"/>
<line x1="370.537" y1="48.839" x2="369.138" y2="47.441"/>
<line x1="369.138" y1="47.441" x2="367.740" y2="46.742"/>
<line x1="367.740" y1="46.742" x2="365.643" y2="46.742"/>
<line x1="378.926" y1="46.742" x2="377.528" y2="47.441"/>
<line x1="377.528" y1="47.441" x2="376.130" y2="48.839"/>
<line x1="376.130" y1="48.839" x2="375.430" y2="50.936"/>
<line x1="375.430" y1="50.936" x2="375.430" y2="52.335"/>
<line x1="375.430" y1="52.335" x2="376.130" y2="54.432"/>
<line x1="376.130" y1="54.432" x2="377.528" y2="55.830"/>
<line x1="377.528" y1="55.830" x2="378.926" y2="56.529"/>
<line x1="378.926" y1="56.529" x2="381.023" y2="56.529"/>
<line x1="381.023" y1="56.529" x2="382.422" y2="55.830"/>
<line x1="382.422" y1="55.830" x2="383.820" y2="54.432"/>
<line x1="383.820" y1="54.432" x2="384.519" y2="52.335"/>
<line x1="384.519" y1="52.335" x2="384.519" y2="50.936"/>
<line x1="384.519" y1="50.936" x2="383.820" y2="48.839"/>
<line x1="383.820" y1="48.839" x2="382.422" y2="47.441"/>
<line x1="382.422" y1="47.441" x2="381.023" y2="46.742"/>
<line x1="381.023" y1="46.742" x2="378.926" y2="46.742"/>
<line x1="389.413" y1="41.848" x2="389.413" y2="56.529"/>
<line x1="396.404" y1="46.742" x2="389.413" y2="53.733"/>
<line x1="392.209" y1="50.936" x2="397.103" y2="56.529"/>
<line x1="408.289" y1="48.839" x2="407.590" y2="47.441"/>
<line x1="407.590" y1="47.441" x2="405.493" y2="46.742"/>
<line x1="405.493" y1="46.742" x2="403.395" y2="46.742"/>
<line x1="403.395" y1="46.742" x2="401.298" y2="47.441"/>
<line x1="401.298" y1="47.441" x2="400.599" y2="48.839"/>
<line x1="400.599" y1="48.839" x2="401.298" y2="50.237"/>
<line x1="401.298" y1="50.237" x2="402.696" y2="50.936"/>
<line x1="402.696" y1="50.936" x2="406.192" y2="51.635"/>
<line x1="406.192" y1="51.635" x2="407.590" y2="52.335"/>
<line x1="407.590" y1="52.335" x2="408.289" y2="53.733"/>
<line x1="408.289" y1="53.733" x2="408.289" y2="54.432"/>
<line x1="408.289" y1="54.432" x2="407.590" y2="55.830"/>
<line x1="407.590" y1="55.830" x2="405.493" y2="56.529"/>
<line x1="405.493" y1="56.529" x2="403.395" y2="56.529"/>
<line x1="403.395" y1="56.529" x2="401.298" y2="55.830"/>
<line x1="401.298" y1="55.830" x2="400.599" y2="54.432"/>
<line x1="426.467" y1="41.848" x2="426.467" y2="56.529"/>
<line x1="431.360" y1="41.848" x2="432.060" y2="42.547"/>
<line x1="432.060" y1="42.547" x2="432.759" y2="41.848"/>
<line x1="432.759" y1="41.848" x2="432.060" y2="41.149"/>
<line x1="432.060" y1="41.149" x2="431.360" y2="41.848"/>
<line x1="432.060" y1="46.742" x2="432.060" y2="56.529"/>
<line x1="437.653" y1="41.848" x2="437.653" y2="56.529"/>
<line x1="444.644" y1="46.742" x2="437.653" y2="53.733"/>
<line x1="440.449" y1="50.936" x2="445.343" y2="56.529"/>
<line x1="448.839" y1="50.936" x2="457.228" y2="50.936"/>
<line x1="457.228" y1="50.936" x2="457.228" y2="49.538"/>
<line x1="457.228" y1="49.538" x2="456.529" y2="48.140"/>
<line x1="456.529" y1="48.140" x2="455.830" y2="47.441"/>
<line x1="455.830" y1="47.441" x2="454.432" y2="46.742"/>
<line x1="454.432" y1="46.742" x2="452.334" y2="46.742"/>
<line x1="452.334" y1="46.742" x2="450.936" y2="47.441"/>
<line x1="450.936" y1="47.441" x2="449.538" y2="48.839"/>
<line x1="449.538" y1="48.839" x2="448.839" y2="50.936"/>
<line x1="448.839" y1="50.936" x2="448.839" y2="52.335"/>
<line x1="448.839" y1="52.335" x2="449.538" y2="54.432"/>
<line x1="449.538" y1="54.432" x2="450.936" y2="55.830"/>
<line x1="450.936" y1="55.830" x2="452.334" y2="56.529"/>
<line x1="452.334" y1="56.529" x2="454.432" y2="56.529"/>
<line x1="454.432" y1="56.529" x2="455.830" y2="55.830"/>
<line x1="455.830" y1="55.830" x2="457.228" y2="54.432"/>
<line x1="474.706" y1="46.742" x2="482.397" y2="56.529"/>
<line x1="482.397" y1="46.742" x2="474.706" y2="56.529"/>
<line x1="485.613" y1="41.149" x2="485.613" y2="40.869"/>
<line x1="485.613" y1="40.869" x2="485.892" y2="40.310"/>
<line x1="485.892" y1="40.310" x2="486.172" y2="40.030"/>
<line x1="486.172" y1="40.030" x2="486.731" y2="39.750"/>
<line x1="486.731" y1="39.750" x2="487.850" y2="39.750"/>
<line x1="487.850" y1="39.750" x2="488.409" y2="40.030"/>
<line x1="488.409" y1="40.030" x2="488.689" y2="40.310"/>
<line x1="488.689" y1="40.310" x2="488.968" y2="40.869"/>
<line x1="488.968" y1="40.869" x2="488.968" y2="41.428"/>
<line x1="488.968" y1="41.428" x2="488.689" y2="41.987"/>
<line x1="488.689" y1="41.987" x2="488.129" y2="42.826"/>
<line x1="488.129" y1="42.826" x2="485.333" y2="45.623"/>
<line x1="485.333" y1="45.623" x2="489.248" y2="45.623"/>
<line x1="505.468" y1="46.742" x2="508.264" y2="56.529"/>
<line x1="511.061" y1="46.742" x2="508.264" y2="56.529"/>
<line x1="511.061" y1="46.742" x2="513.857" y2="56.529"/>
<line x1="516.654" y1="46.742" x2="513.857" y2="56.529"/>
<line x1="520.848" y1="41.848" x2="521.548" y2="42.547"/>
<line x1="521.548" y1="42.547" x2="522.247" y2="41.848"/>
<line x1="522.247" y1="41.848" x2="521.548" y2="41.149"/>
<line x1="521.548" y1="41.149" x2="520.848" y2="41.848"/>
<line x1="521.548" y1="46.742" x2="521.548" y2="56.529"/>
<line x1="527.840" y1="41.848" x2="527.840" y2="53.733"/>
<line x1="527.840" y1="53.733" x2="528.539" y2="55.830"/>
<line x1="528.539" y1="55.830" x2="529.937" y2="56.529"/>
<line x1="529.937" y1="56.529" x2="531.335" y2="56.529"/>
<line x1="525.742" y1="46.742" x2="530.636" y2="46.742"/>
<line x1="535.530" y1="41.848" x2="535.530" y2="56.529"/>
<line x1="535.530" y1="49.538" x2="537.627" y2="47.441"/>
<line x1="537.627" y1="47.441" x2="539.026" y2="46.742"/>
<line x1="539.026" y1="46.742" x2="541.123" y2="46.742"/>
<line x1="541.123" y1="46.742" x2="542.521" y2="47.441"/>
<line x1="542.521" y1="47.441" x2="543.220" y2="49.538"/>
<line x1="543.220" y1="49.538" x2="543.220" y2="56.529"/>
<line x1="569.088" y1="48.839" x2="568.389" y2="47.441"/>
<line x1="568.389" y1="47.441" x2="566.292" y2="46.742"/>
<line x1="566.292" y1="46.742" x2="564.194" y2="46.742"/>
<line x1="564.194" y1="46.742" x2="562.097" y2="47.441"/>
<line x1="562.097" y1="47.441" x2="561.398" y2="48.839"/>
<line x1="561.398" y1="48.839" x2="562.097" y2="50.237"/>
<line x1="562.097" y1="50.237" x2="563.495" y2="50.936"/>
<line x1="563.495" y1="50.936" x2="566.991" y2="51.635"/>
<line x1="566.991" y1="51.635" x2="568.389" y2="52.335"/>
<line x1="568.389" y1="52.335" x2="569.088" y2="53.733"/>
<line x1="569.088" y1="53.733" x2="569.088" y2="54.432"/>
<line x1="569.088" y1="54.432" x2="568.389" y2="55.830"/>
<line x1="568.389" y1="55.830" x2="566.292" y2="56.529"/>
<line x1="566.292" y1="56.529" x2="564.194" y2="56.529"/>
<line x1="564.194" y1="56.529" x2="562.097" y2="55.830"/>
<line x1="562.097" y1="55.830" x2="561.398" y2="54.432"/>
<line x1="572.584" y1="46.742" x2="576.778" y2="56.529"/>
<line x1="580.973" y1="46.742" x2="576.778" y2="56.529"/>
<line x1="576.778" y1="56.529" x2="575.380" y2="59.326"/>
<line x1="575.380" y1="59.326" x2="573.982" y2="60.724"/>
<line x1="573.982" y1="60.724" x2="572.584" y2="61.423"/>
<line x1="572.584" y1="61.423" x2="571.885" y2="61.423"/>
<line x1="585.168" y1="46.742" x2="585.168" y2="56.529"/>
<line x1="585.168" y1="49.538" x2="587.265" y2="47.441"/>
<line x1="587.265" y1="47.441" x2="588.664" y2="46.742"/>
<line x1="588.664" y1="46.742" x2="590.761" y2="46.742"/>
<line x1="590.761" y1="46.742" x2="592.159" y2="47.441"/>
<line x1="592.159" y1="47.441" x2="592.858" y2="49.538"/>
<line x1="592.858" y1="49.538" x2="592.858" y2="56.529"/>
<line x1="592.858" y1="49.538" x2="594.956" y2="47.441"/>
<line x1="594.956" y1="47.441" x2="596.354" y2="46.742"/>
<line x1="596.354" y1="46.742" x2="598.451" y2="46.742"/>
<line x1="598.451" y1="46.742" x2="599.850" y2="47.441"/>
<line x1="599.850" y1="47.441" x2="600.549" y2="49.538"/>
<line x1="600.549" y1="49.538" x2="600.549" y2="56.529"/>
<line x1="606.142" y1="46.742" x2="606.142" y2="56.529"/>
<line x1="606.142" y1="49.538" x2="608.239" y2="47.441"/>
<line x1="608.239" y1="47.441" x2="609.637" y2="46.742"/>
<line x1="609.637" y1="46.742" x2="611.735" y2="46.742"/>
<line x1="611.735" y1="46.742" x2="613.133" y2="47.441"/>
<line x1="613.133" y1="47.441" x2="613.832" y2="49.538"/>
<line x1="613.832" y1="49.538" x2="613.832" y2="56.529"/>
<line x1="613.832" y1="49.538" x2="615.930" y2="47.441"/>
<line x1="615.930" y1="47.441" x2="617.328" y2="46.742"/>
<line x1="617.328" y1="46.742" x2="619.425" y2="46.742"/>
<line x1="619.425" y1="46.742" x2="620.823" y2="47.441"/>
<line x1="620.823" y1="47.441" x2="621.522" y2="49.538"/>
<line x1="621.522" y1="49.538" x2="621.522" y2="56.529"/>
<line x1="626.416" y1="50.936" x2="634.806" y2="50.936"/>
<line x1="634.806" y1="50.936" x2="634.806" y2="49.538"/>
<line x1="634.806" y1="49.538" x2="634.107" y2="48.140"/>
<line x1="634.107" y1="48.140" x2="633.408" y2="47.441"/>
<line x1="633.408" y1="47.441" x2="632.009" y2="46.742"/>
<line x1="632.009" y1="46.742" x2="629.912" y2="46.742"/>
<line x1="629.912" y1="46.742" x2="628.514" y2="47.441"/>
<line x1="628.514" y1="47.441" x2="627.116" y2="48.839"/>
<line x1="627.116" y1="48.839" x2="626.416" y2="50.936"/>
<line x1="626.416" y1="50.936" x2="626.416" y2="52.335"/>
<line x1="626.416" y1="52.335" x2="627.116" y2="54.432"/>
<line x1="627.116" y1="54.432" x2="628.514" y2="55.830"/>
<line x1="628.514" y1="55.830" x2="629.912" y2="56.529"/>
<line x1="629.912" y1="56.529" x2="632.009" y2="56.529"/>
<line x1="632.009" y1="56.529" x2="633.408" y2="55.830"/>
<line x1="633.408" y1="55.830" x2="634.806" y2="54.432"/>
<line x1="640.399" y1="41.848" x2="640.399" y2="53.733"/>
<line x1="640.399" y1="53.733" x2="641.098" y2="55.830"/>
<line x1="641.098" y1="55.830" x2="642.496" y2="56.529"/>
<line x1="642.496" y1="56.529" x2="643.894" y2="56.529"/>
<line x1="638.302" y1="46.742" x2="643.195" y2="46.742"/>
<line x1="648.089" y1="46.742" x2="648.089" y2="56.529"/>
<line x1="648.089" y1="50.936" x2="648.788" y2="48.839"/>
<line x1="648.788" y1="48.839" x2="650.187" y2="47.441"/>
<line x1="650.187" y1="47.441" x2="651.585" y2="46.742"/>
<line x1="651.585" y1="46.742" x2="653.682" y2="46.742"/>
<line x1="656.479" y1="41.848" x2="657.178" y2="42.547"/>
<line x1="657.178" y1="42.547" x2="657.877" y2="41.848"/>
<line x1="657.877" y1="41.848" x2="657.178" y2="41.149"/>
<line x1="657.178" y1="41.149" x2="656.479" y2="41.848"/>
<line x1="657.178" y1="46.742" x2="657.178" y2="56.529"/>
<line x1="670.461" y1="48.839" x2="669.063" y2="47.441"/>
<line x1="669.063" y1="47.441" x2="667.665" y2="46.742"/>
<line x1="667.665" y1="46.742" x2="665.567" y2="46.742"/>
<line x1="665.567" y1="46.742" x2="664.169" y2="47.441"/>
<line x1="664.169" y1="47.441" x2="662.771" y2="48.839"/>
<line x1="662.771" y1="48.839" x2="662.072" y2="50.936"/>
<line x1="662.072" y1="50.936" x2="662.072" y2="52.335"/>
<line x1="662.072" y1="52.335" x2="662.771" y2="54.432"/>
<line x1="662.771" y1="54.432" x2="664.169" y2="55.830"/>
<line x1="664.169" y1="55.830" x2="665.567" y2="56.529"/>
<line x1="665.567" y1="56.529" x2="667.665" y2="56.529"/>
<line x1="667.665" y1="56.529" x2="669.063" y2="55.830"/>
<line x1="669.063" y1="55.830" x2="670.461" y2="54.432"/>
<line x1="683.046" y1="46.742" x2="683.046" y2="56.529"/>
<line x1="683.046" y1="48.839" x2="681.647" y2="47.441"/>
<line x1="681.647" y1="47.441" x2="680.249" y2="46.742"/>
<line x1="680.249" y1="46.742" x2="678.152" y2="46.742"/>
<line x1="678.152" y1="46.742" x2="676.753" y2="47.441"/>
<line x1="676.753" y1="47.441" x2="675.355" y2="48.839"/>
<line x1="675.355" y1="48.839" x2="674.656" y2="50.936"/>
<line x1="674.656" y1="50.936" x2="674.656" y2="52.335"/>
<line x1="674.656" y1="52.335" x2="675.355" y2="54.432"/>
<line x1="675.355" y1="54.432" x2="676.753" y2="55.830"/>
<line x1="676.753" y1="55.830" x2="678.152" y2="56.529"/>
<line x1="678.152" y1="56.529" x2="680.249" y2="56.529"/>
<line x1="680.249" y1="56.529" x2="681.647" y2="55.830"/>
<line x1="681.647" y1="55.830" x2="683.046" y2="54.432"/>
<line x1="688.638" y1="41.848" x2="688.638" y2="56.529"/>
<line x1="706.816" y1="46.742" x2="714.506" y2="56.529"/>
<line x1="714.506" y1="46.742" x2="706.816" y2="56.529"/>
<line x1="745.967" y1="48.140" x2="745.967" y2="47.441"/>
<line x1="745.967" y1="47.441" x2="745.268" y2="46.742"/>
<line x1="745.268" y1="46.742" x2="744.568" y2="46.742"/>
<line x1="744.568" y1="46.742" x2="743.869" y2="47.441"/>
<line x1="743.869" y1="47.441" x2="743.170" y2="48.839"/>
<line x1="743.170" y1="48.839" x2="741.772" y2="52.335"/>
<line x1="741.772" y1="52.335" x2="740.374" y2="54.432"/>
<line x1="740.374" y1="54.432" x2="738.975" y2="55.830"/>
<line x1="738.975" y1="55.830" x2="737.577" y2="56.529"/>
<line x1="737.577" y1="56.529" x2="734.781" y2="56.529"/>
<line x1="734.781" y1="56.529" x2="733.383" y2="55.830"/>
<line x1="733.383" y1="55.830" x2="732.683" y2="55.131"/>
<line x1="732.683" y1="55.131" x2="731.984" y2="53.733"/>
<line x1="731.984" y1="53.733" x2="731.984" y2="52.335"/>
<line x1="731.984" y1="52.335" x2="732.683" y2="50.936"/>
<line x1="732.683" y1="50.936" x2="733.383" y2="50.237"/>
<line x1="733.383" y1="50.237" x2="738.276" y2="47.441"/>
<line x1="738.276" y1="47.441" x2="738.975" y2="46.742"/>
<line x1="738.975" y1="46.742" x2="739.675" y2="45.343"/>
<line x1="739.675" y1="45.343" x2="739.675" y2="43.945"/>
<line x1="739.675" y1="43.945" x2="738.975" y2="42.547"/>
<line x1="738.975" y1="42.547" x2="737.577" y2="41.848"/>
<line x1="737.577" y1="41.848" x2="736.179" y2="42.547"/>
<line x1="736.179" y1="42.547" x2="735.480" y2="43.945"/>
<line x1="735.480" y1="43.945" x2="735.480" y2="45.343"/>
<line x1="735.480" y1="45.343" x2="736.179" y2="47.441"/>
<line x1="736.179" y1="47.441" x2="737.577" y2="49.538"/>
<line x1="737.577" y1="49.538" x2="741.073" y2="54.432"/>
<line x1="741.073" y1="54.432" x2="742.471" y2="55.830"/>
<line x1="742.471" y1="55.830" x2="743.869" y2="56.529"/>
<line x1="743.869" y1="56.529" x2="745.268" y2="56.529"/>
<line x1="745.268" y1="56.529" x2="745.967" y2="55.830"/>
<line x1="745.967" y1="55.830" x2="745.967" y2="55.131"/>
<line x1="762.746" y1="46.742" x2="766.940" y2="56.529"/>
<line x1="771.135" y1="46.742" x2="766.940" y2="56.529"/>
<line x1="766.940" y1="56.529" x2="765.542" y2="59.326"/>
<line x1="765.542" y1="59.326" x2="764.144" y2="60.724"/>
<line x1="764.144" y1="60.724" x2="762.746" y2="61.423"/>
<line x1="762.746" y1="61.423" x2="762.047" y2="61.423"/>
<line x1="787.914" y1="50.936" x2="796.304" y2="50.936"/>
<line x1="796.304" y1="50.936" x2="796.304" y2="49.538"/>
<line x1="796.304" y1="49.538" x2="795.605" y2="48.140"/>
<line x1="795.605" y1="48.140" x2="794.905" y2="47.441"/>
<line x1="794.905" y1="47.441" x2="793.507" y2="46.742"/>
<line x1="793.507" y1="46.742" x2="791.410" y2="46.742"/>
<line x1="791.410" y1="46.742" x2="790.012" y2="47.441"/>
<line x1="790.012" y1="47.441" x2="788.613" y2="48.839"/>
<line x1="788.613" y1="48.839" x2="787.914" y2="50.936"/>
<line x1="787.914" y1="50.936" x2="787.914" y2="52.335"/>
<line x1="787.914" y1="52.335" x2="788.613" y2="54.432"/>
<line x1="788.613" y1="54.432" x2="790.012" y2="55.830"/>
<line x1="790.012" y1="55.830" x2="791.410" y2="56.529"/>
<line x1="791.410" y1="56.529" x2="793.507" y2="56.529"/>
<line x1="793.507" y1="56.529" x2="794.905" y2="55.830"/>
<line x1="794.905" y1="55.830" x2="796.304" y2="54.432"/>
<line x1="801.197" y1="46.742" x2="801.197" y2="56.529"/>
<line x1="801.197" y1="50.936" x2="801.897" y2="48.839"/>
<line x1="801.897" y1="48.839" x2="803.295" y2="47.441"/>
<line x1="803.295" y1="47.441" x2="804.693" y2="46.742"/>
<line x1="804.693" y1="46.742" x2="806.791" y2="46.742"/>
<line x1="810.286" y1="46.742" x2="810.286" y2="56.529"/>
<line x1="810.286" y1="50.936" x2="810.985" y2="48.839"/>
<line x1="810.985" y1="48.839" x2="812.384" y2="47.441"/>
<line x1="812.384" y1="47.441" x2="813.782" y2="46.742"/>
<line x1="813.782" y1="46.742" x2="815.879" y2="46.742"/>
<line x1="822.171" y1="46.742" x2="820.773" y2="47.441"/>
<line x1="820.773" y1="47.441" x2="819.375" y2="48.839"/>
<line x1="819.375" y1="48.839" x2="818.676" y2="50.936"/>
<line x1="818.676" y1="50.936" x2="818.676" y2="52.335"/>
<line x1="818.676" y1="52.335" x2="819.375" y2="54.432"/>
<line x1="819.375" y1="54.432" x2="820.773" y2="55.830"/>
<line x1="820.773" y1="55.830" x2="822.171" y2="56.529"/>
<line x1="822.171" y1="56.529" x2="824.269" y2="56.529"/>
<line x1="824.269" y1="56.529" x2="825.667" y2="55.830"/>
<line x1="825.667" y1="55.830" x2="827.065" y2="54.432"/>
<line x1="827.065" y1="54.432" x2="827.764" y2="52.335"/>
<line x1="827.764" y1="52.335" x2="827.764" y2="50.936"/>
<line x1="827.764" y1="50.936" x2="827.065" y2="48.839"/>
<line x1="827.065" y1="48.839" x2="825.667" y2="47.441"/>
<line x1="825.667" y1="47.441" x2="824.269" y2="46.742"/>
<line x1="824.269" y1="46.742" x2="822.171" y2="46.742"/>
<line x1="832.658" y1="46.742" x2="832.658" y2="56.529"/>
<line x1="832.658" y1="50.936" x2="833.357" y2="48.839"/>
<line x1="833.357" y1="48.839" x2="834.756" y2="47.441"/>
<line x1="834.756" y1="47.441" x2="836.154" y2="46.742"/>
<line x1="836.154" y1="46.742" x2="838.251" y2="46.742"/>
<line x1="848.738" y1="48.839" x2="848.039" y2="47.441"/>
<line x1="848.039" y1="47.441" x2="845.942" y2="46.742"/>
<line x1="845.942" y1="46.742" x2="843.844" y2="46.742"/>
<line x1="843.844" y1="46.742" x2="841.747" y2="47.441"/>
<line x1="841.747" y1="47.441" x2="841.048" y2="48.839"/>
<line x1="841.048" y1="48.839" x2="841.747" y2="50.237"/>
<line x1="841.747" y1="50.237" x2="843.145" y2="50.936"/>
<line x1="843.145" y1="50.936" x2="846.641" y2="51.635"/>
<line x1="846.641" y1="51.635" x2="848.039" y2="52.335"/>
<line x1="848.039" y1="52.335" x2="848.738" y2="53.733"/>
<line x1="848.738" y1="53.733" x2="848.738" y2="54.432"/>
<line x1="848.738" y1="54.432" x2="848.039" y2="55.830"/>
<line x1="848.039" y1="55.830" x2="845.942" y2="56.529"/>
<line x1="845.942" y1="56.529" x2="843.844" y2="56.529"/>
<line x1="843.844" y1="56.529" x2="841.747" y2="55.830"/>
<line x1="841.747" y1="55.830" x2="841.048" y2="54.432"/>
</g>
<g transform="matrix(1 0 0 1 0 0)"                     
style="stroke:rgb(2,2,2);
stroke-width:1.0">
<line x1="592.842" y1="712.822" x2="606.158" y2="732.797"/>
<line x1="606.158" y1="712.822" x2="592.842" y2="732.797"/>
</g>
<g transform="matrix(1 0 0 1 0 0)"                     
style="stroke:rgb(2,2,2);
stroke-width:1.0">
<line x1="3.674" y1="410.914" x2="17.942" y2="399.500"/>
<line x1="17.942" y1="399.500" x2="33.637" y2="399.500"/>
<line x1="3.674" y1="388.086" x2="17.942" y2="399.500"/>
</g>
<g transform="matrix(1 0 0 1 0 0)"                     
style="stroke:rgb(2,2,2);
stroke-width:1.0">
<line x1="344.220" y1="683.145" x2="344.220" y2="675.155"/>
<line x1="514.406" y1="683.145" x2="514.406" y2="675.155"/>
<line x1="684.594" y1="683.145" x2="684.594" y2="675.155"/>
<line x1="854.781" y1="683.145" x2="854.781" y2="675.155"/>
</g>
<g transform="matrix(1 0 0 1 0 0)"                     
style="stroke:rgb(2,2,2);
stroke-width:1.0">
<line x1="344.220" y1="115.855" x2="344.220" y2="123.845"/>
<line x1="514.406" y1="115.855" x2="514.406" y2="123.845"/>
<line x1="684.594" y1="115.855" x2="684.594" y2="123.845"/>
<line x1="854.781" y1="115.855" x2="854.781" y2="123.845"/>
</g>
<g transform="matrix(1 0 0 1 0 0)"                     
style="stroke:rgb(2,2,2);
stroke-width:1.0">
<line x1="174.033" y1="569.687" x2="182.023" y2="569.687"/>
<line x1="174.033" y1="456.229" x2="182.023" y2="456.229"/>
<line x1="174.033" y1="342.771" x2="182.023" y2="342.771"/>
<line x1="174.033" y1="229.313" x2="182.023" y2="229.313"/>
</g>
<g transform="matrix(1 0 0 1 0 0)"                     
style="stroke:rgb(2,2,2);
stroke-width:1.0">
<line x1="1024.968" y1="569.687" x2="1016.978" y2="569.687"/>
<line x1="1024.968" y1="456.229" x2="1016.978" y2="456.229"/>
<line x1="1024.968" y1="342.771" x2="1016.978" y2="342.771"/>
<line x1="1024.968" y1="229.313" x2="1016.978" y2="229.313"/>
</g>
<g transform="matrix(1 0 0 1 0 0)"                     
style="stroke:rgb(2,2,2);
stroke-width:1.0">
<line x1="151.061" y1="697.627" x2="149.563" y2="698.126"/>
<line x1="149.563" y1="698.126" x2="148.564" y2="699.624"/>
<line x1="148.564" y1="699.624" x2="148.065" y2="702.121"/>
<line x1="148.065" y1="702.121" x2="148.065" y2="703.619"/>
<line x1="148.065" y1="703.619" x2="148.564" y2="706.116"/>
<line x1="148.564" y1="706.116" x2="149.563" y2="707.614"/>
<line x1="149.563" y1="707.614" x2="151.061" y2="708.114"/>
<line x1="151.061" y1="708.114" x2="152.060" y2="708.114"/>
<line x1="152.060" y1="708.114" x2="153.558" y2="707.614"/>
<line x1="153.558" y1="707.614" x2="154.557" y2="706.116"/>
<line x1="154.557" y1="706.116" x2="155.056" y2="703.619"/>
<line x1="155.056" y1="703.619" x2="155.056" y2="702.121"/>
<line x1="155.056" y1="702.121" x2="154.557" y2="699.624"/>
<line x1="154.557" y1="699.624" x2="153.558" y2="698.126"/>
<line x1="153.558" y1="698.126" x2="152.060" y2="697.627"/>
<line x1="152.060" y1="697.627" x2="151.061" y2="697.627"/>
<line x1="166.542" y1="707.115" x2="166.043" y2="707.614"/>
<line x1="166.043" y1="707.614" x2="166.542" y2="708.114"/>
<line x1="166.542" y1="708.114" x2="167.041" y2="707.614"/>
<line x1="167.041" y1="707.614" x2="166.542" y2="707.115"/>
<line x1="181.024" y1="697.627" x2="179.526" y2="698.126"/>
<line x1="179.526" y1="698.126" x2="178.527" y2="699.624"/>
<line x1="178.527" y1="699.624" x2="178.028" y2="702.121"/>
<line x1="178.028" y1="702.121" x2="178.028" y2="703.619"/>
<line x1="178.028" y1="703.619" x2="178.527" y2="706.116"/>
<line x1="178.527" y1="706.116" x2="179.526" y2="707.614"/>
<line x1="179.526" y1="707.614" x2="181.024" y2="708.114"/>
<line x1="181.024" y1="708.114" x2="182.023" y2="708.114"/>
<line x1="182.023" y1="708.114" x2="183.521" y2="707.614"/>
<line x1="183.521" y1="707.614" x2="184.519" y2="706.116"/>
<line x1="184.519" y1="706.116" x2="185.019" y2="703.619"/>
<line x1="185.019" y1="703.619" x2="185.019" y2="702.121"/>
<line x1="185.019" y1="702.121" x2="184.519" y2="699.624"/>
<line x1="184.519" y1="699.624" x2="183.521" y2="698.126"/>
<line x1="183.521" y1="698.126" x2="182.023" y2="697.627"/>
<line x1="182.023" y1="697.627" x2="181.024" y2="697.627"/>
<line x1="196.005" y1="697.627" x2="194.507" y2="698.126"/>
<line x1="194.507" y1="698.126" x2="193.508" y2="699.624"/>
<line x1="193.508" y1="699.624" x2="193.009" y2="702.121"/>
<line x1="193.009" y1="702.121" x2="193.009" y2="703.619"/>
<line x1="193.009" y1="703.619" x2="193.508" y2="706.116"/>
<line x1="193.508" y1="706.116" x2="194.507" y2="707.614"/>
<line x1="194.507" y1="707.614" x2="196.005" y2="708.114"/>
<line x1="196.005" y1="708.114" x2="197.004" y2="708.114"/>
<line x1="197.004" y1="708.114" x2="198.502" y2="707.614"/>
<line x1="198.502" y1="707.614" x2="199.501" y2="706.116"/>
<line x1="199.501" y1="706.116" x2="200.000" y2="703.619"/>
<line x1="200.000" y1="703.619" x2="200.000" y2="702.121"/>
<line x1="200.000" y1="702.121" x2="199.501" y2="699.624"/>
<line x1="199.501" y1="699.624" x2="198.502" y2="698.126"/>
<line x1="198.502" y1="698.126" x2="197.004" y2="697.627"/>
<line x1="197.004" y1="697.627" x2="196.005" y2="697.627"/>
</g>
<g transform="matrix(1 0 0 1 0 0)"                     
style="stroke:rgb(2,2,2);
stroke-width:1.0">
<line x1="321.248" y1="697.627" x2="319.750" y2="698.126"/>
<line x1="319.750" y1="698.126" x2="318.751" y2="699.624"/>
<line x1="318.751" y1="699.624" x2="318.252" y2="702.121"/>
<line x1="318.252" y1="702.121" x2="318.252" y2="703.619"/>
<line x1="318.252" y1="703.619" x2="318.751" y2="706.116"/>
<line x1="318.751" y1="706.116" x2="319.750" y2="707.614"/>
<line x1="319.750" y1="707.614" x2="321.248" y2="708.114"/>
<line x1="321.248" y1="708.114" x2="322.247" y2="708.114"/>
<line x1="322.247" y1="708.114" x2="323.745" y2="707.614"/>
<line x1="323.745" y1="707.614" x2="324.744" y2="706.116"/>
<line x1="324.744" y1="706.116" x2="325.243" y2="703.619"/>
<line x1="325.243" y1="703.619" x2="325.243" y2="702.121"/>
<line x1="325.243" y1="702.121" x2="324.744" y2="699.624"/>
<line x1="324.744" y1="699.624" x2="323.745" y2="698.126"/>
<line x1="323.745" y1="698.126" x2="322.247" y2="697.627"/>
<line x1="322.247" y1="697.627" x2="321.248" y2="697.627"/>
<line x1="336.729" y1="707.115" x2="336.230" y2="707.614"/>
<line x1="336.230" y1="707.614" x2="336.729" y2="708.114"/>
<line x1="336.729" y1="708.114" x2="337.228" y2="707.614"/>
<line x1="337.228" y1="707.614" x2="336.729" y2="707.115"/>
<line x1="348.714" y1="700.124" x2="348.714" y2="699.624"/>
<line x1="348.714" y1="699.624" x2="349.213" y2="698.626"/>
<line x1="349.213" y1="698.626" x2="349.713" y2="698.126"/>
<line x1="349.713" y1="698.126" x2="350.711" y2="697.627"/>
<line x1="350.711" y1="697.627" x2="352.709" y2="697.627"/>
<line x1="352.709" y1="697.627" x2="353.708" y2="698.126"/>
<line x1="353.708" y1="698.126" x2="354.207" y2="698.626"/>
<line x1="354.207" y1="698.626" x2="354.706" y2="699.624"/>
<line x1="354.706" y1="699.624" x2="354.706" y2="700.623"/>
<line x1="354.706" y1="700.623" x2="354.207" y2="701.622"/>
<line x1="354.207" y1="701.622" x2="353.208" y2="703.120"/>
<line x1="353.208" y1="703.120" x2="348.215" y2="708.114"/>
<line x1="348.215" y1="708.114" x2="355.206" y2="708.114"/>
<line x1="366.192" y1="697.627" x2="364.694" y2="698.126"/>
<line x1="364.694" y1="698.126" x2="363.695" y2="699.624"/>
<line x1="363.695" y1="699.624" x2="363.196" y2="702.121"/>
<line x1="363.196" y1="702.121" x2="363.196" y2="703.619"/>
<line x1="363.196" y1="703.619" x2="363.695" y2="706.116"/>
<line x1="363.695" y1="706.116" x2="364.694" y2="707.614"/>
<line x1="364.694" y1="707.614" x2="366.192" y2="708.114"/>
<line x1="366.192" y1="708.114" x2="367.191" y2="708.114"/>
<line x1="367.191" y1="708.114" x2="368.689" y2="707.614"/>
<line x1="368.689" y1="707.614" x2="369.688" y2="706.116"/>
<line x1="369.688" y1="706.116" x2="370.187" y2="703.619"/>
<line x1="370.187" y1="703.619" x2="370.187" y2="702.121"/>
<line x1="370.187" y1="702.121" x2="369.688" y2="699.624"/>
<line x1="369.688" y1="699.624" x2="368.689" y2="698.126"/>
<line x1="368.689" y1="698.126" x2="367.191" y2="697.627"/>
<line x1="367.191" y1="697.627" x2="366.192" y2="697.627"/>
</g>
<g transform="matrix(1 0 0 1 0 0)"                     
style="stroke:rgb(2,2,2);
stroke-width:1.0">
<line x1="491.435" y1="697.627" x2="489.937" y2="698.126"/>
<line x1="489.937" y1="698.126" x2="488.938" y2="699.624"/>
<line x1="488.938" y1="699.624" x2="488.439" y2="702.121"/>
<line x1="488.439" y1="702.121" x2="488.439" y2="703.619"/>
<line x1="488.439" y1="703.619" x2="488.938" y2="706.116"/>
<line x1="488.938" y1="706.116" x2="489.937" y2="707.614"/>
<line x1="489.937" y1="707.614" x2="491.435" y2="708.114"/>
<line x1="491.435" y1="708.114" x2="492.434" y2="708.114"/>
<line x1="492.434" y1="708.114" x2="493.932" y2="707.614"/>
<line x1="493.932" y1="707.614" x2="494.931" y2="706.116"/>
<line x1="494.931" y1="706.116" x2="495.430" y2="703.619"/>
<line x1="495.430" y1="703.619" x2="495.430" y2="702.121"/>
<line x1="495.430" y1="702.121" x2="494.931" y2="699.624"/>
<line x1="494.931" y1="699.624" x2="493.932" y2="698.126"/>
<line x1="493.932" y1="698.126" x2="492.434" y2="697.627"/>
<line x1="492.434" y1="697.627" x2="491.435" y2="697.627"/>
<line x1="506.916" y1="707.115" x2="506.417" y2="707.614"/>
<line x1="506.417" y1="707.614" x2="506.916" y2="708.114"/>
<line x1="506.916" y1="708.114" x2="507.415" y2="707.614"/>
<line x1="507.415" y1="707.614" x2="506.916" y2="707.115"/>
<line x1="523.395" y1="697.627" x2="518.401" y2="704.618"/>
<line x1="518.401" y1="704.618" x2="525.892" y2="704.618"/>
<line x1="523.395" y1="697.627" x2="523.395" y2="708.114"/>
<line x1="536.379" y1="697.627" x2="534.881" y2="698.126"/>
<line x1="534.881" y1="698.126" x2="533.882" y2="699.624"/>
<line x1="533.882" y1="699.624" x2="533.383" y2="702.121"/>
<line x1="533.383" y1="702.121" x2="533.383" y2="703.619"/>
<line x1="533.383" y1="703.619" x2="533.882" y2="706.116"/>
<line x1="533.882" y1="706.116" x2="534.881" y2="707.614"/>
<line x1="534.881" y1="707.614" x2="536.379" y2="708.114"/>
<line x1="536.379" y1="708.114" x2="537.378" y2="708.114"/>
<line x1="537.378" y1="708.114" x2="538.876" y2="707.614"/>
<line x1="538.876" y1="707.614" x2="539.875" y2="706.116"/>
<line x1="539.875" y1="706.116" x2="540.374" y2="703.619"/>
<line x1="540.374" y1="703.619" x2="540.374" y2="702.121"/>
<line x1="540.374" y1="702.121" x2="539.875" y2="699.624"/>
<line x1="539.875" y1="699.624" x2="538.876" y2="698.126"/>
<line x1="538.876" y1="698.126" x2="537.378" y2="697.627"/>
<line x1="537.378" y1="697.627" x2="536.379" y2="697.627"/>
</g>
<g transform="matrix(1 0 0 1 0 0)"                     
style="stroke:rgb(2,2,2);
stroke-width:1.0">
<line x1="661.622" y1="697.627" x2="660.124" y2="698.126"/>
<line x1="660.124" y1="698.126" x2="659.125" y2="699.624"/>
<line x1="659.125" y1="699.624" x2="658.626" y2="702.121"/>
<line x1="658.626" y1="702.121" x2="658.626" y2="703.619"/>
<line x1="658.626" y1="703.619" x2="659.125" y2="706.116"/>
<line x1="659.125" y1="706.116" x2="660.124" y2="707.614"/>
<line x1="660.124" y1="707.614" x2="661.622" y2="708.114"/>
<line x1="661.622" y1="708.114" x2="662.621" y2="708.114"/>
<line x1="662.621" y1="708.114" x2="664.119" y2="707.614"/>
<line x1="664.119" y1="707.614" x2="665.118" y2="706.116"/>
<line x1="665.118" y1="706.116" x2="665.617" y2="703.619"/>
<line x1="665.617" y1="703.619" x2="665.617" y2="702.121"/>
<line x1="665.617" y1="702.121" x2="665.118" y2="699.624"/>
<line x1="665.118" y1="699.624" x2="664.119" y2="698.126"/>
<line x1="664.119" y1="698.126" x2="662.621" y2="697.627"/>
<line x1="662.621" y1="697.627" x2="661.622" y2="697.627"/>
<line x1="677.103" y1="707.115" x2="676.604" y2="707.614"/>
<line x1="676.604" y1="707.614" x2="677.103" y2="708.114"/>
<line x1="677.103" y1="708.114" x2="677.602" y2="707.614"/>
<line x1="677.602" y1="707.614" x2="677.103" y2="707.115"/>
<line x1="695.080" y1="699.125" x2="694.581" y2="698.126"/>
<line x1="694.581" y1="698.126" x2="693.083" y2="697.627"/>
<line x1="693.083" y1="697.627" x2="692.084" y2="697.627"/>
<line x1="692.084" y1="697.627" x2="690.586" y2="698.126"/>
<line x1="690.586" y1="698.126" x2="689.587" y2="699.624"/>
<line x1="689.587" y1="699.624" x2="689.088" y2="702.121"/>
<line x1="689.088" y1="702.121" x2="689.088" y2="704.618"/>
<line x1="689.088" y1="704.618" x2="689.587" y2="706.616"/>
<line x1="689.587" y1="706.616" x2="690.586" y2="707.614"/>
<line x1="690.586" y1="707.614" x2="692.084" y2="708.114"/>
<line x1="692.084" y1="708.114" x2="692.584" y2="708.114"/>
<line x1="692.584" y1="708.114" x2="694.082" y2="707.614"/>
<line x1="694.082" y1="707.614" x2="695.080" y2="706.616"/>
<line x1="695.080" y1="706.616" x2="695.580" y2="705.117"/>
<line x1="695.580" y1="705.117" x2="695.580" y2="704.618"/>
<line x1="695.580" y1="704.618" x2="695.080" y2="703.120"/>
<line x1="695.080" y1="703.120" x2="694.082" y2="702.121"/>
<line x1="694.082" y1="702.121" x2="692.584" y2="701.622"/>
<line x1="692.584" y1="701.622" x2="692.084" y2="701.622"/>
<line x1="692.084" y1="701.622" x2="690.586" y2="702.121"/>
<line x1="690.586" y1="702.121" x2="689.587" y2="703.120"/>
<line x1="689.587" y1="703.120" x2="689.088" y2="704.618"/>
<line x1="706.566" y1="697.627" x2="705.068" y2="698.126"/>
<line x1="705.068" y1="698.126" x2="704.069" y2="699.624"/>
<line x1="704.069" y1="699.624" x2="703.570" y2="702.121"/>
<line x1="703.570" y1="702.121" x2="703.570" y2="703.619"/>
<line x1="703.570" y1="703.619" x2="704.069" y2="706.116"/>
<line x1="704.069" y1="706.116" x2="705.068" y2="707.614"/>
<line x1="705.068" y1="707.614" x2="706.566" y2="708.114"/>
<line x1="706.566" y1="708.114" x2="707.565" y2="708.114"/>
<line x1="707.565" y1="708.114" x2="709.063" y2="707.614"/>
<line x1="709.063" y1="707.614" x2="710.062" y2="706.116"/>
<line x1="710.062" y1="706.116" x2="710.561" y2="703.619"/>
<line x1="710.561" y1="703.619" x2="710.561" y2="702.121"/>
<line x1="710.561" y1="702.121" x2="710.062" y2="699.624"/>
<line x1="710.062" y1="699.624" x2="709.063" y2="698.126"/>
<line x1="709.063" y1="698.126" x2="707.565" y2="697.627"/>
<line x1="707.565" y1="697.627" x2="706.566" y2="697.627"/>
</g>
<g transform="matrix(1 0 0 1 0 0)"                     
style="stroke:rgb(2,2,2);
stroke-width:1.0">
<line x1="831.809" y1="697.627" x2="830.311" y2="698.126"/>
<line x1="830.311" y1="698.126" x2="829.312" y2="699.624"/>
<line x1="829.312" y1="699.624" x2="828.813" y2="702.121"/>
<line x1="828.813" y1="702.121" x2="828.813" y2="703.619"/>
<line x1="828.813" y1="703.619" x2="829.312" y2="706.116"/>
<line x1="829.312" y1="706.116" x2="830.311" y2="707.614"/>
<line x1="830.311" y1="707.614" x2="831.809" y2="708.114"/>
<line x1="831.809" y1="708.114" x2="832.808" y2="708.114"/>
<line x1="832.808" y1="708.114" x2="834.306" y2="707.614"/>
<line x1="834.306" y1="707.614" x2="835.305" y2="706.116"/>
<line x1="835.305" y1="706.116" x2="835.804" y2="703.619"/>
<line x1="835.804" y1="703.619" x2="835.804" y2="702.121"/>
<line x1="835.804" y1="702.121" x2="835.305" y2="699.624"/>
<line x1="835.305" y1="699.624" x2="834.306" y2="698.126"/>
<line x1="834.306" y1="698.126" x2="832.808" y2="697.627"/>
<line x1="832.808" y1="697.627" x2="831.809" y2="697.627"/>
<line x1="847.290" y1="707.115" x2="846.790" y2="707.614"/>
<line x1="846.790" y1="707.614" x2="847.290" y2="708.114"/>
<line x1="847.290" y1="708.114" x2="847.789" y2="707.614"/>
<line x1="847.789" y1="707.614" x2="847.290" y2="707.115"/>
<line x1="861.272" y1="697.627" x2="859.774" y2="698.126"/>
<line x1="859.774" y1="698.126" x2="859.275" y2="699.125"/>
<line x1="859.275" y1="699.125" x2="859.275" y2="700.124"/>
<line x1="859.275" y1="700.124" x2="859.774" y2="701.122"/>
<line x1="859.774" y1="701.122" x2="860.773" y2="701.622"/>
<line x1="860.773" y1="701.622" x2="862.771" y2="702.121"/>
<line x1="862.771" y1="702.121" x2="864.269" y2="702.621"/>
<line x1="864.269" y1="702.621" x2="865.267" y2="703.619"/>
<line x1="865.267" y1="703.619" x2="865.767" y2="704.618"/>
<line x1="865.767" y1="704.618" x2="865.767" y2="706.116"/>
<line x1="865.767" y1="706.116" x2="865.267" y2="707.115"/>
<line x1="865.267" y1="707.115" x2="864.768" y2="707.614"/>
<line x1="864.768" y1="707.614" x2="863.270" y2="708.114"/>
<line x1="863.270" y1="708.114" x2="861.272" y2="708.114"/>
<line x1="861.272" y1="708.114" x2="859.774" y2="707.614"/>
<line x1="859.774" y1="707.614" x2="859.275" y2="707.115"/>
<line x1="859.275" y1="707.115" x2="858.775" y2="706.116"/>
<line x1="858.775" y1="706.116" x2="858.775" y2="704.618"/>
<line x1="858.775" y1="704.618" x2="859.275" y2="703.619"/>
<line x1="859.275" y1="703.619" x2="860.274" y2="702.621"/>
<line x1="860.274" y1="702.621" x2="861.772" y2="702.121"/>
<line x1="861.772" y1="702.121" x2="863.769" y2="701.622"/>
<line x1="863.769" y1="701.622" x2="864.768" y2="701.122"/>
<line x1="864.768" y1="701.122" x2="865.267" y2="700.124"/>
<line x1="865.267" y1="700.124" x2="865.267" y2="699.125"/>
<line x1="865.267" y1="699.125" x2="864.768" y2="698.126"/>
<line x1="864.768" y1="698.126" x2="863.270" y2="697.627"/>
<line x1="863.270" y1="697.627" x2="861.272" y2="697.627"/>
<line x1="876.753" y1="697.627" x2="875.255" y2="698.126"/>
<line x1="875.255" y1="698.126" x2="874.256" y2="699.624"/>
<line x1="874.256" y1="699.624" x2="873.757" y2="702.121"/>
<line x1="873.757" y1="702.121" x2="873.757" y2="703.619"/>
<line x1="873.757" y1="703.619" x2="874.256" y2="706.116"/>
<line x1="874.256" y1="706.116" x2="875.255" y2="707.614"/>
<line x1="875.255" y1="707.614" x2="876.753" y2="708.114"/>
<line x1="876.753" y1="708.114" x2="877.752" y2="708.114"/>
<line x1="877.752" y1="708.114" x2="879.250" y2="707.614"/>
<line x1="879.250" y1="707.614" x2="880.249" y2="706.116"/>
<line x1="880.249" y1="706.116" x2="880.748" y2="703.619"/>
<line x1="880.748" y1="703.619" x2="880.748" y2="702.121"/>
<line x1="880.748" y1="702.121" x2="880.249" y2="699.624"/>
<line x1="880.249" y1="699.624" x2="879.250" y2="698.126"/>
<line x1="879.250" y1="698.126" x2="877.752" y2="697.627"/>
<line x1="877.752" y1="697.627" x2="876.753" y2="697.627"/>
</g>
<g transform="matrix(1 0 0 1 0 0)"                     
style="stroke:rgb(2,2,2);
stroke-width:1.0">
<line x1="1000.498" y1="699.624" x2="1001.497" y2="699.125"/>
<line x1="1001.497" y1="699.125" x2="1002.995" y2="697.627"/>
<line x1="1002.995" y1="697.627" x2="1002.995" y2="708.114"/>
<line x1="1017.477" y1="707.115" x2="1016.977" y2="707.614"/>
<line x1="1016.977" y1="707.614" x2="1017.477" y2="708.114"/>
<line x1="1017.477" y1="708.114" x2="1017.976" y2="707.614"/>
<line x1="1017.976" y1="707.614" x2="1017.477" y2="707.115"/>
<line x1="1031.959" y1="697.627" x2="1030.461" y2="698.126"/>
<line x1="1030.461" y1="698.126" x2="1029.462" y2="699.624"/>
<line x1="1029.462" y1="699.624" x2="1028.962" y2="702.121"/>
<line x1="1028.962" y1="702.121" x2="1028.962" y2="703.619"/>
<line x1="1028.962" y1="703.619" x2="1029.462" y2="706.116"/>
<line x1="1029.462" y1="706.116" x2="1030.461" y2="707.614"/>
<line x1="1030.461" y1="707.614" x2="1031.959" y2="708.114"/>
<line x1="1031.959" y1="708.114" x2="1032.958" y2="708.114"/>
<line x1="1032.958" y1="708.114" x2="1034.456" y2="707.614"/>
<line x1="1034.456" y1="707.614" x2="1035.454" y2="706.116"/>
<line x1="1035.454" y1="706.116" x2="1035.954" y2="703.619"/>
<line x1="1035.954" y1="703.619" x2="1035.954" y2="702.121"/>
<line x1="1035.954" y1="702.121" x2="1035.454" y2="699.624"/>
<line x1="1035.454" y1="699.624" x2="1034.456" y2="698.126"/>
<line x1="1034.456" y1="698.126" x2="1032.958" y2="697.627"/>
<line x1="1032.958" y1="697.627" x2="1031.959" y2="697.627"/>
<line x1="1046.940" y1="697.627" x2="1045.442" y2="698.126"/>
<line x1="1045.442" y1="698.126" x2="1044.443" y2="699.624"/>
<line x1="1044.443" y1="699.624" x2="1043.944" y2="702.121"/>
<line x1="1043.944" y1="702.121" x2="1043.944" y2="703.619"/>
<line x1="1043.944" y1="703.619" x2="1044.443" y2="706.116"/>
<line x1="1044.443" y1="706.116" x2="1045.442" y2="707.614"/>
<line x1="1045.442" y1="707.614" x2="1046.940" y2="708.114"/>
<line x1="1046.940" y1="708.114" x2="1047.939" y2="708.114"/>
<line x1="1047.939" y1="708.114" x2="1049.437" y2="707.614"/>
<line x1="1049.437" y1="707.614" x2="1050.435" y2="706.116"/>
<line x1="1050.435" y1="706.116" x2="1050.935" y2="703.619"/>
<line x1="1050.935" y1="703.619" x2="1050.935" y2="702.121"/>
<line x1="1050.935" y1="702.121" x2="1050.435" y2="699.624"/>
<line x1="1050.435" y1="699.624" x2="1049.437" y2="698.126"/>
<line x1="1049.437" y1="698.126" x2="1047.939" y2="697.627"/>
<line x1="1047.939" y1="697.627" x2="1046.940" y2="697.627"/>
</g>
<g transform="matrix(1 0 0 1 0 0)"                     
style="stroke:rgb(2,2,2);
stroke-width:1.0">
<line x1="103.121" y1="677.652" x2="101.623" y2="678.151"/>
<line x1="101.623" y1="678.151" x2="100.624" y2="679.649"/>
<line x1="100.624" y1="679.649" x2="100.125" y2="682.146"/>
<line x1="100.125" y1="682.146" x2="100.125" y2="683.644"/>
<line x1="100.125" y1="683.644" x2="100.624" y2="686.141"/>
<line x1="100.624" y1="686.141" x2="101.623" y2="687.639"/>
<line x1="101.623" y1="687.639" x2="103.121" y2="688.139"/>
<line x1="103.121" y1="688.139" x2="104.120" y2="688.139"/>
<line x1="104.120" y1="688.139" x2="105.618" y2="687.639"/>
<line x1="105.618" y1="687.639" x2="106.617" y2="686.141"/>
<line x1="106.617" y1="686.141" x2="107.116" y2="683.644"/>
<line x1="107.116" y1="683.644" x2="107.116" y2="682.146"/>
<line x1="107.116" y1="682.146" x2="106.617" y2="679.649"/>
<line x1="106.617" y1="679.649" x2="105.618" y2="678.151"/>
<line x1="105.618" y1="678.151" x2="104.120" y2="677.652"/>
<line x1="104.120" y1="677.652" x2="103.121" y2="677.652"/>
<line x1="118.602" y1="687.140" x2="118.103" y2="687.639"/>
<line x1="118.103" y1="687.639" x2="118.602" y2="688.139"/>
<line x1="118.602" y1="688.139" x2="119.101" y2="687.639"/>
<line x1="119.101" y1="687.639" x2="118.602" y2="687.140"/>
<line x1="133.084" y1="677.652" x2="131.586" y2="678.151"/>
<line x1="131.586" y1="678.151" x2="130.587" y2="679.649"/>
<line x1="130.587" y1="679.649" x2="130.088" y2="682.146"/>
<line x1="130.088" y1="682.146" x2="130.088" y2="683.644"/>
<line x1="130.088" y1="683.644" x2="130.587" y2="686.141"/>
<line x1="130.587" y1="686.141" x2="131.586" y2="687.639"/>
<line x1="131.586" y1="687.639" x2="133.084" y2="688.139"/>
<line x1="133.084" y1="688.139" x2="134.083" y2="688.139"/>
<line x1="134.083" y1="688.139" x2="135.581" y2="687.639"/>
<line x1="135.581" y1="687.639" x2="136.579" y2="686.141"/>
<line x1="136.579" y1="686.141" x2="137.079" y2="683.644"/>
<line x1="137.079" y1="683.644" x2="137.079" y2="682.146"/>
<line x1="137.079" y1="682.146" x2="136.579" y2="679.649"/>
<line x1="136.579" y1="679.649" x2="135.581" y2="678.151"/>
<line x1="135.581" y1="678.151" x2="134.083" y2="677.652"/>
<line x1="134.083" y1="677.652" x2="133.084" y2="677.652"/>
<line x1="148.065" y1="677.652" x2="146.567" y2="678.151"/>
<line x1="146.567" y1="678.151" x2="145.568" y2="679.649"/>
<line x1="145.568" y1="679.649" x2="145.069" y2="682.146"/>
<line x1="145.069" y1="682.146" x2="145.069" y2="683.644"/>
<line x1="145.069" y1="683.644" x2="145.568" y2="686.141"/>
<line x1="145.568" y1="686.141" x2="146.567" y2="687.639"/>
<line x1="146.567" y1="687.639" x2="148.065" y2="688.139"/>
<line x1="148.065" y1="688.139" x2="149.064" y2="688.139"/>
<line x1="149.064" y1="688.139" x2="150.562" y2="687.639"/>
<line x1="150.562" y1="687.639" x2="151.561" y2="686.141"/>
<line x1="151.561" y1="686.141" x2="152.060" y2="683.644"/>
<line x1="152.060" y1="683.644" x2="152.060" y2="682.146"/>
<line x1="152.060" y1="682.146" x2="151.561" y2="679.649"/>
<line x1="151.561" y1="679.649" x2="150.562" y2="678.151"/>
<line x1="150.562" y1="678.151" x2="149.064" y2="677.652"/>
<line x1="149.064" y1="677.652" x2="148.065" y2="677.652"/>
</g>
<g transform="matrix(1 0 0 1 0 0)"                     
style="stroke:rgb(2,2,2);
stroke-width:1.0">
<line x1="103.121" y1="564.194" x2="101.623" y2="564.693"/>
<line x1="101.623" y1="564.693" x2="100.624" y2="566.191"/>
<line x1="100.624" y1="566.191" x2="100.125" y2="568.688"/>
<line x1="100.125" y1="568.688" x2="100.125" y2="570.186"/>
<line x1="100.125" y1="570.186" x2="100.624" y2="572.683"/>
<line x1="100.624" y1="572.683" x2="101.623" y2="574.181"/>
<line x1="101.623" y1="574.181" x2="103.121" y2="574.681"/>
<line x1="103.121" y1="574.681" x2="104.120" y2="574.681"/>
<line x1="104.120" y1="574.681" x2="105.618" y2="574.181"/>
<line x1="105.618" y1="574.181" x2="106.617" y2="572.683"/>
<line x1="106.617" y1="572.683" x2="107.116" y2="570.186"/>
<line x1="107.116" y1="570.186" x2="107.116" y2="568.688"/>
<line x1="107.116" y1="568.688" x2="106.617" y2="566.191"/>
<line x1="106.617" y1="566.191" x2="105.618" y2="564.693"/>
<line x1="105.618" y1="564.693" x2="104.120" y2="564.194"/>
<line x1="104.120" y1="564.194" x2="103.121" y2="564.194"/>
<line x1="118.602" y1="573.682" x2="118.103" y2="574.181"/>
<line x1="118.103" y1="574.181" x2="118.602" y2="574.681"/>
<line x1="118.602" y1="574.681" x2="119.101" y2="574.181"/>
<line x1="119.101" y1="574.181" x2="118.602" y2="573.682"/>
<line x1="130.587" y1="566.691" x2="130.587" y2="566.191"/>
<line x1="130.587" y1="566.191" x2="131.086" y2="565.193"/>
<line x1="131.086" y1="565.193" x2="131.586" y2="564.693"/>
<line x1="131.586" y1="564.693" x2="132.584" y2="564.194"/>
<line x1="132.584" y1="564.194" x2="134.582" y2="564.194"/>
<line x1="134.582" y1="564.194" x2="135.581" y2="564.693"/>
<line x1="135.581" y1="564.693" x2="136.080" y2="565.193"/>
<line x1="136.080" y1="565.193" x2="136.579" y2="566.191"/>
<line x1="136.579" y1="566.191" x2="136.579" y2="567.190"/>
<line x1="136.579" y1="567.190" x2="136.080" y2="568.189"/>
<line x1="136.080" y1="568.189" x2="135.081" y2="569.687"/>
<line x1="135.081" y1="569.687" x2="130.088" y2="574.681"/>
<line x1="130.088" y1="574.681" x2="137.079" y2="574.681"/>
<line x1="148.065" y1="564.194" x2="146.567" y2="564.693"/>
<line x1="146.567" y1="564.693" x2="145.568" y2="566.191"/>
<line x1="145.568" y1="566.191" x2="145.069" y2="568.688"/>
<line x1="145.069" y1="568.688" x2="145.069" y2="570.186"/>
<line x1="145.069" y1="570.186" x2="145.568" y2="572.683"/>
<line x1="145.568" y1="572.683" x2="146.567" y2="574.181"/>
<line x1="146.567" y1="574.181" x2="148.065" y2="574.681"/>
<line x1="148.065" y1="574.681" x2="149.064" y2="574.681"/>
<line x1="149.064" y1="574.681" x2="150.562" y2="574.181"/>
<line x1="150.562" y1="574.181" x2="151.561" y2="572.683"/>
<line x1="151.561" y1="572.683" x2="152.060" y2="570.186"/>
<line x1="152.060" y1="570.186" x2="152.060" y2="568.688"/>
<line x1="152.060" y1="568.688" x2="151.561" y2="566.191"/>
<line x1="151.561" y1="566.191" x2="150.562" y2="564.693"/>
<line x1="150.562" y1="564.693" x2="149.064" y2="564.194"/>
<line x1="149.064" y1="564.194" x2="148.065" y2="564.194"/>
</g>
<g transform="matrix(1 0 0 1 0 0)"                     
style="stroke:rgb(2,2,2);
stroke-width:1.0">
<line x1="103.121" y1="450.736" x2="101.623" y2="451.235"/>
<line x1="101.623" y1="451.235" x2="100.624" y2="452.733"/>
<line x1="100.624" y1="452.733" x2="100.125" y2="455.230"/>
<line x1="100.125" y1="455.230" x2="100.125" y2="456.728"/>
<line x1="100.125" y1="456.728" x2="100.624" y2="459.225"/>
<line x1="100.624" y1="459.225" x2="101.623" y2="460.723"/>
<line x1="101.623" y1="460.723" x2="103.121" y2="461.223"/>
<line x1="103.121" y1="461.223" x2="104.120" y2="461.223"/>
<line x1="104.120" y1="461.223" x2="105.618" y2="460.723"/>
<line x1="105.618" y1="460.723" x2="106.617" y2="459.225"/>
<line x1="106.617" y1="459.225" x2="107.116" y2="456.728"/>
<line x1="107.116" y1="456.728" x2="107.116" y2="455.230"/>
<line x1="107.116" y1="455.230" x2="106.617" y2="452.733"/>
<line x1="106.617" y1="452.733" x2="105.618" y2="451.235"/>
<line x1="105.618" y1="451.235" x2="104.120" y2="450.736"/>
<line x1="104.120" y1="450.736" x2="103.121" y2="450.736"/>
<line x1="118.602" y1="460.224" x2="118.103" y2="460.723"/>
<line x1="118.103" y1="460.723" x2="118.602" y2="461.223"/>
<line x1="118.602" y1="461.223" x2="119.101" y2="460.723"/>
<line x1="119.101" y1="460.723" x2="118.602" y2="460.224"/>
<line x1="135.081" y1="450.736" x2="130.088" y2="457.727"/>
<line x1="130.088" y1="457.727" x2="137.578" y2="457.727"/>
<line x1="135.081" y1="450.736" x2="135.081" y2="461.223"/>
<line x1="148.065" y1="450.736" x2="146.567" y2="451.235"/>
<line x1="146.567" y1="451.235" x2="145.568" y2="452.733"/>
<line x1="145.568" y1="452.733" x2="145.069" y2="455.230"/>
<line x1="145.069" y1="455.230" x2="145.069" y2="456.728"/>
<line x1="145.069" y1="456.728" x2="145.568" y2="459.225"/>
<line x1="145.568" y1="459.225" x2="146.567" y2="460.723"/>
<line x1="146.567" y1="460.723" x2="148.065" y2="461.223"/>
<line x1="148.065" y1="461.223" x2="149.064" y2="461.223"/>
<line x1="149.064" y1="461.223" x2="150.562" y2="460.723"/>
<line x1="150.562" y1="460.723" x2="151.561" y2="459.225"/>
<line x1="151.561" y1="459.225" x2="152.060" y2="456.728"/>
<line x1="152.060" y1="456.728" x2="152.060" y2="455.230"/>
<line x1="152.060" y1="455.230" x2="151.561" y2="452.733"/>
<line x1="151.561" y1="452.733" x2="150.562" y2="451.235"/>
<line x1="150.562" y1="451.235" x2="149.064" y2="450.736"/>
<line x1="149.064" y1="450.736" x2="148.065" y2="450.736"/>
</g>
<g transform="matrix(1 0 0 1 0 0)"                     
style="stroke:rgb(2,2,2);
stroke-width:1.0">
<line x1="103.121" y1="337.278" x2="101.623" y2="337.777"/>
<line x1="101.623" y1="337.777" x2="100.624" y2="339.275"/>
<line x1="100.624" y1="339.275" x2="100.125" y2="341.772"/>
<line x1="100.125" y1="341.772" x2="100.125" y2="343.270"/>
<line x1="100.125" y1="343.270" x2="100.624" y2="345.767"/>
<line x1="100.624" y1="345.767" x2="101.623" y2="347.265"/>
<line x1="101.623" y1="347.265" x2="103.121" y2="347.765"/>
<line x1="103.121" y1="347.765" x2="104.120" y2="347.765"/>
<line x1="104.120" y1="347.765" x2="105.618" y2="347.265"/>
<line x1="105.618" y1="347.265" x2="106.617" y2="345.767"/>
<line x1="106.617" y1="345.767" x2="107.116" y2="343.270"/>
<line x1="107.116" y1="343.270" x2="107.116" y2="341.772"/>
<line x1="107.116" y1="341.772" x2="106.617" y2="339.275"/>
<line x1="106.617" y1="339.275" x2="105.618" y2="337.777"/>
<line x1="105.618" y1="337.777" x2="104.120" y2="337.278"/>
<line x1="104.120" y1="337.278" x2="103.121" y2="337.278"/>
<line x1="118.602" y1="346.766" x2="118.103" y2="347.265"/>
<line x1="118.103" y1="347.265" x2="118.602" y2="347.765"/>
<line x1="118.602" y1="347.765" x2="119.101" y2="347.265"/>
<line x1="119.101" y1="347.265" x2="118.602" y2="346.766"/>
<line x1="136.579" y1="338.776" x2="136.080" y2="337.777"/>
<line x1="136.080" y1="337.777" x2="134.582" y2="337.278"/>
<line x1="134.582" y1="337.278" x2="133.583" y2="337.278"/>
<line x1="133.583" y1="337.278" x2="132.085" y2="337.777"/>
<line x1="132.085" y1="337.777" x2="131.086" y2="339.275"/>
<line x1="131.086" y1="339.275" x2="130.587" y2="341.772"/>
<line x1="130.587" y1="341.772" x2="130.587" y2="344.269"/>
<line x1="130.587" y1="344.269" x2="131.086" y2="346.267"/>
<line x1="131.086" y1="346.267" x2="132.085" y2="347.265"/>
<line x1="132.085" y1="347.265" x2="133.583" y2="347.765"/>
<line x1="133.583" y1="347.765" x2="134.083" y2="347.765"/>
<line x1="134.083" y1="347.765" x2="135.581" y2="347.265"/>
<line x1="135.581" y1="347.265" x2="136.579" y2="346.267"/>
<line x1="136.579" y1="346.267" x2="137.079" y2="344.769"/>
<line x1="137.079" y1="344.769" x2="137.079" y2="344.269"/>
<line x1="137.079" y1="344.269" x2="136.579" y2="342.771"/>
<line x1="136.579" y1="342.771" x2="135.581" y2="341.772"/>
<line x1="135.581" y1="341.772" x2="134.083" y2="341.273"/>
<line x1="134.083" y1="341.273" x2="133.583" y2="341.273"/>
<line x1="133.583" y1="341.273" x2="132.085" y2="341.772"/>
<line x1="132.085" y1="341.772" x2="131.086" y2="342.771"/>
<line x1="131.086" y1="342.771" x2="130.587" y2="344.269"/>
<line x1="148.065" y1="337.278" x2="146.567" y2="337.777"/>
<line x1="146.567" y1="337.777" x2="145.568" y2="339.275"/>
<line x1="145.568" y1="339.275" x2="145.069" y2="341.772"/>
<line x1="145.069" y1="341.772" x2="145.069" y2="343.270"/>
<line x1="145.069" y1="343.270" x2="145.568" y2="345.767"/>
<line x1="145.568" y1="345.767" x2="146.567" y2="347.265"/>
<line x1="146.567" y1="347.265" x2="148.065" y2="347.765"/>
<line x1="148.065" y1="347.765" x2="149.064" y2="347.765"/>
<line x1="149.064" y1="347.765" x2="150.562" y2="347.265"/>
<line x1="150.562" y1="347.265" x2="151.561" y2="345.767"/>
<line x1="151.561" y1="345.767" x2="152.060" y2="343.270"/>
<line x1="152.060" y1="343.270" x2="152.060" y2="341.772"/>
<line x1="152.060" y1="341.772" x2="151.561" y2="339.275"/>
<line x1="151.561" y1="339.275" x2="150.562" y2="337.777"/>
<line x1="150.562" y1="337.777" x2="149.064" y2="337.278"/>
<line x1="149.064" y1="337.278" x2="148.065" y2="337.278"/>
</g>
<g transform="matrix(1 0 0 1 0 0)"                     
style="stroke:rgb(2,2,2);
stroke-width:1.0">
<line x1="103.121" y1="223.820" x2="101.623" y2="224.319"/>
<line x1="101.623" y1="224.319" x2="100.624" y2="225.817"/>
<line x1="100.624" y1="225.817" x2="100.125" y2="228.314"/>
<line x1="100.125" y1="228.314" x2="100.125" y2="229.812"/>
<line x1="100.125" y1="229.812" x2="100.624" y2="232.309"/>
<line x1="100.624" y1="232.309" x2="101.623" y2="233.807"/>
<line x1="101.623" y1="233.807" x2="103.121" y2="234.307"/>
<line x1="103.121" y1="234.307" x2="104.120" y2="234.307"/>
<line x1="104.120" y1="234.307" x2="105.618" y2="233.807"/>
<line x1="105.618" y1="233.807" x2="106.617" y2="232.309"/>
<line x1="106.617" y1="232.309" x2="107.116" y2="229.812"/>
<line x1="107.116" y1="229.812" x2="107.116" y2="228.314"/>
<line x1="107.116" y1="228.314" x2="106.617" y2="225.817"/>
<line x1="106.617" y1="225.817" x2="105.618" y2="224.319"/>
<line x1="105.618" y1="224.319" x2="104.120" y2="223.820"/>
<line x1="104.120" y1="223.820" x2="103.121" y2="223.820"/>
<line x1="118.602" y1="233.308" x2="118.103" y2="233.807"/>
<line x1="118.103" y1="233.807" x2="118.602" y2="234.307"/>
<line x1="118.602" y1="234.307" x2="119.101" y2="233.807"/>
<line x1="119.101" y1="233.807" x2="118.602" y2="233.308"/>
<line x1="132.584" y1="223.820" x2="131.086" y2="224.319"/>
<line x1="131.086" y1="224.319" x2="130.587" y2="225.318"/>
<line x1="130.587" y1="225.318" x2="130.587" y2="226.317"/>
<line x1="130.587" y1="226.317" x2="131.086" y2="227.315"/>
<line x1="131.086" y1="227.315" x2="132.085" y2="227.815"/>
<line x1="132.085" y1="227.815" x2="134.083" y2="228.314"/>
<line x1="134.083" y1="228.314" x2="135.581" y2="228.814"/>
<line x1="135.581" y1="228.814" x2="136.579" y2="229.812"/>
<line x1="136.579" y1="229.812" x2="137.079" y2="230.811"/>
<line x1="137.079" y1="230.811" x2="137.079" y2="232.309"/>
<line x1="137.079" y1="232.309" x2="136.579" y2="233.308"/>
<line x1="136.579" y1="233.308" x2="136.080" y2="233.807"/>
<line x1="136.080" y1="233.807" x2="134.582" y2="234.307"/>
<line x1="134.582" y1="234.307" x2="132.584" y2="234.307"/>
<line x1="132.584" y1="234.307" x2="131.086" y2="233.807"/>
<line x1="131.086" y1="233.807" x2="130.587" y2="233.308"/>
<line x1="130.587" y1="233.308" x2="130.088" y2="232.309"/>
<line x1="130.088" y1="232.309" x2="130.088" y2="230.811"/>
<line x1="130.088" y1="230.811" x2="130.587" y2="229.812"/>
<line x1="130.587" y1="229.812" x2="131.586" y2="228.814"/>
<line x1="131.586" y1="228.814" x2="133.084" y2="228.314"/>
<line x1="133.084" y1="228.314" x2="135.081" y2="227.815"/>
<line x1="135.081" y1="227.815" x2="136.080" y2="227.315"/>
<line x1="136.080" y1="227.315" x2="136.579" y2="226.317"/>
<line x1="136.579" y1="226.317" x2="136.579" y2="225.318"/>
<line x1="136.579" y1="225.318" x2="136.080" y2="224.319"/>
<line x1="136.080" y1="224.319" x2="134.582" y2="223.820"/>
<line x1="134.582" y1="223.820" x2="132.584" y2="223.820"/>
<line x1="148.065" y1="223.820" x2="146.567" y2="224.319"/>
<line x1="146.567" y1="224.319" x2="145.568" y2="225.817"/>
<line x1="145.568" y1="225.817" x2="145.069" y2="228.314"/>
<line x1="145.069" y1="228.314" x2="145.069" y2="229.812"/>
<line x1="145.069" y1="229.812" x2="145.568" y2="232.309"/>
<line x1="145.568" y1="232.309" x2="146.567" y2="233.807"/>
<line x1="146.567" y1="233.807" x2="148.065" y2="234.307"/>
<line x1="148.065" y1="234.307" x2="149.064" y2="234.307"/>
<line x1="149.064" y1="234.307" x2="150.562" y2="233.807"/>
<line x1="150.562" y1="233.807" x2="151.561" y2="232.309"/>
<line x1="151.561" y1="232.309" x2="152.060" y2="229.812"/>
<line x1="152.060" y1="229.812" x2="152.060" y2="228.314"/>
<line x1="152.060" y1="228.314" x2="151.561" y2="225.817"/>
<line x1="151.561" y1="225.817" x2="150.562" y2="224.319"/>
<line x1="150.562" y1="224.319" x2="149.064" y2="223.820"/>
<line x1="149.064" y1="223.820" x2="148.065" y2="223.820"/>
</g>
<g transform="matrix(1 0 0 1 0 0)"                     
style="stroke:rgb(2,2,2);
stroke-width:1.0">
<line x1="101.623" y1="112.359" x2="102.622" y2="111.860"/>
<line x1="102.622" y1="111.860" x2="104.120" y2="110.362"/>
<line x1="104.120" y1="110.362" x2="104.120" y2="120.849"/>
<line x1="118.602" y1="119.850" x2="118.103" y2="120.349"/>
<line x1="118.103" y1="120.349" x2="118.602" y2="120.849"/>
<line x1="118.602" y1="120.849" x2="119.101" y2="120.349"/>
<line x1="119.101" y1="120.349" x2="118.602" y2="119.850"/>
<line x1="133.084" y1="110.362" x2="131.586" y2="110.861"/>
<line x1="131.586" y1="110.861" x2="130.587" y2="112.359"/>
<line x1="130.587" y1="112.359" x2="130.088" y2="114.856"/>
<line x1="130.088" y1="114.856" x2="130.088" y2="116.354"/>
<line x1="130.088" y1="116.354" x2="130.587" y2="118.851"/>
<line x1="130.587" y1="118.851" x2="131.586" y2="120.349"/>
<line x1="131.586" y1="120.349" x2="133.084" y2="120.849"/>
<line x1="133.084" y1="120.849" x2="134.083" y2="120.849"/>
<line x1="134.083" y1="120.849" x2="135.581" y2="120.349"/>
<line x1="135.581" y1="120.349" x2="136.579" y2="118.851"/>
<line x1="136.579" y1="118.851" x2="137.079" y2="116.354"/>
<line x1="137.079" y1="116.354" x2="137.079" y2="114.856"/>
<line x1="137.079" y1="114.856" x2="136.579" y2="112.359"/>
<line x1="136.579" y1="112.359" x2="135.581" y2="110.861"/>
<line x1="135.581" y1="110.861" x2="134.083" y2="110.362"/>
<line x1="134.083" y1="110.362" x2="133.084" y2="110.362"/>
<line x1="148.065" y1="110.362" x2="146.567" y2="110.861"/>
<line x1="146.567" y1="110.861" x2="145.568" y2="112.359"/>
<line x1="145.568" y1="112.359" x2="145.069" y2="114.856"/>
<line x1="145.069" y1="114.856" x2="145.069" y2="116.354"/>
<line x1="145.069" y1="116.354" x2="145.568" y2="118.851"/>
<line x1="145.568" y1="118.851" x2="146.567" y2="120.349"/>
<line x1="146.567" y1="120.349" x2="148.065" y2="120.849"/>
<line x1="148.065" y1="120.849" x2="149.064" y2="120.849"/>
<line x1="149.064" y1="120.849" x2="150.562" y2="120.349"/>
<line x1="150.562" y1="120.349" x2="151.561" y2="118.851"/>
<line x1="151.561" y1="118.851" x2="152.060" y2="116.354"/>
<line x1="152.060" y1="116.354" x2="152.060" y2="114.856"/>
<line x1="152.060" y1="114.856" x2="151.561" y2="112.359"/>
<line x1="151.561" y1="112.359" x2="150.562" y2="110.861"/>
<line x1="150.562" y1="110.861" x2="149.064" y2="110.362"/>
<line x1="149.064" y1="110.362" x2="148.065" y2="110.362"/>
</g>
<g transform="matrix(1 0 0 1 0 0)"                     
style="stroke:rgb(2,2,2);
stroke-width:1.0">
<line x1="174.033" y1="683.145" x2="1024.968" y2="683.145"/>
<line x1="1024.968" y1="683.145" x2="1024.968" y2="115.855"/>
<line x1="1024.968" y1="115.855" x2="174.033" y2="115.855"/>
<line x1="174.033" y1="115.855" x2="174.033" y2="683.145"/>
</g>
<g transform="matrix(1 0 0 1 0 0)"                     
style="stroke:rgb(2,2,2);
stroke-width:1.0">
<line x1="174.033" y1="683.145" x2="1024.968" y2="683.145"/>
</g>
<g transform="matrix(1 0 0 1 0 0)"                     
style="stroke:rgb(2,2,2);
stroke-width:1.0">
<line x1="174.033" y1="683.145" x2="174.033" y2="115.855"/>
</g>
<g transform="matrix(1 0 0 1 0 0)"                     
style="stroke:rgb(0,0,0);
stroke-width:1.0">
<line x1="0.500" y1="798.500" x2="1198.500" y2="798.500"/>
<line x1="1198.500" y1="798.500" x2="1198.500" y2="0.500"/>
<line x1="1198.500" y1="0.500" x2="0.500" y2="0.500"/>
<line x1="0.500" y1="0.500" x2="0.500" y2="798.500"/>
</g>
</svg>
