<svg 
xmlns="http://www.w3.org/2000/svg"                   
width="1200"
height="800"
viewBox="0 0 1200 800">
<g transform="matrix(1 0 0 1 0 0)"
style="stroke:rgb(255,0,0);
stroke-width:1.0">
<line x1="139.276" y1="683.261" x2="207.351" y2="626.557"/>
<line x1="207.351" y1="626.557" x2="275.426" y2="569.852"/>
<line x1="275.426" y1="569.852" x2="343.500" y2="513.148"/>
<line x1="343.500" y1="513.148" x2="411.575" y2="456.444"/>
<line x1="411.575" y1="456.444" x2="479.650" y2="399.739"/>
<line x1="479.650" y1="399.739" x2="547.725" y2="343.035"/>
<line x1="547.725" y1="343.035" x2="615.800" y2="286.331"/>
<line x1="615.800" y1="286.331" x2="683.874" y2="229.627"/>
<line x1="683.874" y1="229.627" x2="751.949" y2="172.922"/>
<line x1="751.949" y1="172.922" x2="820.024" y2="116.538"/>
</g>
<g transform="matrix(1 0 0 1 0 0)"
style="stroke:rgb(2,2,255);
stroke-width:1.0">
<line x1="357.688" y1="45.601" x2="362.194" y2="56.115"/>
<line x1="366.700" y1="45.601" x2="362.194" y2="56.115"/>
<line x1="362.194" y1="56.115" x2="360.692" y2="59.119"/>
<line x1="360.692" y1="59.119" x2="359.190" y2="60.621"/>
<line x1="359.190" y1="60.621" x2="357.688" y2="61.372"/>
<line x1="357.688" y1="61.372" x2="356.937" y2="61.372"/>
<line x1="371.206" y1="47.103" x2="384.724" y2="47.103"/>
<line x1="371.206" y1="51.609" x2="384.724" y2="51.609"/>
<line x1="390.732" y1="44.099" x2="390.732" y2="43.348"/>
<line x1="390.732" y1="43.348" x2="391.483" y2="41.846"/>
<line x1="391.483" y1="41.846" x2="392.234" y2="41.095"/>
<line x1="392.234" y1="41.095" x2="393.736" y2="40.344"/>
<line x1="393.736" y1="40.344" x2="396.740" y2="40.344"/>
<line x1="396.740" y1="40.344" x2="398.242" y2="41.095"/>
<line x1="398.242" y1="41.095" x2="398.993" y2="41.846"/>
<line x1="398.993" y1="41.846" x2="399.744" y2="43.348"/>
<line x1="399.744" y1="43.348" x2="399.744" y2="44.850"/>
<line x1="399.744" y1="44.850" x2="398.993" y2="46.352"/>
<line x1="398.993" y1="46.352" x2="397.491" y2="48.605"/>
<line x1="397.491" y1="48.605" x2="389.981" y2="56.115"/>
<line x1="389.981" y1="56.115" x2="400.495" y2="56.115"/>
<line x1="403.649" y1="40.194" x2="406.954" y2="44.400"/>
<line x1="406.954" y1="40.194" x2="403.649" y2="44.400"/>
<line x1="424.377" y1="45.601" x2="427.381" y2="56.115"/>
<line x1="430.385" y1="45.601" x2="427.381" y2="56.115"/>
<line x1="430.385" y1="45.601" x2="433.389" y2="56.115"/>
<line x1="436.393" y1="45.601" x2="433.389" y2="56.115"/>
<line x1="440.899" y1="40.344" x2="441.650" y2="41.095"/>
<line x1="441.650" y1="41.095" x2="442.401" y2="40.344"/>
<line x1="442.401" y1="40.344" x2="441.650" y2="39.593"/>
<line x1="441.650" y1="39.593" x2="440.899" y2="40.344"/>
<line x1="441.650" y1="45.601" x2="441.650" y2="56.115"/>
<line x1="448.409" y1="40.344" x2="448.409" y2="53.111"/>
<line x1="448.409" y1="53.111" x2="449.160" y2="55.364"/>
<line x1="449.160" y1="55.364" x2="450.662" y2="56.115"/>
<line x1="450.662" y1="56.115" x2="452.164" y2="56.115"/>
<line x1="446.156" y1="45.601" x2="451.413" y2="45.601"/>
<line x1="456.670" y1="40.344" x2="456.670" y2="56.115"/>
<line x1="456.670" y1="48.605" x2="458.923" y2="46.352"/>
<line x1="458.923" y1="46.352" x2="460.425" y2="45.601"/>
<line x1="460.425" y1="45.601" x2="462.678" y2="45.601"/>
<line x1="462.678" y1="45.601" x2="464.180" y2="46.352"/>
<line x1="464.180" y1="46.352" x2="464.931" y2="48.605"/>
<line x1="464.931" y1="48.605" x2="464.931" y2="56.115"/>
<line x1="485.207" y1="40.344" x2="485.207" y2="56.115"/>
<line x1="494.219" y1="45.601" x2="492.717" y2="46.352"/>
<line x1="492.717" y1="46.352" x2="491.215" y2="47.854"/>
<line x1="491.215" y1="47.854" x2="490.464" y2="50.107"/>
<line x1="490.464" y1="50.107" x2="490.464" y2="51.609"/>
<line x1="490.464" y1="51.609" x2="491.215" y2="53.862"/>
<line x1="491.215" y1="53.862" x2="492.717" y2="55.364"/>
<line x1="492.717" y1="55.364" x2="494.219" y2="56.115"/>
<line x1="494.219" y1="56.115" x2="496.472" y2="56.115"/>
<line x1="496.472" y1="56.115" x2="497.974" y2="55.364"/>
<line x1="497.974" y1="55.364" x2="499.476" y2="53.862"/>
<line x1="499.476" y1="53.862" x2="500.227" y2="51.609"/>
<line x1="500.227" y1="51.609" x2="500.227" y2="50.107"/>
<line x1="500.227" y1="50.107" x2="499.476" y2="47.854"/>
<line x1="499.476" y1="47.854" x2="497.974" y2="46.352"/>
<line x1="497.974" y1="46.352" x2="496.472" y2="45.601"/>
<line x1="496.472" y1="45.601" x2="494.219" y2="45.601"/>
<line x1="513.745" y1="45.601" x2="513.745" y2="57.617"/>
<line x1="513.745" y1="57.617" x2="512.994" y2="59.870"/>
<line x1="512.994" y1="59.870" x2="512.243" y2="60.621"/>
<line x1="512.243" y1="60.621" x2="510.741" y2="61.372"/>
<line x1="510.741" y1="61.372" x2="508.488" y2="61.372"/>
<line x1="508.488" y1="61.372" x2="506.986" y2="60.621"/>
<line x1="513.745" y1="47.854" x2="512.243" y2="46.352"/>
<line x1="512.243" y1="46.352" x2="510.741" y2="45.601"/>
<line x1="510.741" y1="45.601" x2="508.488" y2="45.601"/>
<line x1="508.488" y1="45.601" x2="506.986" y2="46.352"/>
<line x1="506.986" y1="46.352" x2="505.484" y2="47.854"/>
<line x1="505.484" y1="47.854" x2="504.733" y2="50.107"/>
<line x1="504.733" y1="50.107" x2="504.733" y2="51.609"/>
<line x1="504.733" y1="51.609" x2="505.484" y2="53.862"/>
<line x1="505.484" y1="53.862" x2="506.986" y2="55.364"/>
<line x1="506.986" y1="55.364" x2="508.488" y2="56.115"/>
<line x1="508.488" y1="56.115" x2="510.741" y2="56.115"/>
<line x1="510.741" y1="56.115" x2="512.243" y2="55.364"/>
<line x1="512.243" y1="55.364" x2="513.745" y2="53.862"/>
<line x1="532.520" y1="45.601" x2="537.026" y2="56.115"/>
<line x1="541.532" y1="45.601" x2="537.026" y2="56.115"/>
<line x1="537.026" y1="56.115" x2="535.524" y2="59.119"/>
<line x1="535.524" y1="59.119" x2="534.022" y2="60.621"/>
<line x1="534.022" y1="60.621" x2="532.520" y2="61.372"/>
<line x1="532.520" y1="61.372" x2="531.769" y2="61.372"/>
<line x1="568.568" y1="45.601" x2="568.568" y2="56.115"/>
<line x1="568.568" y1="47.854" x2="567.066" y2="46.352"/>
<line x1="567.066" y1="46.352" x2="565.564" y2="45.601"/>
<line x1="565.564" y1="45.601" x2="563.311" y2="45.601"/>
<line x1="563.311" y1="45.601" x2="561.809" y2="46.352"/>
<line x1="561.809" y1="46.352" x2="560.307" y2="47.854"/>
<line x1="560.307" y1="47.854" x2="559.556" y2="50.107"/>
<line x1="559.556" y1="50.107" x2="559.556" y2="51.609"/>
<line x1="559.556" y1="51.609" x2="560.307" y2="53.862"/>
<line x1="560.307" y1="53.862" x2="561.809" y2="55.364"/>
<line x1="561.809" y1="55.364" x2="563.311" y2="56.115"/>
<line x1="563.311" y1="56.115" x2="565.564" y2="56.115"/>
<line x1="565.564" y1="56.115" x2="567.066" y2="55.364"/>
<line x1="567.066" y1="55.364" x2="568.568" y2="53.862"/>
<line x1="573.825" y1="45.601" x2="582.086" y2="56.115"/>
<line x1="582.086" y1="45.601" x2="573.825" y2="56.115"/>
<line x1="586.592" y1="40.344" x2="587.343" y2="41.095"/>
<line x1="587.343" y1="41.095" x2="588.094" y2="40.344"/>
<line x1="588.094" y1="40.344" x2="587.343" y2="39.593"/>
<line x1="587.343" y1="39.593" x2="586.592" y2="40.344"/>
<line x1="587.343" y1="45.601" x2="587.343" y2="56.115"/>
<line x1="600.861" y1="47.854" x2="600.110" y2="46.352"/>
<line x1="600.110" y1="46.352" x2="597.857" y2="45.601"/>
<line x1="597.857" y1="45.601" x2="595.604" y2="45.601"/>
<line x1="595.604" y1="45.601" x2="593.351" y2="46.352"/>
<line x1="593.351" y1="46.352" x2="592.600" y2="47.854"/>
<line x1="592.600" y1="47.854" x2="593.351" y2="49.356"/>
<line x1="593.351" y1="49.356" x2="594.853" y2="50.107"/>
<line x1="594.853" y1="50.107" x2="598.608" y2="50.858"/>
<line x1="598.608" y1="50.858" x2="600.110" y2="51.609"/>
<line x1="600.110" y1="51.609" x2="600.861" y2="53.111"/>
<line x1="600.861" y1="53.111" x2="600.861" y2="53.862"/>
<line x1="600.861" y1="53.862" x2="600.110" y2="55.364"/>
<line x1="600.110" y1="55.364" x2="597.857" y2="56.115"/>
<line x1="597.857" y1="56.115" x2="595.604" y2="56.115"/>
<line x1="595.604" y1="56.115" x2="593.351" y2="55.364"/>
<line x1="593.351" y1="55.364" x2="592.600" y2="53.862"/>
</g>
<g transform="matrix(1 0 0 1 0 0)"
style="stroke:rgb(2,2,255);
stroke-width:1.0">
<line x1="471.811" y1="705.781" x2="487.490" y2="725.737"/>
<line x1="487.490" y1="705.781" x2="471.811" y2="725.737"/>
</g>
<g transform="matrix(1 0 0 1 0 0)"
style="stroke:rgb(2,2,255);
stroke-width:1.0">
<line x1="13.583" y1="430.611" x2="29.314" y2="430.611"/>
<line x1="18.827" y1="421.622" x2="19.576" y2="423.120"/>
<line x1="19.576" y1="423.120" x2="21.074" y2="424.619"/>
<line x1="21.074" y1="424.619" x2="23.321" y2="425.368"/>
<line x1="23.321" y1="425.368" x2="24.819" y2="425.368"/>
<line x1="24.819" y1="425.368" x2="27.066" y2="424.619"/>
<line x1="27.066" y1="424.619" x2="28.565" y2="423.120"/>
<line x1="28.565" y1="423.120" x2="29.314" y2="421.622"/>
<line x1="29.314" y1="421.622" x2="29.314" y2="419.375"/>
<line x1="29.314" y1="419.375" x2="28.565" y2="417.877"/>
<line x1="28.565" y1="417.877" x2="27.066" y2="416.379"/>
<line x1="27.066" y1="416.379" x2="24.819" y2="415.630"/>
<line x1="24.819" y1="415.630" x2="23.321" y2="415.630"/>
<line x1="23.321" y1="415.630" x2="21.074" y2="416.379"/>
<line x1="21.074" y1="416.379" x2="19.576" y2="417.877"/>
<line x1="19.576" y1="417.877" x2="18.827" y2="419.375"/>
<line x1="18.827" y1="419.375" x2="18.827" y2="421.622"/>
<line x1="18.827" y1="402.147" x2="30.812" y2="402.147"/>
<line x1="30.812" y1="402.147" x2="33.059" y2="402.896"/>
<line x1="33.059" y1="402.896" x2="33.808" y2="403.645"/>
<line x1="33.808" y1="403.645" x2="34.557" y2="405.143"/>
<line x1="34.557" y1="405.143" x2="34.557" y2="407.390"/>
<line x1="34.557" y1="407.390" x2="33.808" y2="408.888"/>
<line x1="21.074" y1="402.147" x2="19.576" y2="403.645"/>
<line x1="19.576" y1="403.645" x2="18.827" y2="405.143"/>
<line x1="18.827" y1="405.143" x2="18.827" y2="407.390"/>
<line x1="18.827" y1="407.390" x2="19.576" y2="408.888"/>
<line x1="19.576" y1="408.888" x2="21.074" y2="410.386"/>
<line x1="21.074" y1="410.386" x2="23.321" y2="411.135"/>
<line x1="23.321" y1="411.135" x2="24.819" y2="411.135"/>
<line x1="24.819" y1="411.135" x2="27.066" y2="410.386"/>
<line x1="27.066" y1="410.386" x2="28.565" y2="408.888"/>
<line x1="28.565" y1="408.888" x2="29.314" y2="407.390"/>
<line x1="29.314" y1="407.390" x2="29.314" y2="405.143"/>
<line x1="29.314" y1="405.143" x2="28.565" y2="403.645"/>
<line x1="28.565" y1="403.645" x2="27.066" y2="402.147"/>
<line x1="10.587" y1="390.911" x2="12.085" y2="392.409"/>
<line x1="12.085" y1="392.409" x2="14.332" y2="393.907"/>
<line x1="14.332" y1="393.907" x2="17.329" y2="395.405"/>
<line x1="17.329" y1="395.405" x2="21.074" y2="396.154"/>
<line x1="21.074" y1="396.154" x2="24.070" y2="396.154"/>
<line x1="24.070" y1="396.154" x2="27.816" y2="395.405"/>
<line x1="27.816" y1="395.405" x2="30.812" y2="393.907"/>
<line x1="30.812" y1="393.907" x2="33.059" y2="392.409"/>
<line x1="33.059" y1="392.409" x2="34.557" y2="390.911"/>
<line x1="18.827" y1="387.165" x2="29.314" y2="382.671"/>
<line x1="18.827" y1="378.177" x2="29.314" y2="382.671"/>
<line x1="29.314" y1="382.671" x2="32.310" y2="384.169"/>
<line x1="32.310" y1="384.169" x2="33.808" y2="385.667"/>
<line x1="33.808" y1="385.667" x2="34.557" y2="387.165"/>
<line x1="34.557" y1="387.165" x2="34.557" y2="387.914"/>
<line x1="10.587" y1="374.431" x2="12.085" y2="372.933"/>
<line x1="12.085" y1="372.933" x2="14.332" y2="371.435"/>
<line x1="14.332" y1="371.435" x2="17.329" y2="369.937"/>
<line x1="17.329" y1="369.937" x2="21.074" y2="369.188"/>
<line x1="21.074" y1="369.188" x2="24.070" y2="369.188"/>
<line x1="24.070" y1="369.188" x2="27.816" y2="369.937"/>
<line x1="27.816" y1="369.937" x2="30.812" y2="371.435"/>
<line x1="30.812" y1="371.435" x2="33.059" y2="372.933"/>
<line x1="33.059" y1="372.933" x2="34.557" y2="374.431"/>
</g>
<g transform="matrix(1 0 0 1 0 0)"
style="stroke:rgb(2,2,255);
stroke-width:1.0">
<line x1="275.426" y1="683.261" x2="275.426" y2="675.279"/>
<line x1="411.575" y1="683.261" x2="411.575" y2="675.279"/>
<line x1="547.725" y1="683.261" x2="547.725" y2="675.279"/>
<line x1="683.874" y1="683.261" x2="683.874" y2="675.279"/>
</g>
<g transform="matrix(1 0 0 1 0 0)"
style="stroke:rgb(2,2,255);
stroke-width:1.0">
<line x1="275.426" y1="116.538" x2="275.426" y2="124.520"/>
<line x1="411.575" y1="116.538" x2="411.575" y2="124.520"/>
<line x1="547.725" y1="116.538" x2="547.725" y2="124.520"/>
<line x1="683.874" y1="116.538" x2="683.874" y2="124.520"/>
</g>
<g transform="matrix(1 0 0 1 0 0)"
style="stroke:rgb(2,2,255);
stroke-width:1.0">
<line x1="139.276" y1="626.557" x2="143.267" y2="626.557"/>
</g>
<g transform="matrix(1 0 0 1 0 0)"
style="stroke:rgb(2,2,255);
stroke-width:1.0">
<line x1="139.276" y1="593.387" x2="143.267" y2="593.387"/>
</g>
<g transform="matrix(1 0 0 1 0 0)"
style="stroke:rgb(2,2,255);
stroke-width:1.0">
<line x1="139.276" y1="569.852" x2="143.267" y2="569.852"/>
</g>
<g transform="matrix(1 0 0 1 0 0)"
style="stroke:rgb(2,2,255);
stroke-width:1.0">
<line x1="139.276" y1="551.598" x2="143.267" y2="551.598"/>
</g>
<g transform="matrix(1 0 0 1 0 0)"
style="stroke:rgb(2,2,255);
stroke-width:1.0">
<line x1="139.276" y1="536.682" x2="143.267" y2="536.682"/>
</g>
<g transform="matrix(1 0 0 1 0 0)"
style="stroke:rgb(2,2,255);
stroke-width:1.0">
<line x1="139.276" y1="524.072" x2="143.267" y2="524.072"/>
</g>
<g transform="matrix(1 0 0 1 0 0)"
style="stroke:rgb(2,2,255);
stroke-width:1.0">
<line x1="139.276" y1="513.148" x2="143.267" y2="513.148"/>
</g>
<g transform="matrix(1 0 0 1 0 0)"
style="stroke:rgb(2,2,255);
stroke-width:1.0">
<line x1="139.276" y1="503.513" x2="143.267" y2="503.513"/>
</g>
<g transform="matrix(1 0 0 1 0 0)"
style="stroke:rgb(2,2,255);
stroke-width:1.0">
<line x1="139.276" y1="494.893" x2="147.258" y2="494.893"/>
</g>
<g transform="matrix(1 0 0 1 0 0)"
style="stroke:rgb(2,2,255);
stroke-width:1.0">
<line x1="139.276" y1="438.189" x2="143.267" y2="438.189"/>
</g>
<g transform="matrix(1 0 0 1 0 0)"
style="stroke:rgb(2,2,255);
stroke-width:1.0">
<line x1="139.276" y1="405.019" x2="143.267" y2="405.019"/>
</g>
<g transform="matrix(1 0 0 1 0 0)"
style="stroke:rgb(2,2,255);
stroke-width:1.0">
<line x1="139.276" y1="381.485" x2="143.267" y2="381.485"/>
</g>
<g transform="matrix(1 0 0 1 0 0)"
style="stroke:rgb(2,2,255);
stroke-width:1.0">
<line x1="139.276" y1="363.230" x2="143.267" y2="363.230"/>
</g>
<g transform="matrix(1 0 0 1 0 0)"
style="stroke:rgb(2,2,255);
stroke-width:1.0">
<line x1="139.276" y1="348.315" x2="143.267" y2="348.315"/>
</g>
<g transform="matrix(1 0 0 1 0 0)"
style="stroke:rgb(2,2,255);
stroke-width:1.0">
<line x1="139.276" y1="335.704" x2="143.267" y2="335.704"/>
</g>
<g transform="matrix(1 0 0 1 0 0)"
style="stroke:rgb(2,2,255);
stroke-width:1.0">
<line x1="139.276" y1="324.780" x2="143.267" y2="324.780"/>
</g>
<g transform="matrix(1 0 0 1 0 0)"
style="stroke:rgb(2,2,255);
stroke-width:1.0">
<line x1="139.276" y1="315.145" x2="143.267" y2="315.145"/>
</g>
<g transform="matrix(1 0 0 1 0 0)"
style="stroke:rgb(2,2,255);
stroke-width:1.0">
<line x1="139.276" y1="306.526" x2="147.258" y2="306.526"/>
</g>
<g transform="matrix(1 0 0 1 0 0)"
style="stroke:rgb(2,2,255);
stroke-width:1.0">
<line x1="139.276" y1="249.821" x2="143.267" y2="249.821"/>
</g>
<g transform="matrix(1 0 0 1 0 0)"
style="stroke:rgb(2,2,255);
stroke-width:1.0">
<line x1="139.276" y1="216.652" x2="143.267" y2="216.652"/>
</g>
<g transform="matrix(1 0 0 1 0 0)"
style="stroke:rgb(2,2,255);
stroke-width:1.0">
<line x1="139.276" y1="193.117" x2="143.267" y2="193.117"/>
</g>
<g transform="matrix(1 0 0 1 0 0)"
style="stroke:rgb(2,2,255);
stroke-width:1.0">
<line x1="139.276" y1="174.862" x2="143.267" y2="174.862"/>
</g>
<g transform="matrix(1 0 0 1 0 0)"
style="stroke:rgb(2,2,255);
stroke-width:1.0">
<line x1="139.276" y1="159.947" x2="143.267" y2="159.947"/>
</g>
<g transform="matrix(1 0 0 1 0 0)"
style="stroke:rgb(2,2,255);
stroke-width:1.0">
<line x1="139.276" y1="147.337" x2="143.267" y2="147.337"/>
</g>
<g transform="matrix(1 0 0 1 0 0)"
style="stroke:rgb(2,2,255);
stroke-width:1.0">
<line x1="139.276" y1="136.413" x2="143.267" y2="136.413"/>
</g>
<g transform="matrix(1 0 0 1 0 0)"
style="stroke:rgb(2,2,255);
stroke-width:1.0">
<line x1="139.276" y1="126.777" x2="143.267" y2="126.777"/>
</g>
<g transform="matrix(1 0 0 1 0 0)"
style="stroke:rgb(2,2,255);
stroke-width:1.0">
<line x1="139.276" y1="118.158" x2="147.258" y2="118.158"/>
</g>
<g transform="matrix(1 0 0 1 0 0)"
style="stroke:rgb(2,2,255);
stroke-width:1.0">
<line x1="820.024" y1="626.557" x2="816.033" y2="626.557"/>
</g>
<g transform="matrix(1 0 0 1 0 0)"
style="stroke:rgb(2,2,255);
stroke-width:1.0">
<line x1="820.024" y1="593.387" x2="816.033" y2="593.387"/>
</g>
<g transform="matrix(1 0 0 1 0 0)"
style="stroke:rgb(2,2,255);
stroke-width:1.0">
<line x1="820.024" y1="569.852" x2="816.033" y2="569.852"/>
</g>
<g transform="matrix(1 0 0 1 0 0)"
style="stroke:rgb(2,2,255);
stroke-width:1.0">
<line x1="820.024" y1="551.598" x2="816.033" y2="551.598"/>
</g>
<g transform="matrix(1 0 0 1 0 0)"
style="stroke:rgb(2,2,255);
stroke-width:1.0">
<line x1="820.024" y1="536.682" x2="816.033" y2="536.682"/>
</g>
<g transform="matrix(1 0 0 1 0 0)"
style="stroke:rgb(2,2,255);
stroke-width:1.0">
<line x1="820.024" y1="524.072" x2="816.033" y2="524.072"/>
</g>
<g transform="matrix(1 0 0 1 0 0)"
style="stroke:rgb(2,2,255);
stroke-width:1.0">
<line x1="820.024" y1="513.148" x2="816.033" y2="513.148"/>
</g>
<g transform="matrix(1 0 0 1 0 0)"
style="stroke:rgb(2,2,255);
stroke-width:1.0">
<line x1="820.024" y1="503.513" x2="816.033" y2="503.513"/>
</g>
<g transform="matrix(1 0 0 1 0 0)"
style="stroke:rgb(2,2,255);
stroke-width:1.0">
<line x1="820.024" y1="494.893" x2="812.042" y2="494.893"/>
</g>
<g transform="matrix(1 0 0 1 0 0)"
style="stroke:rgb(2,2,255);
stroke-width:1.0">
<line x1="820.024" y1="438.189" x2="816.033" y2="438.189"/>
</g>
<g transform="matrix(1 0 0 1 0 0)"
style="stroke:rgb(2,2,255);
stroke-width:1.0">
<line x1="820.024" y1="405.019" x2="816.033" y2="405.019"/>
</g>
<g transform="matrix(1 0 0 1 0 0)"
style="stroke:rgb(2,2,255);
stroke-width:1.0">
<line x1="820.024" y1="381.485" x2="816.033" y2="381.485"/>
</g>
<g transform="matrix(1 0 0 1 0 0)"
style="stroke:rgb(2,2,255);
stroke-width:1.0">
<line x1="820.024" y1="363.230" x2="816.033" y2="363.230"/>
</g>
<g transform="matrix(1 0 0 1 0 0)"
style="stroke:rgb(2,2,255);
stroke-width:1.0">
<line x1="820.024" y1="348.315" x2="816.033" y2="348.315"/>
</g>
<g transform="matrix(1 0 0 1 0 0)"
style="stroke:rgb(2,2,255);
stroke-width:1.0">
<line x1="820.024" y1="335.704" x2="816.033" y2="335.704"/>
</g>
<g transform="matrix(1 0 0 1 0 0)"
style="stroke:rgb(2,2,255);
stroke-width:1.0">
<line x1="820.024" y1="324.780" x2="816.033" y2="324.780"/>
</g>
<g transform="matrix(1 0 0 1 0 0)"
style="stroke:rgb(2,2,255);
stroke-width:1.0">
<line x1="820.024" y1="315.145" x2="816.033" y2="315.145"/>
</g>
<g transform="matrix(1 0 0 1 0 0)"
style="stroke:rgb(2,2,255);
stroke-width:1.0">
<line x1="820.024" y1="306.526" x2="812.042" y2="306.526"/>
</g>
<g transform="matrix(1 0 0 1 0 0)"
style="stroke:rgb(2,2,255);
stroke-width:1.0">
<line x1="820.024" y1="249.821" x2="816.033" y2="249.821"/>
</g>
<g transform="matrix(1 0 0 1 0 0)"
style="stroke:rgb(2,2,255);
stroke-width:1.0">
<line x1="820.024" y1="216.652" x2="816.033" y2="216.652"/>
</g>
<g transform="matrix(1 0 0 1 0 0)"
style="stroke:rgb(2,2,255);
stroke-width:1.0">
<line x1="820.024" y1="193.117" x2="816.033" y2="193.117"/>
</g>
<g transform="matrix(1 0 0 1 0 0)"
style="stroke:rgb(2,2,255);
stroke-width:1.0">
<line x1="820.024" y1="174.862" x2="816.033" y2="174.862"/>
</g>
<g transform="matrix(1 0 0 1 0 0)"
style="stroke:rgb(2,2,255);
stroke-width:1.0">
<line x1="820.024" y1="159.947" x2="816.033" y2="159.947"/>
</g>
<g transform="matrix(1 0 0 1 0 0)"
style="stroke:rgb(2,2,255);
stroke-width:1.0">
<line x1="820.024" y1="147.337" x2="816.033" y2="147.337"/>
</g>
<g transform="matrix(1 0 0 1 0 0)"
style="stroke:rgb(2,2,255);
stroke-width:1.0">
<line x1="820.024" y1="136.413" x2="816.033" y2="136.413"/>
</g>
<g transform="matrix(1 0 0 1 0 0)"
style="stroke:rgb(2,2,255);
stroke-width:1.0">
<line x1="820.024" y1="126.777" x2="816.033" y2="126.777"/>
</g>
<g transform="matrix(1 0 0 1 0 0)"
style="stroke:rgb(2,2,255);
stroke-width:1.0">
<line x1="820.024" y1="118.158" x2="812.042" y2="118.158"/>
</g>
<g transform="matrix(1 0 0 1 0 0)"
style="stroke:rgb(2,2,255);
stroke-width:1.0">
<line x1="123.811" y1="697.728" x2="122.314" y2="698.227"/>
<line x1="122.314" y1="698.227" x2="121.317" y2="699.724"/>
<line x1="121.317" y1="699.724" x2="120.818" y2="702.218"/>
<line x1="120.818" y1="702.218" x2="120.818" y2="703.715"/>
<line x1="120.818" y1="703.715" x2="121.317" y2="706.209"/>
<line x1="121.317" y1="706.209" x2="122.314" y2="707.706"/>
<line x1="122.314" y1="707.706" x2="123.811" y2="708.205"/>
<line x1="123.811" y1="708.205" x2="124.809" y2="708.205"/>
<line x1="124.809" y1="708.205" x2="126.305" y2="707.706"/>
<line x1="126.305" y1="707.706" x2="127.303" y2="706.209"/>
<line x1="127.303" y1="706.209" x2="127.802" y2="703.715"/>
<line x1="127.802" y1="703.715" x2="127.802" y2="702.218"/>
<line x1="127.802" y1="702.218" x2="127.303" y2="699.724"/>
<line x1="127.303" y1="699.724" x2="126.305" y2="698.227"/>
<line x1="126.305" y1="698.227" x2="124.809" y2="697.728"/>
<line x1="124.809" y1="697.728" x2="123.811" y2="697.728"/>
<line x1="139.276" y1="707.207" x2="138.777" y2="707.706"/>
<line x1="138.777" y1="707.706" x2="139.276" y2="708.205"/>
<line x1="139.276" y1="708.205" x2="139.775" y2="707.706"/>
<line x1="139.775" y1="707.706" x2="139.276" y2="707.207"/>
<line x1="153.743" y1="697.728" x2="152.247" y2="698.227"/>
<line x1="152.247" y1="698.227" x2="151.249" y2="699.724"/>
<line x1="151.249" y1="699.724" x2="150.750" y2="702.218"/>
<line x1="150.750" y1="702.218" x2="150.750" y2="703.715"/>
<line x1="150.750" y1="703.715" x2="151.249" y2="706.209"/>
<line x1="151.249" y1="706.209" x2="152.247" y2="707.706"/>
<line x1="152.247" y1="707.706" x2="153.743" y2="708.205"/>
<line x1="153.743" y1="708.205" x2="154.741" y2="708.205"/>
<line x1="154.741" y1="708.205" x2="156.238" y2="707.706"/>
<line x1="156.238" y1="707.706" x2="157.236" y2="706.209"/>
<line x1="157.236" y1="706.209" x2="157.734" y2="703.715"/>
<line x1="157.734" y1="703.715" x2="157.734" y2="702.218"/>
<line x1="157.734" y1="702.218" x2="157.236" y2="699.724"/>
<line x1="157.236" y1="699.724" x2="156.238" y2="698.227"/>
<line x1="156.238" y1="698.227" x2="154.741" y2="697.728"/>
<line x1="154.741" y1="697.728" x2="153.743" y2="697.728"/>
<line x1="168.710" y1="697.728" x2="167.213" y2="698.227"/>
<line x1="167.213" y1="698.227" x2="166.215" y2="699.724"/>
<line x1="166.215" y1="699.724" x2="165.716" y2="702.218"/>
<line x1="165.716" y1="702.218" x2="165.716" y2="703.715"/>
<line x1="165.716" y1="703.715" x2="166.215" y2="706.209"/>
<line x1="166.215" y1="706.209" x2="167.213" y2="707.706"/>
<line x1="167.213" y1="707.706" x2="168.710" y2="708.205"/>
<line x1="168.710" y1="708.205" x2="169.707" y2="708.205"/>
<line x1="169.707" y1="708.205" x2="171.204" y2="707.706"/>
<line x1="171.204" y1="707.706" x2="172.202" y2="706.209"/>
<line x1="172.202" y1="706.209" x2="172.701" y2="703.715"/>
<line x1="172.701" y1="703.715" x2="172.701" y2="702.218"/>
<line x1="172.701" y1="702.218" x2="172.202" y2="699.724"/>
<line x1="172.202" y1="699.724" x2="171.204" y2="698.227"/>
<line x1="171.204" y1="698.227" x2="169.707" y2="697.728"/>
<line x1="169.707" y1="697.728" x2="168.710" y2="697.728"/>
</g>
<g transform="matrix(1 0 0 1 0 0)"
style="stroke:rgb(2,2,255);
stroke-width:1.0">
<line x1="257.466" y1="700.223" x2="257.466" y2="699.724"/>
<line x1="257.466" y1="699.724" x2="257.965" y2="698.726"/>
<line x1="257.965" y1="698.726" x2="258.464" y2="698.227"/>
<line x1="258.464" y1="698.227" x2="259.462" y2="697.728"/>
<line x1="259.462" y1="697.728" x2="261.457" y2="697.728"/>
<line x1="261.457" y1="697.728" x2="262.455" y2="698.227"/>
<line x1="262.455" y1="698.227" x2="262.954" y2="698.726"/>
<line x1="262.954" y1="698.726" x2="263.453" y2="699.724"/>
<line x1="263.453" y1="699.724" x2="263.453" y2="700.721"/>
<line x1="263.453" y1="700.721" x2="262.954" y2="701.719"/>
<line x1="262.954" y1="701.719" x2="261.956" y2="703.216"/>
<line x1="261.956" y1="703.216" x2="256.967" y2="708.205"/>
<line x1="256.967" y1="708.205" x2="263.951" y2="708.205"/>
<line x1="275.426" y1="707.207" x2="274.927" y2="707.706"/>
<line x1="274.927" y1="707.706" x2="275.426" y2="708.205"/>
<line x1="275.426" y1="708.205" x2="275.924" y2="707.706"/>
<line x1="275.924" y1="707.706" x2="275.426" y2="707.207"/>
<line x1="289.893" y1="697.728" x2="288.396" y2="698.227"/>
<line x1="288.396" y1="698.227" x2="287.399" y2="699.724"/>
<line x1="287.399" y1="699.724" x2="286.900" y2="702.218"/>
<line x1="286.900" y1="702.218" x2="286.900" y2="703.715"/>
<line x1="286.900" y1="703.715" x2="287.399" y2="706.209"/>
<line x1="287.399" y1="706.209" x2="288.396" y2="707.706"/>
<line x1="288.396" y1="707.706" x2="289.893" y2="708.205"/>
<line x1="289.893" y1="708.205" x2="290.891" y2="708.205"/>
<line x1="290.891" y1="708.205" x2="292.387" y2="707.706"/>
<line x1="292.387" y1="707.706" x2="293.385" y2="706.209"/>
<line x1="293.385" y1="706.209" x2="293.884" y2="703.715"/>
<line x1="293.884" y1="703.715" x2="293.884" y2="702.218"/>
<line x1="293.884" y1="702.218" x2="293.385" y2="699.724"/>
<line x1="293.385" y1="699.724" x2="292.387" y2="698.227"/>
<line x1="292.387" y1="698.227" x2="290.891" y2="697.728"/>
<line x1="290.891" y1="697.728" x2="289.893" y2="697.728"/>
<line x1="304.859" y1="697.728" x2="303.363" y2="698.227"/>
<line x1="303.363" y1="698.227" x2="302.365" y2="699.724"/>
<line x1="302.365" y1="699.724" x2="301.866" y2="702.218"/>
<line x1="301.866" y1="702.218" x2="301.866" y2="703.715"/>
<line x1="301.866" y1="703.715" x2="302.365" y2="706.209"/>
<line x1="302.365" y1="706.209" x2="303.363" y2="707.706"/>
<line x1="303.363" y1="707.706" x2="304.859" y2="708.205"/>
<line x1="304.859" y1="708.205" x2="305.857" y2="708.205"/>
<line x1="305.857" y1="708.205" x2="307.354" y2="707.706"/>
<line x1="307.354" y1="707.706" x2="308.351" y2="706.209"/>
<line x1="308.351" y1="706.209" x2="308.850" y2="703.715"/>
<line x1="308.850" y1="703.715" x2="308.850" y2="702.218"/>
<line x1="308.850" y1="702.218" x2="308.351" y2="699.724"/>
<line x1="308.351" y1="699.724" x2="307.354" y2="698.227"/>
<line x1="307.354" y1="698.227" x2="305.857" y2="697.728"/>
<line x1="305.857" y1="697.728" x2="304.859" y2="697.728"/>
</g>
<g transform="matrix(1 0 0 1 0 0)"
style="stroke:rgb(2,2,255);
stroke-width:1.0">
<line x1="398.106" y1="697.728" x2="393.117" y2="704.713"/>
<line x1="393.117" y1="704.713" x2="400.600" y2="704.713"/>
<line x1="398.106" y1="697.728" x2="398.106" y2="708.205"/>
<line x1="411.575" y1="707.207" x2="411.076" y2="707.706"/>
<line x1="411.076" y1="707.706" x2="411.575" y2="708.205"/>
<line x1="411.575" y1="708.205" x2="412.074" y2="707.706"/>
<line x1="412.074" y1="707.706" x2="411.575" y2="707.207"/>
<line x1="426.043" y1="697.728" x2="424.546" y2="698.227"/>
<line x1="424.546" y1="698.227" x2="423.548" y2="699.724"/>
<line x1="423.548" y1="699.724" x2="423.049" y2="702.218"/>
<line x1="423.049" y1="702.218" x2="423.049" y2="703.715"/>
<line x1="423.049" y1="703.715" x2="423.548" y2="706.209"/>
<line x1="423.548" y1="706.209" x2="424.546" y2="707.706"/>
<line x1="424.546" y1="707.706" x2="426.043" y2="708.205"/>
<line x1="426.043" y1="708.205" x2="427.040" y2="708.205"/>
<line x1="427.040" y1="708.205" x2="428.537" y2="707.706"/>
<line x1="428.537" y1="707.706" x2="429.535" y2="706.209"/>
<line x1="429.535" y1="706.209" x2="430.034" y2="703.715"/>
<line x1="430.034" y1="703.715" x2="430.034" y2="702.218"/>
<line x1="430.034" y1="702.218" x2="429.535" y2="699.724"/>
<line x1="429.535" y1="699.724" x2="428.537" y2="698.227"/>
<line x1="428.537" y1="698.227" x2="427.040" y2="697.728"/>
<line x1="427.040" y1="697.728" x2="426.043" y2="697.728"/>
<line x1="441.009" y1="697.728" x2="439.512" y2="698.227"/>
<line x1="439.512" y1="698.227" x2="438.514" y2="699.724"/>
<line x1="438.514" y1="699.724" x2="438.016" y2="702.218"/>
<line x1="438.016" y1="702.218" x2="438.016" y2="703.715"/>
<line x1="438.016" y1="703.715" x2="438.514" y2="706.209"/>
<line x1="438.514" y1="706.209" x2="439.512" y2="707.706"/>
<line x1="439.512" y1="707.706" x2="441.009" y2="708.205"/>
<line x1="441.009" y1="708.205" x2="442.007" y2="708.205"/>
<line x1="442.007" y1="708.205" x2="443.503" y2="707.706"/>
<line x1="443.503" y1="707.706" x2="444.501" y2="706.209"/>
<line x1="444.501" y1="706.209" x2="445.000" y2="703.715"/>
<line x1="445.000" y1="703.715" x2="445.000" y2="702.218"/>
<line x1="445.000" y1="702.218" x2="444.501" y2="699.724"/>
<line x1="444.501" y1="699.724" x2="443.503" y2="698.227"/>
<line x1="443.503" y1="698.227" x2="442.007" y2="697.728"/>
<line x1="442.007" y1="697.728" x2="441.009" y2="697.728"/>
</g>
<g transform="matrix(1 0 0 1 0 0)"
style="stroke:rgb(2,2,255);
stroke-width:1.0">
<line x1="535.752" y1="699.225" x2="535.253" y2="698.227"/>
<line x1="535.253" y1="698.227" x2="533.756" y2="697.728"/>
<line x1="533.756" y1="697.728" x2="532.759" y2="697.728"/>
<line x1="532.759" y1="697.728" x2="531.262" y2="698.227"/>
<line x1="531.262" y1="698.227" x2="530.264" y2="699.724"/>
<line x1="530.264" y1="699.724" x2="529.765" y2="702.218"/>
<line x1="529.765" y1="702.218" x2="529.765" y2="704.713"/>
<line x1="529.765" y1="704.713" x2="530.264" y2="706.708"/>
<line x1="530.264" y1="706.708" x2="531.262" y2="707.706"/>
<line x1="531.262" y1="707.706" x2="532.759" y2="708.205"/>
<line x1="532.759" y1="708.205" x2="533.257" y2="708.205"/>
<line x1="533.257" y1="708.205" x2="534.754" y2="707.706"/>
<line x1="534.754" y1="707.706" x2="535.752" y2="706.708"/>
<line x1="535.752" y1="706.708" x2="536.251" y2="705.211"/>
<line x1="536.251" y1="705.211" x2="536.251" y2="704.713"/>
<line x1="536.251" y1="704.713" x2="535.752" y2="703.216"/>
<line x1="535.752" y1="703.216" x2="534.754" y2="702.218"/>
<line x1="534.754" y1="702.218" x2="533.257" y2="701.719"/>
<line x1="533.257" y1="701.719" x2="532.759" y2="701.719"/>
<line x1="532.759" y1="701.719" x2="531.262" y2="702.218"/>
<line x1="531.262" y1="702.218" x2="530.264" y2="703.216"/>
<line x1="530.264" y1="703.216" x2="529.765" y2="704.713"/>
<line x1="547.725" y1="707.207" x2="547.226" y2="707.706"/>
<line x1="547.226" y1="707.706" x2="547.725" y2="708.205"/>
<line x1="547.725" y1="708.205" x2="548.224" y2="707.706"/>
<line x1="548.224" y1="707.706" x2="547.725" y2="707.207"/>
<line x1="562.192" y1="697.728" x2="560.696" y2="698.227"/>
<line x1="560.696" y1="698.227" x2="559.698" y2="699.724"/>
<line x1="559.698" y1="699.724" x2="559.199" y2="702.218"/>
<line x1="559.199" y1="702.218" x2="559.199" y2="703.715"/>
<line x1="559.199" y1="703.715" x2="559.698" y2="706.209"/>
<line x1="559.698" y1="706.209" x2="560.696" y2="707.706"/>
<line x1="560.696" y1="707.706" x2="562.192" y2="708.205"/>
<line x1="562.192" y1="708.205" x2="563.190" y2="708.205"/>
<line x1="563.190" y1="708.205" x2="564.687" y2="707.706"/>
<line x1="564.687" y1="707.706" x2="565.684" y2="706.209"/>
<line x1="565.684" y1="706.209" x2="566.183" y2="703.715"/>
<line x1="566.183" y1="703.715" x2="566.183" y2="702.218"/>
<line x1="566.183" y1="702.218" x2="565.684" y2="699.724"/>
<line x1="565.684" y1="699.724" x2="564.687" y2="698.227"/>
<line x1="564.687" y1="698.227" x2="563.190" y2="697.728"/>
<line x1="563.190" y1="697.728" x2="562.192" y2="697.728"/>
<line x1="577.158" y1="697.728" x2="575.662" y2="698.227"/>
<line x1="575.662" y1="698.227" x2="574.664" y2="699.724"/>
<line x1="574.664" y1="699.724" x2="574.165" y2="702.218"/>
<line x1="574.165" y1="702.218" x2="574.165" y2="703.715"/>
<line x1="574.165" y1="703.715" x2="574.664" y2="706.209"/>
<line x1="574.664" y1="706.209" x2="575.662" y2="707.706"/>
<line x1="575.662" y1="707.706" x2="577.158" y2="708.205"/>
<line x1="577.158" y1="708.205" x2="578.156" y2="708.205"/>
<line x1="578.156" y1="708.205" x2="579.653" y2="707.706"/>
<line x1="579.653" y1="707.706" x2="580.651" y2="706.209"/>
<line x1="580.651" y1="706.209" x2="581.149" y2="703.715"/>
<line x1="581.149" y1="703.715" x2="581.149" y2="702.218"/>
<line x1="581.149" y1="702.218" x2="580.651" y2="699.724"/>
<line x1="580.651" y1="699.724" x2="579.653" y2="698.227"/>
<line x1="579.653" y1="698.227" x2="578.156" y2="697.728"/>
<line x1="578.156" y1="697.728" x2="577.158" y2="697.728"/>
</g>
<g transform="matrix(1 0 0 1 0 0)"
style="stroke:rgb(2,2,255);
stroke-width:1.0">
<line x1="667.910" y1="697.728" x2="666.414" y2="698.227"/>
<line x1="666.414" y1="698.227" x2="665.915" y2="699.225"/>
<line x1="665.915" y1="699.225" x2="665.915" y2="700.223"/>
<line x1="665.915" y1="700.223" x2="666.414" y2="701.220"/>
<line x1="666.414" y1="701.220" x2="667.412" y2="701.719"/>
<line x1="667.412" y1="701.719" x2="669.407" y2="702.218"/>
<line x1="669.407" y1="702.218" x2="670.904" y2="702.717"/>
<line x1="670.904" y1="702.717" x2="671.901" y2="703.715"/>
<line x1="671.901" y1="703.715" x2="672.400" y2="704.713"/>
<line x1="672.400" y1="704.713" x2="672.400" y2="706.209"/>
<line x1="672.400" y1="706.209" x2="671.901" y2="707.207"/>
<line x1="671.901" y1="707.207" x2="671.403" y2="707.706"/>
<line x1="671.403" y1="707.706" x2="669.906" y2="708.205"/>
<line x1="669.906" y1="708.205" x2="667.910" y2="708.205"/>
<line x1="667.910" y1="708.205" x2="666.414" y2="707.706"/>
<line x1="666.414" y1="707.706" x2="665.915" y2="707.207"/>
<line x1="665.915" y1="707.207" x2="665.416" y2="706.209"/>
<line x1="665.416" y1="706.209" x2="665.416" y2="704.713"/>
<line x1="665.416" y1="704.713" x2="665.915" y2="703.715"/>
<line x1="665.915" y1="703.715" x2="666.913" y2="702.717"/>
<line x1="666.913" y1="702.717" x2="668.409" y2="702.218"/>
<line x1="668.409" y1="702.218" x2="670.405" y2="701.719"/>
<line x1="670.405" y1="701.719" x2="671.403" y2="701.220"/>
<line x1="671.403" y1="701.220" x2="671.901" y2="700.223"/>
<line x1="671.901" y1="700.223" x2="671.901" y2="699.225"/>
<line x1="671.901" y1="699.225" x2="671.403" y2="698.227"/>
<line x1="671.403" y1="698.227" x2="669.906" y2="697.728"/>
<line x1="669.906" y1="697.728" x2="667.910" y2="697.728"/>
<line x1="683.874" y1="707.207" x2="683.376" y2="707.706"/>
<line x1="683.376" y1="707.706" x2="683.874" y2="708.205"/>
<line x1="683.874" y1="708.205" x2="684.373" y2="707.706"/>
<line x1="684.373" y1="707.706" x2="683.874" y2="707.207"/>
<line x1="698.342" y1="697.728" x2="696.845" y2="698.227"/>
<line x1="696.845" y1="698.227" x2="695.847" y2="699.724"/>
<line x1="695.847" y1="699.724" x2="695.349" y2="702.218"/>
<line x1="695.349" y1="702.218" x2="695.349" y2="703.715"/>
<line x1="695.349" y1="703.715" x2="695.847" y2="706.209"/>
<line x1="695.847" y1="706.209" x2="696.845" y2="707.706"/>
<line x1="696.845" y1="707.706" x2="698.342" y2="708.205"/>
<line x1="698.342" y1="708.205" x2="699.340" y2="708.205"/>
<line x1="699.340" y1="708.205" x2="700.836" y2="707.706"/>
<line x1="700.836" y1="707.706" x2="701.834" y2="706.209"/>
<line x1="701.834" y1="706.209" x2="702.333" y2="703.715"/>
<line x1="702.333" y1="703.715" x2="702.333" y2="702.218"/>
<line x1="702.333" y1="702.218" x2="701.834" y2="699.724"/>
<line x1="701.834" y1="699.724" x2="700.836" y2="698.227"/>
<line x1="700.836" y1="698.227" x2="699.340" y2="697.728"/>
<line x1="699.340" y1="697.728" x2="698.342" y2="697.728"/>
<line x1="713.308" y1="697.728" x2="711.811" y2="698.227"/>
<line x1="711.811" y1="698.227" x2="710.814" y2="699.724"/>
<line x1="710.814" y1="699.724" x2="710.315" y2="702.218"/>
<line x1="710.315" y1="702.218" x2="710.315" y2="703.715"/>
<line x1="710.315" y1="703.715" x2="710.814" y2="706.209"/>
<line x1="710.814" y1="706.209" x2="711.811" y2="707.706"/>
<line x1="711.811" y1="707.706" x2="713.308" y2="708.205"/>
<line x1="713.308" y1="708.205" x2="714.306" y2="708.205"/>
<line x1="714.306" y1="708.205" x2="715.802" y2="707.706"/>
<line x1="715.802" y1="707.706" x2="716.800" y2="706.209"/>
<line x1="716.800" y1="706.209" x2="717.299" y2="703.715"/>
<line x1="717.299" y1="703.715" x2="717.299" y2="702.218"/>
<line x1="717.299" y1="702.218" x2="716.800" y2="699.724"/>
<line x1="716.800" y1="699.724" x2="715.802" y2="698.227"/>
<line x1="715.802" y1="698.227" x2="714.306" y2="697.728"/>
<line x1="714.306" y1="697.728" x2="713.308" y2="697.728"/>
</g>
<g transform="matrix(1 0 0 1 0 0)"
style="stroke:rgb(2,2,255);
stroke-width:1.0">
<line x1="788.096" y1="699.724" x2="789.094" y2="699.225"/>
<line x1="789.094" y1="699.225" x2="790.590" y2="697.728"/>
<line x1="790.590" y1="697.728" x2="790.590" y2="708.205"/>
<line x1="804.559" y1="697.728" x2="803.062" y2="698.227"/>
<line x1="803.062" y1="698.227" x2="802.065" y2="699.724"/>
<line x1="802.065" y1="699.724" x2="801.566" y2="702.218"/>
<line x1="801.566" y1="702.218" x2="801.566" y2="703.715"/>
<line x1="801.566" y1="703.715" x2="802.065" y2="706.209"/>
<line x1="802.065" y1="706.209" x2="803.062" y2="707.706"/>
<line x1="803.062" y1="707.706" x2="804.559" y2="708.205"/>
<line x1="804.559" y1="708.205" x2="805.557" y2="708.205"/>
<line x1="805.557" y1="708.205" x2="807.053" y2="707.706"/>
<line x1="807.053" y1="707.706" x2="808.051" y2="706.209"/>
<line x1="808.051" y1="706.209" x2="808.550" y2="703.715"/>
<line x1="808.550" y1="703.715" x2="808.550" y2="702.218"/>
<line x1="808.550" y1="702.218" x2="808.051" y2="699.724"/>
<line x1="808.051" y1="699.724" x2="807.053" y2="698.227"/>
<line x1="807.053" y1="698.227" x2="805.557" y2="697.728"/>
<line x1="805.557" y1="697.728" x2="804.559" y2="697.728"/>
<line x1="820.024" y1="707.207" x2="819.525" y2="707.706"/>
<line x1="819.525" y1="707.706" x2="820.024" y2="708.205"/>
<line x1="820.024" y1="708.205" x2="820.523" y2="707.706"/>
<line x1="820.523" y1="707.706" x2="820.024" y2="707.207"/>
<line x1="834.491" y1="697.728" x2="832.995" y2="698.227"/>
<line x1="832.995" y1="698.227" x2="831.997" y2="699.724"/>
<line x1="831.997" y1="699.724" x2="831.498" y2="702.218"/>
<line x1="831.498" y1="702.218" x2="831.498" y2="703.715"/>
<line x1="831.498" y1="703.715" x2="831.997" y2="706.209"/>
<line x1="831.997" y1="706.209" x2="832.995" y2="707.706"/>
<line x1="832.995" y1="707.706" x2="834.491" y2="708.205"/>
<line x1="834.491" y1="708.205" x2="835.489" y2="708.205"/>
<line x1="835.489" y1="708.205" x2="836.986" y2="707.706"/>
<line x1="836.986" y1="707.706" x2="837.984" y2="706.209"/>
<line x1="837.984" y1="706.209" x2="838.482" y2="703.715"/>
<line x1="838.482" y1="703.715" x2="838.482" y2="702.218"/>
<line x1="838.482" y1="702.218" x2="837.984" y2="699.724"/>
<line x1="837.984" y1="699.724" x2="836.986" y2="698.227"/>
<line x1="836.986" y1="698.227" x2="835.489" y2="697.728"/>
<line x1="835.489" y1="697.728" x2="834.491" y2="697.728"/>
<line x1="849.458" y1="697.728" x2="847.961" y2="698.227"/>
<line x1="847.961" y1="698.227" x2="846.963" y2="699.724"/>
<line x1="846.963" y1="699.724" x2="846.464" y2="702.218"/>
<line x1="846.464" y1="702.218" x2="846.464" y2="703.715"/>
<line x1="846.464" y1="703.715" x2="846.963" y2="706.209"/>
<line x1="846.963" y1="706.209" x2="847.961" y2="707.706"/>
<line x1="847.961" y1="707.706" x2="849.458" y2="708.205"/>
<line x1="849.458" y1="708.205" x2="850.455" y2="708.205"/>
<line x1="850.455" y1="708.205" x2="851.952" y2="707.706"/>
<line x1="851.952" y1="707.706" x2="852.950" y2="706.209"/>
<line x1="852.950" y1="706.209" x2="853.449" y2="703.715"/>
<line x1="853.449" y1="703.715" x2="853.449" y2="702.218"/>
<line x1="853.449" y1="702.218" x2="852.950" y2="699.724"/>
<line x1="852.950" y1="699.724" x2="851.952" y2="698.227"/>
<line x1="851.952" y1="698.227" x2="850.455" y2="697.728"/>
<line x1="850.455" y1="697.728" x2="849.458" y2="697.728"/>
</g>
<g transform="matrix(1 0 0 1 0 0)"
style="stroke:rgb(2,2,255);
stroke-width:1.0">
<line x1="82.490" y1="679.769" x2="83.487" y2="679.270"/>
<line x1="83.487" y1="679.270" x2="84.984" y2="677.773"/>
<line x1="84.984" y1="677.773" x2="84.984" y2="688.250"/>
<line x1="98.952" y1="677.773" x2="97.456" y2="678.272"/>
<line x1="97.456" y1="678.272" x2="96.458" y2="679.769"/>
<line x1="96.458" y1="679.769" x2="95.959" y2="682.263"/>
<line x1="95.959" y1="682.263" x2="95.959" y2="683.760"/>
<line x1="95.959" y1="683.760" x2="96.458" y2="686.254"/>
<line x1="96.458" y1="686.254" x2="97.456" y2="687.751"/>
<line x1="97.456" y1="687.751" x2="98.952" y2="688.250"/>
<line x1="98.952" y1="688.250" x2="99.950" y2="688.250"/>
<line x1="99.950" y1="688.250" x2="101.447" y2="687.751"/>
<line x1="101.447" y1="687.751" x2="102.445" y2="686.254"/>
<line x1="102.445" y1="686.254" x2="102.943" y2="683.760"/>
<line x1="102.943" y1="683.760" x2="102.943" y2="682.263"/>
<line x1="102.943" y1="682.263" x2="102.445" y2="679.769"/>
<line x1="102.445" y1="679.769" x2="101.447" y2="678.272"/>
<line x1="101.447" y1="678.272" x2="99.950" y2="677.773"/>
<line x1="99.950" y1="677.773" x2="98.952" y2="677.773"/>
<line x1="121.701" y1="676.277" x2="121.103" y2="676.476"/>
<line x1="121.103" y1="676.476" x2="120.703" y2="677.075"/>
<line x1="120.703" y1="677.075" x2="120.504" y2="678.073"/>
<line x1="120.504" y1="678.073" x2="120.504" y2="678.671"/>
<line x1="120.504" y1="678.671" x2="120.703" y2="679.669"/>
<line x1="120.703" y1="679.669" x2="121.103" y2="680.268"/>
<line x1="121.103" y1="680.268" x2="121.701" y2="680.467"/>
<line x1="121.701" y1="680.467" x2="122.100" y2="680.467"/>
<line x1="122.100" y1="680.467" x2="122.699" y2="680.268"/>
<line x1="122.699" y1="680.268" x2="123.098" y2="679.669"/>
<line x1="123.098" y1="679.669" x2="123.298" y2="678.671"/>
<line x1="123.298" y1="678.671" x2="123.298" y2="678.073"/>
<line x1="123.298" y1="678.073" x2="123.098" y2="677.075"/>
<line x1="123.098" y1="677.075" x2="122.699" y2="676.476"/>
<line x1="122.699" y1="676.476" x2="122.100" y2="676.277"/>
<line x1="122.100" y1="676.277" x2="121.701" y2="676.277"/>
</g>
<g transform="matrix(1 0 0 1 0 0)"
style="stroke:rgb(2,2,255);
stroke-width:1.0">
<line x1="82.490" y1="491.401" x2="83.487" y2="490.902"/>
<line x1="83.487" y1="490.902" x2="84.984" y2="489.406"/>
<line x1="84.984" y1="489.406" x2="84.984" y2="499.882"/>
<line x1="98.952" y1="489.406" x2="97.456" y2="489.905"/>
<line x1="97.456" y1="489.905" x2="96.458" y2="491.401"/>
<line x1="96.458" y1="491.401" x2="95.959" y2="493.896"/>
<line x1="95.959" y1="493.896" x2="95.959" y2="495.392"/>
<line x1="95.959" y1="495.392" x2="96.458" y2="497.887"/>
<line x1="96.458" y1="497.887" x2="97.456" y2="499.383"/>
<line x1="97.456" y1="499.383" x2="98.952" y2="499.882"/>
<line x1="98.952" y1="499.882" x2="99.950" y2="499.882"/>
<line x1="99.950" y1="499.882" x2="101.447" y2="499.383"/>
<line x1="101.447" y1="499.383" x2="102.445" y2="497.887"/>
<line x1="102.445" y1="497.887" x2="102.943" y2="495.392"/>
<line x1="102.943" y1="495.392" x2="102.943" y2="493.896"/>
<line x1="102.943" y1="493.896" x2="102.445" y2="491.401"/>
<line x1="102.445" y1="491.401" x2="101.447" y2="489.905"/>
<line x1="101.447" y1="489.905" x2="99.950" y2="489.406"/>
<line x1="99.950" y1="489.406" x2="98.952" y2="489.406"/>
<line x1="121.103" y1="488.707" x2="121.502" y2="488.508"/>
<line x1="121.502" y1="488.508" x2="122.100" y2="487.909"/>
<line x1="122.100" y1="487.909" x2="122.100" y2="492.100"/>
</g>
<g transform="matrix(1 0 0 1 0 0)"
style="stroke:rgb(2,2,255);
stroke-width:1.0">
<line x1="82.490" y1="303.034" x2="83.487" y2="302.535"/>
<line x1="83.487" y1="302.535" x2="84.984" y2="301.038"/>
<line x1="84.984" y1="301.038" x2="84.984" y2="311.514"/>
<line x1="98.952" y1="301.038" x2="97.456" y2="301.537"/>
<line x1="97.456" y1="301.537" x2="96.458" y2="303.034"/>
<line x1="96.458" y1="303.034" x2="95.959" y2="305.528"/>
<line x1="95.959" y1="305.528" x2="95.959" y2="307.025"/>
<line x1="95.959" y1="307.025" x2="96.458" y2="309.519"/>
<line x1="96.458" y1="309.519" x2="97.456" y2="311.016"/>
<line x1="97.456" y1="311.016" x2="98.952" y2="311.514"/>
<line x1="98.952" y1="311.514" x2="99.950" y2="311.514"/>
<line x1="99.950" y1="311.514" x2="101.447" y2="311.016"/>
<line x1="101.447" y1="311.016" x2="102.445" y2="309.519"/>
<line x1="102.445" y1="309.519" x2="102.943" y2="307.025"/>
<line x1="102.943" y1="307.025" x2="102.943" y2="305.528"/>
<line x1="102.943" y1="305.528" x2="102.445" y2="303.034"/>
<line x1="102.445" y1="303.034" x2="101.447" y2="301.537"/>
<line x1="101.447" y1="301.537" x2="99.950" y2="301.038"/>
<line x1="99.950" y1="301.038" x2="98.952" y2="301.038"/>
<line x1="120.703" y1="300.539" x2="120.703" y2="300.340"/>
<line x1="120.703" y1="300.340" x2="120.903" y2="299.941"/>
<line x1="120.903" y1="299.941" x2="121.103" y2="299.741"/>
<line x1="121.103" y1="299.741" x2="121.502" y2="299.542"/>
<line x1="121.502" y1="299.542" x2="122.300" y2="299.542"/>
<line x1="122.300" y1="299.542" x2="122.699" y2="299.741"/>
<line x1="122.699" y1="299.741" x2="122.899" y2="299.941"/>
<line x1="122.899" y1="299.941" x2="123.098" y2="300.340"/>
<line x1="123.098" y1="300.340" x2="123.098" y2="300.739"/>
<line x1="123.098" y1="300.739" x2="122.899" y2="301.138"/>
<line x1="122.899" y1="301.138" x2="122.499" y2="301.737"/>
<line x1="122.499" y1="301.737" x2="120.504" y2="303.732"/>
<line x1="120.504" y1="303.732" x2="123.298" y2="303.732"/>
</g>
<g transform="matrix(1 0 0 1 0 0)"
style="stroke:rgb(2,2,255);
stroke-width:1.0">
<line x1="82.490" y1="114.666" x2="83.487" y2="114.167"/>
<line x1="83.487" y1="114.167" x2="84.984" y2="112.671"/>
<line x1="84.984" y1="112.671" x2="84.984" y2="123.147"/>
<line x1="98.952" y1="112.671" x2="97.456" y2="113.169"/>
<line x1="97.456" y1="113.169" x2="96.458" y2="114.666"/>
<line x1="96.458" y1="114.666" x2="95.959" y2="117.160"/>
<line x1="95.959" y1="117.160" x2="95.959" y2="118.657"/>
<line x1="95.959" y1="118.657" x2="96.458" y2="121.151"/>
<line x1="96.458" y1="121.151" x2="97.456" y2="122.648"/>
<line x1="97.456" y1="122.648" x2="98.952" y2="123.147"/>
<line x1="98.952" y1="123.147" x2="99.950" y2="123.147"/>
<line x1="99.950" y1="123.147" x2="101.447" y2="122.648"/>
<line x1="101.447" y1="122.648" x2="102.445" y2="121.151"/>
<line x1="102.445" y1="121.151" x2="102.943" y2="118.657"/>
<line x1="102.943" y1="118.657" x2="102.943" y2="117.160"/>
<line x1="102.943" y1="117.160" x2="102.445" y2="114.666"/>
<line x1="102.445" y1="114.666" x2="101.447" y2="113.169"/>
<line x1="101.447" y1="113.169" x2="99.950" y2="112.671"/>
<line x1="99.950" y1="112.671" x2="98.952" y2="112.671"/>
<line x1="120.903" y1="111.174" x2="123.098" y2="111.174"/>
<line x1="123.098" y1="111.174" x2="121.901" y2="112.770"/>
<line x1="121.901" y1="112.770" x2="122.499" y2="112.770"/>
<line x1="122.499" y1="112.770" x2="122.899" y2="112.970"/>
<line x1="122.899" y1="112.970" x2="123.098" y2="113.169"/>
<line x1="123.098" y1="113.169" x2="123.298" y2="113.768"/>
<line x1="123.298" y1="113.768" x2="123.298" y2="114.167"/>
<line x1="123.298" y1="114.167" x2="123.098" y2="114.766"/>
<line x1="123.098" y1="114.766" x2="122.699" y2="115.165"/>
<line x1="122.699" y1="115.165" x2="122.100" y2="115.364"/>
<line x1="122.100" y1="115.364" x2="121.502" y2="115.364"/>
<line x1="121.502" y1="115.364" x2="120.903" y2="115.165"/>
<line x1="120.903" y1="115.165" x2="120.703" y2="114.965"/>
<line x1="120.703" y1="114.965" x2="120.504" y2="114.566"/>
</g>
<g transform="matrix(1 0 0 1 0 0)"
style="stroke:rgb(2,2,255);
stroke-width:1.0">
<line x1="139.276" y1="626.557" x2="820.024" y2="626.557"/>
</g>
<g transform="matrix(1 0 0 1 0 0)"
style="stroke:rgb(2,2,255);
stroke-width:1.0">
<line x1="139.276" y1="593.387" x2="820.024" y2="593.387"/>
</g>
<g transform="matrix(1 0 0 1 0 0)"
style="stroke:rgb(2,2,255);
stroke-width:1.0">
<line x1="139.276" y1="569.852" x2="820.024" y2="569.852"/>
</g>
<g transform="matrix(1 0 0 1 0 0)"
style="stroke:rgb(2,2,255);
stroke-width:1.0">
<line x1="139.276" y1="551.598" x2="820.024" y2="551.598"/>
</g>
<g transform="matrix(1 0 0 1 0 0)"
style="stroke:rgb(2,2,255);
stroke-width:1.0">
<line x1="139.276" y1="536.682" x2="820.024" y2="536.682"/>
</g>
<g transform="matrix(1 0 0 1 0 0)"
style="stroke:rgb(2,2,255);
stroke-width:1.0">
<line x1="139.276" y1="524.072" x2="820.024" y2="524.072"/>
</g>
<g transform="matrix(1 0 0 1 0 0)"
style="stroke:rgb(2,2,255);
stroke-width:1.0">
<line x1="139.276" y1="513.148" x2="820.024" y2="513.148"/>
</g>
<g transform="matrix(1 0 0 1 0 0)"
style="stroke:rgb(2,2,255);
stroke-width:1.0">
<line x1="139.276" y1="503.513" x2="820.024" y2="503.513"/>
</g>
<g transform="matrix(1 0 0 1 0 0)"
style="stroke:rgb(2,2,255);
stroke-width:1.0">
<line x1="139.276" y1="494.893" x2="820.024" y2="494.893"/>
</g>
<g transform="matrix(1 0 0 1 0 0)"
style="stroke:rgb(2,2,255);
stroke-width:1.0">
<line x1="139.276" y1="438.189" x2="820.024" y2="438.189"/>
</g>
<g transform="matrix(1 0 0 1 0 0)"
style="stroke:rgb(2,2,255);
stroke-width:1.0">
<line x1="139.276" y1="405.019" x2="820.024" y2="405.019"/>
</g>
<g transform="matrix(1 0 0 1 0 0)"
style="stroke:rgb(2,2,255);
stroke-width:1.0">
<line x1="139.276" y1="381.485" x2="820.024" y2="381.485"/>
</g>
<g transform="matrix(1 0 0 1 0 0)"
style="stroke:rgb(2,2,255);
stroke-width:1.0">
<line x1="139.276" y1="363.230" x2="820.024" y2="363.230"/>
</g>
<g transform="matrix(1 0 0 1 0 0)"
style="stroke:rgb(2,2,255);
stroke-width:1.0">
<line x1="139.276" y1="348.315" x2="820.024" y2="348.315"/>
</g>
<g transform="matrix(1 0 0 1 0 0)"
style="stroke:rgb(2,2,255);
stroke-width:1.0">
<line x1="139.276" y1="335.704" x2="820.024" y2="335.704"/>
</g>
<g transform="matrix(1 0 0 1 0 0)"
style="stroke:rgb(2,2,255);
stroke-width:1.0">
<line x1="139.276" y1="324.780" x2="820.024" y2="324.780"/>
</g>
<g transform="matrix(1 0 0 1 0 0)"
style="stroke:rgb(2,2,255);
stroke-width:1.0">
<line x1="139.276" y1="315.145" x2="820.024" y2="315.145"/>
</g>
<g transform="matrix(1 0 0 1 0 0)"
style="stroke:rgb(2,2,255);
stroke-width:1.0">
<line x1="139.276" y1="306.526" x2="820.024" y2="306.526"/>
</g>
<g transform="matrix(1 0 0 1 0 0)"
style="stroke:rgb(2,2,255);
stroke-width:1.0">
<line x1="139.276" y1="249.821" x2="820.024" y2="249.821"/>
</g>
<g transform="matrix(1 0 0 1 0 0)"
style="stroke:rgb(2,2,255);
stroke-width:1.0">
<line x1="139.276" y1="216.652" x2="820.024" y2="216.652"/>
</g>
<g transform="matrix(1 0 0 1 0 0)"
style="stroke:rgb(2,2,255);
stroke-width:1.0">
<line x1="139.276" y1="193.117" x2="820.024" y2="193.117"/>
</g>
<g transform="matrix(1 0 0 1 0 0)"
style="stroke:rgb(2,2,255);
stroke-width:1.0">
<line x1="139.276" y1="174.862" x2="820.024" y2="174.862"/>
</g>
<g transform="matrix(1 0 0 1 0 0)"
style="stroke:rgb(2,2,255);
stroke-width:1.0">
<line x1="139.276" y1="159.947" x2="820.024" y2="159.947"/>
</g>
<g transform="matrix(1 0 0 1 0 0)"
style="stroke:rgb(2,2,255);
stroke-width:1.0">
<line x1="139.276" y1="147.337" x2="820.024" y2="147.337"/>
</g>
<g transform="matrix(1 0 0 1 0 0)"
style="stroke:rgb(2,2,255);
stroke-width:1.0">
<line x1="139.276" y1="136.413" x2="820.024" y2="136.413"/>
</g>
<g transform="matrix(1 0 0 1 0 0)"
style="stroke:rgb(2,2,255);
stroke-width:1.0">
<line x1="139.276" y1="126.777" x2="820.024" y2="126.777"/>
</g>
<g transform="matrix(1 0 0 1 0 0)"
style="stroke:rgb(2,2,255);
stroke-width:1.0">
<line x1="139.276" y1="118.158" x2="820.024" y2="118.158"/>
</g>
<g transform="matrix(1 0 0 1 0 0)"
style="stroke:rgb(2,2,255);
stroke-width:1.0">
<line x1="275.426" y1="683.261" x2="275.426" y2="116.538"/>
<line x1="411.575" y1="683.261" x2="411.575" y2="116.538"/>
<line x1="547.725" y1="683.261" x2="547.725" y2="116.538"/>
<line x1="683.874" y1="683.261" x2="683.874" y2="116.538"/>
</g>
<g transform="matrix(1 0 0 1 0 0)"
style="stroke:rgb(2,2,255);
stroke-width:1.0">
<line x1="139.276" y1="683.261" x2="820.024" y2="683.261"/>
<line x1="820.024" y1="683.261" x2="820.024" y2="116.538"/>
<line x1="820.024" y1="116.538" x2="139.276" y2="116.538"/>
<line x1="139.276" y1="116.538" x2="139.276" y2="683.261"/>
</g>
<g transform="matrix(1 0 0 1 0 0)"
style="stroke:rgb(2,2,255);
stroke-width:1.0">
<line x1="139.276" y1="683.261" x2="139.276" y2="116.538"/>
</g>
<g transform="matrix(1 0 0 1 0 0)"
style="stroke:rgb(2,2,2);
stroke-width:1.0">
<line x1="139.276" y1="683.261" x2="207.351" y2="682.705"/>
<line x1="207.351" y1="682.705" x2="275.426" y2="681.592"/>
<line x1="275.426" y1="681.592" x2="343.500" y2="679.368"/>
<line x1="343.500" y1="679.368" x2="411.575" y2="674.919"/>
<line x1="411.575" y1="674.919" x2="479.650" y2="666.020"/>
<line x1="479.650" y1="666.020" x2="547.725" y2="648.223"/>
<line x1="547.725" y1="648.223" x2="615.800" y2="612.629"/>
<line x1="615.800" y1="612.629" x2="683.874" y2="541.441"/>
<line x1="683.874" y1="541.441" x2="751.949" y2="399.065"/>
<line x1="751.949" y1="399.065" x2="820.024" y2="116.538"/>
</g>
<g transform="matrix(1 0 0 1 0 0)"
style="stroke:rgb(2,2,2);
stroke-width:1.0">
<line x1="934.846" y1="458.701" x2="942.337" y2="452.708"/>
<line x1="942.337" y1="452.708" x2="950.577" y2="452.708"/>
<line x1="934.846" y1="446.716" x2="942.337" y2="452.708"/>
<line x1="931.850" y1="423.495" x2="933.348" y2="424.993"/>
<line x1="933.348" y1="424.993" x2="935.595" y2="426.491"/>
<line x1="935.595" y1="426.491" x2="938.592" y2="427.989"/>
<line x1="938.592" y1="427.989" x2="942.337" y2="428.738"/>
<line x1="942.337" y1="428.738" x2="945.333" y2="428.738"/>
<line x1="945.333" y1="428.738" x2="949.078" y2="427.989"/>
<line x1="949.078" y1="427.989" x2="952.075" y2="426.491"/>
<line x1="952.075" y1="426.491" x2="954.322" y2="424.993"/>
<line x1="954.322" y1="424.993" x2="955.820" y2="423.495"/>
<line x1="934.846" y1="418.252" x2="950.577" y2="418.252"/>
<line x1="950.577" y1="418.252" x2="950.577" y2="409.263"/>
<line x1="934.846" y1="406.267" x2="935.595" y2="405.517"/>
<line x1="935.595" y1="405.517" x2="934.846" y2="404.768"/>
<line x1="934.846" y1="404.768" x2="934.097" y2="405.517"/>
<line x1="934.097" y1="405.517" x2="934.846" y2="406.267"/>
<line x1="940.090" y1="405.517" x2="950.577" y2="405.517"/>
<line x1="940.090" y1="399.525" x2="950.577" y2="399.525"/>
<line x1="943.086" y1="399.525" x2="940.839" y2="397.278"/>
<line x1="940.839" y1="397.278" x2="940.090" y2="395.780"/>
<line x1="940.090" y1="395.780" x2="940.090" y2="393.532"/>
<line x1="940.090" y1="393.532" x2="940.839" y2="392.034"/>
<line x1="940.839" y1="392.034" x2="943.086" y2="391.285"/>
<line x1="943.086" y1="391.285" x2="950.577" y2="391.285"/>
<line x1="944.584" y1="386.042" x2="944.584" y2="377.053"/>
<line x1="944.584" y1="377.053" x2="943.086" y2="377.053"/>
<line x1="943.086" y1="377.053" x2="941.588" y2="377.802"/>
<line x1="941.588" y1="377.802" x2="940.839" y2="378.551"/>
<line x1="940.839" y1="378.551" x2="940.090" y2="380.049"/>
<line x1="940.090" y1="380.049" x2="940.090" y2="382.297"/>
<line x1="940.090" y1="382.297" x2="940.839" y2="383.795"/>
<line x1="940.839" y1="383.795" x2="942.337" y2="385.293"/>
<line x1="942.337" y1="385.293" x2="944.584" y2="386.042"/>
<line x1="944.584" y1="386.042" x2="946.082" y2="386.042"/>
<line x1="946.082" y1="386.042" x2="948.329" y2="385.293"/>
<line x1="948.329" y1="385.293" x2="949.828" y2="383.795"/>
<line x1="949.828" y1="383.795" x2="950.577" y2="382.297"/>
<line x1="950.577" y1="382.297" x2="950.577" y2="380.049"/>
<line x1="950.577" y1="380.049" x2="949.828" y2="378.551"/>
<line x1="949.828" y1="378.551" x2="948.329" y2="377.053"/>
<line x1="940.090" y1="363.570" x2="950.577" y2="363.570"/>
<line x1="942.337" y1="363.570" x2="940.839" y2="365.068"/>
<line x1="940.839" y1="365.068" x2="940.090" y2="366.566"/>
<line x1="940.090" y1="366.566" x2="940.090" y2="368.813"/>
<line x1="940.090" y1="368.813" x2="940.839" y2="370.312"/>
<line x1="940.839" y1="370.312" x2="942.337" y2="371.810"/>
<line x1="942.337" y1="371.810" x2="944.584" y2="372.559"/>
<line x1="944.584" y1="372.559" x2="946.082" y2="372.559"/>
<line x1="946.082" y1="372.559" x2="948.329" y2="371.810"/>
<line x1="948.329" y1="371.810" x2="949.828" y2="370.312"/>
<line x1="949.828" y1="370.312" x2="950.577" y2="368.813"/>
<line x1="950.577" y1="368.813" x2="950.577" y2="366.566"/>
<line x1="950.577" y1="366.566" x2="949.828" y2="365.068"/>
<line x1="949.828" y1="365.068" x2="948.329" y2="363.570"/>
<line x1="940.090" y1="357.577" x2="950.577" y2="357.577"/>
<line x1="944.584" y1="357.577" x2="942.337" y2="356.828"/>
<line x1="942.337" y1="356.828" x2="940.839" y2="355.330"/>
<line x1="940.839" y1="355.330" x2="940.090" y2="353.832"/>
<line x1="940.090" y1="353.832" x2="940.090" y2="351.585"/>
<line x1="931.850" y1="348.589" x2="933.348" y2="347.091"/>
<line x1="933.348" y1="347.091" x2="935.595" y2="345.592"/>
<line x1="935.595" y1="345.592" x2="938.592" y2="344.094"/>
<line x1="938.592" y1="344.094" x2="942.337" y2="343.345"/>
<line x1="942.337" y1="343.345" x2="945.333" y2="343.345"/>
<line x1="945.333" y1="343.345" x2="949.078" y2="344.094"/>
<line x1="949.078" y1="344.094" x2="952.075" y2="345.592"/>
<line x1="952.075" y1="345.592" x2="954.322" y2="347.091"/>
<line x1="954.322" y1="347.091" x2="955.820" y2="348.589"/>
</g>
<g transform="matrix(1 0 0 1 0 0)"
style="stroke:rgb(2,2,2);
stroke-width:1.0">
<line x1="820.024" y1="572.586" x2="828.006" y2="572.586"/>
<line x1="820.024" y1="461.355" x2="828.006" y2="461.355"/>
<line x1="820.024" y1="350.124" x2="828.006" y2="350.124"/>
<line x1="820.024" y1="238.892" x2="828.006" y2="238.892"/>
<line x1="820.024" y1="127.661" x2="828.006" y2="127.661"/>
</g>
<g transform="matrix(1 0 0 1 0 0)"
style="stroke:rgb(2,2,2);
stroke-width:1.0">
<line x1="856.357" y1="678.329" x2="854.860" y2="678.828"/>
<line x1="854.860" y1="678.828" x2="853.862" y2="680.325"/>
<line x1="853.862" y1="680.325" x2="853.363" y2="682.819"/>
<line x1="853.363" y1="682.819" x2="853.363" y2="684.316"/>
<line x1="853.363" y1="684.316" x2="853.862" y2="686.810"/>
<line x1="853.862" y1="686.810" x2="854.860" y2="688.307"/>
<line x1="854.860" y1="688.307" x2="856.357" y2="688.806"/>
<line x1="856.357" y1="688.806" x2="857.354" y2="688.806"/>
<line x1="857.354" y1="688.806" x2="858.851" y2="688.307"/>
<line x1="858.851" y1="688.307" x2="859.849" y2="686.810"/>
<line x1="859.849" y1="686.810" x2="860.348" y2="684.316"/>
<line x1="860.348" y1="684.316" x2="860.348" y2="682.819"/>
<line x1="860.348" y1="682.819" x2="859.849" y2="680.325"/>
<line x1="859.849" y1="680.325" x2="858.851" y2="678.828"/>
<line x1="858.851" y1="678.828" x2="857.354" y2="678.329"/>
<line x1="857.354" y1="678.329" x2="856.357" y2="678.329"/>
<line x1="871.822" y1="687.808" x2="871.323" y2="688.307"/>
<line x1="871.323" y1="688.307" x2="871.822" y2="688.806"/>
<line x1="871.822" y1="688.806" x2="872.321" y2="688.307"/>
<line x1="872.321" y1="688.307" x2="871.822" y2="687.808"/>
<line x1="886.289" y1="678.329" x2="884.792" y2="678.828"/>
<line x1="884.792" y1="678.828" x2="883.795" y2="680.325"/>
<line x1="883.795" y1="680.325" x2="883.296" y2="682.819"/>
<line x1="883.296" y1="682.819" x2="883.296" y2="684.316"/>
<line x1="883.296" y1="684.316" x2="883.795" y2="686.810"/>
<line x1="883.795" y1="686.810" x2="884.792" y2="688.307"/>
<line x1="884.792" y1="688.307" x2="886.289" y2="688.806"/>
<line x1="886.289" y1="688.806" x2="887.287" y2="688.806"/>
<line x1="887.287" y1="688.806" x2="888.784" y2="688.307"/>
<line x1="888.784" y1="688.307" x2="889.781" y2="686.810"/>
<line x1="889.781" y1="686.810" x2="890.280" y2="684.316"/>
<line x1="890.280" y1="684.316" x2="890.280" y2="682.819"/>
<line x1="890.280" y1="682.819" x2="889.781" y2="680.325"/>
<line x1="889.781" y1="680.325" x2="888.784" y2="678.828"/>
<line x1="888.784" y1="678.828" x2="887.287" y2="678.329"/>
<line x1="887.287" y1="678.329" x2="886.289" y2="678.329"/>
<line x1="901.255" y1="678.329" x2="899.759" y2="678.828"/>
<line x1="899.759" y1="678.828" x2="898.761" y2="680.325"/>
<line x1="898.761" y1="680.325" x2="898.262" y2="682.819"/>
<line x1="898.262" y1="682.819" x2="898.262" y2="684.316"/>
<line x1="898.262" y1="684.316" x2="898.761" y2="686.810"/>
<line x1="898.761" y1="686.810" x2="899.759" y2="688.307"/>
<line x1="899.759" y1="688.307" x2="901.255" y2="688.806"/>
<line x1="901.255" y1="688.806" x2="902.253" y2="688.806"/>
<line x1="902.253" y1="688.806" x2="903.750" y2="688.307"/>
<line x1="903.750" y1="688.307" x2="904.747" y2="686.810"/>
<line x1="904.747" y1="686.810" x2="905.246" y2="684.316"/>
<line x1="905.246" y1="684.316" x2="905.246" y2="682.819"/>
<line x1="905.246" y1="682.819" x2="904.747" y2="680.325"/>
<line x1="904.747" y1="680.325" x2="903.750" y2="678.828"/>
<line x1="903.750" y1="678.828" x2="902.253" y2="678.329"/>
<line x1="902.253" y1="678.329" x2="901.255" y2="678.329"/>
</g>
<g transform="matrix(1 0 0 1 0 0)"
style="stroke:rgb(2,2,2);
stroke-width:1.0">
<line x1="853.862" y1="569.593" x2="853.862" y2="569.094"/>
<line x1="853.862" y1="569.094" x2="854.361" y2="568.096"/>
<line x1="854.361" y1="568.096" x2="854.860" y2="567.597"/>
<line x1="854.860" y1="567.597" x2="855.858" y2="567.098"/>
<line x1="855.858" y1="567.098" x2="857.853" y2="567.098"/>
<line x1="857.853" y1="567.098" x2="858.851" y2="567.597"/>
<line x1="858.851" y1="567.597" x2="859.350" y2="568.096"/>
<line x1="859.350" y1="568.096" x2="859.849" y2="569.094"/>
<line x1="859.849" y1="569.094" x2="859.849" y2="570.091"/>
<line x1="859.849" y1="570.091" x2="859.350" y2="571.089"/>
<line x1="859.350" y1="571.089" x2="858.352" y2="572.586"/>
<line x1="858.352" y1="572.586" x2="853.363" y2="577.575"/>
<line x1="853.363" y1="577.575" x2="860.348" y2="577.575"/>
<line x1="871.822" y1="576.577" x2="871.323" y2="577.076"/>
<line x1="871.323" y1="577.076" x2="871.822" y2="577.575"/>
<line x1="871.822" y1="577.575" x2="872.321" y2="577.076"/>
<line x1="872.321" y1="577.076" x2="871.822" y2="576.577"/>
<line x1="886.289" y1="567.098" x2="884.792" y2="567.597"/>
<line x1="884.792" y1="567.597" x2="883.795" y2="569.094"/>
<line x1="883.795" y1="569.094" x2="883.296" y2="571.588"/>
<line x1="883.296" y1="571.588" x2="883.296" y2="573.085"/>
<line x1="883.296" y1="573.085" x2="883.795" y2="575.579"/>
<line x1="883.795" y1="575.579" x2="884.792" y2="577.076"/>
<line x1="884.792" y1="577.076" x2="886.289" y2="577.575"/>
<line x1="886.289" y1="577.575" x2="887.287" y2="577.575"/>
<line x1="887.287" y1="577.575" x2="888.784" y2="577.076"/>
<line x1="888.784" y1="577.076" x2="889.781" y2="575.579"/>
<line x1="889.781" y1="575.579" x2="890.280" y2="573.085"/>
<line x1="890.280" y1="573.085" x2="890.280" y2="571.588"/>
<line x1="890.280" y1="571.588" x2="889.781" y2="569.094"/>
<line x1="889.781" y1="569.094" x2="888.784" y2="567.597"/>
<line x1="888.784" y1="567.597" x2="887.287" y2="567.098"/>
<line x1="887.287" y1="567.098" x2="886.289" y2="567.098"/>
<line x1="901.255" y1="567.098" x2="899.759" y2="567.597"/>
<line x1="899.759" y1="567.597" x2="898.761" y2="569.094"/>
<line x1="898.761" y1="569.094" x2="898.262" y2="571.588"/>
<line x1="898.262" y1="571.588" x2="898.262" y2="573.085"/>
<line x1="898.262" y1="573.085" x2="898.761" y2="575.579"/>
<line x1="898.761" y1="575.579" x2="899.759" y2="577.076"/>
<line x1="899.759" y1="577.076" x2="901.255" y2="577.575"/>
<line x1="901.255" y1="577.575" x2="902.253" y2="577.575"/>
<line x1="902.253" y1="577.575" x2="903.750" y2="577.076"/>
<line x1="903.750" y1="577.076" x2="904.747" y2="575.579"/>
<line x1="904.747" y1="575.579" x2="905.246" y2="573.085"/>
<line x1="905.246" y1="573.085" x2="905.246" y2="571.588"/>
<line x1="905.246" y1="571.588" x2="904.747" y2="569.094"/>
<line x1="904.747" y1="569.094" x2="903.750" y2="567.597"/>
<line x1="903.750" y1="567.597" x2="902.253" y2="567.098"/>
<line x1="902.253" y1="567.098" x2="901.255" y2="567.098"/>
</g>
<g transform="matrix(1 0 0 1 0 0)"
style="stroke:rgb(2,2,2);
stroke-width:1.0">
<line x1="858.352" y1="455.867" x2="853.363" y2="462.851"/>
<line x1="853.363" y1="462.851" x2="860.846" y2="462.851"/>
<line x1="858.352" y1="455.867" x2="858.352" y2="466.344"/>
<line x1="871.822" y1="465.346" x2="871.323" y2="465.845"/>
<line x1="871.323" y1="465.845" x2="871.822" y2="466.344"/>
<line x1="871.822" y1="466.344" x2="872.321" y2="465.845"/>
<line x1="872.321" y1="465.845" x2="871.822" y2="465.346"/>
<line x1="886.289" y1="455.867" x2="884.792" y2="456.366"/>
<line x1="884.792" y1="456.366" x2="883.795" y2="457.863"/>
<line x1="883.795" y1="457.863" x2="883.296" y2="460.357"/>
<line x1="883.296" y1="460.357" x2="883.296" y2="461.854"/>
<line x1="883.296" y1="461.854" x2="883.795" y2="464.348"/>
<line x1="883.795" y1="464.348" x2="884.792" y2="465.845"/>
<line x1="884.792" y1="465.845" x2="886.289" y2="466.344"/>
<line x1="886.289" y1="466.344" x2="887.287" y2="466.344"/>
<line x1="887.287" y1="466.344" x2="888.784" y2="465.845"/>
<line x1="888.784" y1="465.845" x2="889.781" y2="464.348"/>
<line x1="889.781" y1="464.348" x2="890.280" y2="461.854"/>
<line x1="890.280" y1="461.854" x2="890.280" y2="460.357"/>
<line x1="890.280" y1="460.357" x2="889.781" y2="457.863"/>
<line x1="889.781" y1="457.863" x2="888.784" y2="456.366"/>
<line x1="888.784" y1="456.366" x2="887.287" y2="455.867"/>
<line x1="887.287" y1="455.867" x2="886.289" y2="455.867"/>
<line x1="901.255" y1="455.867" x2="899.759" y2="456.366"/>
<line x1="899.759" y1="456.366" x2="898.761" y2="457.863"/>
<line x1="898.761" y1="457.863" x2="898.262" y2="460.357"/>
<line x1="898.262" y1="460.357" x2="898.262" y2="461.854"/>
<line x1="898.262" y1="461.854" x2="898.761" y2="464.348"/>
<line x1="898.761" y1="464.348" x2="899.759" y2="465.845"/>
<line x1="899.759" y1="465.845" x2="901.255" y2="466.344"/>
<line x1="901.255" y1="466.344" x2="902.253" y2="466.344"/>
<line x1="902.253" y1="466.344" x2="903.750" y2="465.845"/>
<line x1="903.750" y1="465.845" x2="904.747" y2="464.348"/>
<line x1="904.747" y1="464.348" x2="905.246" y2="461.854"/>
<line x1="905.246" y1="461.854" x2="905.246" y2="460.357"/>
<line x1="905.246" y1="460.357" x2="904.747" y2="457.863"/>
<line x1="904.747" y1="457.863" x2="903.750" y2="456.366"/>
<line x1="903.750" y1="456.366" x2="902.253" y2="455.867"/>
<line x1="902.253" y1="455.867" x2="901.255" y2="455.867"/>
</g>
<g transform="matrix(1 0 0 1 0 0)"
style="stroke:rgb(2,2,2);
stroke-width:1.0">
<line x1="859.849" y1="346.133" x2="859.350" y2="345.135"/>
<line x1="859.350" y1="345.135" x2="857.853" y2="344.636"/>
<line x1="857.853" y1="344.636" x2="856.855" y2="344.636"/>
<line x1="856.855" y1="344.636" x2="855.359" y2="345.135"/>
<line x1="855.359" y1="345.135" x2="854.361" y2="346.631"/>
<line x1="854.361" y1="346.631" x2="853.862" y2="349.126"/>
<line x1="853.862" y1="349.126" x2="853.862" y2="351.620"/>
<line x1="853.862" y1="351.620" x2="854.361" y2="353.616"/>
<line x1="854.361" y1="353.616" x2="855.359" y2="354.613"/>
<line x1="855.359" y1="354.613" x2="856.855" y2="355.112"/>
<line x1="856.855" y1="355.112" x2="857.354" y2="355.112"/>
<line x1="857.354" y1="355.112" x2="858.851" y2="354.613"/>
<line x1="858.851" y1="354.613" x2="859.849" y2="353.616"/>
<line x1="859.849" y1="353.616" x2="860.348" y2="352.119"/>
<line x1="860.348" y1="352.119" x2="860.348" y2="351.620"/>
<line x1="860.348" y1="351.620" x2="859.849" y2="350.124"/>
<line x1="859.849" y1="350.124" x2="858.851" y2="349.126"/>
<line x1="858.851" y1="349.126" x2="857.354" y2="348.627"/>
<line x1="857.354" y1="348.627" x2="856.855" y2="348.627"/>
<line x1="856.855" y1="348.627" x2="855.359" y2="349.126"/>
<line x1="855.359" y1="349.126" x2="854.361" y2="350.124"/>
<line x1="854.361" y1="350.124" x2="853.862" y2="351.620"/>
<line x1="871.822" y1="354.115" x2="871.323" y2="354.613"/>
<line x1="871.323" y1="354.613" x2="871.822" y2="355.112"/>
<line x1="871.822" y1="355.112" x2="872.321" y2="354.613"/>
<line x1="872.321" y1="354.613" x2="871.822" y2="354.115"/>
<line x1="886.289" y1="344.636" x2="884.792" y2="345.135"/>
<line x1="884.792" y1="345.135" x2="883.795" y2="346.631"/>
<line x1="883.795" y1="346.631" x2="883.296" y2="349.126"/>
<line x1="883.296" y1="349.126" x2="883.296" y2="350.622"/>
<line x1="883.296" y1="350.622" x2="883.795" y2="353.117"/>
<line x1="883.795" y1="353.117" x2="884.792" y2="354.613"/>
<line x1="884.792" y1="354.613" x2="886.289" y2="355.112"/>
<line x1="886.289" y1="355.112" x2="887.287" y2="355.112"/>
<line x1="887.287" y1="355.112" x2="888.784" y2="354.613"/>
<line x1="888.784" y1="354.613" x2="889.781" y2="353.117"/>
<line x1="889.781" y1="353.117" x2="890.280" y2="350.622"/>
<line x1="890.280" y1="350.622" x2="890.280" y2="349.126"/>
<line x1="890.280" y1="349.126" x2="889.781" y2="346.631"/>
<line x1="889.781" y1="346.631" x2="888.784" y2="345.135"/>
<line x1="888.784" y1="345.135" x2="887.287" y2="344.636"/>
<line x1="887.287" y1="344.636" x2="886.289" y2="344.636"/>
<line x1="901.255" y1="344.636" x2="899.759" y2="345.135"/>
<line x1="899.759" y1="345.135" x2="898.761" y2="346.631"/>
<line x1="898.761" y1="346.631" x2="898.262" y2="349.126"/>
<line x1="898.262" y1="349.126" x2="898.262" y2="350.622"/>
<line x1="898.262" y1="350.622" x2="898.761" y2="353.117"/>
<line x1="898.761" y1="353.117" x2="899.759" y2="354.613"/>
<line x1="899.759" y1="354.613" x2="901.255" y2="355.112"/>
<line x1="901.255" y1="355.112" x2="902.253" y2="355.112"/>
<line x1="902.253" y1="355.112" x2="903.750" y2="354.613"/>
<line x1="903.750" y1="354.613" x2="904.747" y2="353.117"/>
<line x1="904.747" y1="353.117" x2="905.246" y2="350.622"/>
<line x1="905.246" y1="350.622" x2="905.246" y2="349.126"/>
<line x1="905.246" y1="349.126" x2="904.747" y2="346.631"/>
<line x1="904.747" y1="346.631" x2="903.750" y2="345.135"/>
<line x1="903.750" y1="345.135" x2="902.253" y2="344.636"/>
<line x1="902.253" y1="344.636" x2="901.255" y2="344.636"/>
</g>
<g transform="matrix(1 0 0 1 0 0)"
style="stroke:rgb(2,2,2);
stroke-width:1.0">
<line x1="855.858" y1="233.405" x2="854.361" y2="233.904"/>
<line x1="854.361" y1="233.904" x2="853.862" y2="234.901"/>
<line x1="853.862" y1="234.901" x2="853.862" y2="235.899"/>
<line x1="853.862" y1="235.899" x2="854.361" y2="236.897"/>
<line x1="854.361" y1="236.897" x2="855.359" y2="237.396"/>
<line x1="855.359" y1="237.396" x2="857.354" y2="237.895"/>
<line x1="857.354" y1="237.895" x2="858.851" y2="238.393"/>
<line x1="858.851" y1="238.393" x2="859.849" y2="239.391"/>
<line x1="859.849" y1="239.391" x2="860.348" y2="240.389"/>
<line x1="860.348" y1="240.389" x2="860.348" y2="241.886"/>
<line x1="860.348" y1="241.886" x2="859.849" y2="242.883"/>
<line x1="859.849" y1="242.883" x2="859.350" y2="243.382"/>
<line x1="859.350" y1="243.382" x2="857.853" y2="243.881"/>
<line x1="857.853" y1="243.881" x2="855.858" y2="243.881"/>
<line x1="855.858" y1="243.881" x2="854.361" y2="243.382"/>
<line x1="854.361" y1="243.382" x2="853.862" y2="242.883"/>
<line x1="853.862" y1="242.883" x2="853.363" y2="241.886"/>
<line x1="853.363" y1="241.886" x2="853.363" y2="240.389"/>
<line x1="853.363" y1="240.389" x2="853.862" y2="239.391"/>
<line x1="853.862" y1="239.391" x2="854.860" y2="238.393"/>
<line x1="854.860" y1="238.393" x2="856.357" y2="237.895"/>
<line x1="856.357" y1="237.895" x2="858.352" y2="237.396"/>
<line x1="858.352" y1="237.396" x2="859.350" y2="236.897"/>
<line x1="859.350" y1="236.897" x2="859.849" y2="235.899"/>
<line x1="859.849" y1="235.899" x2="859.849" y2="234.901"/>
<line x1="859.849" y1="234.901" x2="859.350" y2="233.904"/>
<line x1="859.350" y1="233.904" x2="857.853" y2="233.405"/>
<line x1="857.853" y1="233.405" x2="855.858" y2="233.405"/>
<line x1="871.822" y1="242.883" x2="871.323" y2="243.382"/>
<line x1="871.323" y1="243.382" x2="871.822" y2="243.881"/>
<line x1="871.822" y1="243.881" x2="872.321" y2="243.382"/>
<line x1="872.321" y1="243.382" x2="871.822" y2="242.883"/>
<line x1="886.289" y1="233.405" x2="884.792" y2="233.904"/>
<line x1="884.792" y1="233.904" x2="883.795" y2="235.400"/>
<line x1="883.795" y1="235.400" x2="883.296" y2="237.895"/>
<line x1="883.296" y1="237.895" x2="883.296" y2="239.391"/>
<line x1="883.296" y1="239.391" x2="883.795" y2="241.886"/>
<line x1="883.795" y1="241.886" x2="884.792" y2="243.382"/>
<line x1="884.792" y1="243.382" x2="886.289" y2="243.881"/>
<line x1="886.289" y1="243.881" x2="887.287" y2="243.881"/>
<line x1="887.287" y1="243.881" x2="888.784" y2="243.382"/>
<line x1="888.784" y1="243.382" x2="889.781" y2="241.886"/>
<line x1="889.781" y1="241.886" x2="890.280" y2="239.391"/>
<line x1="890.280" y1="239.391" x2="890.280" y2="237.895"/>
<line x1="890.280" y1="237.895" x2="889.781" y2="235.400"/>
<line x1="889.781" y1="235.400" x2="888.784" y2="233.904"/>
<line x1="888.784" y1="233.904" x2="887.287" y2="233.405"/>
<line x1="887.287" y1="233.405" x2="886.289" y2="233.405"/>
<line x1="901.255" y1="233.405" x2="899.759" y2="233.904"/>
<line x1="899.759" y1="233.904" x2="898.761" y2="235.400"/>
<line x1="898.761" y1="235.400" x2="898.262" y2="237.895"/>
<line x1="898.262" y1="237.895" x2="898.262" y2="239.391"/>
<line x1="898.262" y1="239.391" x2="898.761" y2="241.886"/>
<line x1="898.761" y1="241.886" x2="899.759" y2="243.382"/>
<line x1="899.759" y1="243.382" x2="901.255" y2="243.881"/>
<line x1="901.255" y1="243.881" x2="902.253" y2="243.881"/>
<line x1="902.253" y1="243.881" x2="903.750" y2="243.382"/>
<line x1="903.750" y1="243.382" x2="904.747" y2="241.886"/>
<line x1="904.747" y1="241.886" x2="905.246" y2="239.391"/>
<line x1="905.246" y1="239.391" x2="905.246" y2="237.895"/>
<line x1="905.246" y1="237.895" x2="904.747" y2="235.400"/>
<line x1="904.747" y1="235.400" x2="903.750" y2="233.904"/>
<line x1="903.750" y1="233.904" x2="902.253" y2="233.405"/>
<line x1="902.253" y1="233.405" x2="901.255" y2="233.405"/>
</g>
<g transform="matrix(1 0 0 1 0 0)"
style="stroke:rgb(2,2,2);
stroke-width:1.0">
<line x1="839.894" y1="124.169" x2="840.891" y2="123.670"/>
<line x1="840.891" y1="123.670" x2="842.388" y2="122.174"/>
<line x1="842.388" y1="122.174" x2="842.388" y2="132.650"/>
<line x1="856.357" y1="122.174" x2="854.860" y2="122.672"/>
<line x1="854.860" y1="122.672" x2="853.862" y2="124.169"/>
<line x1="853.862" y1="124.169" x2="853.363" y2="126.664"/>
<line x1="853.363" y1="126.664" x2="853.363" y2="128.160"/>
<line x1="853.363" y1="128.160" x2="853.862" y2="130.655"/>
<line x1="853.862" y1="130.655" x2="854.860" y2="132.151"/>
<line x1="854.860" y1="132.151" x2="856.357" y2="132.650"/>
<line x1="856.357" y1="132.650" x2="857.354" y2="132.650"/>
<line x1="857.354" y1="132.650" x2="858.851" y2="132.151"/>
<line x1="858.851" y1="132.151" x2="859.849" y2="130.655"/>
<line x1="859.849" y1="130.655" x2="860.348" y2="128.160"/>
<line x1="860.348" y1="128.160" x2="860.348" y2="126.664"/>
<line x1="860.348" y1="126.664" x2="859.849" y2="124.169"/>
<line x1="859.849" y1="124.169" x2="858.851" y2="122.672"/>
<line x1="858.851" y1="122.672" x2="857.354" y2="122.174"/>
<line x1="857.354" y1="122.174" x2="856.357" y2="122.174"/>
<line x1="871.822" y1="131.652" x2="871.323" y2="132.151"/>
<line x1="871.323" y1="132.151" x2="871.822" y2="132.650"/>
<line x1="871.822" y1="132.650" x2="872.321" y2="132.151"/>
<line x1="872.321" y1="132.151" x2="871.822" y2="131.652"/>
<line x1="886.289" y1="122.174" x2="884.792" y2="122.672"/>
<line x1="884.792" y1="122.672" x2="883.795" y2="124.169"/>
<line x1="883.795" y1="124.169" x2="883.296" y2="126.664"/>
<line x1="883.296" y1="126.664" x2="883.296" y2="128.160"/>
<line x1="883.296" y1="128.160" x2="883.795" y2="130.655"/>
<line x1="883.795" y1="130.655" x2="884.792" y2="132.151"/>
<line x1="884.792" y1="132.151" x2="886.289" y2="132.650"/>
<line x1="886.289" y1="132.650" x2="887.287" y2="132.650"/>
<line x1="887.287" y1="132.650" x2="888.784" y2="132.151"/>
<line x1="888.784" y1="132.151" x2="889.781" y2="130.655"/>
<line x1="889.781" y1="130.655" x2="890.280" y2="128.160"/>
<line x1="890.280" y1="128.160" x2="890.280" y2="126.664"/>
<line x1="890.280" y1="126.664" x2="889.781" y2="124.169"/>
<line x1="889.781" y1="124.169" x2="888.784" y2="122.672"/>
<line x1="888.784" y1="122.672" x2="887.287" y2="122.174"/>
<line x1="887.287" y1="122.174" x2="886.289" y2="122.174"/>
<line x1="901.255" y1="122.174" x2="899.759" y2="122.672"/>
<line x1="899.759" y1="122.672" x2="898.761" y2="124.169"/>
<line x1="898.761" y1="124.169" x2="898.262" y2="126.664"/>
<line x1="898.262" y1="126.664" x2="898.262" y2="128.160"/>
<line x1="898.262" y1="128.160" x2="898.761" y2="130.655"/>
<line x1="898.761" y1="130.655" x2="899.759" y2="132.151"/>
<line x1="899.759" y1="132.151" x2="901.255" y2="132.650"/>
<line x1="901.255" y1="132.650" x2="902.253" y2="132.650"/>
<line x1="902.253" y1="132.650" x2="903.750" y2="132.151"/>
<line x1="903.750" y1="132.151" x2="904.747" y2="130.655"/>
<line x1="904.747" y1="130.655" x2="905.246" y2="128.160"/>
<line x1="905.246" y1="128.160" x2="905.246" y2="126.664"/>
<line x1="905.246" y1="126.664" x2="904.747" y2="124.169"/>
<line x1="904.747" y1="124.169" x2="903.750" y2="122.672"/>
<line x1="903.750" y1="122.672" x2="902.253" y2="122.174"/>
<line x1="902.253" y1="122.174" x2="901.255" y2="122.174"/>
</g>
<g transform="matrix(1 0 0 1 0 0)"
style="stroke:rgb(2,2,2);
stroke-width:1.0">
<line x1="949.462" y1="176.403" x2="940.833" y2="168.313"/>
<line x1="940.833" y1="176.403" x2="949.462" y2="168.313"/>
</g>
<g transform="matrix(1 0 0 1 0 0)"
style="stroke:rgb(2,2,2);
stroke-width:1.0">
<line x1="937.058" y1="162.381" x2="936.518" y2="161.302"/>
<line x1="936.518" y1="161.302" x2="934.900" y2="159.684"/>
<line x1="934.900" y1="159.684" x2="946.226" y2="159.684"/>
<line x1="934.900" y1="144.583" x2="935.440" y2="146.201"/>
<line x1="935.440" y1="146.201" x2="937.058" y2="147.280"/>
<line x1="937.058" y1="147.280" x2="939.754" y2="147.819"/>
<line x1="939.754" y1="147.819" x2="941.372" y2="147.819"/>
<line x1="941.372" y1="147.819" x2="944.069" y2="147.280"/>
<line x1="944.069" y1="147.280" x2="945.687" y2="146.201"/>
<line x1="945.687" y1="146.201" x2="946.226" y2="144.583"/>
<line x1="946.226" y1="144.583" x2="946.226" y2="143.504"/>
<line x1="946.226" y1="143.504" x2="945.687" y2="141.886"/>
<line x1="945.687" y1="141.886" x2="944.069" y2="140.808"/>
<line x1="944.069" y1="140.808" x2="941.372" y2="140.268"/>
<line x1="941.372" y1="140.268" x2="939.754" y2="140.268"/>
<line x1="939.754" y1="140.268" x2="937.058" y2="140.808"/>
<line x1="937.058" y1="140.808" x2="935.440" y2="141.886"/>
<line x1="935.440" y1="141.886" x2="934.900" y2="143.504"/>
<line x1="934.900" y1="143.504" x2="934.900" y2="144.583"/>
<line x1="934.361" y1="121.069" x2="934.145" y2="121.069"/>
<line x1="934.145" y1="121.069" x2="933.714" y2="120.853"/>
<line x1="933.714" y1="120.853" x2="933.498" y2="120.637"/>
<line x1="933.498" y1="120.637" x2="933.282" y2="120.206"/>
<line x1="933.282" y1="120.206" x2="933.282" y2="119.343"/>
<line x1="933.282" y1="119.343" x2="933.498" y2="118.911"/>
<line x1="933.498" y1="118.911" x2="933.714" y2="118.695"/>
<line x1="933.714" y1="118.695" x2="934.145" y2="118.480"/>
<line x1="934.145" y1="118.480" x2="934.577" y2="118.480"/>
<line x1="934.577" y1="118.480" x2="935.008" y2="118.695"/>
<line x1="935.008" y1="118.695" x2="935.655" y2="119.127"/>
<line x1="935.655" y1="119.127" x2="937.813" y2="121.284"/>
<line x1="937.813" y1="121.284" x2="937.813" y2="118.264"/>
</g>
<g transform="matrix(1 0 0 1 0 0)"
style="stroke:rgb(2,2,2);
stroke-width:1.0">
<line x1="0.250" y1="799.000" x2="959.050" y2="799.000"/>
<line x1="959.050" y1="799.000" x2="959.050" y2="0.799"/>
<line x1="959.050" y1="0.799" x2="0.250" y2="0.799"/>
<line x1="0.250" y1="0.799" x2="0.250" y2="799.000"/>
</g>
<g transform="matrix(1 0 0 1 0 0)"
style="stroke:rgb(2,2,2);
stroke-width:1.0">
<line x1="1055.880" y1="27.497" x2="1055.880" y2="56.398"/>
<line x1="1075.147" y1="27.497" x2="1055.880" y2="46.764"/>
<line x1="1062.762" y1="39.883" x2="1075.147" y2="56.398"/>
<line x1="1084.781" y1="27.497" x2="1084.781" y2="56.398"/>
<line x1="1084.781" y1="27.497" x2="1102.672" y2="27.497"/>
<line x1="1084.781" y1="41.260" x2="1095.791" y2="41.260"/>
<line x1="1084.781" y1="56.398" x2="1102.672" y2="56.398"/>
<line x1="1106.800" y1="27.497" x2="1117.810" y2="41.260"/>
<line x1="1117.810" y1="41.260" x2="1117.810" y2="56.398"/>
<line x1="1128.820" y1="27.497" x2="1117.810" y2="41.260"/>
</g>
<g transform="matrix(1 0 0 1 0 0)"
style="stroke:rgb(255,0,0);
stroke-width:1.0">
<line x1="1018.975" y1="87.890" x2="1162.795" y2="87.890"/>
</g>
<g transform="matrix(1 0 0 1 0 0)"
style="stroke:rgb(2,2,2);
stroke-width:1.0">
<line x1="1020.971" y1="90.400" x2="1020.971" y2="100.877"/>
<line x1="1020.971" y1="100.877" x2="1026.957" y2="100.877"/>
<line x1="1031.447" y1="93.893" x2="1030.449" y2="94.391"/>
<line x1="1030.449" y1="94.391" x2="1029.451" y2="95.389"/>
<line x1="1029.451" y1="95.389" x2="1028.953" y2="96.886"/>
<line x1="1028.953" y1="96.886" x2="1028.953" y2="97.884"/>
<line x1="1028.953" y1="97.884" x2="1029.451" y2="99.380"/>
<line x1="1029.451" y1="99.380" x2="1030.449" y2="100.378"/>
<line x1="1030.449" y1="100.378" x2="1031.447" y2="100.877"/>
<line x1="1031.447" y1="100.877" x2="1032.944" y2="100.877"/>
<line x1="1032.944" y1="100.877" x2="1033.941" y2="100.378"/>
<line x1="1033.941" y1="100.378" x2="1034.939" y2="99.380"/>
<line x1="1034.939" y1="99.380" x2="1035.438" y2="97.884"/>
<line x1="1035.438" y1="97.884" x2="1035.438" y2="96.886"/>
<line x1="1035.438" y1="96.886" x2="1034.939" y2="95.389"/>
<line x1="1034.939" y1="95.389" x2="1033.941" y2="94.391"/>
<line x1="1033.941" y1="94.391" x2="1032.944" y2="93.893"/>
<line x1="1032.944" y1="93.893" x2="1031.447" y2="93.893"/>
<line x1="1044.418" y1="93.893" x2="1044.418" y2="101.875"/>
<line x1="1044.418" y1="101.875" x2="1043.919" y2="103.371"/>
<line x1="1043.919" y1="103.371" x2="1043.420" y2="103.870"/>
<line x1="1043.420" y1="103.870" x2="1042.422" y2="104.369"/>
<line x1="1042.422" y1="104.369" x2="1040.926" y2="104.369"/>
<line x1="1040.926" y1="104.369" x2="1039.928" y2="103.870"/>
<line x1="1044.418" y1="95.389" x2="1043.420" y2="94.391"/>
<line x1="1043.420" y1="94.391" x2="1042.422" y2="93.893"/>
<line x1="1042.422" y1="93.893" x2="1040.926" y2="93.893"/>
<line x1="1040.926" y1="93.893" x2="1039.928" y2="94.391"/>
<line x1="1039.928" y1="94.391" x2="1038.930" y2="95.389"/>
<line x1="1038.930" y1="95.389" x2="1038.431" y2="96.886"/>
<line x1="1038.431" y1="96.886" x2="1038.431" y2="97.884"/>
<line x1="1038.431" y1="97.884" x2="1038.930" y2="99.380"/>
<line x1="1038.930" y1="99.380" x2="1039.928" y2="100.378"/>
<line x1="1039.928" y1="100.378" x2="1040.926" y2="100.877"/>
<line x1="1040.926" y1="100.877" x2="1042.422" y2="100.877"/>
<line x1="1042.422" y1="100.877" x2="1043.420" y2="100.378"/>
<line x1="1043.420" y1="100.378" x2="1044.418" y2="99.380"/>
</g>
<g transform="matrix(1 0 0 1 0 0)"
style="stroke:rgb(2,2,2);
stroke-width:1.0">
<line x1="1018.975" y1="127.840" x2="1162.795" y2="127.840"/>
</g>
<g transform="matrix(1 0 0 1 0 0)"
style="stroke:rgb(2,2,2);
stroke-width:1.0">
<line x1="1020.971" y1="130.350" x2="1020.971" y2="140.827"/>
<line x1="1020.971" y1="140.827" x2="1026.957" y2="140.827"/>
<line x1="1028.953" y1="130.350" x2="1029.451" y2="130.849"/>
<line x1="1029.451" y1="130.849" x2="1029.950" y2="130.350"/>
<line x1="1029.950" y1="130.350" x2="1029.451" y2="129.852"/>
<line x1="1029.451" y1="129.852" x2="1028.953" y2="130.350"/>
<line x1="1029.451" y1="133.843" x2="1029.451" y2="140.827"/>
<line x1="1033.442" y1="133.843" x2="1033.442" y2="140.827"/>
<line x1="1033.442" y1="135.838" x2="1034.939" y2="134.341"/>
<line x1="1034.939" y1="134.341" x2="1035.937" y2="133.843"/>
<line x1="1035.937" y1="133.843" x2="1037.433" y2="133.843"/>
<line x1="1037.433" y1="133.843" x2="1038.431" y2="134.341"/>
<line x1="1038.431" y1="134.341" x2="1038.930" y2="135.838"/>
<line x1="1038.930" y1="135.838" x2="1038.930" y2="140.827"/>
<line x1="1042.422" y1="136.836" x2="1048.409" y2="136.836"/>
<line x1="1048.409" y1="136.836" x2="1048.409" y2="135.838"/>
<line x1="1048.409" y1="135.838" x2="1047.910" y2="134.840"/>
<line x1="1047.910" y1="134.840" x2="1047.411" y2="134.341"/>
<line x1="1047.411" y1="134.341" x2="1046.413" y2="133.843"/>
<line x1="1046.413" y1="133.843" x2="1044.917" y2="133.843"/>
<line x1="1044.917" y1="133.843" x2="1043.919" y2="134.341"/>
<line x1="1043.919" y1="134.341" x2="1042.921" y2="135.339"/>
<line x1="1042.921" y1="135.339" x2="1042.422" y2="136.836"/>
<line x1="1042.422" y1="136.836" x2="1042.422" y2="137.833"/>
<line x1="1042.422" y1="137.833" x2="1042.921" y2="139.330"/>
<line x1="1042.921" y1="139.330" x2="1043.919" y2="140.328"/>
<line x1="1043.919" y1="140.328" x2="1044.917" y2="140.827"/>
<line x1="1044.917" y1="140.827" x2="1046.413" y2="140.827"/>
<line x1="1046.413" y1="140.827" x2="1047.411" y2="140.328"/>
<line x1="1047.411" y1="140.328" x2="1048.409" y2="139.330"/>
<line x1="1057.389" y1="133.843" x2="1057.389" y2="140.827"/>
<line x1="1057.389" y1="135.339" x2="1056.391" y2="134.341"/>
<line x1="1056.391" y1="134.341" x2="1055.393" y2="133.843"/>
<line x1="1055.393" y1="133.843" x2="1053.896" y2="133.843"/>
<line x1="1053.896" y1="133.843" x2="1052.899" y2="134.341"/>
<line x1="1052.899" y1="134.341" x2="1051.901" y2="135.339"/>
<line x1="1051.901" y1="135.339" x2="1051.402" y2="136.836"/>
<line x1="1051.402" y1="136.836" x2="1051.402" y2="137.833"/>
<line x1="1051.402" y1="137.833" x2="1051.901" y2="139.330"/>
<line x1="1051.901" y1="139.330" x2="1052.899" y2="140.328"/>
<line x1="1052.899" y1="140.328" x2="1053.896" y2="140.827"/>
<line x1="1053.896" y1="140.827" x2="1055.393" y2="140.827"/>
<line x1="1055.393" y1="140.827" x2="1056.391" y2="140.328"/>
<line x1="1056.391" y1="140.328" x2="1057.389" y2="139.330"/>
<line x1="1061.380" y1="133.843" x2="1061.380" y2="140.827"/>
<line x1="1061.380" y1="136.836" x2="1061.878" y2="135.339"/>
<line x1="1061.878" y1="135.339" x2="1062.876" y2="134.341"/>
<line x1="1062.876" y1="134.341" x2="1063.874" y2="133.843"/>
<line x1="1063.874" y1="133.843" x2="1065.370" y2="133.843"/>
</g>
<g transform="matrix(1 0 0 1 0 0)"
style="stroke:rgb(2,2,2);
stroke-width:1.0">
<line x1="983.020" y1="799.000" x2="1197.552" y2="799.000"/>
<line x1="1197.552" y1="799.000" x2="1197.552" y2="0.799"/>
<line x1="1197.552" y1="0.799" x2="983.020" y2="0.799"/>
<line x1="983.020" y1="0.799" x2="983.020" y2="799.000"/>
</g>
</svg>
